<svg width="80" height="80" viewBox="0 0 80 80" fill="none" xmlns="http://www.w3.org/2000/svg">
<mask id="mask0_410_7" style="mask-type:alpha" maskUnits="userSpaceOnUse" x="0" y="0" width="80" height="80">
<rect width="80" height="80" fill="#C4C4C4"/>
</mask>
<g mask="url(#mask0_410_7)">
<path d="M60.2266 59.2958C59.9217 58.9767 59.5733 58.6575 59.2684 58.3783C58.9635 58.099 58.615 57.8198 58.3101 57.5405C58.0052 57.2613 57.6568 56.982 57.3083 56.7427C57.0905 57.0219 56.9599 57.3012 56.8728 57.6203C56.7856 57.9395 56.7421 58.2187 56.7856 58.5379C56.8728 59.1362 57.0905 59.7346 57.6132 60.2532C58.223 60.8117 58.7021 61.45 59.2248 62.0883L59.6604 62.6069L60.0524 63.1654C60.3137 63.5244 60.5751 63.9234 60.7929 64.3223C61.9689 63.2851 62.1431 61.45 61.0978 60.2931C60.8364 59.9341 60.5315 59.615 60.2266 59.2958Z" fill="white"/>
<path d="M50.5134 43.578C50.4698 43.578 50.4698 43.5381 50.4263 43.5381C50.3827 43.6179 50.3827 43.6578 50.3392 43.7375C50.2085 43.9769 50.1214 44.1764 49.9907 44.4157C50.2956 44.4556 50.6441 44.4955 50.9925 44.4556C51.0796 44.4556 51.1668 44.4556 51.2539 44.4157C51.4281 44.3758 51.6023 44.3359 51.733 44.296C51.733 44.1764 51.733 44.0567 51.733 43.937C51.5152 43.8971 51.2974 43.8572 51.1232 43.7774C50.9054 43.7376 50.6876 43.6578 50.5134 43.578Z" fill="white"/>
<path d="M40.4956 46.0113C40.9312 46.0512 41.3667 46.0113 41.8023 45.8917C42.0201 45.8518 42.2814 45.772 42.4557 45.6523C42.6299 45.5326 42.8041 45.413 42.9348 45.2933C43.5881 44.655 44.1979 44.0167 44.7642 43.3784C45.2868 42.7002 45.8095 42.0221 46.2015 41.3439C45.5482 41.0247 44.8948 40.9849 44.285 41.1045C43.6317 41.1843 43.0655 41.5035 42.5428 42.062C42.1072 42.6604 41.4539 43.179 40.757 43.6577C39.9729 44.1763 39.1454 44.6151 38.1436 44.9342C38.7098 45.5725 39.5809 45.9715 40.4956 46.0113Z" fill="white"/>
<path d="M35.8351 44.0568C36.2271 44.1366 36.6191 44.1765 36.8804 44.1366C37.8387 43.977 38.7098 43.618 39.4503 43.2191C40.2779 42.7802 40.9748 42.3015 41.6281 41.743C41.149 41.3042 40.6263 41.025 40.1036 40.9452C39.5374 40.8654 39.0147 40.9452 38.4049 41.2244C38.2743 41.3042 38.1436 41.3441 37.9694 41.4239C37.4031 41.6234 36.6627 41.7031 35.9222 41.5436C35.0075 41.3441 34.0928 40.7457 33.483 39.908C33.3088 40.267 33.2217 40.7058 33.2217 41.1446C33.2652 41.5835 33.3959 42.0622 33.6137 42.4611C34.0928 43.259 34.9639 43.8573 35.8351 44.0568Z" fill="white"/>
<path d="M46.2447 45.8117C46.5932 45.7718 46.8981 45.692 47.203 45.5723C47.5079 45.4527 47.8128 45.2532 48.0741 45.0537C48.2919 44.8543 48.4661 44.6548 48.5968 44.4553C48.8146 44.0963 49.0323 43.7373 49.2501 43.3782C49.3372 43.2187 49.4244 43.0591 49.5115 42.8995C49.2937 42.7001 49.1195 42.4208 48.9452 42.1416C48.771 41.8224 48.6403 41.5033 48.5968 41.0645C48.2483 41.1043 47.9434 41.1043 47.6385 41.0645C47.5514 41.1442 47.5079 41.2639 47.4643 41.3437L47.4207 41.3836L47.1594 41.8224C46.9852 42.1017 46.811 42.4208 46.6367 42.7001C46.4625 42.9793 46.2447 43.2586 46.0269 43.4979C45.5043 44.1761 44.938 44.8942 44.2847 45.4926C44.5896 45.6122 44.8945 45.7718 45.2429 45.8117C45.5478 45.8915 45.8963 45.8516 46.2447 45.8117Z" fill="white"/>
<path d="M60.1392 65.3593C59.9214 65.0003 59.7472 64.6412 59.5294 64.2822C59.3116 63.9232 59.0503 63.604 58.8325 63.245C58.5712 62.8859 58.3098 62.5269 58.0485 62.2078C57.7436 61.8487 57.4823 61.5296 57.1774 61.2104C56.916 61.4498 56.7418 61.6892 56.5676 61.9684C56.4369 62.2477 56.3062 62.5269 56.2627 62.8461C56.2191 63.1253 56.2627 63.4444 56.3062 63.7636C56.3498 64.0827 56.4805 64.362 56.6982 64.6811L56.9596 65.1199C57.308 65.6784 57.6129 66.2768 57.9178 66.8752C58.3098 67.6332 58.5712 68.431 58.8325 69.2688C59.1374 69.1092 59.3987 68.9098 59.6165 68.6704C59.8343 68.431 60.0521 68.1917 60.1828 67.8725C60.4441 67.314 60.5748 66.6758 60.4441 66.0774C60.357 65.8779 60.2699 65.5987 60.1392 65.3593Z" fill="white"/>
<path d="M53.3877 43.1393C53.4748 43.1393 53.5619 43.1393 53.649 43.1792C53.9539 43.2191 54.2588 43.259 54.5201 43.2989C54.5637 43.2989 54.5637 43.2989 54.6073 43.2989C54.6944 43.2989 54.825 43.3388 54.9122 43.3388C55.0864 43.3787 55.3042 43.4186 55.4784 43.4585C56.2189 43.618 56.9593 43.7776 57.6998 44.017C57.7869 43.3787 57.5691 42.7803 57.2207 42.2617L57.1771 42.2218C57.1771 42.1819 57.1335 42.1819 57.1335 42.142C57.09 42.1021 57.0464 42.0223 57.0029 41.9824C56.8286 41.783 56.6544 41.6234 56.4366 41.4638C56.0882 41.2245 55.6962 41.025 55.3042 40.9452C54.3024 40.7059 52.6472 40.666 52.1681 40.7059C51.9503 40.7059 51.7325 40.7059 51.5147 40.7458C51.1227 40.7458 50.7743 40.7856 50.3823 40.8255C50.1209 40.8654 49.8596 40.9053 49.5547 40.9452C49.6418 41.2644 49.7725 41.5835 49.9903 41.8628C50.1209 42.0622 50.2951 42.2617 50.5129 42.4213C50.6 42.501 50.7307 42.5808 50.8614 42.6606C50.9921 42.7404 51.1663 42.8202 51.3405 42.9C51.6454 43.0196 52.0374 43.0595 52.3859 43.0994C52.7343 43.0595 53.0828 43.0994 53.3877 43.1393Z" fill="white"/>
<path d="M57.0907 67.7527C56.8294 66.9947 56.3938 66.2368 56.0018 65.5586C55.392 65.9176 55 66.3963 54.7387 66.915C54.608 67.1942 54.5645 67.4734 54.5645 67.7926C54.5645 68.1117 54.608 68.4309 54.6951 68.75C54.8258 69.1091 54.9565 69.508 55.0436 69.867C55.1307 70.2261 55.1742 70.625 55.2614 71.0239C55.3049 71.4627 55.392 71.9015 55.392 72.3404C55.392 72.7792 55.392 73.218 55.392 73.6967C55.784 73.6169 56.176 73.4175 56.5245 73.218C56.873 73.0185 57.1343 72.6994 57.3521 72.3803C57.5699 72.0611 57.7441 71.7021 57.8312 71.343C57.9183 70.984 57.9183 70.5851 57.8312 70.2261C57.7005 69.3484 57.3956 68.5107 57.0907 67.7527Z" fill="white"/>
<path d="M34.0056 36.7963C33.962 37.0756 33.9185 37.3149 33.9185 37.5543C33.9185 37.7936 34.0056 38.033 34.0491 38.2325C34.2234 38.6713 34.4411 39.0702 34.7025 39.4292C35.0074 39.8282 35.3558 40.1473 35.7914 40.3867C36.3141 40.6659 36.8803 40.7856 37.403 40.7457C37.8821 40.7457 38.2741 40.3867 38.3177 39.9478C38.3177 39.7883 38.2741 39.7085 38.0999 39.5489C37.8821 39.3494 37.6643 39.15 37.4901 38.9904C37.011 38.5117 36.7061 37.7936 36.7496 36.9958C36.7932 36.1181 37.2288 35.1607 37.8821 34.323C36.9674 34.1634 35.7043 34.5224 34.8767 35.4001C34.4411 35.7591 34.1362 36.2777 34.0056 36.7963Z" fill="white"/>
<path d="M61.5764 16.6103C62.4475 17.0092 63.2315 17.4879 64.0156 18.0065C64.3205 17.3283 64.3205 16.5305 64.0156 15.8523C63.8849 15.4933 63.6671 15.1741 63.4058 14.8949C63.1444 14.6156 62.796 14.3763 62.4475 14.2167C62.012 14.0172 61.5764 13.8577 61.1844 13.6981C60.7488 13.5385 60.3132 13.379 59.8777 13.2593C59.0065 13.0199 58.179 12.7806 57.3078 12.6609C57.1772 13.9375 57.8305 15.0943 59.2679 15.613C60.0519 15.8523 60.7924 16.2113 61.5764 16.6103Z" fill="white"/>
<path d="M51.8202 7.99326C52.0815 8.15283 52.3864 8.23261 52.7349 8.27251C53.0833 8.3124 53.3882 8.35229 53.7802 8.3124C54.6078 8.23261 55.4789 8.15283 56.3501 8.19272C57.2648 8.23261 58.3101 8.27251 59.2684 8.43208C59.1377 6.91615 57.5697 5.63958 55.9145 5.71937L55.2176 5.75926C54.9998 5.75926 54.7385 5.79915 54.5207 5.83905C54.0416 5.87894 53.606 5.95873 53.1704 6.03851C52.2993 6.15819 51.4282 6.39755 50.6006 6.6768C50.7313 6.99594 50.9055 7.2353 51.1233 7.43476C51.2975 7.63422 51.5153 7.83369 51.8202 7.99326Z" fill="white"/>
<path d="M59.661 12.1423C60.5321 12.3816 61.4032 12.6609 62.2744 12.98C62.3615 12.3816 62.2308 11.7434 61.9259 11.1849C61.621 10.6264 61.0984 10.1875 60.5321 9.8684C60.2708 9.74872 60.053 9.62904 59.7481 9.58915C58.8334 9.42958 57.9623 9.3099 57.1347 9.23011C56.1764 9.19022 55.2618 9.19022 54.3906 9.23011C54.4777 9.90829 54.7391 10.4269 55.2182 10.8258C55.6538 11.2646 56.2636 11.5439 57.0476 11.6237L57.5703 11.7035C58.2236 11.8231 58.9205 11.9428 59.661 12.1423Z" fill="white"/>
<path d="M39.1451 38.5514C39.4065 38.3918 39.7985 37.9929 40.1905 37.4743C40.2776 37.3546 40.3647 37.195 40.4954 37.0753C40.8874 36.5567 41.4101 36.1179 41.9763 35.6791C42.6732 35.1605 43.5008 34.6818 44.3284 34.243C43.3701 33.3254 41.6278 33.0861 40.2776 33.7642C40.0162 33.8839 39.7113 34.0834 39.5371 34.2828C38.8838 34.9211 38.3175 35.6791 38.0562 36.3972C37.7949 37.0355 37.7949 37.7136 37.9691 38.2322C38.0562 38.4716 38.274 38.5913 38.5353 38.6312C38.7531 38.7109 38.9273 38.6711 39.1451 38.5514Z" fill="white"/>
<path d="M44.6331 38.0726C45.3735 37.7136 46.114 37.3545 46.9416 37.0753C47.8127 36.7561 48.771 36.5168 49.7292 36.3173C48.9887 34.961 46.9851 34.2828 45.4606 34.9211C44.5895 35.2801 43.7619 35.7189 43.0215 36.1976C42.281 36.6763 41.6277 37.195 41.105 37.7535C41.5841 38.1524 42.1068 38.3917 42.7166 38.4715C43.3264 38.5114 43.9797 38.3917 44.6331 38.0726Z" fill="white"/>
<path d="M51.7765 39.6684C52.1685 39.6684 52.5605 39.6285 52.9525 39.6684C53.4316 39.6684 53.9107 39.7083 54.3899 39.7481V39.7083C54.3463 39.5886 54.3463 39.429 54.3027 39.3093C54.2592 39.1498 54.1721 39.0301 54.085 38.9104C53.9107 38.6311 53.693 38.3918 53.4316 38.1524C53.3009 38.0328 53.1703 37.953 53.0396 37.8333C52.9089 37.7535 52.7347 37.6737 52.5605 37.5939C52.3863 37.5142 52.212 37.4743 52.0378 37.3945C51.9942 37.3945 51.9507 37.3945 51.9071 37.3546H51.8636C51.7765 37.3147 51.6893 37.3147 51.6022 37.2748C51.2973 37.2349 51.036 37.2349 50.7311 37.2748C49.8164 37.3945 48.9453 37.5939 48.1177 37.8333C47.203 38.0726 46.3754 38.3918 45.5479 38.7508C45.8092 39.1498 46.1576 39.5088 46.5497 39.7481C46.7674 39.8678 46.9852 39.9476 47.203 40.0274C47.2466 40.0274 47.2466 40.0274 47.2901 40.0673C47.7692 40.187 48.3355 40.2269 48.9453 40.1072H48.9888C49.1631 40.0673 49.3373 40.0274 49.5115 39.9875L49.468 40.0274C49.468 39.9875 49.5115 39.9875 49.5115 39.9875C49.7293 39.9476 49.9906 39.9077 50.2084 39.8678C50.644 39.7481 51.7329 39.6684 51.7765 39.6684Z" fill="white"/>
<path d="M54.4337 37.5538C54.4337 37.474 54.4337 37.3942 54.4337 37.3145C54.3466 37.3145 54.2595 37.3543 54.2159 37.3543C54.2159 37.3543 54.2159 37.3543 54.1724 37.3543C54.2595 37.4341 54.3466 37.5139 54.4337 37.6336C54.4337 37.5937 54.4337 37.5937 54.4337 37.5538Z" fill="white"/>
<path d="M64.4953 19.8019C64.3211 19.6025 64.1469 19.403 63.9291 19.2434C63.2322 18.7248 62.4481 18.286 61.7512 17.8472C60.9672 17.3685 60.0961 17.0094 59.3121 16.6504C59.0507 17.2887 59.0943 17.8871 59.2685 18.4456C59.3556 18.7248 59.5299 19.0041 59.7476 19.2434C59.9654 19.4828 60.1832 19.7221 60.5317 19.9216L60.9672 20.2008C61.2721 20.4003 61.5335 20.5998 61.8384 20.7992C62.0997 20.9987 62.4046 21.1982 62.6659 21.4375C63.3193 21.996 64.0597 22.5545 64.6695 23.1928C65.0615 22.6742 65.1922 22.0758 65.1922 21.4774C65.1922 21.1583 65.1487 20.879 65.018 20.5998C64.8438 20.3205 64.6695 20.0413 64.4953 19.8019Z" fill="white"/>
<path d="M52.8659 44.9343V44.9742C52.953 45.2534 53.1273 45.5327 53.3015 45.772C53.6499 46.2906 54.2597 46.6497 54.9566 46.8491L55.4793 47.0087C56.1327 47.2082 56.8296 47.4475 57.4829 47.7268C58.3105 48.0459 59.1816 48.4448 59.9657 48.8438C60.1834 48.2454 60.0963 47.647 59.8785 47.0885C59.6608 46.53 59.2687 46.0114 58.7461 45.6524C58.5283 45.4928 58.2669 45.3731 58.0056 45.2534C57.1345 44.9742 56.3069 44.7348 55.4793 44.4955C55.0438 44.4157 54.6082 44.296 54.2162 44.2561C54.1291 44.2561 53.9984 44.2162 53.9113 44.2162C53.8677 44.2162 53.8242 44.2162 53.7806 44.1763C53.4322 44.1364 53.1273 44.0566 52.7788 44.0566C52.7788 44.296 52.7788 44.5752 52.8224 44.8146C52.8659 44.8545 52.8659 44.8944 52.8659 44.9343Z" fill="white"/>
<path d="M62.3171 22.5546C61.6202 21.9961 60.9669 21.4775 60.27 20.9988C59.878 21.5573 59.7037 22.1956 59.8344 22.794C59.878 23.3923 60.1829 23.9907 60.7491 24.4695C61.3153 25.028 61.8816 25.6263 62.4478 26.2646C63.014 26.9428 63.5367 27.6609 64.103 28.4587C64.6256 27.9401 64.9741 27.2221 65.0176 26.4641C65.0176 25.7061 64.7999 24.9881 64.2772 24.4296C63.5803 23.7514 62.9705 23.153 62.3171 22.5546Z" fill="white"/>
<path d="M61.0541 55.107C60.3572 54.5884 59.7039 54.0698 58.9634 53.5911C58.5714 53.3517 58.1794 53.1124 57.7874 52.873L57.2211 52.514L56.6113 52.1948C56.35 52.7932 56.2193 53.4315 56.4371 54.0299C56.6113 54.6283 56.9598 55.1868 57.6131 55.6256C57.7438 55.7453 57.918 55.8251 58.0487 55.9447C58.5714 56.3437 59.1376 56.7825 59.6603 57.2612C60.3136 57.8197 60.9234 58.458 61.5768 59.0963C61.9252 58.6176 62.143 58.0192 62.143 57.4208C62.143 56.8224 61.9252 56.224 61.6203 55.7054C61.4461 55.5059 61.2719 55.3065 61.0541 55.107Z" fill="white"/>
<path d="M56.6987 51.1575C57.4391 51.5165 58.1796 51.9155 58.92 52.3543C59.7041 52.833 60.4881 53.3516 61.2721 53.9101C61.6206 53.2319 61.6641 52.4739 61.4463 51.7958C61.185 51.1176 60.7059 50.4793 60.0525 50.0804C59.2249 49.6416 58.4409 49.2426 57.6133 48.8836C56.7858 48.5246 56.0017 48.2054 55.1742 47.9661C54.9999 48.6043 55.0435 49.2426 55.3484 49.8011C55.5226 50.3596 56.0453 50.8383 56.6987 51.1575Z" fill="white"/>
<path d="M58.0054 36.3574C57.8311 35.5196 57.6134 34.6819 57.352 33.884C56.6551 34.1234 56.176 34.5223 55.8275 35.001C55.6533 35.2404 55.5226 35.5196 55.4791 35.8388C55.4355 36.1579 55.392 36.4771 55.4355 36.7962L55.4791 37.2749C55.5226 37.5941 55.5226 37.9132 55.5226 38.2722C55.5226 38.352 55.5226 38.4717 55.5226 38.5515C55.5226 38.7908 55.5226 39.0302 55.5226 39.2696C55.5226 39.3095 55.5226 39.3892 55.5226 39.469C55.5662 39.5887 55.5662 39.7483 55.6097 39.9078C56.1324 40.0275 56.6116 40.2669 57.0471 40.5461C57.1778 40.6259 57.3085 40.7456 57.4391 40.8254C57.4827 40.7855 57.4827 40.7456 57.5262 40.7456C57.8311 40.4264 58.0925 40.0275 58.1796 39.5887C58.2667 39.3493 58.3103 39.0701 58.3103 38.7908C58.2231 37.9531 58.0925 37.1153 58.0054 36.3574Z" fill="white"/>
<path d="M63.4057 29.5356C62.9702 28.8175 62.5346 28.1394 62.0119 27.4612C61.4457 26.7431 60.923 26.1048 60.2697 25.4666C59.3114 26.424 59.1372 27.7404 59.9648 28.9372L60.2697 29.376C60.6181 29.9345 60.9666 30.493 61.2715 31.0914C61.707 31.8494 62.0119 32.6074 62.3168 33.4451C62.5782 33.2855 62.8395 33.0861 63.0573 32.8467C63.2751 32.6074 63.4493 32.3281 63.5364 32.0489C63.7542 31.4904 63.8413 30.8521 63.7106 30.2537C63.6235 30.0143 63.5364 29.775 63.4057 29.5356Z" fill="white"/>
<path d="M60.4876 32.0089C60.1827 31.251 59.7036 30.5329 59.3116 29.8547C58.7018 30.2138 58.3533 30.7324 58.1356 31.2909C58.0484 31.5701 58.0049 31.8893 58.0049 32.2084C58.0049 32.5276 58.0484 32.8467 58.1791 33.1658C58.3098 33.5249 58.4404 33.8839 58.5711 34.2828C58.7018 34.6818 58.7889 35.0408 58.876 35.4397C58.9631 35.8785 59.0502 36.2775 59.1374 36.7562C59.2245 37.195 59.268 37.6338 59.3116 38.0726C59.7036 37.953 60.0956 37.7535 60.3569 37.5141C60.6618 37.2748 60.9232 36.9557 61.0974 36.6365C61.533 35.9982 61.5765 35.1605 61.3587 34.4823C61.1845 33.6047 60.8361 32.7669 60.4876 32.0089Z" fill="white"/>
<path d="M27.6897 4.40332C26.8621 4.44321 26.0781 4.80225 25.5119 5.36075C24.9456 5.91925 24.5972 6.63732 24.5972 7.39528C24.5972 7.8341 24.6407 8.27292 24.6407 8.67185C24.7278 9.15056 24.7714 9.54949 24.8585 9.94842C24.9892 10.7463 25.207 11.5441 25.4247 12.3021C26.775 11.8234 27.5155 10.7862 27.3848 9.38992C27.3412 8.99099 27.3412 8.63196 27.3412 8.23303C27.3412 7.8341 27.3412 7.43517 27.3848 7.03624C27.3848 6.1985 27.5155 5.32085 27.6897 4.40332Z" fill="white"/>
<path d="M24.8149 74.5348C25.2505 74.4151 25.7296 74.2954 26.1652 74.1359C26.6008 73.9763 26.9928 73.8566 27.4283 73.6971C27.2541 73.4178 27.0799 73.1386 26.8185 72.9391C26.6008 72.7396 26.2959 72.5801 26.0345 72.4604C25.7732 72.3407 25.4247 72.2609 25.1198 72.221C24.7714 72.1811 24.4665 72.1811 24.0745 72.2609L23.5518 72.3407C22.8549 72.4604 22.158 72.5003 21.4175 72.5402C20.9819 72.5402 20.5028 72.5402 20.0237 72.5402L19.3268 72.5003L18.6299 72.4205C18.717 73.0588 19.0654 73.6173 19.5446 74.096C19.8059 74.3353 20.0673 74.4949 20.3721 74.6545C20.677 74.8141 20.9819 74.9337 21.3304 74.9736C21.6353 75.0135 21.8966 75.0534 22.2015 75.0135L22.8549 74.9337C23.0727 74.8938 23.2904 74.854 23.5082 74.8141C23.9438 74.6944 24.3794 74.6146 24.8149 74.5348Z" fill="white"/>
<path d="M53.8669 69.3884C53.17 69.548 52.6909 69.9469 52.2989 70.3459C52.1247 70.5852 51.994 70.8246 51.9069 71.1437C51.8198 71.423 51.7327 71.7421 51.7327 72.0612V72.54C51.7327 73.2181 51.602 73.8165 51.5149 74.4947C51.4278 74.8936 51.3407 75.3325 51.21 75.7314C51.0793 76.1303 50.9486 76.5292 50.7744 76.9681C51.4713 77.0079 52.1682 76.8484 52.7345 76.4893C53.3007 76.1303 53.8234 75.6915 54.0412 75.0532C54.1283 74.8138 54.2154 74.5346 54.2589 74.2553C54.3896 73.4575 54.3461 72.5799 54.3025 71.8219C54.2154 71.0639 54.0412 70.1863 53.8669 69.3884Z" fill="white"/>
<path d="M46.5497 74.5345C45.8964 74.3351 45.1995 74.2952 44.5897 74.5345C43.9799 74.734 43.4137 75.093 43.0216 75.6914L42.7167 76.1302C42.3247 76.6488 41.8892 77.1675 41.41 77.6861C41.1051 78.0052 40.8003 78.3243 40.4954 78.6435C40.1905 78.9227 39.842 79.2419 39.5371 79.5211C40.626 80.1993 42.1941 80.0397 43.283 79.3616C43.5008 79.202 43.7185 79.0025 43.8928 78.8031C44.1541 78.4839 44.4155 78.1249 44.6768 77.8057C44.9381 77.4866 45.1559 77.1675 45.3737 76.7685C45.8093 76.0505 46.2448 75.3324 46.5497 74.5345Z" fill="white"/>
<path d="M47.6824 74.4549C47.5518 74.8139 47.4211 75.1729 47.2469 75.532L46.9855 76.0905C46.8984 76.25 46.8113 76.4495 46.6806 76.6091C46.4629 77.008 46.2451 77.367 45.9837 77.766C45.7224 78.1649 45.461 78.5638 45.1997 78.9228C45.5917 79.0824 45.9837 79.0824 46.4193 79.0824C46.8113 79.0425 47.2469 78.9627 47.6389 78.8431C48.0309 78.7234 48.3793 78.484 48.6842 78.2048C48.9891 77.9255 49.2069 77.6463 49.3811 77.2872C49.5554 76.8883 49.7296 76.4894 49.8603 76.0506C49.9909 75.6516 50.1216 75.2527 50.2523 74.8538C50.3829 74.4549 50.4265 74.0559 50.5136 73.657C50.5572 73.2581 50.6443 72.8591 50.6443 72.5001C49.2505 72.4602 48.1616 73.1783 47.6824 74.4549Z" fill="white"/>
<path d="M44.4157 1.9295C44.0237 2.16885 43.6752 2.4481 43.3267 2.68746C42.6298 3.20607 41.9765 3.72467 41.3667 4.32306C42.4556 5.16081 43.8494 5.20071 45.1126 4.44274C45.8095 4.00392 46.5499 3.52521 47.2904 3.20607C47.726 3.0066 48.118 2.80714 48.5971 2.60768C49.0327 2.40821 49.5118 2.20875 49.9474 2.08907C49.7296 1.76993 49.4247 1.53057 49.0762 1.33111C48.7278 1.13164 48.3358 0.972071 47.9438 0.892286C47.726 0.852393 47.5517 0.8125 47.334 0.8125C47.1162 0.8125 46.942 0.8125 46.7242 0.852393C46.3322 0.932178 45.9402 1.05186 45.5917 1.25132C45.1997 1.49068 44.8077 1.69014 44.4157 1.9295Z" fill="white"/>
<path d="M35.4865 4.72225C35.6607 4.36322 35.8785 4.04407 36.0963 3.68504C36.3141 3.3659 36.5318 3.00686 36.7496 2.68772C37.2723 1.96965 37.8821 1.25158 38.5354 0.573402C37.795 0.25426 36.9238 0.174474 36.1398 0.413831C35.3558 0.613295 34.6153 1.09201 34.2233 1.77019C34.0056 2.12922 33.7878 2.52815 33.57 2.92708C33.3522 3.326 33.178 3.68504 33.0037 4.08397C32.6553 4.84193 32.4375 5.63979 32.2197 6.39775C33.6135 6.55732 34.8331 5.99882 35.4865 4.72225Z" fill="white"/>
<path d="M31.0872 6.59724L31.1743 6.11852C31.3486 5.52013 31.5228 4.84196 31.7406 4.20367C32.0455 3.40581 32.3939 2.60796 32.8295 1.85C31.5228 1.61064 30.0419 2.20903 29.345 3.28614L29.0401 2.80742L28.8223 2.44839L29.345 3.24624C29.2143 3.4856 29.0836 3.72496 28.9965 3.96431C28.8658 4.36324 28.7787 4.76217 28.6916 5.1611C28.6045 5.56003 28.5609 5.95895 28.5174 6.35788C28.3867 7.19563 28.3867 8.07327 28.3867 8.87113C29.8241 8.79134 30.8259 7.95359 31.0872 6.59724Z" fill="white"/>
<path d="M20.808 71.5425C21.2435 71.5425 21.7226 71.5425 22.1147 71.5425C22.5502 71.5027 22.9858 71.4628 23.4214 71.4229C23.3778 71.1037 23.2471 70.8245 23.0729 70.5851C22.9422 70.3059 22.7244 70.1064 22.5067 69.9069C22.0711 69.508 21.4177 69.2687 20.6773 69.1889C19.8497 69.1091 19.0221 68.9495 18.151 68.75C17.7154 68.6304 17.2363 68.5107 16.8007 68.3511C16.3216 68.1915 15.8861 68.032 15.4505 67.8325C15.4069 68.1916 15.4069 68.5905 15.494 68.9495C15.5812 69.3085 15.7554 69.6676 15.9732 69.9867C16.2345 70.3059 16.4958 70.5851 16.8443 70.8245C17.1928 71.0239 17.5848 71.1835 17.9768 71.2633C18.4559 71.3431 18.935 71.4229 19.3706 71.4628C19.8933 71.5027 20.3288 71.5425 20.808 71.5425Z" fill="white"/>
<path d="M41.1051 76.5294C41.3664 76.2103 41.6278 75.8912 41.8891 75.572C41.5842 75.4125 41.2358 75.2928 40.9309 75.213C40.7567 75.1731 40.5824 75.1731 40.4518 75.1731C40.2775 75.1731 40.1033 75.1731 39.9726 75.1731C39.3193 75.2529 38.6659 75.5321 38.1433 76.0507C37.5335 76.5693 36.9237 77.1278 36.2703 77.6464C35.9219 77.9257 35.5299 78.2448 35.1814 78.4842C34.7894 78.7634 34.4409 79.0028 34.0054 79.2821C34.3103 79.5214 34.6587 79.7209 35.0072 79.8405C35.3556 79.9602 35.7912 80.0001 36.1832 80.0001C36.9672 80.0001 37.7512 79.7608 38.361 79.2422C39.0579 78.6438 39.7113 78.0454 40.3211 77.447C40.5389 77.1677 40.8002 76.8486 41.1051 76.5294Z" fill="white"/>
<path d="M17.759 67.5135C18.1945 67.6731 18.6737 67.7928 19.1092 67.8725C19.5448 67.9922 19.9804 68.072 20.4159 68.1518C20.5902 66.8752 19.9368 65.7981 18.543 65.2396C18.543 65.2396 16.8007 64.4418 16.1474 64.0827C15.3634 63.6439 14.6229 63.1652 13.8824 62.6067C13.3162 63.7237 13.6211 65.1598 14.6229 66.0375C14.8407 66.2369 15.0585 66.3965 15.3198 66.5162C15.7118 66.7156 16.1474 66.8752 16.5394 67.0747C16.9314 67.2343 17.367 67.3938 17.759 67.5135Z" fill="white"/>
<path d="M52.2993 5.12111L52.9962 4.96153C53.214 4.92164 53.4318 4.88175 53.6496 4.84186C54.0851 4.76207 54.5642 4.72218 55.0434 4.68229C54.9127 4.40304 54.7385 4.12379 54.5207 3.88443C54.3029 3.64507 54.0851 3.40572 53.7802 3.24615C53.214 2.927 52.5171 2.72754 51.8637 2.72754C51.5588 2.72754 51.2975 2.76743 50.9926 2.84722C50.1215 3.12647 49.2939 3.36582 48.5099 3.72486C47.6387 4.12379 46.8547 4.52271 46.1143 4.96153C46.5498 5.52003 47.0725 5.87907 47.7259 5.99875C48.3356 6.15832 49.0326 6.15832 49.7295 5.87907C49.9037 5.79928 50.0779 5.75939 50.2521 5.67961C50.9055 5.48014 51.5588 5.28068 52.2993 5.12111Z" fill="white"/>
<path d="M35.3991 76.9282L35.9218 76.4894C36.2703 76.2102 36.6187 75.9309 36.9672 75.6118C35.8347 74.774 34.3102 74.6942 33.0906 75.532L32.6551 75.8112C32.0888 76.1703 31.479 76.5692 30.8692 76.8883C30.4772 77.0878 30.0852 77.2873 29.6932 77.5266L29.0834 77.8458L28.4736 78.125C28.9092 78.6037 29.4754 78.9229 30.1288 79.0824C30.7821 79.2819 31.4355 79.242 32.0888 79.0425C32.3502 78.9628 32.6115 78.883 32.8729 78.7234C33.6133 78.2846 34.3102 77.766 35.0071 77.2873L35.3991 76.9282Z" fill="white"/>
<path d="M32.002 75.0532C31.5228 74.5745 30.9566 74.2155 30.2597 74.0958C29.6064 73.9761 28.9094 74.0559 28.2561 74.375C27.8641 74.5346 27.5156 74.6942 27.0801 74.8538C26.6881 75.0133 26.2525 75.1729 25.8605 75.2926C25.4249 75.4123 24.9458 75.5718 24.4667 75.6915C23.9875 75.8112 23.5084 75.891 23.0293 75.9708C23.2035 76.2899 23.4649 76.6489 23.7698 76.8883C24.0747 77.1276 24.4231 77.3271 24.8151 77.4867C25.5991 77.7659 26.4703 77.7659 27.2107 77.4867C28.0819 77.1276 28.9094 76.7686 29.737 76.3697C30.5646 75.9309 31.3051 75.5319 32.002 75.0532Z" fill="white"/>
<path d="M37.316 3.72499C37.0547 4.08402 36.8369 4.44306 36.6191 4.80209C37.9258 5.3207 39.2325 5.08134 40.2343 4.04413L40.5828 3.6851C41.0619 3.20638 41.5846 2.76756 42.1073 2.28885C42.4557 2.0096 42.8042 1.77024 43.1526 1.49099C43.5011 1.25164 43.8931 0.972387 44.2851 0.73303C43.2833 -0.104719 41.6717 -0.224397 40.4957 0.373995C40.2343 0.493673 40.0166 0.653244 39.7988 0.852708C39.4939 1.13196 39.189 1.4511 38.8841 1.77024C38.5792 2.08938 38.3178 2.40853 38.0565 2.72767C37.8387 3.00692 37.5774 3.36595 37.316 3.72499Z" fill="white"/>
</g>
</svg>
