<svg width="80" height="80" viewBox="0 0 80 80" fill="none" xmlns="http://www.w3.org/2000/svg">
<mask id="mask0_410_6" style="mask-type:alpha" maskUnits="userSpaceOnUse" x="0" y="0" width="80" height="80">
<rect width="80" height="80" fill="#C4C4C4"/>
</mask>
<g mask="url(#mask0_410_6)">
<path d="M41.4918 3.49885C41.1434 3.78038 40.8385 4.10213 40.5771 4.42387C41.7532 5.18802 43.1905 5.18802 44.4101 4.34344L44.8457 4.02169C45.4119 3.61951 46.0217 3.25754 46.6315 2.89558C47.4155 2.45318 48.2431 2.051 49.0707 1.64882C48.1996 0.683578 46.6751 0.321614 45.4119 0.723796L45.4555 0.522705L45.4119 0.723796C45.1506 0.804233 44.8893 0.924887 44.6279 1.08576C43.8875 1.56838 43.1905 2.051 42.4936 2.61405C42.1887 2.89558 41.8403 3.21733 41.4918 3.49885Z" fill="white"/>
<path d="M51.1178 7.48053C51.597 7.80227 52.2939 7.92293 53.0343 7.92293H53.557C54.2975 7.88271 54.9508 7.96315 55.6913 8.04358L56.3882 8.12402C56.606 8.16424 56.8237 8.20446 57.0851 8.24467C57.5207 8.32511 57.9998 8.44577 58.4789 8.56642C58.4789 8.24467 58.3918 7.92293 58.3047 7.6414C58.2176 7.31966 58.0433 7.03813 57.8256 6.79682C57.39 6.27398 56.8673 5.83158 56.1704 5.63049C55.8655 5.55005 55.6042 5.46962 55.2993 5.46962C54.8637 5.4294 54.3846 5.4294 53.9055 5.46962C53.4699 5.46962 53.0343 5.50983 52.5988 5.55005C52.1196 5.63049 51.6841 5.71093 51.2485 5.79136C50.8129 5.8718 50.3774 6.03267 49.9854 6.19354C50.116 6.51529 50.2467 6.71638 50.4209 6.95769C50.6387 7.15878 50.8565 7.31966 51.1178 7.48053Z" fill="white"/>
<path d="M45.4556 4.86624C46.4138 5.8717 47.8947 6.15322 49.2886 5.50973C49.637 5.34886 49.9855 5.14777 50.3775 5.02711C50.7695 4.90646 51.1615 4.7858 51.5971 4.70537C52.0762 4.58471 52.5553 4.54449 53.0344 4.50428C53.2958 4.46406 53.5571 4.46406 53.7749 4.42384C54.0362 4.42384 54.254 4.42384 54.5154 4.42384C54.4718 4.22275 54.3847 4.06188 54.254 3.86078C54.1233 3.69991 53.9927 3.53904 53.862 3.37817C53.5571 3.09664 53.2522 2.81511 52.8166 2.61402C52.3811 2.41293 51.9891 2.29227 51.4664 2.25205C50.9873 2.21184 50.5081 2.25205 50.1597 2.41293C49.2886 2.77489 48.461 3.17707 47.677 3.57926C46.9365 3.94122 46.196 4.38362 45.4556 4.86624Z" fill="white"/>
<path d="M41.1866 2.37288C41.535 2.09135 41.8835 1.7696 42.2755 1.48807C42.6239 1.20655 43.016 0.925019 43.408 0.643492C43.1031 0.402182 42.7111 0.241309 42.319 0.120655C41.8835 0.0402182 41.4915 0 41.0559 0C40.6203 0.0402182 40.2283 0.120655 39.8363 0.281528C39.4443 0.442401 39.1394 0.68371 38.8345 0.965238C38.1812 1.64895 37.6149 2.33266 37.0922 3.01637C36.6131 3.70008 36.1776 4.42401 35.8291 5.14793C37.1358 5.59033 38.4861 5.26859 39.4007 4.14248C39.967 3.5392 40.5332 2.97615 41.1866 2.37288Z" fill="white"/>
<path d="M60.7009 11.3013C60.5267 10.9393 60.2653 10.6578 59.9604 10.3763C59.6555 10.1349 59.2635 9.93386 58.8715 9.8132C58.3924 9.65233 57.9568 9.53168 57.5213 9.41102C57.0421 9.29037 56.6066 9.20993 56.171 9.12949C55.2999 8.96862 54.3852 8.88818 53.5576 8.88818C53.5576 9.20993 53.6447 9.53168 53.7754 9.8132C53.9061 10.0947 54.0367 10.3763 54.2545 10.5773C54.4723 10.8187 54.7336 10.9795 54.995 11.1806C55.2563 11.3415 55.6048 11.5024 55.9532 11.5828C56.7808 11.7839 57.5648 12.0252 58.3924 12.347C58.828 12.5078 59.3071 12.6687 59.7427 12.91C60.1782 13.1111 60.6138 13.3122 61.0494 13.5535C61.1365 13.1915 61.18 12.7894 61.1365 12.4274C61.0494 11.985 60.8751 11.623 60.7009 11.3013Z" fill="white"/>
<path d="M62.7478 21.4765C62.7042 21.2755 62.6171 21.1146 62.53 20.9537C62.3558 20.5917 62.138 20.3102 61.8331 20.0287C61.4847 19.7069 61.1362 19.4254 60.8313 19.1439C60.4829 18.8624 60.0908 18.5808 59.7424 18.3395C59.3939 18.0982 59.0019 17.8167 58.6535 17.6156C58.305 17.3743 57.9566 17.133 57.5646 16.9319C56.9112 18.1384 57.2161 19.4656 58.3486 20.4309C59.0019 20.9537 59.6553 21.5168 60.2215 22.0798C60.8749 22.7233 61.4847 23.407 62.138 24.1309C62.6171 23.5277 62.8349 22.8037 62.8349 22.0396C62.8349 21.8385 62.7914 21.6776 62.7478 21.4765Z" fill="white"/>
<path d="M36.6139 1.85017C36.8752 1.48821 37.1801 1.16646 37.485 0.804498C36.2219 0.32188 34.5667 0.683844 33.652 1.60886C33.4343 1.80995 33.26 2.01105 33.1294 2.29257C32.9551 2.69476 32.7374 3.05672 32.6067 3.4589C32.4325 3.86108 32.3018 4.26327 32.1711 4.62523C31.9098 5.46981 31.7356 6.3144 31.6484 7.11876C33.0423 7.15898 34.1312 6.47527 34.6974 5.18829L34.8716 4.74588C35.133 4.14261 35.4814 3.53934 35.8299 2.93606C36.0912 2.5741 36.3526 2.21214 36.6139 1.85017Z" fill="white"/>
<path d="M61.6589 15.323C61.4847 15.1219 61.2669 14.9209 61.0056 14.8002C60.6571 14.5589 60.2216 14.3578 59.8295 14.1567C59.4375 13.9556 59.0455 13.7545 58.6535 13.5937C57.8259 13.1915 56.9112 12.9099 56.0837 12.6284C55.9094 13.2719 56.0401 13.8752 56.2579 14.4382C56.5192 15.0013 57.0419 15.4437 57.6517 15.8057L58.1308 16.047C58.4357 16.2078 58.7406 16.3687 59.0455 16.5698C59.3504 16.7307 59.6553 16.9318 59.9602 17.1329C60.7007 17.6155 61.3976 18.1785 62.138 18.7818C62.7043 17.6959 62.5736 16.2481 61.6589 15.323L62.0074 15.2426L61.6589 15.323Z" fill="white"/>
<path d="M60.5261 30.4052C60.0905 29.6411 59.5678 28.8769 59.0887 28.1932C58.6096 27.4693 58.1305 26.8258 57.5642 26.1421C57.0415 26.6247 56.6931 27.228 56.606 27.8715C56.5189 28.515 56.6931 29.1987 57.0851 29.8019C57.5207 30.4857 57.9127 31.2096 58.3482 31.9335C58.7838 32.7379 59.1758 33.5422 59.5678 34.3466C60.831 33.4618 61.3101 31.7324 60.5261 30.4052Z" fill="white"/>
<path d="M29.3831 3.21736C28.6862 3.69998 28.2506 4.42391 28.1199 5.18806C28.0764 5.63046 28.0328 6.07286 27.9893 6.51526C27.9893 6.95766 27.9893 7.40006 27.9893 7.80224C28.0328 8.64683 28.1635 9.45119 28.3377 10.2153C29.7315 9.85337 30.5591 8.84792 30.6027 7.4805C30.6027 7.11853 30.6462 6.71635 30.6898 6.31417C30.7333 5.91199 30.8204 5.55002 30.9076 5.14784C31.0818 4.30326 31.3867 3.41846 31.7351 2.53365C30.9076 2.45322 30.0364 2.73475 29.3831 3.21736Z" fill="white"/>
<path d="M20.149 19.1039C20.7588 20.0691 22.7188 20.6724 23.5464 20.8735C23.7642 20.9137 23.982 20.793 24.0255 20.5919C24.0691 20.3909 24.0691 20.1898 24.0691 20.0289C24.0691 19.8278 23.982 19.6267 23.8513 19.4658C23.5029 18.9832 22.7188 17.9375 22.414 17.4951C21.9784 16.7712 21.4993 16.0071 21.1073 15.2429C20.5846 15.6451 20.1926 16.1679 20.0619 16.7712C19.6263 18.2191 20.0183 18.943 20.149 19.1039Z" fill="white"/>
<path d="M62.0072 25.981C61.9201 25.7397 61.7894 25.4984 61.6152 25.2973C61.0925 24.6136 60.5698 23.9701 59.9601 23.3668C59.3067 22.6831 58.6969 22.0798 58.0436 21.4766C57.5644 22.0396 57.3467 22.6429 57.3902 23.2864C57.3902 23.4473 57.4338 23.6081 57.4773 23.769C57.5209 23.9299 57.5209 24.0907 57.608 24.2516C57.7387 24.5734 57.9129 24.8549 58.1307 25.1364L58.4791 25.5386C58.9147 26.0614 59.3938 26.6245 59.7858 27.1875C60.2649 27.8713 60.7876 28.5952 61.2668 29.3593C62.0943 28.4745 62.5299 27.1473 62.0072 25.981Z" fill="white"/>
<path d="M27.2925 10.4164C27.1182 9.77293 27.0311 9.12944 26.944 8.44573C26.9005 8.04355 26.8569 7.60114 26.8569 7.15874C26.8569 6.71634 26.8569 6.27394 26.8569 5.83154C25.5066 6.11307 24.4613 7.31962 24.2871 8.56638C24.2435 8.84791 24.2435 9.08922 24.2871 9.37075C24.3742 9.77293 24.4613 10.2153 24.592 10.5773C24.6791 10.9795 24.8097 11.3817 24.9404 11.7436C25.0711 12.1458 25.2453 12.5882 25.4195 12.9904C25.5938 13.3926 25.768 13.7948 25.9422 14.1567C27.2054 13.473 27.7716 12.2262 27.3796 10.899L27.2925 10.4164L27.6845 10.6577L27.2925 10.4164Z" fill="white"/>
<path d="M25.5499 16.9721C25.5935 16.6503 25.6371 16.3286 25.5935 16.0068C25.5499 15.6851 25.4193 15.3633 25.245 15.0416C25.0708 14.6796 24.853 14.3177 24.6788 13.9557C24.5046 13.5937 24.3304 13.2318 24.1997 12.8296C24.0255 12.4274 23.8948 11.985 23.7206 11.5828C23.5899 11.1404 23.4157 10.698 23.3285 10.2556C21.8912 10.9795 21.1507 12.7894 21.8476 14.1568C22.2396 14.9611 22.6316 15.7253 23.0672 16.4894C23.5028 17.2134 23.9819 17.9373 24.461 18.621C25.0273 18.1384 25.4193 17.5753 25.5499 16.9721Z" fill="white"/>
<path d="M23.4159 69.7387C23.9386 69.9398 24.7226 70.0202 25.463 69.8191L27.6409 69.3365L28.12 69.2158L28.2942 69.1756L28.4249 69.1354L29.8187 68.8136L30.777 68.6126C30.7334 68.4919 30.6463 68.3712 30.5592 68.2506C30.3849 67.9691 30.1672 67.7277 29.9058 67.5267C29.8623 67.4864 29.8623 67.4864 29.8187 67.4462C29.7751 67.4462 29.7751 67.406 29.7316 67.406C29.2089 67.044 28.5556 66.8027 27.8587 66.8027C26.5955 66.8027 25.2888 67.2049 24.4612 67.5267C23.5465 67.8484 22.5447 68.5723 22.1963 68.8539C22.327 68.9745 22.6319 69.4571 23.4159 69.7387Z" fill="white"/>
<path d="M31.6919 67.9684C31.6919 67.9283 31.6919 67.8882 31.6919 67.8481H31.6484C31.6484 67.9283 31.6484 67.9283 31.6919 67.9684Z" fill="white"/>
<path d="M19.7569 69.3765C20.2796 69.2559 20.7587 68.8939 21.2378 68.4515C23.3721 66.521 26.0291 66.0384 26.0291 66.0384C25.9855 65.958 25.942 65.8775 25.8548 65.7971C25.7677 65.7167 25.7242 65.6362 25.6371 65.5558C25.55 65.4753 25.4628 65.3949 25.3757 65.3145C25.2886 65.234 25.1579 65.1536 25.0273 65.1134C24.8966 65.0329 24.7659 64.9525 24.6353 64.9123C24.5481 64.8721 24.4175 64.8319 24.2868 64.7916C24.069 64.7112 23.8512 64.671 23.5899 64.6308C23.1108 64.5503 22.6317 64.5905 22.1961 64.671C21.7605 64.7916 21.325 64.9525 21.0201 65.1938C20.628 65.5156 20.2796 65.7971 19.9311 66.1188C19.6262 66.4808 19.3213 66.7623 19.06 67.1243C18.7987 67.4863 18.5809 67.808 18.4067 68.17C18.3195 68.3711 18.2324 68.5319 18.1889 68.6928C18.1018 68.8537 18.0582 69.0548 18.0146 69.2559C18.7551 69.4569 19.2778 69.5374 19.7569 69.3765Z" fill="white"/>
<path d="M31.8223 67.0036L32.737 67.8079C32.737 67.8482 32.737 67.8884 32.737 67.8884C32.737 68.0492 32.737 68.2101 32.737 68.371C32.9983 68.371 33.2596 68.4112 33.521 68.4917C33.8694 68.5721 34.2179 68.6927 34.5663 68.8536C34.9148 69.0145 35.2197 69.2558 35.481 69.4971C35.481 69.4569 35.481 69.3765 35.481 69.296C35.4375 68.4917 35.4375 67.6471 35.3504 66.8427C35.3068 65.9579 35.2197 65.0731 35.1326 64.2285C33.6516 64.5905 32.6498 65.8372 32.6934 67.2851L32.737 67.8079L32.6498 67.7275C32.6498 67.7275 32.0836 67.2047 31.8223 67.0036Z" fill="white"/>
<path d="M14.0077 74.0015C14.8353 74.283 15.6628 74.283 16.4033 74.0819C16.4033 73.5591 16.3597 72.8754 15.5757 72.3928C15.4886 72.3123 15.3579 72.2319 15.2273 72.1515C14.8788 71.9504 14.661 71.7091 14.3997 71.4275C14.269 71.2667 14.1819 71.1058 14.0948 70.9449C14.0077 70.784 13.877 70.583 13.8335 70.3819C13.485 69.5373 13.4415 68.572 13.6157 67.5264C12.701 67.8079 11.8299 68.5318 11.4378 69.5373C11.0458 70.5427 11.1329 71.6688 11.7427 72.3928C12.309 73.1167 13.1366 73.72 14.0077 74.0015Z" fill="white"/>
<path d="M59.0015 36.0355C58.958 35.7942 58.9144 35.5127 58.7837 35.2714C58.4353 34.5073 58.0868 33.7833 57.6948 33.0192C57.3028 32.2148 56.8672 31.4507 56.4317 30.6865C55.2557 31.4909 54.7765 32.979 55.4299 34.3062L55.6477 34.7888C55.9526 35.3921 56.2139 36.0355 56.4752 36.6388C56.8237 37.403 57.1286 38.2073 57.4335 39.0117C58.566 38.4084 59.1758 37.2019 59.0015 36.0355Z" fill="white"/>
<path d="M14.7912 67.4862C14.7476 67.7275 14.7041 67.9286 14.7041 68.1297C14.6605 68.5319 14.6605 68.9743 14.7041 69.3765C14.8347 70.2613 15.1396 71.0254 15.6623 71.5482C16.185 71.3472 16.5334 71.1863 16.7077 70.8645C16.9254 70.5428 17.0997 70.0602 17.1432 69.4167C17.1432 69.2558 17.1868 69.1352 17.2303 68.9743C17.2739 68.8134 17.3175 68.6525 17.3175 68.4917C17.361 68.3308 17.4046 68.2101 17.4917 68.0493C17.6224 67.7275 17.753 67.4058 17.9272 67.1242C18.0144 66.9231 18.145 66.7623 18.2757 66.5612C18.4064 66.3601 18.537 66.1992 18.6677 66.0383C18.9726 65.6764 19.2775 65.3144 19.626 64.9927C18.9726 64.7111 18.145 64.6709 17.361 64.872C16.969 64.9525 16.6205 65.1133 16.2721 65.3546C16.0979 65.4753 15.9672 65.5557 15.793 65.6764C15.6623 65.797 15.5316 65.9579 15.401 66.0786C15.1832 66.3199 15.0525 66.5612 14.9654 66.8829C14.9218 67.0438 14.8347 67.2851 14.7912 67.4862Z" fill="white"/>
<path d="M52.4246 48.0609C53.557 47.538 54.2975 46.4119 54.2539 45.2456C54.2539 45.0043 54.2104 44.7228 54.1233 44.4815C53.8619 43.7173 53.6006 42.913 53.3393 42.1488C53.0344 41.3042 52.7295 40.4999 52.4246 39.6553C51.0743 40.339 50.421 41.7868 50.9001 43.1543C50.9001 43.1543 51.4663 44.9239 51.6841 45.6076C51.9454 46.4119 52.2068 47.2163 52.4246 48.0609Z" fill="white"/>
<path d="M38.4863 60.4077C37.0489 60.8501 36.0471 62.1371 36.2213 63.585C36.3084 64.3893 36.3956 65.1937 36.4391 65.9981C36.5262 66.8829 36.5698 67.7677 36.6133 68.6525C38.1378 68.2905 39.2267 66.9231 39.0961 65.4752C39.009 64.6306 38.9218 63.786 38.8347 62.9415C38.7041 62.0969 38.6169 61.2523 38.4863 60.4077Z" fill="white"/>
<path d="M49.6373 52.4044C51.0747 51.8413 51.9023 50.3533 51.5103 48.9054C51.2925 48.0608 51.0311 47.2565 50.8134 46.4119C50.5956 45.6075 50.3342 44.8031 50.0729 43.9988C48.7226 44.6021 47.9822 46.0499 48.3742 47.4575C48.592 48.2217 48.8098 49.0261 49.0275 49.8304C49.2018 50.675 49.4196 51.5196 49.6373 52.4044Z" fill="white"/>
<path d="M56.6066 39.9367C56.3017 39.1323 55.9968 38.3279 55.6484 37.5236C55.2999 36.7192 54.995 35.9551 54.6466 35.1909C53.3834 35.9148 52.7736 37.4029 53.3399 38.7703C53.6448 39.5345 53.9061 40.2986 54.211 41.0628C54.5159 41.9074 54.8208 42.7519 55.0821 43.5965C56.4324 42.9128 57.1293 41.3443 56.6066 39.9367Z" fill="white"/>
<path d="M46.6319 56.6273C47.8079 56.1849 48.6355 55.1392 48.679 53.9327L48.7226 53.9729L48.679 53.9327C48.679 53.6914 48.679 53.4098 48.6355 53.1685C48.4612 52.3642 48.2435 51.5598 48.0692 50.7956C47.8515 49.9511 47.6337 49.1065 47.4159 48.2217C46.0221 48.7847 45.2381 50.1924 45.5429 51.6402L45.6736 52.1631L46.1092 54.1338C46.327 54.9783 46.5012 55.7827 46.6319 56.6273Z" fill="white"/>
<path d="M39.5756 60.2469C39.6627 60.9306 39.7499 61.5741 39.8805 62.2578C39.9676 63.1024 40.0983 63.947 40.1854 64.7915C41.405 64.4296 42.3197 63.4241 42.4939 62.2578L42.7553 62.4187L42.4939 62.2578C42.5375 62.0165 42.5375 61.735 42.4939 61.4936C42.3633 60.6893 42.2326 59.8849 42.1019 59.0806C41.9712 58.1958 41.797 57.3512 41.6228 56.5066C40.1854 56.9892 39.2707 58.3164 39.4885 59.7643L39.5756 60.2469Z" fill="white"/>
<path d="M43.4958 60.7697C44.9767 60.2871 45.935 58.8392 45.6301 57.3914C45.4558 56.5468 45.3252 55.7022 45.151 54.8576C44.9767 54.013 44.8025 53.2087 44.5847 52.4043C43.1473 52.9271 42.3198 54.2946 42.5811 55.7424C42.7553 56.5468 42.886 57.3511 43.0167 58.1153C43.2345 59.0001 43.3651 59.8849 43.4958 60.7697Z" fill="white"/>
<path d="M20.0184 75.1679C19.4957 74.7657 19.0166 74.5244 18.4939 74.444C17.9713 74.3635 17.4921 74.4842 16.8388 74.7657C16.7081 74.8059 16.5339 74.8864 16.3597 74.9266C15.7499 75.1277 15.053 75.2081 14.3125 75.1277C13.3978 75.007 12.396 74.6049 11.5249 73.9211C11.3506 74.6853 11.5684 75.6103 12.1347 76.3342C12.7009 77.0582 13.5285 77.5408 14.3125 77.7017L14.0512 78.0636L14.3125 77.7017C14.661 77.7419 15.0094 77.7821 15.3143 77.7419C16.3161 77.581 17.1437 77.2593 17.9277 76.8169C18.7553 76.3342 19.4522 75.8114 20.0184 75.1679Z" fill="white"/>
<path d="M60.0909 75.007C59.002 74.5244 57.7824 74.6451 56.8241 75.3288C56.6063 75.4897 56.4321 75.6505 56.2579 75.8516C55.6917 76.4549 55.1254 77.0582 54.5156 77.6212C53.8623 78.2245 53.1218 78.868 52.3813 79.431C53.0347 79.8734 53.8623 80.0343 54.6463 79.9941C55.4303 79.9137 56.2143 79.5919 56.7806 79.0289L57.1726 78.6267C57.6517 78.1038 58.1308 77.581 58.5664 77.0582C59.0891 76.3342 59.6118 75.6908 60.0909 75.007Z" fill="white"/>
<path d="M65.0995 73.8408C64.4026 73.5995 63.6622 73.6397 62.9653 73.8408C62.3119 74.0419 61.7021 74.4843 61.3101 75.0876C60.831 75.7713 60.3519 76.4952 59.7856 77.1789C59.2629 77.8626 58.6967 78.5463 58.0869 79.1898C58.8274 79.5518 59.655 79.592 60.439 79.4311C61.223 79.23 61.9199 78.8279 62.3555 78.1844C62.8346 77.5007 63.3137 76.7767 63.7493 76.093C64.2284 75.3691 64.664 74.6049 65.0995 73.8408Z" fill="white"/>
<path d="M67.4516 72.8754C67.1903 73.0363 66.8854 73.2776 66.5805 73.5592C66.1885 73.9613 65.8836 74.6048 65.5787 75.0874C65.4045 75.369 65.2738 75.6505 65.0996 75.932C64.6205 76.6962 64.1413 77.5005 63.6187 78.2245C65.1431 78.7071 66.929 78.1038 67.6694 76.7766C67.6694 76.7766 67.9308 76.294 67.9308 76.3342C68.4534 75.1679 68.7148 73.72 68.7583 73.0765C68.8019 72.232 67.8001 72.7146 67.4516 72.8754Z" fill="white"/>
<path d="M28.8607 73.4788C28.8607 73.5994 28.8171 73.7603 28.8171 73.8809C28.73 74.5244 28.6429 75.1277 28.5122 75.7712C29.3398 75.731 30.0802 75.369 30.6465 74.8462C30.69 74.806 30.7336 74.7657 30.7772 74.7255C30.3851 74.3636 30.0802 73.9212 29.8625 73.4788C29.5576 73.519 29.2091 73.519 28.8607 73.4788Z" fill="white"/>
<path d="M30.1239 72.393C30.6466 72.2724 31.1693 72.1517 31.6919 72.0311C32.0404 71.9506 32.3453 71.8702 32.6937 71.7898C32.7373 71.7898 32.7809 71.7496 32.8244 71.7496C33.5213 71.5485 34.2182 71.3876 34.8716 71.1865C35.0458 71.1463 35.22 71.1061 35.3943 71.0256C35.3507 70.905 35.2636 70.8245 35.1765 70.7039C34.6538 69.98 33.7827 69.4973 32.8244 69.4169C32.476 69.3767 32.084 69.4169 31.6919 69.4973H31.6484C30.8208 69.6984 29.9932 69.8995 29.1657 70.0604C29.1221 70.0604 29.035 70.1006 28.9914 70.1006L26.378 70.6637H26.3345C26.4651 70.9452 26.6394 71.2267 26.9007 71.4278C27.162 71.7093 27.5105 71.9506 27.9025 72.1517C28.251 72.3126 28.5994 72.393 28.9914 72.4333C29.3399 72.5137 29.7319 72.4735 30.1239 72.393Z" fill="white"/>
<path d="M40.0544 72.9157C39.706 72.4331 39.2268 72.0711 38.7477 71.87C38.225 71.6689 37.6588 71.5483 37.049 71.6287C36.7877 71.6689 36.5263 71.7091 36.265 71.7896C36.0472 71.87 35.7859 71.9505 35.5681 72.0309H35.5245C35.4374 72.0711 35.3939 72.0711 35.3067 72.1113C34.7841 72.2722 34.3049 72.4331 33.7823 72.5537C33.0853 72.7548 32.3449 72.9559 31.6044 73.1168C31.3866 73.157 31.2124 73.1972 30.9946 73.2777C31.0817 73.4787 31.256 73.6798 31.3866 73.8407C31.6044 74.082 31.9093 74.3233 32.2142 74.4842C32.2578 74.4842 32.2578 74.5244 32.3013 74.5244C32.3884 74.5646 32.5191 74.6451 32.6062 74.6853C33.3467 75.007 34.1743 75.0875 35.0018 74.8059L35.5245 74.6451C36.2214 74.444 36.9183 74.1625 37.6152 73.9211C38.4428 73.5994 39.2268 73.2777 40.0544 72.9157Z" fill="white"/>
<path d="M50.0289 75.2884C49.5933 74.8862 49.0707 74.6449 48.5044 74.5243C47.9382 74.4036 47.372 74.4438 46.8057 74.6047C46.5444 74.6851 46.3266 74.7656 46.0653 74.9264C45.3248 75.3286 44.5843 75.771 43.8003 76.1732C42.9727 76.5754 42.1016 77.0178 41.2305 77.3797C42.1887 78.5461 44.1052 78.908 45.499 78.1439C45.6732 78.0635 45.8475 77.983 45.9781 77.8624C46.6315 77.5004 47.2413 77.1384 47.8511 76.7363C48.6351 76.2939 49.332 75.8112 50.0289 75.2884Z" fill="white"/>
<path d="M55.0816 75.5299C54.4718 75.1679 53.7749 74.9668 53.1216 75.007C52.4247 75.007 51.7713 75.2886 51.1615 75.731C50.4646 76.2538 49.7677 76.8168 49.0273 77.2995C48.2868 77.7821 47.5028 78.2647 46.7188 78.7071C47.8512 79.793 49.8113 79.9136 51.118 78.9886C51.8149 78.4658 52.5118 77.943 53.1216 77.3799C53.8185 76.7766 54.4718 76.1734 55.0816 75.5299Z" fill="white"/>
<path d="M45.02 74.3634C44.5409 73.8004 43.9311 73.4786 43.2342 73.3177C42.5373 73.1569 41.7968 73.2373 41.0999 73.559C40.2724 73.921 39.4448 74.283 38.6172 74.6449C37.7896 74.9667 36.9185 75.2884 36.0474 75.57C36.4829 76.2135 37.1798 76.6559 37.9203 76.8569C38.6608 77.058 39.4883 77.0178 40.1852 76.6961C41.0128 76.3341 41.7968 75.9721 42.5809 75.6102C43.4084 75.2482 44.236 74.8058 45.02 74.3634Z" fill="white"/>
<path d="M25.9426 72.071C25.899 72.1113 25.8555 72.1917 25.7684 72.2319C25.4199 72.6341 25.1586 73.1167 25.0279 73.72L24.9408 74.2026C24.8101 74.8461 24.6359 75.4896 24.4181 76.1331C24.1568 76.9375 23.8083 77.7418 23.2856 78.5462C24.0261 78.6668 24.7666 78.5462 25.4199 78.2647C26.0733 77.9831 26.596 77.5407 26.9008 76.9777C27.0315 76.7364 27.1622 76.4951 27.2057 76.2135C27.4235 75.4092 27.5542 74.5646 27.6413 73.7602C27.6413 73.5993 27.6849 73.4385 27.6849 73.2776C27.6849 73.2374 27.6849 73.2374 27.6849 73.1972C27.4235 73.1167 27.2057 72.9961 26.9444 72.8754C26.6395 72.6743 26.2475 72.3928 25.9426 72.071Z" fill="white"/>
<path d="M22.0656 74.2427C21.5429 74.4841 21.1944 74.8862 20.8895 75.4493C20.7153 75.771 20.4975 76.0526 20.2362 76.3743C19.9313 76.6558 19.6264 76.9374 19.278 77.1787C18.5375 77.7417 17.6664 78.2243 16.6646 78.5863C17.9713 79.8733 20.4104 79.9537 21.7607 78.6265C22.4576 77.9026 22.8496 77.0982 23.1981 76.3341C23.5465 75.5699 23.7643 74.7656 23.895 74.0014C23.198 73.8808 22.5883 74.0014 22.0656 74.2427Z" fill="white"/>
<path d="M28.3808 66.0383L28.2939 66.1987C28.2939 66.1987 28.3808 66.0784 28.3808 66.0383Z" fill="white"/>
</g>
</svg>
