<svg width="80" height="80" viewBox="0 0 80 80" fill="none" xmlns="http://www.w3.org/2000/svg">
<mask id="mask0_410_5" style="mask-type:alpha" maskUnits="userSpaceOnUse" x="0" y="0" width="80" height="80">
<rect width="80" height="80" fill="#C4C4C4"/>
</mask>
<g mask="url(#mask0_410_5)">
<path d="M58.3171 3.48842C58.0035 3.41003 57.6899 3.37083 57.4155 3.44923C56.8668 3.56681 56.514 4.11557 56.5924 4.66432C56.6708 4.70351 56.7492 4.78191 56.8276 4.8603C56.906 4.93869 57.0236 5.01708 57.1412 5.13467C57.2196 5.17387 57.2588 5.25226 57.3372 5.33066C57.3763 5.40905 57.4547 5.44825 57.4939 5.52664C57.6115 5.68343 57.6899 5.84021 57.7683 5.997C57.8467 6.15378 57.9251 6.34977 57.9643 6.50655C58.0427 6.70253 58.0819 6.89852 58.1211 7.0945C58.1603 7.25128 58.1995 7.40807 58.1995 7.52566C58.2387 7.80004 58.2779 8.07441 58.2779 8.34879C58.2779 8.58397 58.2779 8.85834 58.2779 9.09352C58.2779 9.3287 58.2387 9.56388 58.1995 9.79906C58.3955 9.75986 58.5914 9.68147 58.7874 9.56388C58.9834 9.48548 59.1402 9.3287 59.3362 9.17191C59.6889 8.89754 59.9633 8.50557 60.1985 8.07441C60.6297 7.21209 60.708 6.11459 60.2769 5.33066C59.8457 4.42914 59.101 3.7236 58.3171 3.48842Z" fill="white"/>
<path d="M56.6318 5.68335C56.2791 5.80094 56.0047 5.95772 55.7695 6.15371C55.6519 6.2713 55.5735 6.34969 55.4952 6.50648C55.3776 6.62407 55.3384 6.74166 55.26 6.89844C55.2208 6.97683 55.1816 7.09442 55.1424 7.21201C55.0248 7.48639 54.9856 7.79996 54.9464 8.11353L54.9072 8.58389C54.868 8.89746 54.8288 9.21103 54.7504 9.52461L54.5152 10.5045C54.2409 11.3276 54.0057 12.1508 53.7705 12.9347C54.0841 12.9739 54.3585 12.9347 54.6328 12.8563C54.9072 12.7779 55.1816 12.6603 55.456 12.5035C55.7303 12.3468 55.9655 12.19 56.1615 11.9548C56.3575 11.7588 56.5927 11.4452 56.7494 11.1709C56.867 10.9357 56.9846 10.7005 57.063 10.3869C57.1414 9.95577 57.2198 9.5638 57.259 9.13264C57.2982 8.70148 57.2982 8.30951 57.259 7.91755C57.1806 7.09442 57.0238 6.31049 56.6318 5.68335Z" fill="white"/>
<path d="M53.1828 8.46647C52.8301 8.54486 52.4773 8.66245 52.2029 8.85843C52.1637 8.89763 52.1245 8.89763 52.0461 8.93682C51.811 9.09361 51.5758 9.28959 51.419 9.52477C51.3798 9.56397 51.3798 9.60317 51.3406 9.64236C51.1446 9.91674 50.9878 10.2303 50.8702 10.5439C50.6743 11.171 50.4391 11.7982 50.2431 12.4645C50.2039 12.5821 50.1647 12.6997 50.1255 12.8173C50.0079 13.1308 49.9295 13.4052 49.8119 13.7188C49.6159 14.2284 49.4592 14.7771 49.2632 15.2867C49.7335 15.365 50.2431 15.2867 50.6743 15.1299C50.9878 15.0123 51.2622 14.8947 51.4974 14.6987L51.5366 14.6595C51.8502 14.4243 52.1245 14.1108 52.3597 13.7188C52.4381 13.562 52.5165 13.4052 52.5949 13.2092C52.6733 12.9741 52.7517 12.7781 52.7909 12.5429V12.5037C52.8693 12.2685 52.9477 12.0333 53.026 11.7982C53.1436 11.4454 53.222 11.0926 53.3396 10.7791C53.3788 10.6223 53.418 10.5047 53.4572 10.3479C53.5356 10.0343 53.614 9.72075 53.6924 9.36799C53.6924 9.28959 53.7316 9.2504 53.7316 9.172C53.81 8.89763 53.8492 8.62325 53.9276 8.34888C53.6532 8.38807 53.418 8.42727 53.1828 8.46647Z" fill="white"/>
<path d="M24.1379 23.9884C23.9419 24.7723 23.7459 25.5563 23.5499 26.3402C23.3932 27.2025 23.1972 28.0256 23.0796 28.8488C24.4515 28.8488 25.6274 27.908 25.9801 26.5362C26.1761 25.713 26.3721 24.9291 26.6073 24.106C26.8425 23.3221 27.0776 22.4989 27.3128 21.715C25.9801 21.6366 24.5299 22.5773 24.1379 23.9884Z" fill="white"/>
<path d="M54.9859 1.1367C54.8683 1.33268 54.7115 1.52866 54.6331 1.72465C54.4371 2.11661 54.3587 2.54777 54.2803 2.93974C54.1628 3.80206 54.2412 4.58599 54.4371 5.36992C54.7115 5.29153 55.3779 5.05635 55.5346 4.97795C55.7306 4.86036 55.9658 4.66438 56.005 4.31161C56.0442 4.11563 56.0834 3.95885 56.1618 3.68447C56.201 3.52768 56.2402 3.41009 56.3186 3.29251C56.4362 3.05733 56.9457 2.2734 58.4352 2.43018C59.1799 2.50858 59.9638 2.93974 60.591 3.60608C60.6302 3.41009 60.6302 3.17492 60.591 2.93974C60.591 2.82215 60.5518 2.70456 60.5518 2.58697C60.5126 2.46938 60.4734 2.35179 60.4342 2.2342C60.3558 1.99902 60.2382 1.72465 60.0422 1.52866C59.8854 1.29348 59.6895 1.05831 59.4935 0.901519C59.2583 0.744733 59.0623 0.548751 58.7879 0.431161C58.5528 0.313572 58.2784 0.235179 58.0432 0.156786C57.7688 0.0391965 57.5337 0 57.2985 0C57.0633 0 56.7889 0 56.5537 0.078393C56.1226 0.156786 55.7698 0.352768 55.4954 0.587947C55.2995 0.744733 55.1427 0.940716 54.9859 1.1367Z" fill="white"/>
<path d="M19.356 26.5361C19.5911 27.8296 20.9238 30.1421 21.1198 30.1813C21.3942 30.2597 21.7469 30.0638 21.9037 29.2406C22.0605 28.4175 22.4133 26.6537 23.0012 24.3411C22.2957 24.3411 21.4726 24.4195 20.8846 24.8114C19.5911 25.6737 19.356 26.5361 19.356 26.5361Z" fill="white"/>
<path d="M28.5675 21.4798L28.3715 21.9502C28.1755 22.5773 27.9795 23.2045 27.7835 23.8708C27.5483 24.6547 27.3132 25.4779 27.1172 26.2618C28.2539 26.3794 29.3122 25.7522 29.9393 24.8115L30.2529 25.3603L30.0961 25.0467L29.9393 24.8115C30.0569 24.6155 30.1745 24.3803 30.2529 24.1452C30.4881 23.4004 30.7233 22.6165 30.9976 21.8718L31.86 19.4024C30.4489 19.2064 28.9986 20.0687 28.5675 21.4798Z" fill="white"/>
<path d="M50.3607 9.28974C50.5175 9.01537 50.7527 8.74099 50.9487 8.54501C50.9487 8.50581 50.9095 8.46662 50.9095 8.42742C50.8311 8.23144 50.7527 8.07465 50.6743 7.87867C50.3607 7.09474 50.0864 6.31081 49.8904 5.44849C48.8321 6.07563 48.2049 7.40831 48.4009 8.6234C48.4401 8.89778 48.4793 9.13296 48.5969 9.36814C48.6361 9.44653 48.6753 9.52492 48.7145 9.56412C48.7537 9.64251 48.7929 9.7209 48.8321 9.7993C49.224 9.7601 49.6552 9.7601 50.0864 9.83849C50.1648 9.64251 50.2824 9.44653 50.3607 9.28974Z" fill="white"/>
<path d="M51.4188 2.19485C50.87 2.90039 50.674 3.72351 50.7916 4.46825C50.9484 5.33057 51.1836 6.1537 51.4188 6.97682C51.5363 7.2904 51.6539 7.60397 51.7715 7.91754C52.0851 7.72156 52.4771 7.56477 52.8298 7.48638C53.065 7.44718 53.3002 7.44718 53.4962 7.44718C53.5354 7.44718 53.6138 7.44718 53.653 7.44718C53.6921 7.2904 53.6921 7.17281 53.7313 7.01602C53.7313 6.89843 53.7313 6.82004 53.7313 6.70245C53.7313 6.46727 53.6921 6.23209 53.6138 5.95771C53.4178 5.21298 53.261 4.46825 53.261 3.68432C53.2218 2.822 53.3002 1.88128 53.7705 0.901367C52.8298 0.940564 51.9675 1.52851 51.4188 2.19485Z" fill="white"/>
<path d="M33.0354 19.167C32.761 19.9117 32.4867 20.6956 32.2515 21.4404L31.3892 23.9098C32.8002 24.1057 34.1329 23.2434 34.6425 21.9107L35.5048 19.559L36.3671 17.2072C34.956 16.972 33.5058 17.7951 33.0354 19.167Z" fill="white"/>
<path d="M39.9341 17.5209L40.8748 15.0908C39.4638 14.8556 38.0527 15.6787 37.5431 17.0114L37.3472 17.4818L36.6416 19.3632L35.7793 21.715C36.916 21.8718 38.0527 21.3622 38.719 20.4215L38.915 20.8135L38.7582 20.4999L38.719 20.4607C38.8758 20.2647 38.9934 20.0295 39.0718 19.7943L39.9341 17.5209Z" fill="white"/>
<path d="M46.5193 48.7998L45.3042 47.1927L43.7756 45.2329C43.0308 46.0952 42.8349 47.3495 43.3052 48.4078C43.3836 48.643 43.5012 48.8782 43.658 49.0742L45.1083 50.9948L46.6761 53.0722C47.6168 52.0139 47.6952 50.3677 46.7937 49.231C46.8329 49.1918 46.5193 48.7998 46.5193 48.7998Z" fill="white"/>
<path d="M46.9112 32.4547L45.2649 30.4165C44.3634 31.514 44.3242 33.1211 45.2257 34.2578L46.7936 36.2176L48.3222 38.1774C49.2238 37.0799 49.2629 35.4337 48.3614 34.297L46.9112 32.4547Z" fill="white"/>
<path d="M47.6167 38.8832L48.3222 38.9615L47.6167 38.8832L46.3624 37.3153L44.7945 35.3555C44.0498 36.257 43.893 37.5113 44.3634 38.5696C44.4809 38.8048 44.5985 39.0007 44.7553 39.2359L46.2448 41.1174L47.8518 43.1556C48.7534 42.0581 48.8318 40.451 47.9302 39.2751L47.6167 38.8832Z" fill="white"/>
<path d="M45.9311 42.3715L44.324 40.3333C43.4225 41.3916 43.3441 43.0378 44.2456 44.1745L45.7743 46.1735L47.303 48.1334C48.2437 47.075 48.2829 45.4288 47.4206 44.2529L45.9311 42.3715Z" fill="white"/>
<path d="M47.7341 22.538C47.1854 21.8716 46.6366 21.2053 46.0879 20.4998C45.6175 21.0485 45.4215 21.754 45.3823 22.4596C45.3823 23.1651 45.6175 23.8315 46.0879 24.3802L47.6949 26.3008L49.2628 28.2215C50.1643 27.124 50.1643 25.4777 49.2628 24.341L47.7341 22.538Z" fill="white"/>
<path d="M48.5573 28.966L47.3031 27.3982L45.7352 25.4775C44.9905 26.3791 44.8729 27.6333 45.3432 28.6917C45.4608 28.9268 45.5784 29.1228 45.7352 29.3188L47.2639 31.2002L48.9101 33.2384C49.8116 32.1409 49.8508 30.4947 48.9493 29.358L48.5573 28.966Z" fill="white"/>
<path d="M48.2046 17.5208C48.2046 17.5208 48.2046 17.4816 48.2046 17.5208C48.1262 17.4424 48.087 17.364 48.0478 17.2856C47.4991 17.8344 46.7936 18.1872 46.0488 18.3831C46.0488 18.4223 46.088 18.4615 46.088 18.5007C46.1272 18.5791 46.1272 18.6575 46.1664 18.7359C46.2448 18.9711 46.3624 19.2063 46.5192 19.4023C46.9895 20.0686 47.4991 20.6957 48.0087 21.3229C48.5574 21.9892 49.1062 22.6556 49.6549 23.3219C50.5172 22.2244 50.5564 20.6957 49.6941 19.559C49.7333 19.5198 48.5966 18.0696 48.2046 17.5208Z" fill="white"/>
<path d="M50.9486 16.0706C50.2822 16.3057 49.5375 16.3449 48.8711 16.2273C48.8319 16.3057 48.7927 16.3841 48.7144 16.4625C48.8319 16.6585 48.9887 16.8545 49.1063 17.0113C49.4591 17.4816 49.8119 17.9912 50.1646 18.4615C50.7526 17.7952 51.0269 16.9721 50.9486 16.1098C50.9486 16.1098 50.9486 16.1098 50.9486 16.0706Z" fill="white"/>
<path d="M42.2074 71.9648L40.6787 69.8481C39.738 70.9064 39.6204 72.5135 40.4435 73.6894L41.8938 75.7276L43.3441 77.7658C44.324 76.7075 44.4416 75.1005 43.5792 73.8854L42.2074 71.9648Z" fill="white"/>
<path d="M43.5794 17.6385L44.4809 15.2867L45.3432 12.9349C43.9714 12.7389 42.5211 13.5228 42.0115 14.8555L41.1492 17.0897L40.2085 19.5199C41.6196 19.7943 43.0698 19.0103 43.5794 17.6385Z" fill="white"/>
<path d="M41.4238 76.7858L39.9735 74.7476C39.5031 75.2571 39.2288 75.9235 39.1896 76.629C39.1112 77.6089 39.3072 78.9024 39.5031 79.0592C40.2871 79.8823 42.3645 79.9607 42.9132 79.9999C43.1092 79.9999 43.266 79.8823 43.266 79.6863C43.3052 79.4119 42.9132 78.9024 42.9132 78.9024L41.4238 76.7858Z" fill="white"/>
<path d="M44.9905 17.4423C45.0297 17.4423 45.0689 17.4423 45.1081 17.4423C45.4217 17.4423 45.7353 17.4423 46.0097 17.364C46.5976 17.2072 47.1072 16.8936 47.4991 16.4624C47.5775 16.384 47.6559 16.2665 47.7343 16.1489C47.8911 15.9529 48.0087 15.7569 48.0871 15.5217C48.0871 15.5217 48.0871 15.5217 48.0871 15.4825L48.9102 13.2091C48.9886 12.9739 49.067 12.778 49.1454 12.5428C49.3022 12.1116 49.4589 11.6805 49.5765 11.2493C49.6157 11.0925 49.6941 10.9357 49.7333 10.7789C49.5765 10.7789 49.459 10.7397 49.3022 10.7397C48.9494 10.7397 48.5966 10.8181 48.2439 10.9357C47.7735 11.1317 47.3423 11.4061 47.0288 11.7981C46.7936 12.0724 46.5976 12.386 46.48 12.7388L46.3232 13.2091L46.088 13.7971L46.0489 13.9147L45.6177 15.0906L45.3825 15.7569L45.1473 16.384L45.0689 16.58L44.7554 17.4423C44.7946 17.4423 44.873 17.4423 44.9905 17.4423C44.9514 17.4423 44.9514 17.4423 44.9905 17.4423Z" fill="white"/>
<path d="M44.7946 52.2488L43.2267 50.1714C42.3252 51.2297 42.2076 52.8759 43.0699 54.0126L44.5986 56.0117L46.0881 58.0107C47.0288 56.9524 47.1072 55.3061 46.2449 54.1302L44.7946 52.2488Z" fill="white"/>
<path d="M45.343 58.6771L44.128 57.0701L42.6385 55.071C41.8938 55.9334 41.6978 57.1877 42.1289 58.246C42.2073 58.4811 42.3249 58.7163 42.4817 58.9123L43.932 60.8329L45.4998 62.9103C46.4405 61.852 46.5581 60.2058 45.6958 59.0691C45.6566 59.1083 45.343 58.6771 45.343 58.6771Z" fill="white"/>
<path d="M43.5795 62.0874L42.0117 60.01C41.0709 61.0683 40.9533 62.6754 41.8157 63.8513L43.3051 65.8895L44.7946 67.8885C45.7353 66.8302 45.8529 65.1839 44.9906 64.0472L43.5795 62.0874Z" fill="white"/>
<path d="M44.0103 68.5546L42.8344 66.9475L41.345 64.9485C40.561 65.8108 40.365 67.0651 40.7962 68.1234C40.8746 68.3586 40.9922 68.5938 41.149 68.7897L42.56 70.7496L44.0887 72.8662C45.0294 71.8079 45.147 70.2008 44.3239 69.0249C44.3239 68.9857 44.0103 68.5546 44.0103 68.5546Z" fill="white"/>
</g>
</svg>
