<svg width="55" height="40" viewBox="0 0 55 40" fill="none" xmlns="http://www.w3.org/2000/svg">
<path d="M50.4764 36.5118C50.4564 36.5317 50.4362 36.552 50.4163 36.5719C48.1328 38.8253 45.1539 40.0423 42.029 39.9989C41.8575 39.9965 41.6868 39.9905 41.5159 39.9807C36.7348 39.7105 32.6574 36.322 31.3695 31.5488L28.242 19.9533C28.0026 19.0612 28.5339 18.1415 29.4252 17.9011C30.2273 17.6859 31.0642 18.0936 31.3918 18.8515L33.6691 27.3562C33.785 27.7892 34.203 28.0686 34.6472 28.0106C35.0904 27.9517 35.4225 27.5732 35.4222 27.1253L35.4219 5.94788C35.4222 5.02188 36.1021 4.24704 36.9682 4.18247C37.8493 4.11849 38.6229 4.74039 38.7504 5.60569V17.4696C38.7504 17.9627 39.1494 18.3623 39.6423 18.3623C40.1349 18.3623 40.5342 17.963 40.5342 17.4696V11.6732C40.5342 11.6705 40.5345 11.6678 40.5345 11.6652V5.54706C40.5345 5.54468 40.5342 5.54201 40.5342 5.53963V1.66544C40.5342 0.746578 41.2801 0 42.1982 0C43.1153 0 43.8621 0.747471 43.8621 1.66544V4.07684V4.15867V17.4696C43.8621 17.9627 44.2611 18.3623 44.754 18.3623C45.0005 18.3623 45.2235 18.2623 45.3846 18.101C45.546 17.9394 45.6456 17.7163 45.6456 17.4699V13.4234C45.6456 13.4207 45.6459 13.4181 45.6459 13.4154L45.6456 4.07713C45.6456 3.15828 46.3921 2.41112 47.3102 2.41112C48.2226 2.41082 48.9691 3.1547 48.9741 4.06374V13.402C48.9741 13.4035 48.9741 13.405 48.9741 13.4064V17.4598C48.9741 17.9528 49.3731 18.3525 49.866 18.3525C50.3586 18.3525 50.7579 17.9531 50.7579 17.4598L50.7582 10.1527C50.7579 9.22578 51.4363 8.45063 52.3035 8.38755C53.1847 8.32357 53.9583 8.94547 54.0858 9.81077L54.0861 27.8419C54.0855 31.0599 52.7712 34.2146 50.4764 36.5118Z" fill="white"/>
<path d="M3.60976 36.5118C3.62968 36.5317 3.64989 36.552 3.66981 36.5719C5.95333 38.8253 8.93223 40.0423 12.0571 39.9989C12.2286 39.9965 12.3993 39.9905 12.5702 39.9807C17.3513 39.7105 21.4287 36.322 22.7166 31.5488L25.8442 19.9533C26.0835 19.0612 25.5522 18.1415 24.6609 17.9011C23.8588 17.6859 23.0219 18.0936 22.6943 18.8515L20.417 27.3562C20.3011 27.7892 19.8831 28.0686 19.4389 28.0106C18.9957 27.9517 18.6636 27.5732 18.6639 27.1253L18.6642 5.94788C18.6639 5.02188 17.984 4.24704 17.118 4.18247C16.2368 4.11849 15.4632 4.74039 15.3357 5.60569V17.4696C15.3357 17.9627 14.9367 18.3623 14.4438 18.3623C13.9512 18.3623 13.5519 17.963 13.5519 17.4696V11.6732C13.5519 11.6705 13.5516 11.6678 13.5516 11.6652V5.54706C13.5516 5.54468 13.5519 5.54201 13.5519 5.53963V1.66544C13.5519 0.746578 12.806 0 11.8879 0C10.9708 0 10.224 0.747471 10.224 1.66544V4.07684V4.15867V17.4696C10.224 17.9627 9.82501 18.3623 9.33209 18.3623C9.08564 18.3623 8.86267 18.2623 8.70153 18.101C8.5401 17.9394 8.44051 17.7163 8.44051 17.4699V13.4234C8.44051 13.4207 8.44021 13.4181 8.44021 13.4154L8.44051 4.07713C8.44051 3.15828 7.694 2.41112 6.77595 2.41112C5.86355 2.41082 5.11704 3.1547 5.11199 4.06374V13.402C5.11199 13.4035 5.11199 13.405 5.11199 13.4064V17.4598C5.11199 17.9528 4.71302 18.3525 4.2201 18.3525C3.72749 18.3525 3.32822 17.9531 3.32822 17.4598L3.32792 10.1527C3.32822 9.22578 2.64979 8.45063 1.78258 8.38755C0.901398 8.32357 0.127837 8.94547 0.000297585 9.81077L0 27.8419C0.000297295 31.0599 1.31464 34.2146 3.60976 36.5118Z" fill="white"/>
</svg>
