<svg width="32" height="40" viewBox="0 0 32 40" fill="none" xmlns="http://www.w3.org/2000/svg">
<path d="M0 0V36.1241C0 38.2583 1.74479 40 3.88276 40H27.5458C29.6838 40 31.4286 38.2583 31.4286 36.1241V0H0ZM9.61121 26.019H5.35456V24.0581H9.61121V26.019ZM9.61121 17.072H5.35456V15.1111H9.61121V17.072ZM18.7773 26.019H14.5207V24.0581H18.7773V26.019ZM18.7773 17.072H14.5207V15.1111H18.7773V17.072ZM26.5058 34.9659H18.9761V33.005H26.5058V34.9659ZM26.5058 31.7787H18.9761V29.8178H26.5058V31.7787ZM27.2001 26.1774L25.8114 27.5637L24.6705 26.4248L23.5295 27.5637L22.1408 26.1774L23.2817 25.0385L22.1408 23.8996L23.5295 22.5133L24.6705 23.6522L25.8114 22.5133L27.2001 23.8996L26.0592 25.0385L27.2001 26.1774ZM27.3143 18.6774H25.7016V20.2873H23.7372V18.6774H22.1245V16.7165H23.7372V15.1066H25.7016V16.7165H27.3143V18.6774ZM28.8321 12.303H2.59642V3.17683H28.8321V12.303Z" fill="white"/>
</svg>
