<svg width="50" height="40" viewBox="0 0 50 40" fill="none" xmlns="http://www.w3.org/2000/svg">
<path d="M33.9805 22.1043H32.9464C32.8021 22.1043 32.6854 22.2212 32.6854 22.3656V22.6083C32.6854 22.7528 32.8021 22.8696 32.9464 22.8696H32.9767V22.8983V26.3685C32.9767 30.8336 29.361 34.4534 24.9009 34.4534C20.4408 34.4534 16.825 30.8336 16.825 26.3685V22.8983V22.8696C16.9693 22.8696 17.0747 22.7528 17.0747 22.6083V22.3656C17.0747 22.2212 16.958 22.1043 16.8137 22.1043H15.7796C15.6353 22.1043 15.5186 22.2212 15.5186 22.3656V22.6083C15.5186 22.7528 15.6353 22.8696 15.7796 22.8696H15.793V26.5139C15.793 30.9794 19.052 34.6823 23.3189 35.3701C23.5531 35.408 23.761 35.5414 23.8871 35.7427L23.948 35.8403C24.0293 35.9699 24.0723 36.1202 24.0723 36.2733V37.645C24.0723 37.9629 23.8891 38.2518 23.602 38.3873L23.3285 38.5162C23.0289 38.6572 22.7022 38.7303 22.3712 38.7303H19.949C19.3371 38.7303 18.8409 39.2271 18.8409 39.8397V40H30.9601V39.8397C30.9601 39.2271 30.4639 38.7303 29.852 38.7303H27.4298C27.0989 38.7303 26.7721 38.6572 26.4728 38.5162L26.1994 38.3873C25.9122 38.2521 25.729 37.9629 25.729 37.645V36.2581C25.729 36.1144 25.7669 35.9734 25.8389 35.8493L25.8854 35.7689C26.0069 35.5593 26.2149 35.4121 26.4542 35.3745C30.7349 34.6989 34.0084 30.9894 34.0084 26.5139V22.8696C34.1527 22.8696 34.2412 22.7528 34.2412 22.6083V22.3656C34.2415 22.2212 34.1244 22.1043 33.9805 22.1043Z" fill="white"/>
<path d="M29.5582 7.91981C29.5582 7.45579 29.9339 7.07967 30.3974 7.07967H32.1078C32.0214 3.1713 28.8034 0 24.8795 0C20.9555 0 17.7379 3.17096 17.6511 7.07967H19.3615C19.825 7.07967 20.2007 7.45579 20.2007 7.91981C20.2007 8.38384 19.825 8.75996 19.3615 8.75996H17.647V10.0486H19.3615C19.825 10.0486 20.2007 10.4247 20.2007 10.8888C20.2007 11.3528 19.825 11.7289 19.3615 11.7289H17.647V13.0175H19.3615C19.825 13.0175 20.2007 13.3937 20.2007 13.8577C20.2007 14.3217 19.825 14.6978 19.3615 14.6978H17.647V15.9865H19.3615C19.825 15.9865 20.2007 16.3626 20.2007 16.8266C20.2007 17.2907 19.825 17.6668 19.3615 17.6668H17.647V18.9554H19.3615C19.825 18.9554 20.2007 19.3315 20.2007 19.7956C20.2007 20.2596 19.825 20.6357 19.3615 20.6357H17.647V26.1633C17.647 30.1458 20.9015 33.404 24.8795 33.404C28.8574 33.404 32.1119 30.1458 32.1119 26.1633V20.6347H30.3974C29.9339 20.6347 29.5582 20.2586 29.5582 19.7945C29.5582 19.3305 29.9339 18.9544 30.3974 18.9544H32.1119V17.6657H30.3974C29.9339 17.6657 29.5582 17.2896 29.5582 16.8256C29.5582 16.3616 29.9339 15.9855 30.3974 15.9855H32.1119V14.6968H30.3974C29.9339 14.6968 29.5582 14.3207 29.5582 13.8567C29.5582 13.3926 29.9339 13.0165 30.3974 13.0165H32.1119V11.7279H30.3974C29.9339 11.7279 29.5582 11.3517 29.5582 10.8877C29.5582 10.4237 29.9339 10.0476 30.3974 10.0476H32.1119V8.75892H30.3974C29.9339 8.75996 29.5582 8.38384 29.5582 7.91981Z" fill="white"/>
<path d="M17.647 7.07971V7.24071C17.647 7.18658 17.6497 7.13349 17.6511 7.07971H17.647Z" fill="white"/>
<path d="M32.1074 7.07971C32.1085 7.13349 32.1116 7.18693 32.1116 7.24071V7.07971H32.1074Z" fill="white"/>
<path d="M1.09505 22.6097C0.490362 22.6097 0 22.1188 0 21.5134V19.9424C0 19.337 0.490362 18.8461 1.09505 18.8461C1.69974 18.8461 2.1901 19.337 2.1901 19.9424V21.5134C2.1901 22.1188 1.69974 22.6097 1.09505 22.6097Z" fill="white"/>
<path d="M4.85579 26.9748C4.2511 26.9748 3.76074 26.4839 3.76074 25.8786V15.5776C3.76074 14.9722 4.2511 14.4813 4.85579 14.4813C5.46048 14.4813 5.95084 14.9722 5.95084 15.5776V25.8786C5.95084 26.4839 5.46048 26.9748 4.85579 26.9748Z" fill="white"/>
<path d="M8.70052 33.0575C8.09583 33.0575 7.60547 32.5666 7.60547 31.9612V9.4946C7.60547 8.88923 8.09583 8.39832 8.70052 8.39832C9.30521 8.39832 9.79557 8.88923 9.79557 9.4946V31.9612C9.79557 32.5666 9.30521 33.0575 8.70052 33.0575Z" fill="white"/>
<path d="M12.5687 30.5674C11.964 30.5674 11.4736 30.0765 11.4736 29.4711V11.9847C11.4736 11.3793 11.964 10.8884 12.5687 10.8884C13.1734 10.8884 13.6637 11.3793 13.6637 11.9847V29.4711C13.6637 30.0765 13.1737 30.5674 12.5687 30.5674Z" fill="white"/>
<path d="M48.6839 22.6097C49.2886 22.6097 49.779 22.1188 49.779 21.5134V19.9424C49.779 19.337 49.2886 18.8461 48.6839 18.8461C48.0792 18.8461 47.5889 19.337 47.5889 19.9424V21.5134C47.5889 22.1188 48.0789 22.6097 48.6839 22.6097Z" fill="white"/>
<path d="M44.9227 26.9748C45.5274 26.9748 46.0177 26.4839 46.0177 25.8786V15.5776C46.0177 14.9722 45.5274 14.4813 44.9227 14.4813C44.318 14.4813 43.8276 14.9722 43.8276 15.5776V25.8786C43.8276 26.4839 44.318 26.9748 44.9227 26.9748Z" fill="white"/>
<path d="M41.0794 33.0575C41.6841 33.0575 42.1745 32.5666 42.1745 31.9612V9.4946C42.1745 8.88923 41.6841 8.39832 41.0794 8.39832C40.4747 8.39832 39.9844 8.88923 39.9844 9.4946V31.9612C39.9844 32.5666 40.4744 33.0575 41.0794 33.0575Z" fill="white"/>
<path d="M37.2103 30.5674C37.815 30.5674 38.3053 30.0765 38.3053 29.4711V11.9847C38.3053 11.3793 37.815 10.8884 37.2103 10.8884C36.6056 10.8884 36.1152 11.3793 36.1152 11.9847V29.4711C36.1152 30.0765 36.6056 30.5674 37.2103 30.5674Z" fill="white"/>
</svg>
