<svg width="243" height="73" viewBox="0 0 243 73" fill="none" xmlns="http://www.w3.org/2000/svg">
<path d="M73.299 8.5063C76.0813 7.7445 83.4796 3.80855 86.6412 1.14226C89.7397 -1.52403 96.7586 3.93551 92.4587 7.61753C87.653 11.7439 80.0017 14.4102 74.5637 15.172C71.4652 15.5529 69.6947 9.45855 73.299 8.5063ZM233.785 40.3748L229.359 46.4057C226.64 49.7068 220.949 51.8653 218.167 48.945C213.804 44.3743 216.839 35.3597 217.218 33.5186C220 30.4715 220.127 28.567 219.747 27.1703C218.862 23.9962 212.349 22.79 211.654 25.9007C210.515 31.2333 208.682 34.0265 206.532 34.6613C205.141 35.0422 204.255 33.0108 204.571 31.2333C205.141 28.5035 206.658 26.0276 208.935 24.3136C211.97 22.0282 215.574 21.9647 218.862 22.7265C222.593 23.6153 224.553 18.1557 219.368 16.3782C212.412 13.9658 204.129 15.7434 199.829 22.0917C198.628 23.8692 197.616 25.8372 196.92 27.8686C195.719 29.9001 194.897 31.1063 193.695 31.5507C192.431 32.0585 191.229 31.5507 190.407 28.567C189.901 26.7894 189.206 24.8215 187.878 24.0597C187.498 23.8692 187.498 23.4883 188.131 23.2344C189.522 22.7265 190.091 22.2187 191.356 20.5046C192.81 18.5366 193.379 20.1237 195.276 19.5524C199.829 18.2827 197.616 11.0456 192.051 12.7597C189.459 13.7754 187.246 15.4894 185.601 17.7114C184.463 19.2349 183.515 20.8855 182.693 22.663C182.313 23.5518 180.416 23.3613 180.543 22.4726C180.669 21.5838 182.503 16.8861 182.946 15.6164C184.337 11.617 176.875 10.4108 175.674 13.331C174.346 16.5052 173.271 19.7428 172.259 23.1074C171.311 25.9007 169.603 28.44 167.39 30.408C165.24 32.1855 164.355 30.408 164.482 28.44C164.734 25.2024 166.884 18.4097 168.402 15.299C169.856 12.1883 162.332 10.1569 160.751 14.2198C160.055 15.9338 159.233 18.981 158.79 20.1872C158.348 21.3934 153.605 21.7743 153.922 20.6316C154.238 19.4889 154.997 16.4417 155.502 15.2355C157.399 10.6647 149.432 10.6647 148.483 12.8232C146.966 16.5052 145.764 20.3142 145.006 24.1866C143.235 27.8052 140.137 31.2967 139.188 31.9951C137.418 33.1377 136.153 32.8838 136.406 30.0271C139.441 25.7102 139.251 24.0597 138.493 22.3456C137.228 19.2984 132.232 20.1872 131.727 23.3613C130.841 29.4557 129.071 32.122 127.553 33.1377C127.3 33.3282 126.984 33.4552 126.668 33.4552C126.352 33.5186 126.036 33.4552 125.719 33.3282C125.403 33.2012 125.15 33.0108 124.961 32.7568C124.771 32.5029 124.644 32.249 124.581 31.9316C124.012 29.7097 124.897 25.7737 128.122 21.9012C131.727 17.5844 135.71 18.6001 137.481 19.0445C139.251 19.4889 141.528 14.6642 137.101 13.204C132.865 11.7439 124.202 13.204 119.902 20.6316C114.907 29.3288 115.982 37.3276 120.471 39.9304C123.633 41.7715 128.059 39.0417 129.956 36.6293C130.209 36.3119 130.715 36.058 130.905 36.6293C131.537 38.8512 134.256 41.0096 138.303 38.6608C139.757 37.8355 141.844 34.7248 143.615 32.5664C143.551 33.3282 143.551 34.5344 143.488 35.1057C143.109 39.4861 151.076 39.1686 151.266 35.5501C151.392 32.8838 151.708 30.281 152.341 27.6782C152.783 26.0911 157.463 25.7102 157.273 27.3608C156.957 29.4557 157.02 31.6142 157.399 33.6456C158.601 38.8512 163.47 38.5338 167.77 35.6136C168.465 35.1057 169.224 33.8361 170.173 32.8203C170.109 33.3917 170.046 33.963 169.983 34.4074C169.667 37.899 177.381 38.4068 177.824 35.1057C177.887 34.4074 178.519 30.8524 178.899 29.3922C179.278 27.9321 179.658 26.9799 180.353 26.9799C181.871 26.9799 182.377 29.1383 183.894 33.7726C185.412 38.4703 188.89 39.9939 191.229 39.1052C193.253 38.1529 195.023 36.6928 196.351 34.9788C196.414 36.8198 197.173 38.5973 198.501 39.9939C201.916 42.9141 206.089 41.6445 209.946 39.0417C210.262 38.8512 210.832 38.7243 210.705 39.5495C210.579 40.3113 206.974 50.1512 216.27 55.5473C225.502 61.0068 235.809 51.7383 238.654 47.2945C241.5 42.6602 236.757 36.9467 233.785 40.3748ZM113.389 42.5967C112.124 47.231 109.532 51.3574 105.991 54.595C102.639 57.5153 97.6438 59.0389 93.4704 57.5787C89.3603 56.1186 87.0206 51.5478 88.7912 45.1995C86.1354 47.0405 82.9105 47.358 81.3929 46.7231C78.3577 45.3265 79.3062 40.6288 80.6341 36.4389C81.0135 35.3597 80.5708 35.0422 79.7488 35.4866C79.5591 35.5501 79.1165 35.7406 78.6106 35.8675C77.3459 39.5495 75.8916 43.1681 74.2475 46.6597C71.0226 53.3889 67.7977 57.1344 60.5891 57.9596C60.02 58.0231 59.3877 58.0231 58.8186 57.8327C58.6289 58.2136 58.5024 58.5945 58.3127 58.9754C53.3805 68.1804 40.4176 72.7512 30.3003 72.2433C18.286 71.6085 15.3772 66.5933 16.8948 58.531C17.1478 57.1344 17.8433 53.1349 18.2227 51.7383C18.6021 50.2782 27.5813 52.0557 27.3283 53.6428C27.0122 55.2299 26.696 57.1344 26.5063 58.9119C26.0637 62.7844 29.1621 64.2445 35.106 63.4827C39.153 62.9748 47.1836 60.8799 50.2188 54.4681C53.1275 48.4372 51.2938 41.5175 45.3498 39.5495C41.9985 38.5338 38.4574 38.2164 34.9796 38.4703C33.3355 38.4703 34.1575 31.1698 35.9281 30.8524C39.0897 30.281 46.8042 29.9636 51.7364 32.3759C54.329 33.5186 56.5421 35.4231 58.123 37.772C59.7038 40.1209 60.5891 42.9142 60.5891 45.7709C60.5891 45.8344 60.5891 45.9613 60.5891 46.0248C60.7156 46.2788 60.9053 46.4692 61.095 46.6597C62.1699 47.7389 65.7742 49.1355 68.43 45.263C70.0109 42.7237 71.402 40.1209 72.5402 37.3276C71.7182 37.4546 70.8961 37.5816 70.2006 37.5816C64.9522 37.8355 61.0317 34.2804 62.4861 28.1226C64.5096 19.6793 72.8564 17.6479 76.0813 17.7114C80.5708 17.8383 82.6575 20.949 81.0135 28.44C82.1517 27.8052 83.3531 27.2338 84.5545 26.726C86.2618 26.1546 90.372 26.726 88.6015 30.8524C88.0324 32.1855 85.3766 39.0417 86.9574 40.3748C87.7794 41.0731 89.8661 41.0731 92.3955 39.4861C93.8498 38.5973 97.3909 39.2956 96.3159 42.7872C95.241 46.2787 94.5454 50.9765 97.138 51.7383C102.197 53.1984 106.56 40.3113 104.916 35.1692C104.283 33.2012 101.501 34.4709 99.4776 34.9153C97.5174 35.3597 95.3042 31.4237 98.9717 29.9636C101.628 29.0113 103.841 27.2338 105.422 24.8849C107.255 22.2821 105.105 19.108 101.628 20.5681C99.6673 21.5838 97.8335 22.8535 96.1262 24.2501C92.0161 27.3608 89.55 21.2029 91.6999 19.0445C94.1028 16.6956 97.4541 13.8389 101.501 13.204C104.979 12.6327 110.48 13.2041 112.504 17.7114C114.717 22.5361 111.049 29.4557 108.899 30.6619C108.267 30.9793 109.658 31.5507 110.101 31.8681C112.63 33.6456 114.97 35.5501 113.389 42.5967ZM75.3225 25.1389C74.3107 24.0597 71.6549 25.4563 70.58 27.2338C69.4418 29.0113 69.4418 31.4237 71.2755 31.8681C72.477 31.9951 73.6784 31.8046 74.7534 31.2967C75.6386 28.44 76.2077 26.0276 75.3225 25.1389ZM26.2534 24.4406C24.0402 29.7731 22.2697 35.3597 21.0682 41.0097C20.8785 41.8349 23.0285 41.9619 26.0004 41.2001C28.2136 40.5653 30.49 39.4226 31.1856 37.5181C33.3987 31.1698 34.8531 27.0434 35.4222 25.2024C36.181 22.5361 27.6445 21.2029 26.2534 24.4406ZM47.4998 22.5996C47.3101 24.631 46.488 26.599 45.1601 28.1861C44.4013 29.0113 45.1601 29.3288 46.2351 29.6462C48.638 30.3445 52.9378 30.8524 53.6966 30.2175C55.4672 28.44 56.6686 26.2181 57.2377 23.8057C59.6406 15.426 53.254 6.60181 37.1295 6.91922C30.1738 7.04619 17.8433 9.07765 4.94372 16.8226C-2.32812 21.1394 -0.178185 32.8203 6.46132 28.7574C22.902 18.6636 31.6914 16.0608 38.4574 15.299C43.3896 14.7276 48.0056 17.7114 47.4998 22.5996ZM32.3238 47.5484C35.7384 46.3422 38.9 44.6282 41.8088 42.4698C43.769 40.8827 33.9046 39.1052 32.3238 39.9939C25.8107 43.7394 19.0448 43.549 17.9698 43.0411C17.211 42.7237 17.2742 41.7715 18.1595 41.3906C20.1197 40.5653 22.4594 33.0108 21.3844 33.1377C12.1523 34.1535 7.47305 41.6445 11.7729 47.104C15.0611 51.2304 23.977 50.5321 32.3238 47.5484ZM201.726 49.5164C189.585 46.1518 154.87 42.9141 122.052 49.7068C114.148 51.3574 114.717 60.5625 121.04 58.7214C160.624 47.2945 198.185 54.2141 201.726 54.6585C205.33 55.0394 206.911 50.9765 201.726 49.5164ZM242.701 25.6467C242.701 26.9164 242.322 28.1861 241.563 29.2653C240.867 30.3445 239.792 31.1698 238.591 31.6776C237.39 32.1855 236.062 32.3125 234.797 32.0585C233.532 31.8046 232.331 31.1698 231.446 30.281C230.497 29.3922 229.865 28.1861 229.612 26.9164C229.359 25.6467 229.485 24.3136 229.928 23.1074C230.434 21.9012 231.256 20.8855 232.331 20.1237C233.406 19.3619 234.671 18.981 235.935 18.981C237.706 18.981 239.413 19.6793 240.678 20.949C241.942 22.2187 242.701 23.9327 242.701 25.6467ZM241.563 25.6467C241.5 24.5675 241.12 23.4883 240.488 22.663C239.856 21.7743 238.97 21.1394 237.959 20.7585C236.947 20.3776 235.809 20.3142 234.797 20.5681C233.722 20.822 232.774 21.3934 232.015 22.1552C231.256 22.917 230.75 23.9327 230.624 25.0119C230.434 26.0911 230.56 27.1703 231.003 28.1861C231.446 29.2018 232.141 30.0271 233.09 30.5984C233.975 31.1698 235.05 31.4872 236.125 31.4872C237.579 31.4237 239.034 30.7889 240.045 29.7097C241.057 28.567 241.626 27.1703 241.563 25.6467ZM238.781 27.4877C238.97 28.2495 239.223 29.0113 239.54 29.7731H238.275C237.959 29.1383 237.769 28.5035 237.643 27.8052C237.643 27.5512 237.579 27.3608 237.453 27.1703C237.326 26.9799 237.2 26.7894 237.01 26.6625C236.82 26.5355 236.631 26.4085 236.378 26.3451C236.125 26.2816 235.935 26.2816 235.682 26.2816H234.354L234.418 29.8366H233.216L233.09 21.6473C233.912 21.5203 234.734 21.4569 235.556 21.4569C236.504 21.3299 237.516 21.5838 238.338 22.0917C238.591 22.2821 238.781 22.5361 238.907 22.79C239.034 23.0439 239.097 23.3613 239.097 23.6153C239.097 24.1231 238.907 24.5675 238.591 24.9484C238.275 25.3293 237.832 25.5833 237.39 25.7102C237.706 25.8372 238.022 26.0911 238.275 26.3451C238.528 26.599 238.717 26.9799 238.781 27.2973V27.4877ZM237.895 23.7422C237.895 22.5996 236.947 22.2187 235.619 22.2821C235.176 22.2821 234.734 22.3456 234.291 22.4091L234.354 25.3293H235.746C237.073 25.3293 237.895 24.6945 237.895 23.7422Z" fill="#A93439"/>
</svg>
