<svg width="304" height="306" viewBox="0 0 304 306" fill="none" xmlns="http://www.w3.org/2000/svg">
<path d="M299.958 155.577C299.092 154.708 298.514 153.839 297.648 152.97C294.473 150.073 290.72 146.887 287.833 144.57C284.946 142.253 282.925 140.805 282.925 140.805C278.883 143.701 278.306 148.625 279.46 152.97C280.038 155.577 281.193 157.894 282.925 159.342C285.234 161.659 288.121 163.976 291.297 167.162C294.184 170.349 297.071 173.824 299.669 177.879C301.979 175.273 304 171.218 304 167.162C304 163.107 302.845 158.763 299.958 155.577Z" fill="white"/>
<path d="M287.833 174.403C284.946 170.927 282.636 168.32 282.636 168.32C279.172 170.058 277.151 173.244 276.862 177.01C276.862 178.748 276.573 180.486 276.862 182.223C277.151 183.961 277.728 185.409 278.594 186.858C280.327 189.464 282.925 192.651 284.946 196.126C286.967 199.602 289.276 203.947 291.008 208.581C293.895 206.554 296.205 202.788 297.648 198.733C298.515 194.678 298.226 190.044 296.205 186.278C294.184 182.513 290.72 177.879 287.833 174.403Z" fill="white"/>
<path d="M283.794 208.87C282.639 206.553 281.484 204.236 280.329 202.208C278.308 198.153 276.287 195.257 276.287 195.257C272.534 196.126 269.936 199.022 269.07 202.498C267.626 205.684 267.626 209.449 268.781 212.635C269.359 214.084 270.225 215.821 270.802 217.559C271.668 219.297 272.246 221.035 272.823 223.063C274.267 227.118 275.421 231.462 276.287 236.676C279.463 235.228 282.639 232.042 284.66 228.566C285.814 226.828 286.392 224.511 286.392 222.483C286.681 220.456 286.392 218.139 285.814 216.111C285.526 213.504 284.66 211.187 283.794 208.87Z" fill="white"/>
<path d="M269.644 238.705C269.355 236.677 268.777 234.36 268.489 232.333C267.911 230.305 267.334 227.988 266.757 226.25C265.602 222.774 264.736 220.167 264.736 220.167C259.828 220.167 256.652 223.933 254.92 227.988C253.765 230.305 253.476 233.202 254.054 235.519C254.92 238.705 255.497 242.18 256.075 246.525C256.652 250.58 257.23 255.504 256.652 260.428C260.116 259.849 263.581 257.242 266.468 254.056C267.911 252.318 269.066 250.58 269.644 248.553C270.221 246.525 270.51 244.208 270.221 242.18C270.221 241.022 269.932 239.863 269.644 238.705Z" fill="white"/>
<path d="M248.568 242.181C244.815 241.601 241.639 243.339 239.041 245.656C236.443 247.973 234.999 251.739 234.999 254.925C234.999 258.111 234.999 261.876 234.71 266.221C234.71 268.249 234.422 270.566 234.133 272.883C233.844 275.2 233.267 277.517 232.401 279.834C234.133 279.834 236.154 279.545 237.886 278.965C239.618 278.096 241.639 277.228 243.083 275.779C246.258 273.173 248.857 269.407 249.145 265.062C249.434 260.718 249.723 254.925 249.434 250.58C249.145 245.656 248.568 242.181 248.568 242.181Z" fill="white"/>
<path d="M217.675 261.876C216.232 262.745 214.788 264.193 213.922 265.641C213.056 267.089 212.19 268.537 211.613 269.986C210.169 276.068 208.726 285.337 203.818 293.737C210.747 295.764 220.851 290.84 223.738 282.73C224.893 278.385 226.336 272.882 226.914 268.248C227.202 265.931 227.491 263.903 227.491 262.455C227.491 261.007 227.78 260.138 227.78 260.138C224.315 259.269 220.562 259.848 217.675 261.876Z" fill="white"/>
<path d="M191.412 274.62C189.391 276.068 187.081 277.806 186.215 279.834C184.772 282.73 183.328 286.206 181.308 289.971C179.287 293.737 176.688 297.502 173.513 301.267C175.245 302.136 176.977 302.426 178.998 302.716C181.019 303.005 183.04 302.716 185.061 302.136C189.102 300.978 192.855 298.371 195.165 294.895C195.742 294.026 196.32 292.868 196.897 291.709C198.918 287.654 200.65 283.309 201.805 279.834C202.382 278.096 202.96 276.648 203.249 275.489C203.537 274.33 203.826 273.751 203.826 273.751C200.073 271.434 195.165 272.013 191.412 274.62Z" fill="white"/>
<path d="M168.016 279.255C166.284 279.545 164.552 280.414 163.108 280.993C161.665 281.862 160.221 282.731 159.355 284.179C157.334 286.786 155.314 289.972 152.427 293.158C149.828 296.344 146.364 299.53 142.611 302.717C145.498 304.744 149.54 306.192 153.87 305.903C158.201 305.613 162.242 303.875 165.129 300.689C166.573 299.241 168.016 297.213 169.748 294.896C171.192 292.869 172.635 290.551 174.079 288.814C176.677 285.048 178.121 281.862 178.121 281.862C174.945 279.255 171.481 278.386 168.016 279.255Z" fill="white"/>
<path d="M150.414 284.759C148.393 281.283 144.928 279.835 141.175 279.835C140.309 279.835 139.443 279.835 138.577 280.124C137.711 280.124 136.845 280.414 135.979 280.704C134.247 281.283 132.803 281.862 131.648 283.021C129.339 285.048 126.452 287.945 122.987 290.552C119.812 293.158 115.77 295.765 111.439 297.793C113.749 300.4 117.502 302.427 121.833 303.296C126.163 303.875 130.494 303.006 133.958 300.689C137.422 298.372 141.753 294.027 144.928 290.841C148.104 287.365 150.414 284.759 150.414 284.759Z" fill="white"/>
<path d="M122.986 281.571C121.254 276.937 116.923 274.91 112.593 274.62C109.995 274.33 107.396 274.62 105.375 276.068C99.6015 279.544 92.0954 283.599 82.5684 286.206C84.3005 289.392 87.7649 291.999 91.518 293.737C95.5598 295.185 100.179 295.185 103.932 293.737C105.087 293.157 105.953 292.868 107.108 292.288C110.861 290.55 115.191 287.654 118.078 285.626C120.965 283.02 122.986 281.571 122.986 281.571Z" fill="white"/>
<path d="M97.2938 272.593C96.7164 268.538 94.1181 265.931 90.9424 264.483C87.7668 262.745 84.0137 262.456 81.1267 263.324C77.951 264.483 74.4867 265.642 70.4449 266.511C66.4031 267.379 61.784 268.248 56.5874 268.538C57.7422 272.014 60.3405 275.2 63.8048 277.517C67.2692 280.124 71.8884 280.993 75.9301 280.124C80.2606 279.255 85.4572 277.517 89.7876 275.779C94.1181 274.041 97.2938 272.593 97.2938 272.593Z" fill="white"/>
<path d="M73.6161 258.4C73.6161 256.372 73.3274 254.634 72.4614 253.186C72.1727 252.317 71.5953 251.738 71.0179 251.158C70.4405 250.579 69.8631 249.71 69.2857 249.131C66.6874 246.814 62.9343 245.655 59.7587 245.945C56.583 246.235 52.8299 246.524 48.7881 246.814C44.7464 246.814 39.5498 247.103 34.9307 245.945C34.9307 249.71 37.2402 253.186 40.1272 256.372C41.5707 257.82 43.3029 259.269 45.3238 260.137C47.3447 261.006 49.3655 261.296 51.6751 261.296C56.0056 261.296 61.4908 260.717 66.11 260.137C70.1518 259.269 73.6161 258.4 73.6161 258.4Z" fill="white"/>
<path d="M53.4047 239.863C53.9821 237.546 53.6934 235.519 52.8273 233.202C51.9612 231.174 50.8064 229.436 49.0742 227.988C47.0533 226.25 44.455 225.091 42.4342 224.802C39.2585 224.512 35.5054 223.933 31.4636 223.354C29.4428 223.064 27.1332 222.485 24.8236 221.905C22.8027 221.326 20.4931 220.457 18.1835 219.588C17.8948 221.326 18.1835 223.354 18.4722 225.381C19.0496 227.409 19.9157 229.147 21.0705 230.884C22.2253 232.622 23.6688 234.36 25.401 235.519C26.2671 236.098 27.1332 236.677 27.9993 237.257C28.8654 237.546 30.0202 238.126 31.1749 238.126C32.3297 238.415 33.4845 238.415 34.6393 238.705C38.9698 239.284 43.5889 239.863 47.342 239.863C50.8064 239.863 53.4047 239.863 53.4047 239.863Z" fill="white"/>
<path d="M35.2205 216.982C36.6639 217.272 37.53 217.272 37.53 217.272C38.9735 213.796 38.9735 210.031 37.2413 206.845C36.3752 205.396 35.2205 203.948 33.777 202.79C32.6222 201.631 31.1787 200.762 29.7352 200.183C26.8482 199.024 23.0952 198.155 19.0534 196.417C18.1873 196.128 17.0325 195.548 15.8777 195.259C15.0116 194.68 13.8568 194.39 12.9907 193.811C10.9699 192.652 8.94898 191.493 6.9281 190.045C5.77331 193.231 5.48461 197.866 7.50549 201.631C9.23768 205.686 11.836 209.162 15.8777 210.9C19.9195 212.638 25.4047 214.375 29.7352 215.534C31.7561 216.113 33.777 216.693 35.2205 216.982Z" fill="white"/>
<path d="M19.3424 188.595C23.3841 190.623 26.5598 192.071 26.5598 192.071C31.7564 185.989 27.7146 177.01 22.8067 173.824C20.2085 172.086 16.7441 170.348 12.991 168.031C9.52664 165.713 6.06227 162.817 2.59789 159.052C1.7318 160.5 1.15441 162.527 0.577012 164.265C0.288314 166.293 -0.000383601 168.32 0.577012 170.348C1.4431 174.403 3.46399 178.458 6.92836 181.065C10.104 183.671 15.3006 186.568 19.3424 188.595Z" fill="white"/>
<path d="M6.35135 152.969C9.52702 155.866 13.2801 159.052 16.1671 161.369C19.054 163.686 21.0749 165.134 21.0749 165.134C25.1167 162.238 25.6941 157.314 24.5393 152.969C23.9619 150.363 22.8071 148.045 21.0749 146.597C18.7653 144.28 15.8784 141.963 12.7027 138.777C9.81572 135.591 6.92874 132.115 4.33047 128.06C2.02088 130.667 0 134.722 0 138.777C0 143.121 1.15479 147.466 4.04177 150.652C4.61916 151.232 5.48526 152.1 6.35135 152.969Z" fill="white"/>
<path d="M16.1628 131.537C19.0498 135.012 21.3593 137.619 21.3593 137.619C24.8237 135.881 26.8446 132.695 27.1333 128.93C27.1333 127.192 27.422 125.454 27.1333 123.716C26.8446 121.978 26.2672 120.53 25.4011 119.082C23.6689 116.475 21.0706 113.289 19.0498 109.813C17.0289 106.338 14.7193 101.993 12.9871 97.3586C10.1001 99.3861 7.79056 103.151 6.34707 107.207C5.48098 111.262 5.76967 115.896 7.79056 119.661C9.81144 123.137 13.2758 128.061 16.1628 131.537Z" fill="white"/>
<path d="M20.2112 96.7778C21.366 99.095 22.5208 101.412 23.6755 103.44C25.6964 107.495 27.7173 110.391 27.7173 110.391C31.4704 109.522 34.0687 106.626 34.9348 103.15C36.3782 99.9639 36.3782 96.1985 35.2234 93.0124C34.6461 91.5642 33.78 89.8264 33.2026 88.0885C32.3365 86.3506 31.7591 84.6127 31.1817 82.5852C29.7382 78.5302 28.5834 74.1855 27.7173 68.9719C24.5416 70.4201 21.366 73.6062 19.3451 77.082C17.9016 79.6888 17.3242 81.7163 17.3242 83.7438C17.0355 85.7713 17.3242 88.0885 17.9016 90.116C18.479 92.1435 19.3451 94.4607 20.2112 96.7778Z" fill="white"/>
<path d="M34.3601 66.9445C34.6488 68.972 35.2262 71.2892 35.5149 73.3167C36.0923 75.3442 36.6697 77.6614 37.2471 79.3992C38.4019 82.875 39.2679 85.4818 39.2679 85.4818C44.1758 85.4818 47.3515 81.7164 49.0837 77.6614C50.2385 75.3442 50.5272 72.4478 49.9498 70.1306C49.0837 66.9445 48.5063 63.4688 47.9289 59.1241C47.3515 55.0691 46.7741 50.1451 47.3515 45.2211C43.8871 45.8004 40.4227 48.4072 37.5358 51.5933C36.0923 53.3312 34.9375 55.0691 34.3601 57.0966C33.7827 59.1241 33.494 61.4412 33.7827 63.4688C33.7827 64.6273 34.0714 65.7859 34.3601 66.9445Z" fill="white"/>
<path d="M55.4285 63.7586C59.1816 64.3379 62.3573 62.6 64.9556 60.2828C67.5539 57.9657 68.9973 54.2003 68.9973 51.0142C68.9973 47.8281 68.9973 44.0627 69.286 39.718C69.286 37.6905 69.5747 35.3734 69.8634 33.0562C70.1521 30.7391 70.7295 28.4219 71.5956 26.1047C69.8634 26.1047 67.8425 26.3944 66.1104 26.9737C64.3782 27.8426 62.3573 28.7115 60.9138 30.1598C57.7381 32.7666 55.1398 36.532 54.8512 40.8766C54.5625 45.2213 54.2738 51.0142 54.5625 55.3589C54.8512 60.2828 55.4285 63.7586 55.4285 63.7586Z" fill="white"/>
<path d="M86.3183 44.0632C87.7618 43.1943 89.2053 41.7461 90.0714 40.2978C90.9375 38.8496 91.8035 37.4014 92.3809 35.9532C93.8244 29.8706 95.2679 20.602 100.176 12.2023C93.247 10.1748 83.1426 15.0987 80.2556 23.2088C79.1008 27.5535 77.6574 33.0567 77.08 37.691C76.7913 40.0082 76.5026 42.0357 76.5026 43.4839C76.5026 44.9322 76.2139 45.8011 76.2139 45.8011C79.6782 46.67 83.4313 45.8011 86.3183 44.0632Z" fill="white"/>
<path d="M112.596 31.318C114.617 29.8697 116.926 28.1319 117.792 26.1043C119.236 23.2079 120.679 19.7322 122.7 15.9668C124.721 12.2014 127.319 8.436 130.495 4.67062C128.763 3.80168 127.031 3.51204 125.01 3.22239C122.989 2.93275 120.968 3.22239 118.947 3.80168C114.905 4.96026 111.152 7.56707 108.843 11.0428C108.265 11.9117 107.688 13.0703 107.11 14.2289C105.089 18.2839 103.357 22.6286 102.203 26.1043C101.625 27.8422 101.048 29.2904 100.759 30.449C100.47 31.6076 100.182 32.1869 100.182 32.1869C103.935 34.504 108.843 33.9248 112.596 31.318Z" fill="white"/>
<path d="M135.979 26.6842C137.711 26.3946 139.443 25.5257 140.887 24.9464C142.33 24.0774 143.774 23.2085 144.64 21.7603C146.661 19.1535 148.682 15.9674 151.569 12.7813C154.167 9.59519 157.631 6.40909 161.384 3.223C158.497 1.19549 154.456 -0.252739 150.125 0.0369057C145.795 0.326551 141.753 2.06442 138.866 5.25051C137.422 6.69874 135.979 8.72625 134.247 11.0434C132.803 13.0709 131.36 15.3881 129.916 17.126C127.318 20.8913 125.875 24.0774 125.875 24.0774C129.05 26.3946 132.515 27.2635 135.979 26.6842Z" fill="white"/>
<path d="M153.583 21.1815C155.604 24.6573 159.069 26.1055 162.822 26.1055C163.688 26.1055 164.554 26.1055 165.42 25.8158C166.286 25.8158 167.152 25.5262 168.018 25.2366C169.751 24.6573 171.194 24.078 172.349 22.9194C174.658 20.8919 177.545 17.9954 181.01 15.3886C184.185 12.7818 188.227 10.175 192.558 8.1475C189.959 5.5407 186.206 3.51318 182.165 2.64425C177.834 2.06496 173.504 2.93389 170.039 5.25105C166.575 7.56821 162.244 11.9129 159.069 15.099C155.893 18.5747 153.583 21.1815 153.583 21.1815Z" fill="white"/>
<path d="M181.013 24.3683C182.745 29.0026 187.076 31.0301 191.406 31.3197C194.005 31.6094 196.603 31.3197 198.624 29.8715C204.398 26.3958 211.904 22.3407 221.431 19.7339C219.699 16.5478 216.234 13.941 212.481 12.2032C208.439 10.7549 203.82 10.7549 200.067 12.2032C198.912 12.7825 198.046 13.0721 196.892 13.6514C193.138 15.3893 188.808 18.2857 185.921 20.3132C183.034 22.6304 181.013 24.3683 181.013 24.3683Z" fill="white"/>
<path d="M206.708 33.056C207.285 37.111 209.884 39.7178 213.059 41.166C216.235 42.9039 219.988 43.1935 222.875 42.3246C226.051 41.166 229.515 40.0074 233.557 39.1385C237.599 38.2696 242.218 37.4006 247.414 37.111C246.26 33.6352 243.661 30.4492 240.197 28.132C236.733 25.5252 232.113 24.6563 228.072 25.5252C223.741 26.3941 218.545 28.132 214.214 29.8699C209.884 31.6077 206.708 33.056 206.708 33.056Z" fill="white"/>
<path d="M235 56.5185C237.598 58.8356 241.351 59.9942 244.527 59.7046C247.702 59.4149 251.455 59.1253 255.497 58.8356C259.539 58.8356 264.736 58.546 269.355 59.7046C269.355 55.9392 267.045 52.4635 264.158 49.2774C262.715 47.8291 260.982 46.3809 258.962 45.512C256.941 44.643 254.92 44.3534 252.61 44.3534C248.28 44.3534 242.795 44.9327 238.175 45.512C233.556 46.3809 230.092 47.2498 230.092 47.2498C230.092 49.2774 230.38 51.0152 231.247 52.4635C231.535 53.3324 232.113 53.9117 232.69 54.491C233.556 55.3599 234.134 55.9392 235 56.5185Z" fill="white"/>
<path d="M261.853 80.8476C265.028 81.1373 268.781 81.7165 272.823 82.2958C274.844 82.5855 277.154 83.1648 279.463 83.7441C281.484 84.3233 283.794 85.1923 286.103 86.0612C286.392 84.3233 286.103 82.2958 285.814 80.2683C285.237 78.2408 284.371 76.5029 283.216 74.7651C282.061 73.0272 280.618 71.2893 278.886 70.1307C278.02 69.5515 277.154 68.9722 276.287 68.3929C275.421 68.1032 274.267 67.5239 273.112 67.5239C271.957 67.2343 270.802 67.2343 269.647 66.9447C265.317 66.3654 260.698 65.7861 256.945 65.7861C253.192 65.7861 250.593 65.7861 250.593 65.7861C250.016 68.1032 250.305 70.1307 251.171 72.4479C252.037 74.4754 253.192 76.2133 254.924 77.6615C256.945 79.3994 259.543 80.558 261.853 80.8476Z" fill="white"/>
<path d="M268.777 88.6681C267.333 88.3785 266.467 88.3785 266.467 88.3785C265.023 91.8542 265.023 95.6196 266.756 98.8057C267.622 100.254 268.777 101.702 270.22 102.861C271.375 104.019 272.818 104.888 274.262 105.468C277.149 106.626 280.902 107.495 284.944 109.233C285.81 109.523 286.964 110.102 288.119 110.391C288.985 110.971 290.14 111.26 291.006 111.84C293.027 112.998 295.048 114.157 297.069 115.605C298.224 112.419 298.512 107.785 296.492 104.019C294.759 99.9643 292.161 96.4885 288.119 94.7507C284.078 93.0128 278.592 91.2749 274.262 90.1163C272.241 89.5371 270.22 88.9578 268.777 88.6681Z" fill="white"/>
<path d="M284.65 117.052C280.608 115.024 277.432 113.576 277.432 113.576C272.236 119.659 276.277 128.638 281.185 131.824C283.784 133.561 287.248 135.299 291.001 137.617C294.465 139.934 297.93 142.83 301.394 146.596C302.26 145.147 302.838 143.12 303.415 141.382C303.704 139.354 303.992 137.327 303.415 135.299C302.549 131.244 300.528 127.189 297.064 124.582C293.888 121.976 288.691 119.079 284.65 117.052Z" fill="white"/>
<path d="M107.021 133.28C107.861 133.28 108.501 133.56 108.941 134.12C109.381 134.68 109.601 135.38 109.601 136.22C109.601 137.26 109.261 138.2 108.581 139.04C107.941 139.84 107.061 140.24 105.941 140.24C104.021 140.24 101.161 140.1 97.3609 139.82C96.6009 139.78 95.2009 139.7 93.1609 139.58C91.1209 139.46 89.5209 139.4 88.3609 139.4C87.8409 139.4 87.0809 139.58 86.0809 139.94C85.8809 139.98 85.4809 140.08 84.8809 140.24C84.3209 140.4 83.8409 140.48 83.4409 140.48C82.8009 140.48 82.2609 140.2 81.8209 139.64C81.4209 139.04 81.2209 138.16 81.2209 137C81.2209 135.72 81.5209 134.74 82.1209 134.06C82.7209 133.34 83.6609 132.7 84.9409 132.14C87.6609 130.94 90.2209 129.42 92.6209 127.58C95.0609 125.7 97.0009 123.68 98.4409 121.52C99.9209 119.36 100.661 117.3 100.661 115.34C100.661 113.78 100.301 112.64 99.5809 111.92C98.9009 111.16 97.8009 110.78 96.2809 110.78C94.5209 110.78 93.1009 111.26 92.0209 112.22C90.9809 113.18 90.4609 114.52 90.4609 116.24C90.4609 118.6 89.2809 119.78 86.9209 119.78C85.8009 119.78 84.9209 119.46 84.2809 118.82C83.6809 118.18 83.3809 117.26 83.3809 116.06C83.3809 114.06 83.9009 112.22 84.9409 110.54C85.9809 108.86 87.5409 107.52 89.6209 106.52C91.7009 105.48 94.2409 104.96 97.2409 104.96C100.841 104.96 103.661 105.86 105.701 107.66C107.741 109.46 108.761 111.96 108.761 115.16C108.761 118.2 107.421 121.38 104.741 124.7C102.101 128.02 98.2809 130.96 93.2809 133.52L107.021 133.28ZM129.075 111.38C127.915 111.38 127.075 111.4 126.555 111.44C126.035 113.2 125.455 115.6 124.815 118.64C129.975 118.92 133.895 119.98 136.575 121.82C139.255 123.66 140.595 126.16 140.595 129.32C140.595 131.4 140.055 133.28 138.975 134.96C137.935 136.6 136.395 137.9 134.355 138.86C132.315 139.82 129.915 140.3 127.155 140.3C123.435 140.3 120.435 139.58 118.155 138.14C115.915 136.7 114.795 134.76 114.795 132.32C114.795 131 115.095 129.98 115.695 129.26C116.335 128.5 117.215 128.12 118.335 128.12C119.215 128.12 119.895 128.36 120.375 128.84C120.855 129.28 121.255 130.06 121.575 131.18C122.255 133.62 124.315 134.84 127.755 134.84C129.235 134.84 130.455 134.4 131.415 133.52C132.375 132.6 132.855 131.48 132.855 130.16C132.855 126.64 129.115 124.76 121.635 124.52C120.035 124.48 118.875 124.22 118.155 123.74C117.475 123.26 117.135 122.52 117.135 121.52C117.135 121.04 117.195 120.54 117.315 120.02L117.975 117.14C118.215 115.98 118.615 114.2 119.175 111.8H119.055C118.255 111.8 117.615 111.62 117.135 111.26C116.655 110.86 116.415 110.32 116.415 109.64C116.415 107.68 117.375 106.4 119.295 105.8C121.095 105.24 124.335 104.96 129.015 104.96C132.375 104.96 134.815 105.02 136.335 105.14C137.855 105.22 139.035 105.36 139.875 105.56C140.675 105.76 141.235 106.04 141.555 106.4C141.875 106.72 142.035 107.22 142.035 107.9C142.035 109.26 141.755 110.24 141.195 110.84C140.675 111.4 139.775 111.68 138.495 111.68C137.855 111.68 136.615 111.64 134.775 111.56C131.415 111.44 129.515 111.38 129.075 111.38ZM158.45 140.3C154.53 140.3 151.49 139.02 149.33 136.46C147.21 133.9 146.15 130.24 146.15 125.48C146.15 121.44 146.77 117.88 148.01 114.8C149.29 111.68 151.05 109.26 153.29 107.54C155.57 105.82 158.21 104.96 161.21 104.96C165.13 104.96 168.15 106.24 170.27 108.8C172.43 111.36 173.51 115.02 173.51 119.78C173.51 123.82 172.87 127.4 171.59 130.52C170.35 133.6 168.59 136 166.31 137.72C164.07 139.44 161.45 140.3 158.45 140.3ZM159.05 133.58C161.21 133.58 162.91 132.38 164.15 129.98C165.39 127.58 166.01 124.32 166.01 120.2C166.01 117.44 165.55 115.34 164.63 113.9C163.71 112.42 162.37 111.68 160.61 111.68C158.45 111.68 156.75 112.9 155.51 115.34C154.27 117.74 153.65 121 153.65 125.12C153.65 127.88 154.09 129.98 154.97 131.42C155.89 132.86 157.25 133.58 159.05 133.58ZM191.028 140.3C187.108 140.3 184.068 139.02 181.908 136.46C179.788 133.9 178.728 130.24 178.728 125.48C178.728 121.44 179.348 117.88 180.588 114.8C181.868 111.68 183.628 109.26 185.868 107.54C188.148 105.82 190.788 104.96 193.788 104.96C197.708 104.96 200.728 106.24 202.848 108.8C205.008 111.36 206.088 115.02 206.088 119.78C206.088 123.82 205.448 127.4 204.168 130.52C202.928 133.6 201.168 136 198.888 137.72C196.648 139.44 194.028 140.3 191.028 140.3ZM191.628 133.58C193.788 133.58 195.488 132.38 196.728 129.98C197.968 127.58 198.588 124.32 198.588 120.2C198.588 117.44 198.128 115.34 197.208 113.9C196.288 112.42 194.948 111.68 193.188 111.68C191.028 111.68 189.328 112.9 188.088 115.34C186.848 117.74 186.228 121 186.228 125.12C186.228 127.88 186.668 129.98 187.548 131.42C188.468 132.86 189.828 133.58 191.628 133.58ZM237.706 115.7C237.706 118.02 237.046 120.16 235.726 122.12C234.446 124.08 232.526 125.66 229.966 126.86C227.446 128.06 224.386 128.7 220.786 128.78L220.486 131.24L227.866 131.18C228.386 131.18 228.786 131.36 229.066 131.72C229.386 132.04 229.546 132.44 229.546 132.92C229.546 133.52 229.346 134.06 228.946 134.54C228.546 134.98 228.006 135.18 227.326 135.14L220.066 135.08L219.886 136.7C219.646 139.1 218.346 140.3 215.986 140.3C213.666 140.3 212.506 139.28 212.506 137.24L212.626 135.08H210.706C210.186 135.08 209.786 134.94 209.506 134.66C209.226 134.34 209.086 133.96 209.086 133.52C209.086 132.96 209.286 132.44 209.686 131.96C210.086 131.48 210.606 131.24 211.246 131.24H213.106C213.306 130.04 213.446 129.22 213.526 128.78H211.306C210.786 128.78 210.386 128.64 210.106 128.36C209.866 128.08 209.746 127.72 209.746 127.28C209.746 126.68 209.986 126.12 210.466 125.6C210.946 125.08 211.546 124.82 212.266 124.82H214.186C214.266 124.3 214.426 123.32 214.666 121.88L215.806 115.22C215.926 114.5 216.166 112.98 216.526 110.66L215.446 111.08C215.206 111.2 214.966 111.26 214.726 111.26C214.206 111.26 213.786 111.08 213.466 110.72C213.146 110.36 212.986 109.9 212.986 109.34C212.986 108.3 213.586 107.42 214.786 106.7C215.826 106.06 217.146 105.56 218.746 105.2C220.346 104.8 222.006 104.6 223.726 104.6C228.446 104.6 231.946 105.6 234.226 107.6C236.546 109.6 237.706 112.3 237.706 115.7ZM230.386 115.94C230.386 113.94 229.886 112.44 228.886 111.44C227.926 110.4 226.246 109.8 223.846 109.64L223.246 113.42C223.166 113.7 223.106 114 223.066 114.32C223.026 114.6 222.986 114.86 222.946 115.1L221.806 121.76L221.386 124.64C224.466 124.2 226.726 123.22 228.166 121.7C229.646 120.18 230.386 118.26 230.386 115.94Z" fill="white"/>
<path d="M65.551 182.048V180.632H66.631C66.999 180.632 67.271 180.528 67.447 180.32C67.639 180.112 67.847 179.8 68.071 179.384L68.815 177.824L61.543 164.96H63.391L69.583 176.12L74.743 164.96H76.495L69.367 180.2C69.047 180.856 68.719 181.328 68.383 181.616C68.047 181.904 67.575 182.048 66.967 182.048H65.551ZM78.108 182V169.496H79.74V174.872H86.892V169.496H88.524V182H86.892V176.336H79.74V182H78.108ZM92.1002 182V169.52H93.7322V179.792L101.34 169.496H102.804V182H101.172V171.896L93.6842 182H92.1002ZM106.35 182V169.496H112.59C113.294 169.496 113.886 169.648 114.366 169.952C114.846 170.24 115.206 170.616 115.446 171.08C115.702 171.544 115.83 172.04 115.83 172.568C115.83 173.24 115.67 173.848 115.35 174.392C115.03 174.92 114.566 175.32 113.958 175.592C114.678 175.8 115.262 176.176 115.71 176.72C116.158 177.264 116.382 177.92 116.382 178.688C116.382 179.36 116.214 179.944 115.878 180.44C115.558 180.936 115.11 181.32 114.534 181.592C113.974 181.864 113.326 182 112.59 182H106.35ZM107.91 180.824H112.542C112.958 180.824 113.334 180.72 113.67 180.512C114.022 180.288 114.294 180 114.486 179.648C114.694 179.296 114.798 178.928 114.798 178.544C114.798 178.128 114.702 177.752 114.51 177.416C114.318 177.064 114.062 176.784 113.742 176.576C113.422 176.368 113.054 176.264 112.638 176.264H107.91V180.824ZM107.91 175.136H112.158C112.574 175.136 112.942 175.024 113.262 174.8C113.582 174.576 113.83 174.288 114.006 173.936C114.182 173.584 114.27 173.216 114.27 172.832C114.27 172.256 114.078 171.752 113.694 171.32C113.326 170.888 112.846 170.672 112.254 170.672H107.91V175.136ZM124.618 182.24C123.722 182.24 122.89 182.072 122.122 181.736C121.354 181.384 120.69 180.912 120.13 180.32C119.57 179.712 119.13 179.016 118.81 178.232C118.506 177.448 118.354 176.608 118.354 175.712C118.354 174.544 118.618 173.472 119.146 172.496C119.69 171.52 120.434 170.744 121.378 170.168C122.322 169.576 123.394 169.28 124.594 169.28C125.826 169.28 126.898 169.576 127.81 170.168C128.738 170.76 129.466 171.544 129.994 172.52C130.522 173.48 130.786 174.536 130.786 175.688C130.786 175.816 130.786 175.944 130.786 176.072C130.786 176.184 130.778 176.272 130.762 176.336H120.058C120.138 177.232 120.386 178.032 120.802 178.736C121.234 179.424 121.786 179.976 122.458 180.392C123.146 180.792 123.89 180.992 124.69 180.992C125.506 180.992 126.274 180.784 126.994 180.368C127.73 179.952 128.242 179.408 128.53 178.736L129.946 179.12C129.69 179.712 129.298 180.248 128.77 180.728C128.242 181.208 127.618 181.584 126.898 181.856C126.194 182.112 125.434 182.24 124.618 182.24ZM120.01 175.16H129.25C129.186 174.248 128.938 173.448 128.506 172.76C128.09 172.072 127.538 171.536 126.85 171.152C126.178 170.752 125.434 170.552 124.618 170.552C123.802 170.552 123.058 170.752 122.386 171.152C121.714 171.536 121.162 172.08 120.73 172.784C120.314 173.472 120.074 174.264 120.01 175.16ZM139.688 182.24C138.648 182.24 137.712 181.968 136.88 181.424C136.064 180.88 135.416 180.208 134.936 179.408V187.112H133.304V169.496H134.768V171.92C135.264 171.136 135.928 170.504 136.76 170.024C137.592 169.528 138.48 169.28 139.424 169.28C140.288 169.28 141.08 169.464 141.8 169.832C142.52 170.184 143.144 170.664 143.672 171.272C144.2 171.88 144.608 172.576 144.896 173.36C145.2 174.128 145.352 174.928 145.352 175.76C145.352 176.928 145.112 178.008 144.632 179C144.168 179.976 143.512 180.76 142.664 181.352C141.816 181.944 140.824 182.24 139.688 182.24ZM139.232 180.8C139.92 180.8 140.536 180.664 141.08 180.392C141.624 180.104 142.088 179.72 142.472 179.24C142.872 178.76 143.176 178.224 143.384 177.632C143.592 177.024 143.696 176.4 143.696 175.76C143.696 175.088 143.576 174.448 143.336 173.84C143.112 173.232 142.784 172.696 142.352 172.232C141.92 171.768 141.424 171.4 140.864 171.128C140.304 170.856 139.696 170.72 139.04 170.72C138.624 170.72 138.192 170.8 137.744 170.96C137.296 171.12 136.864 171.352 136.448 171.656C136.048 171.944 135.712 172.272 135.44 172.64C135.168 173.008 135 173.4 134.936 173.816V177.656C135.192 178.248 135.536 178.784 135.968 179.264C136.4 179.728 136.896 180.104 137.456 180.392C138.032 180.664 138.624 180.8 139.232 180.8ZM153.54 182.24C152.628 182.24 151.788 182.072 151.02 181.736C150.268 181.384 149.604 180.904 149.028 180.296C148.468 179.688 148.028 178.992 147.708 178.208C147.404 177.424 147.252 176.592 147.252 175.712C147.252 174.528 147.516 173.448 148.044 172.472C148.572 171.496 149.308 170.72 150.252 170.144C151.196 169.568 152.284 169.28 153.516 169.28C154.684 169.28 155.716 169.552 156.612 170.096C157.508 170.624 158.172 171.344 158.604 172.256L157.02 172.76C156.668 172.12 156.172 171.624 155.532 171.272C154.908 170.904 154.212 170.72 153.444 170.72C152.612 170.72 151.852 170.936 151.164 171.368C150.476 171.8 149.924 172.392 149.508 173.144C149.108 173.896 148.908 174.752 148.908 175.712C148.908 176.656 149.116 177.512 149.532 178.28C149.948 179.048 150.5 179.664 151.188 180.128C151.876 180.576 152.636 180.8 153.468 180.8C154.012 180.8 154.532 180.704 155.028 180.512C155.54 180.32 155.98 180.064 156.348 179.744C156.732 179.408 156.988 179.048 157.116 178.664L158.724 179.144C158.5 179.736 158.124 180.272 157.596 180.752C157.084 181.216 156.476 181.584 155.772 181.856C155.084 182.112 154.34 182.24 153.54 182.24ZM160.28 178.4C160.28 177.616 160.504 176.944 160.952 176.384C161.4 175.808 162.016 175.368 162.8 175.064C163.6 174.744 164.52 174.584 165.56 174.584C166.168 174.584 166.8 174.632 167.456 174.728C168.112 174.824 168.696 174.968 169.208 175.16V174.104C169.208 173.048 168.896 172.208 168.272 171.584C167.648 170.96 166.784 170.648 165.68 170.648C165.008 170.648 164.344 170.776 163.688 171.032C163.048 171.272 162.376 171.632 161.672 172.112L161.048 170.96C161.864 170.4 162.664 169.984 163.448 169.712C164.232 169.424 165.032 169.28 165.848 169.28C167.384 169.28 168.6 169.72 169.496 170.6C170.392 171.48 170.84 172.696 170.84 174.248V180.032C170.84 180.256 170.888 180.424 170.984 180.536C171.08 180.632 171.232 180.688 171.44 180.704V182C171.264 182.016 171.112 182.032 170.984 182.048C170.856 182.064 170.76 182.064 170.696 182.048C170.296 182.032 169.992 181.904 169.784 181.664C169.576 181.424 169.464 181.168 169.448 180.896L169.424 179.984C168.864 180.704 168.136 181.264 167.24 181.664C166.344 182.048 165.432 182.24 164.504 182.24C163.704 182.24 162.976 182.072 162.32 181.736C161.68 181.384 161.176 180.92 160.808 180.344C160.456 179.752 160.28 179.104 160.28 178.4ZM168.656 179.36C168.832 179.136 168.968 178.92 169.064 178.712C169.16 178.504 169.208 178.32 169.208 178.16V176.336C168.664 176.128 168.096 175.968 167.504 175.856C166.928 175.744 166.344 175.688 165.752 175.688C164.584 175.688 163.64 175.92 162.92 176.384C162.2 176.848 161.84 177.48 161.84 178.28C161.84 178.744 161.96 179.184 162.2 179.6C162.44 180 162.792 180.336 163.256 180.608C163.72 180.864 164.264 180.992 164.888 180.992C165.672 180.992 166.4 180.84 167.072 180.536C167.76 180.232 168.288 179.84 168.656 179.36ZM173.166 182.072V180.584C173.598 180.584 173.982 180.472 174.318 180.248C174.654 180.008 174.95 179.608 175.206 179.048C175.478 178.488 175.694 177.72 175.854 176.744C176.014 175.752 176.118 174.496 176.166 172.976L176.31 169.496H184.422V182H182.79V170.96H177.75L177.702 173.12C177.638 174.848 177.502 176.296 177.294 177.464C177.086 178.616 176.79 179.528 176.406 180.2C176.038 180.872 175.582 181.352 175.038 181.64C174.494 181.928 173.87 182.072 173.166 182.072ZM188.006 182V169.496H189.638V173.912H192.878C194.302 173.912 195.374 174.28 196.094 175.016C196.83 175.736 197.198 176.688 197.198 177.872C197.198 178.64 197.038 179.336 196.718 179.96C196.398 180.584 195.926 181.08 195.302 181.448C194.694 181.816 193.926 182 192.998 182H188.006ZM189.638 180.704H192.782C193.438 180.704 193.966 180.576 194.366 180.32C194.766 180.048 195.062 179.704 195.254 179.288C195.446 178.856 195.542 178.392 195.542 177.896C195.542 177.416 195.454 176.976 195.278 176.576C195.118 176.16 194.83 175.832 194.414 175.592C194.014 175.336 193.454 175.208 192.734 175.208H189.638V180.704ZM199.725 182V169.496H201.357V174.872H208.509V169.496H210.141V182H208.509V176.336H201.357V182H199.725ZM213.717 182V169.496H215.349V173.912H218.181C219.605 173.912 220.677 174.28 221.397 175.016C222.133 175.736 222.501 176.688 222.501 177.872C222.501 178.64 222.341 179.336 222.021 179.96C221.701 180.584 221.229 181.08 220.605 181.448C219.997 181.816 219.229 182 218.301 182H213.717ZM215.349 180.704H218.085C218.741 180.704 219.269 180.576 219.669 180.32C220.069 180.048 220.365 179.704 220.557 179.288C220.749 178.856 220.845 178.392 220.845 177.896C220.845 177.416 220.757 176.976 220.581 176.576C220.421 176.16 220.133 175.832 219.717 175.592C219.317 175.336 218.757 175.208 218.037 175.208H215.349V180.704ZM224.781 182V169.52H226.413V182H224.781ZM229.983 182V169.52H231.615V179.792L239.223 169.496H240.687V182H239.055V171.896L231.567 182H229.983ZM235.359 167.912C234.271 167.912 233.431 167.656 232.839 167.144C232.247 166.632 231.951 165.984 231.951 165.2H233.151C233.151 165.68 233.327 166.08 233.679 166.4C234.047 166.72 234.607 166.88 235.359 166.88C236.095 166.88 236.631 166.728 236.967 166.424C237.319 166.12 237.519 165.712 237.567 165.2H238.743C238.743 165.984 238.447 166.632 237.855 167.144C237.263 167.656 236.431 167.912 235.359 167.912ZM91.5365 210.24C90.6245 210.24 89.7845 210.072 89.0165 209.736C88.2645 209.384 87.6005 208.904 87.0245 208.296C86.4645 207.688 86.0245 206.992 85.7045 206.208C85.4005 205.424 85.2485 204.592 85.2485 203.712C85.2485 202.528 85.5125 201.448 86.0405 200.472C86.5685 199.496 87.3045 198.72 88.2485 198.144C89.1925 197.568 90.2805 197.28 91.5125 197.28C92.6805 197.28 93.7125 197.552 94.6085 198.096C95.5045 198.624 96.1685 199.344 96.6005 200.256L95.0165 200.76C94.6645 200.12 94.1685 199.624 93.5285 199.272C92.9045 198.904 92.2085 198.72 91.4405 198.72C90.6085 198.72 89.8485 198.936 89.1605 199.368C88.4725 199.8 87.9205 200.392 87.5045 201.144C87.1045 201.896 86.9045 202.752 86.9045 203.712C86.9045 204.656 87.1125 205.512 87.5285 206.28C87.9445 207.048 88.4965 207.664 89.1845 208.128C89.8725 208.576 90.6325 208.8 91.4645 208.8C92.0085 208.8 92.5285 208.704 93.0245 208.512C93.5365 208.32 93.9765 208.064 94.3445 207.744C94.7285 207.408 94.9845 207.048 95.1125 206.664L96.7205 207.144C96.4965 207.736 96.1205 208.272 95.5925 208.752C95.0805 209.216 94.4725 209.584 93.7685 209.856C93.0805 210.112 92.3365 210.24 91.5365 210.24ZM104.567 210.24C103.671 210.24 102.839 210.072 102.071 209.736C101.303 209.384 100.639 208.912 100.079 208.32C99.5192 207.712 99.0792 207.016 98.7592 206.232C98.4552 205.448 98.3032 204.608 98.3032 203.712C98.3032 202.544 98.5672 201.472 99.0952 200.496C99.6392 199.52 100.383 198.744 101.327 198.168C102.271 197.576 103.343 197.28 104.543 197.28C105.775 197.28 106.847 197.576 107.759 198.168C108.687 198.76 109.415 199.544 109.943 200.52C110.471 201.48 110.735 202.536 110.735 203.688C110.735 203.816 110.735 203.944 110.735 204.072C110.735 204.184 110.727 204.272 110.711 204.336H100.007C100.087 205.232 100.335 206.032 100.751 206.736C101.183 207.424 101.735 207.976 102.407 208.392C103.095 208.792 103.839 208.992 104.639 208.992C105.455 208.992 106.223 208.784 106.943 208.368C107.679 207.952 108.191 207.408 108.479 206.736L109.895 207.12C109.639 207.712 109.247 208.248 108.719 208.728C108.191 209.208 107.567 209.584 106.847 209.856C106.143 210.112 105.383 210.24 104.567 210.24ZM99.9592 203.16H109.199C109.135 202.248 108.887 201.448 108.455 200.76C108.039 200.072 107.487 199.536 106.799 199.152C106.127 198.752 105.383 198.552 104.567 198.552C103.751 198.552 103.007 198.752 102.335 199.152C101.663 199.536 101.111 200.08 100.679 200.784C100.263 201.472 100.023 202.264 99.9592 203.16ZM119.637 210.24C118.597 210.24 117.661 209.968 116.829 209.424C116.013 208.88 115.365 208.208 114.885 207.408V215.112H113.253V197.496H114.717V199.92C115.213 199.136 115.877 198.504 116.709 198.024C117.541 197.528 118.429 197.28 119.373 197.28C120.237 197.28 121.029 197.464 121.749 197.832C122.469 198.184 123.093 198.664 123.621 199.272C124.149 199.88 124.557 200.576 124.845 201.36C125.149 202.128 125.301 202.928 125.301 203.76C125.301 204.928 125.061 206.008 124.581 207C124.117 207.976 123.461 208.76 122.613 209.352C121.765 209.944 120.773 210.24 119.637 210.24ZM119.181 208.8C119.869 208.8 120.485 208.664 121.029 208.392C121.573 208.104 122.037 207.72 122.421 207.24C122.821 206.76 123.125 206.224 123.333 205.632C123.541 205.024 123.645 204.4 123.645 203.76C123.645 203.088 123.525 202.448 123.285 201.84C123.061 201.232 122.733 200.696 122.301 200.232C121.869 199.768 121.373 199.4 120.813 199.128C120.253 198.856 119.645 198.72 118.989 198.72C118.573 198.72 118.141 198.8 117.693 198.96C117.245 199.12 116.813 199.352 116.397 199.656C115.997 199.944 115.661 200.272 115.389 200.64C115.117 201.008 114.949 201.4 114.885 201.816V205.656C115.141 206.248 115.485 206.784 115.917 207.264C116.349 207.728 116.845 208.104 117.405 208.392C117.981 208.664 118.573 208.8 119.181 208.8ZM131.186 210V198.96H126.722V197.496H137.282V198.96H132.818V210H131.186ZM139.479 210V197.52H141.111V207.792L148.719 197.496H150.183V210H148.551V199.896L141.063 210H139.479ZM159.513 215.112V210H158.961C157.729 210 156.657 209.712 155.745 209.136C154.833 208.56 154.129 207.808 153.633 206.88C153.137 205.936 152.889 204.904 152.889 203.784C152.889 202.648 153.137 201.608 153.633 200.664C154.145 199.72 154.857 198.96 155.769 198.384C156.681 197.808 157.745 197.52 158.961 197.52H159.513V192.48H161.145V197.52H161.697C162.913 197.52 163.977 197.808 164.889 198.384C165.801 198.96 166.505 199.72 167.001 200.664C167.513 201.608 167.769 202.648 167.769 203.784C167.769 204.904 167.521 205.936 167.025 206.88C166.529 207.808 165.825 208.56 164.913 209.136C164.001 209.712 162.929 210 161.697 210H161.145V215.112H159.513ZM158.961 208.632H159.561V198.888H158.961C158.097 198.888 157.329 199.112 156.657 199.56C155.985 199.992 155.457 200.584 155.073 201.336C154.689 202.072 154.497 202.896 154.497 203.808C154.497 204.704 154.681 205.52 155.049 206.256C155.433 206.992 155.961 207.576 156.633 208.008C157.305 208.424 158.081 208.632 158.961 208.632ZM161.073 208.632H161.697C162.577 208.632 163.353 208.424 164.025 208.008C164.697 207.576 165.217 206.992 165.585 206.256C165.969 205.52 166.161 204.704 166.161 203.808C166.161 202.896 165.969 202.072 165.585 201.336C165.201 200.584 164.673 199.992 164.001 199.56C163.345 199.112 162.577 198.888 161.697 198.888H161.073V208.632ZM170.487 210V197.52H172.119V207.792L179.727 197.496H181.191V210H179.559V199.896L172.071 210H170.487ZM184.737 210V197.496H186.369V202.848H188.241L192.441 197.496H194.313L189.537 203.568L194.913 210H192.993L188.241 204.36H186.369V210H184.737ZM196.175 206.4C196.175 205.616 196.399 204.944 196.847 204.384C197.295 203.808 197.911 203.368 198.695 203.064C199.495 202.744 200.415 202.584 201.455 202.584C202.063 202.584 202.695 202.632 203.351 202.728C204.007 202.824 204.591 202.968 205.103 203.16V202.104C205.103 201.048 204.791 200.208 204.167 199.584C203.543 198.96 202.679 198.648 201.575 198.648C200.903 198.648 200.239 198.776 199.583 199.032C198.943 199.272 198.271 199.632 197.567 200.112L196.943 198.96C197.759 198.4 198.559 197.984 199.343 197.712C200.127 197.424 200.927 197.28 201.743 197.28C203.279 197.28 204.495 197.72 205.391 198.6C206.287 199.48 206.735 200.696 206.735 202.248V208.032C206.735 208.256 206.783 208.424 206.879 208.536C206.975 208.632 207.127 208.688 207.335 208.704V210C207.159 210.016 207.007 210.032 206.879 210.048C206.751 210.064 206.655 210.064 206.591 210.048C206.191 210.032 205.887 209.904 205.679 209.664C205.471 209.424 205.359 209.168 205.343 208.896L205.319 207.984C204.759 208.704 204.031 209.264 203.135 209.664C202.239 210.048 201.327 210.24 200.399 210.24C199.599 210.24 198.871 210.072 198.215 209.736C197.575 209.384 197.071 208.92 196.703 208.344C196.351 207.752 196.175 207.104 196.175 206.4ZM204.551 207.36C204.727 207.136 204.863 206.92 204.959 206.712C205.055 206.504 205.103 206.32 205.103 206.16V204.336C204.559 204.128 203.991 203.968 203.399 203.856C202.823 203.744 202.239 203.688 201.647 203.688C200.479 203.688 199.535 203.92 198.815 204.384C198.095 204.848 197.735 205.48 197.735 206.28C197.735 206.744 197.855 207.184 198.095 207.6C198.335 208 198.687 208.336 199.151 208.608C199.615 208.864 200.159 208.992 200.783 208.992C201.567 208.992 202.295 208.84 202.967 208.536C203.655 208.232 204.183 207.84 204.551 207.36ZM213.17 210V198.96H208.706V197.496H219.266V198.96H214.802V210H213.17Z" fill="white"/>
</svg>
