<svg width="304" height="307" viewBox="0 0 304 307" fill="none" xmlns="http://www.w3.org/2000/svg">
<path d="M299.958 156.516C299.092 155.647 298.514 154.778 297.648 153.909C294.473 151.013 290.72 147.827 287.833 145.51C284.946 143.192 282.925 141.744 282.925 141.744C278.883 144.641 278.306 149.565 279.46 153.909C280.038 156.516 281.193 158.833 282.925 160.282C285.234 162.599 288.121 164.916 291.297 168.102C294.184 171.288 297.071 174.764 299.669 178.819C301.979 176.212 304 172.157 304 168.102C304 164.047 302.845 159.702 299.958 156.516Z" fill="white"/>
<path d="M287.833 175.342C284.946 171.867 282.636 169.26 282.636 169.26C279.172 170.998 277.151 174.184 276.862 177.949C276.862 179.687 276.573 181.425 276.862 183.163C277.151 184.901 277.728 186.349 278.594 187.797C280.327 190.404 282.925 193.59 284.946 197.066C286.967 200.542 289.276 204.886 291.008 209.521C293.895 207.493 296.205 203.728 297.648 199.673C298.515 195.618 298.226 190.983 296.205 187.218C294.184 183.452 290.72 178.818 287.833 175.342Z" fill="white"/>
<path d="M283.794 209.809C282.639 207.492 281.484 205.175 280.329 203.148C278.308 199.093 276.287 196.196 276.287 196.196C272.534 197.065 269.936 199.962 269.07 203.437C267.626 206.623 267.626 210.389 268.781 213.575C269.359 215.023 270.225 216.761 270.802 218.499C271.668 220.237 272.246 221.975 272.823 224.002C274.267 228.057 275.421 232.402 276.287 237.615C279.463 236.167 282.639 232.981 284.66 229.505C285.814 227.767 286.392 225.45 286.392 223.423C286.681 221.395 286.392 219.078 285.814 217.051C285.526 214.444 284.66 212.127 283.794 209.809Z" fill="white"/>
<path d="M269.644 239.644C269.355 237.617 268.777 235.3 268.489 233.272C267.911 231.245 267.334 228.927 266.757 227.189C265.602 223.714 264.736 221.107 264.736 221.107C259.828 221.107 256.652 224.872 254.92 228.927C253.765 231.245 253.476 234.141 254.054 236.458C254.92 239.644 255.497 243.12 256.075 247.465C256.652 251.52 257.23 256.444 256.652 261.368C260.116 260.788 263.581 258.181 266.468 254.995C267.911 253.258 269.066 251.52 269.644 249.492C270.221 247.465 270.51 245.147 270.221 243.12C270.221 241.961 269.932 240.803 269.644 239.644Z" fill="white"/>
<path d="M248.568 243.12C244.815 242.541 241.639 244.279 239.041 246.596C236.443 248.913 234.999 252.678 234.999 255.864C234.999 259.05 234.999 262.816 234.71 267.16C234.71 269.188 234.422 271.505 234.133 273.822C233.844 276.139 233.267 278.457 232.401 280.774C234.133 280.774 236.154 280.484 237.886 279.905C239.618 279.036 241.639 278.167 243.083 276.719C246.258 274.112 248.857 270.347 249.145 266.002C249.434 261.657 249.723 255.864 249.434 251.52C249.145 246.596 248.568 243.12 248.568 243.12Z" fill="white"/>
<path d="M217.675 262.815C216.232 263.684 214.788 265.132 213.922 266.58C213.056 268.029 212.19 269.477 211.613 270.925C210.169 277.008 208.726 286.276 203.818 294.676C210.747 296.703 220.851 291.78 223.738 283.669C224.893 279.325 226.336 273.822 226.914 269.187C227.202 266.87 227.491 264.843 227.491 263.394C227.491 261.946 227.78 261.077 227.78 261.077C224.315 260.208 220.562 260.788 217.675 262.815Z" fill="white"/>
<path d="M191.412 275.56C189.391 277.008 187.081 278.746 186.215 280.773C184.772 283.67 183.328 287.145 181.308 290.911C179.287 294.676 176.688 298.441 173.513 302.207C175.245 303.076 176.977 303.365 178.998 303.655C181.019 303.945 183.04 303.655 185.061 303.076C189.102 301.917 192.855 299.31 195.165 295.835C195.742 294.966 196.32 293.807 196.897 292.649C198.918 288.594 200.65 284.249 201.805 280.773C202.382 279.035 202.96 277.587 203.249 276.428C203.537 275.27 203.826 274.691 203.826 274.691C200.073 272.373 195.165 272.953 191.412 275.56Z" fill="white"/>
<path d="M168.016 280.195C166.284 280.484 164.552 281.353 163.108 281.933C161.665 282.802 160.221 283.67 159.355 285.119C157.334 287.726 155.314 290.912 152.427 294.098C149.828 297.284 146.364 300.47 142.611 303.656C145.498 305.683 149.54 307.132 153.87 306.842C158.201 306.552 162.242 304.815 165.129 301.628C166.573 300.18 168.016 298.153 169.748 295.836C171.192 293.808 172.635 291.491 174.079 289.753C176.677 285.988 178.121 282.802 178.121 282.802C174.945 280.195 171.481 279.326 168.016 280.195Z" fill="white"/>
<path d="M150.414 285.698C148.393 282.222 144.928 280.774 141.175 280.774C140.309 280.774 139.443 280.774 138.577 281.064C137.711 281.064 136.845 281.353 135.979 281.643C134.247 282.222 132.803 282.802 131.648 283.96C129.339 285.988 126.452 288.884 122.987 291.491C119.812 294.098 115.77 296.705 111.439 298.732C113.749 301.339 117.502 303.366 121.833 304.235C126.163 304.815 130.494 303.946 133.958 301.629C137.422 299.311 141.753 294.967 144.928 291.781C148.104 288.305 150.414 285.698 150.414 285.698Z" fill="white"/>
<path d="M122.986 282.511C121.254 277.877 116.923 275.849 112.593 275.559C109.995 275.27 107.396 275.559 105.375 277.008C99.6015 280.483 92.0954 284.538 82.5684 287.145C84.3005 290.331 87.7649 292.938 91.518 294.676C95.5598 296.124 100.179 296.124 103.932 294.676C105.087 294.097 105.953 293.807 107.108 293.228C110.861 291.49 115.191 288.593 118.078 286.566C120.965 283.959 122.986 282.511 122.986 282.511Z" fill="white"/>
<path d="M97.2938 273.533C96.7164 269.478 94.1181 266.871 90.9424 265.422C87.7668 263.685 84.0137 263.395 81.1267 264.264C77.951 265.422 74.4867 266.581 70.4449 267.45C66.4031 268.319 61.784 269.188 56.5874 269.478C57.7422 272.953 60.3405 276.139 63.8048 278.457C67.2692 281.063 71.8884 281.932 75.9301 281.063C80.2606 280.194 85.4572 278.457 89.7876 276.719C94.1181 274.981 97.2938 273.533 97.2938 273.533Z" fill="white"/>
<path d="M73.6161 259.339C73.6161 257.312 73.3274 255.574 72.4614 254.125C72.1727 253.256 71.5953 252.677 71.0179 252.098C70.4405 251.519 69.8631 250.65 69.2857 250.07C66.6874 247.753 62.9343 246.595 59.7587 246.884C56.583 247.174 52.8299 247.464 48.7881 247.753C44.7464 247.753 39.5498 248.043 34.9307 246.884C34.9307 250.65 37.2402 254.125 40.1272 257.312C41.5707 258.76 43.3029 260.208 45.3238 261.077C47.3447 261.946 49.3655 262.235 51.6751 262.235C56.0056 262.235 61.4908 261.656 66.11 261.077C70.1518 260.208 73.6161 259.339 73.6161 259.339Z" fill="white"/>
<path d="M53.4047 240.803C53.9821 238.486 53.6934 236.458 52.8273 234.141C51.9612 232.113 50.8064 230.376 49.0742 228.927C47.0533 227.19 44.455 226.031 42.4342 225.741C39.2585 225.452 35.5054 224.872 31.4636 224.293C29.4428 224.003 27.1332 223.424 24.8236 222.845C22.8027 222.266 20.4931 221.397 18.1835 220.528C17.8948 222.266 18.1835 224.293 18.4722 226.321C19.0496 228.348 19.9157 230.086 21.0705 231.824C22.2253 233.562 23.6688 235.3 25.401 236.458C26.2671 237.037 27.1332 237.617 27.9993 238.196C28.8654 238.486 30.0202 239.065 31.1749 239.065C32.3297 239.355 33.4845 239.355 34.6393 239.644C38.9698 240.224 43.5889 240.803 47.342 240.803C50.8064 240.803 53.4047 240.803 53.4047 240.803Z" fill="white"/>
<path d="M35.2205 217.922C36.6639 218.211 37.53 218.211 37.53 218.211C38.9735 214.736 38.9735 210.97 37.2413 207.784C36.3752 206.336 35.2205 204.888 33.777 203.729C32.6222 202.57 31.1787 201.701 29.7352 201.122C26.8482 199.964 23.0952 199.095 19.0534 197.357C18.1873 197.067 17.0325 196.488 15.8777 196.198C15.0116 195.619 13.8568 195.329 12.9907 194.75C10.9699 193.591 8.94898 192.433 6.9281 190.985C5.77331 194.171 5.48461 198.805 7.50549 202.57C9.23768 206.625 11.836 210.101 15.8777 211.839C19.9195 213.577 25.4047 215.315 29.7352 216.473C31.7561 217.053 33.777 217.632 35.2205 217.922Z" fill="white"/>
<path d="M19.3424 189.535C23.3841 191.562 26.5598 193.011 26.5598 193.011C31.7564 186.928 27.7146 177.949 22.8067 174.763C20.2085 173.025 16.7441 171.287 12.991 168.97C9.52664 166.653 6.06227 163.756 2.59789 159.991C1.7318 161.439 1.15441 163.467 0.577012 165.205C0.288314 167.232 -0.000383601 169.26 0.577012 171.287C1.4431 175.342 3.46399 179.397 6.92836 182.004C10.104 184.611 15.3006 187.507 19.3424 189.535Z" fill="white"/>
<path d="M6.35135 153.909C9.52702 156.805 13.2801 159.991 16.1671 162.309C19.054 164.626 21.0749 166.074 21.0749 166.074C25.1167 163.177 25.6941 158.254 24.5393 153.909C23.9619 151.302 22.8071 148.985 21.0749 147.537C18.7653 145.22 15.8784 142.902 12.7027 139.716C9.81572 136.53 6.92874 133.054 4.33047 128.999C2.02088 131.606 0 135.661 0 139.716C0 144.061 1.15479 148.406 4.04177 151.592C4.61916 152.171 5.48526 153.04 6.35135 153.909Z" fill="white"/>
<path d="M16.1628 132.476C19.0498 135.952 21.3593 138.559 21.3593 138.559C24.8237 136.821 26.8446 133.635 27.1333 129.869C27.1333 128.132 27.422 126.394 27.1333 124.656C26.8446 122.918 26.2672 121.47 25.4011 120.021C23.6689 117.415 21.0706 114.229 19.0498 110.753C17.0289 107.277 14.7193 102.932 12.9871 98.2981C10.1001 100.326 7.79056 104.091 6.34707 108.146C5.48098 112.201 5.76967 116.835 7.79056 120.601C9.81144 124.076 13.2758 129 16.1628 132.476Z" fill="white"/>
<path d="M20.2112 97.7173C21.366 100.034 22.5208 102.352 23.6755 104.379C25.6964 108.434 27.7173 111.331 27.7173 111.331C31.4704 110.462 34.0687 107.565 34.9348 104.089C36.3782 100.903 36.3782 97.138 35.2234 93.9519C34.6461 92.5037 33.78 90.7658 33.2026 89.0279C32.3365 87.2901 31.7591 85.5522 31.1817 83.5247C29.7382 79.4697 28.5834 75.125 27.7173 69.9114C24.5416 71.3596 21.366 74.5457 19.3451 78.0214C17.9016 80.6282 17.3242 82.6558 17.3242 84.6833C17.0355 86.7108 17.3242 89.0279 17.9016 91.0555C18.479 93.083 19.3451 95.4001 20.2112 97.7173Z" fill="white"/>
<path d="M34.3601 67.8839C34.6488 69.9114 35.2262 72.2286 35.5149 74.2561C36.0923 76.2836 36.6697 78.6008 37.2471 80.3386C38.4019 83.8144 39.2679 86.4212 39.2679 86.4212C44.1758 86.4212 47.3515 82.6558 49.0837 78.6008C50.2385 76.2836 50.5272 73.3871 49.9498 71.07C49.0837 67.8839 48.5063 64.4082 47.9289 60.0635C47.3515 56.0085 46.7741 51.0845 47.3515 46.1605C43.8871 46.7398 40.4227 49.3466 37.5358 52.5327C36.0923 54.2706 34.9375 56.0084 34.3601 58.036C33.7827 60.0635 33.494 62.3806 33.7827 64.4082C33.7827 65.5667 34.0714 66.7253 34.3601 67.8839Z" fill="white"/>
<path d="M55.4285 64.698C59.1816 65.2773 62.3573 63.5394 64.9556 61.2223C67.5539 58.9051 68.9973 55.1397 68.9973 51.9537C68.9973 48.7676 68.9973 45.0022 69.286 40.6575C69.286 38.63 69.5747 36.3128 69.8634 33.9957C70.1521 31.6785 70.7295 29.3613 71.5956 27.0442C69.8634 27.0442 67.8425 27.3338 66.1104 27.9131C64.3782 28.7821 62.3573 29.651 60.9138 31.0992C57.7381 33.706 55.1398 37.4714 54.8512 41.8161C54.5625 46.1607 54.2738 51.9537 54.5625 56.2983C54.8512 61.2223 55.4285 64.698 55.4285 64.698Z" fill="white"/>
<path d="M86.3183 45.0027C87.7618 44.1337 89.2053 42.6855 90.0714 41.2373C90.9375 39.7891 91.8035 38.3408 92.3809 36.8926C93.8244 30.8101 95.2679 21.5414 100.176 13.1417C93.247 11.1142 83.1426 16.0382 80.2556 24.1482C79.1008 28.4929 77.6574 33.9962 77.08 38.6305C76.7913 40.9476 76.5026 42.9752 76.5026 44.4234C76.5026 45.8716 76.2139 46.7405 76.2139 46.7405C79.6782 47.6095 83.4313 46.7405 86.3183 45.0027Z" fill="white"/>
<path d="M112.596 32.2574C114.617 30.8092 116.926 29.0713 117.792 27.0438C119.236 24.1474 120.679 20.6716 122.7 16.9062C124.721 13.1408 127.319 9.37546 130.495 5.61007C128.763 4.74114 127.031 4.45149 125.01 4.16185C122.989 3.8722 120.968 4.16185 118.947 4.74114C114.905 5.89972 111.152 8.50652 108.843 11.9823C108.265 12.8512 107.688 14.0098 107.11 15.1684C105.089 19.2234 103.357 23.5681 102.203 27.0438C101.625 28.7817 101.048 30.2299 100.759 31.3885C100.47 32.5471 100.182 33.1263 100.182 33.1263C103.935 35.4435 108.843 34.8642 112.596 32.2574Z" fill="white"/>
<path d="M135.979 27.6237C137.711 27.334 139.443 26.4651 140.887 25.8858C142.33 25.0169 143.774 24.1479 144.64 22.6997C146.661 20.0929 148.682 16.9068 151.569 13.7207C154.167 10.5346 157.631 7.34855 161.384 4.16245C158.497 2.13494 154.456 0.686714 150.125 0.976359C145.795 1.266 141.753 3.00387 138.866 6.18997C137.422 7.63819 135.979 9.66571 134.247 11.9829C132.803 14.0104 131.36 16.3275 129.916 18.0654C127.318 21.8308 125.875 25.0169 125.875 25.0169C129.05 27.334 132.515 28.203 135.979 27.6237Z" fill="white"/>
<path d="M153.583 22.121C155.604 25.5967 159.069 27.0449 162.822 27.0449C163.688 27.0449 164.554 27.0449 165.42 26.7553C166.286 26.7553 167.152 26.4656 168.018 26.176C169.751 25.5967 171.194 25.0174 172.349 23.8588C174.658 21.8313 177.545 18.9349 181.01 16.3281C184.185 13.7213 188.227 11.1145 192.558 9.08695C189.959 6.48015 186.206 4.45263 182.165 3.5837C177.834 3.00441 173.504 3.87334 170.039 6.1905C166.575 8.50766 162.244 12.8523 159.069 16.0384C155.893 19.5142 153.583 22.121 153.583 22.121Z" fill="white"/>
<path d="M181.013 25.3078C182.745 29.9421 187.076 31.9696 191.406 32.2592C194.005 32.5489 196.603 32.2592 198.624 30.811C204.398 27.3353 211.904 23.2803 221.431 20.6735C219.699 17.4874 216.234 14.8806 212.481 13.1427C208.439 11.6945 203.82 11.6945 200.067 13.1427C198.912 13.722 198.046 14.0116 196.892 14.5909C193.138 16.3288 188.808 19.2252 185.921 21.2527C183.034 23.5699 181.013 25.3078 181.013 25.3078Z" fill="white"/>
<path d="M206.708 33.9954C207.285 38.0504 209.884 40.6572 213.059 42.1055C216.235 43.8433 219.988 44.133 222.875 43.264C226.051 42.1055 229.515 40.9469 233.557 40.078C237.599 39.209 242.218 38.3401 247.414 38.0504C246.26 34.5747 243.661 31.3886 240.197 29.0714C236.733 26.4646 232.113 25.5957 228.072 26.4646C223.741 27.3336 218.545 29.0714 214.214 30.8093C209.884 32.5472 206.708 33.9954 206.708 33.9954Z" fill="white"/>
<path d="M235 57.4579C237.598 59.7751 241.351 60.9337 244.527 60.644C247.702 60.3544 251.455 60.0647 255.497 59.7751C259.539 59.7751 264.736 59.4854 269.355 60.644C269.355 56.8786 267.045 53.4029 264.158 50.2168C262.715 48.7686 260.982 47.3204 258.962 46.4514C256.941 45.5825 254.92 45.2928 252.61 45.2928C248.28 45.2928 242.795 45.8721 238.175 46.4514C233.556 47.3204 230.092 48.1893 230.092 48.1893C230.092 50.2168 230.38 51.9547 231.247 53.4029C231.535 54.2718 232.113 54.8511 232.69 55.4304C233.556 56.2994 234.134 56.8786 235 57.4579Z" fill="white"/>
<path d="M261.853 81.787C265.028 82.0766 268.781 82.6559 272.823 83.2352C274.844 83.5249 277.154 84.1042 279.463 84.6835C281.484 85.2627 283.794 86.1317 286.103 87.0006C286.392 85.2627 286.103 83.2352 285.814 81.2077C285.237 79.1802 284.371 77.4423 283.216 75.7045C282.061 73.9666 280.618 72.2287 278.886 71.0701C278.02 70.4908 277.154 69.9116 276.287 69.3323C275.421 69.0426 274.267 68.4633 273.112 68.4633C271.957 68.1737 270.802 68.1737 269.647 67.884C265.317 67.3048 260.698 66.7255 256.945 66.7255C253.192 66.7255 250.593 66.7255 250.593 66.7255C250.016 69.0426 250.305 71.0701 251.171 73.3873C252.037 75.4148 253.192 77.1527 254.924 78.6009C256.945 80.3388 259.543 81.4974 261.853 81.787Z" fill="white"/>
<path d="M268.777 89.6076C267.333 89.318 266.467 89.318 266.467 89.318C265.023 92.7937 265.023 96.5591 266.756 99.7452C267.622 101.193 268.777 102.642 270.22 103.8C271.375 104.959 272.818 105.828 274.262 106.407C277.149 107.566 280.902 108.435 284.944 110.172C285.81 110.462 286.964 111.041 288.119 111.331C288.985 111.91 290.14 112.2 291.006 112.779C293.027 113.938 295.048 115.096 297.069 116.545C298.224 113.359 298.512 108.724 296.492 104.959C294.759 100.904 292.161 97.428 288.119 95.6902C284.078 93.9523 278.592 92.2144 274.262 91.0559C272.241 90.4766 270.22 89.8973 268.777 89.6076Z" fill="white"/>
<path d="M284.65 117.991C280.608 115.964 277.432 114.515 277.432 114.515C272.236 120.598 276.277 129.577 281.185 132.763C283.784 134.501 287.248 136.239 291.001 138.556C294.465 140.873 297.93 143.77 301.394 147.535C302.26 146.087 302.838 144.059 303.415 142.321C303.704 140.294 303.992 138.266 303.415 136.239C302.549 132.184 300.528 128.129 297.064 125.522C293.888 122.915 288.691 120.019 284.65 117.991Z" fill="white"/>
<path d="M111.256 120.239C110.256 120.239 109.376 119.939 108.616 119.339C107.856 118.739 107.476 117.799 107.476 116.519L107.536 115.859C107.976 111.739 108.496 107.459 109.096 103.019C109.736 98.5395 110.276 95.0995 110.716 92.6995L106.036 94.0195L105.316 94.1395C104.556 94.1395 103.956 93.8395 103.516 93.2395C103.076 92.6395 102.856 91.9595 102.856 91.1995L102.916 90.6595C102.996 89.8995 103.236 89.2795 103.636 88.7994C104.036 88.3195 104.796 87.8395 105.916 87.3595C107.076 86.8795 108.796 86.3595 111.076 85.7995L113.596 85.1994C114.516 84.9994 115.276 84.8995 115.876 84.8995C117.036 84.8995 117.896 85.1995 118.456 85.7995C119.056 86.3995 119.356 87.2395 119.356 88.3195C119.356 88.7995 119.296 89.3195 119.176 89.8795C118.536 92.9995 117.316 101.879 115.516 116.519C115.196 118.999 113.776 120.239 111.256 120.239ZM137.415 120.239C133.495 120.239 130.455 118.959 128.295 116.399C126.175 113.839 125.115 110.179 125.115 105.419C125.115 101.379 125.735 97.8195 126.975 94.7395C128.255 91.6195 130.015 89.1995 132.255 87.4795C134.535 85.7595 137.175 84.8995 140.175 84.8995C144.095 84.8995 147.115 86.1795 149.235 88.7395C151.395 91.2995 152.475 94.9595 152.475 99.7195C152.475 103.759 151.835 107.339 150.555 110.459C149.315 113.539 147.555 115.939 145.275 117.659C143.035 119.379 140.415 120.239 137.415 120.239ZM138.015 113.519C140.175 113.519 141.875 112.319 143.115 109.919C144.355 107.519 144.975 104.259 144.975 100.139C144.975 97.3795 144.515 95.2795 143.595 93.8395C142.675 92.3595 141.335 91.6195 139.575 91.6195C137.415 91.6195 135.715 92.8395 134.475 95.2795C133.235 97.6795 132.615 100.939 132.615 105.059C132.615 107.819 133.055 109.919 133.935 111.359C134.855 112.799 136.215 113.519 138.015 113.519ZM169.993 120.239C166.073 120.239 163.033 118.959 160.873 116.399C158.753 113.839 157.693 110.179 157.693 105.419C157.693 101.379 158.313 97.8195 159.553 94.7395C160.833 91.6195 162.593 89.1995 164.833 87.4795C167.113 85.7595 169.753 84.8995 172.753 84.8995C176.673 84.8995 179.693 86.1795 181.813 88.7395C183.973 91.2995 185.053 94.9595 185.053 99.7195C185.053 103.759 184.413 107.339 183.133 110.459C181.893 113.539 180.133 115.939 177.853 117.659C175.613 119.379 172.993 120.239 169.993 120.239ZM170.593 113.519C172.753 113.519 174.453 112.319 175.693 109.919C176.933 107.519 177.553 104.259 177.553 100.139C177.553 97.3795 177.093 95.2795 176.173 93.8395C175.253 92.3595 173.913 91.6195 172.153 91.6195C169.993 91.6195 168.293 92.8395 167.053 95.2795C165.813 97.6795 165.193 100.939 165.193 105.059C165.193 107.819 165.633 109.919 166.513 111.359C167.433 112.799 168.793 113.519 170.593 113.519ZM216.671 95.6395C216.671 97.9595 216.011 100.099 214.691 102.059C213.411 104.019 211.491 105.599 208.931 106.799C206.411 107.999 203.351 108.639 199.751 108.719L199.451 111.179L206.831 111.119C207.351 111.119 207.751 111.299 208.031 111.659C208.351 111.979 208.511 112.379 208.511 112.859C208.511 113.459 208.311 113.999 207.911 114.479C207.511 114.919 206.971 115.119 206.291 115.079L199.031 115.019L198.851 116.639C198.611 119.039 197.311 120.239 194.951 120.239C192.631 120.239 191.471 119.219 191.471 117.179L191.591 115.019H189.671C189.151 115.019 188.751 114.879 188.471 114.599C188.191 114.279 188.051 113.899 188.051 113.459C188.051 112.899 188.251 112.379 188.651 111.899C189.051 111.419 189.571 111.179 190.211 111.179H192.071C192.271 109.979 192.411 109.159 192.491 108.719H190.271C189.751 108.719 189.351 108.579 189.071 108.299C188.831 108.019 188.711 107.659 188.711 107.219C188.711 106.619 188.951 106.059 189.431 105.539C189.911 105.019 190.511 104.759 191.231 104.759H193.151C193.231 104.239 193.391 103.259 193.631 101.819L194.771 95.1595C194.891 94.4395 195.131 92.9195 195.491 90.5995L194.411 91.0195C194.171 91.1395 193.931 91.1995 193.691 91.1995C193.171 91.1995 192.751 91.0195 192.431 90.6595C192.111 90.2995 191.951 89.8395 191.951 89.2795C191.951 88.2395 192.551 87.3595 193.751 86.6395C194.791 85.9995 196.111 85.4995 197.711 85.1395C199.311 84.7395 200.971 84.5395 202.691 84.5395C207.411 84.5395 210.911 85.5395 213.191 87.5395C215.511 89.5395 216.671 92.2395 216.671 95.6395ZM209.351 95.8795C209.351 93.8795 208.851 92.3795 207.851 91.3795C206.891 90.3395 205.211 89.7395 202.811 89.5795L202.211 93.3595C202.131 93.6395 202.071 93.9395 202.031 94.2595C201.991 94.5395 201.951 94.7995 201.911 95.0395L200.771 101.699L200.351 104.579C203.431 104.139 205.691 103.159 207.131 101.639C208.611 100.119 209.351 98.1995 209.351 95.8795Z" fill="white"/>
<path d="M50.8704 161.939V144.899H60.5424V146.387H52.5504V161.939H50.8704ZM61.9014 158.339C61.9014 157.555 62.1254 156.883 62.5734 156.323C63.0214 155.747 63.6374 155.307 64.4214 155.003C65.2214 154.683 66.1414 154.523 67.1814 154.523C67.7894 154.523 68.4214 154.571 69.0774 154.667C69.7334 154.763 70.3174 154.907 70.8294 155.099V154.043C70.8294 152.987 70.5174 152.147 69.8934 151.523C69.2694 150.899 68.4054 150.587 67.3014 150.587C66.6294 150.587 65.9654 150.715 65.3094 150.971C64.6694 151.211 63.9974 151.571 63.2934 152.051L62.6694 150.899C63.4854 150.339 64.2854 149.923 65.0694 149.651C65.8534 149.363 66.6534 149.219 67.4694 149.219C69.0054 149.219 70.2214 149.659 71.1174 150.539C72.0134 151.419 72.4614 152.635 72.4614 154.187V159.971C72.4614 160.195 72.5094 160.363 72.6054 160.475C72.7014 160.571 72.8534 160.627 73.0614 160.643V161.939C72.8854 161.955 72.7334 161.971 72.6054 161.987C72.4774 162.003 72.3814 162.003 72.3174 161.987C71.9174 161.971 71.6134 161.843 71.4054 161.603C71.1974 161.363 71.0854 161.107 71.0694 160.835L71.0454 159.923C70.4854 160.643 69.7574 161.203 68.8614 161.603C67.9654 161.987 67.0534 162.179 66.1254 162.179C65.3254 162.179 64.5974 162.011 63.9414 161.675C63.3014 161.323 62.7974 160.859 62.4294 160.283C62.0774 159.691 61.9014 159.043 61.9014 158.339ZM70.2774 159.299C70.4534 159.075 70.5894 158.859 70.6854 158.651C70.7814 158.443 70.8294 158.259 70.8294 158.099V156.275C70.2854 156.067 69.7174 155.907 69.1254 155.795C68.5494 155.683 67.9654 155.627 67.3734 155.627C66.2054 155.627 65.2614 155.859 64.5414 156.323C63.8214 156.787 63.4614 157.419 63.4614 158.219C63.4614 158.683 63.5814 159.123 63.8214 159.539C64.0614 159.939 64.4134 160.275 64.8774 160.547C65.3414 160.803 65.8854 160.931 66.5094 160.931C67.2934 160.931 68.0214 160.779 68.6934 160.475C69.3814 160.171 69.9094 159.779 70.2774 159.299ZM82.3715 162.179C81.3315 162.179 80.3955 161.907 79.5635 161.363C78.7475 160.819 78.0995 160.147 77.6195 159.347V167.051H75.9875V149.435H77.4515V151.859C77.9475 151.075 78.6115 150.443 79.4435 149.963C80.2755 149.467 81.1635 149.219 82.1075 149.219C82.9715 149.219 83.7635 149.403 84.4835 149.771C85.2035 150.123 85.8275 150.603 86.3555 151.211C86.8835 151.819 87.2915 152.515 87.5795 153.299C87.8835 154.067 88.0355 154.867 88.0355 155.699C88.0355 156.867 87.7955 157.947 87.3155 158.939C86.8515 159.915 86.1955 160.699 85.3475 161.291C84.4995 161.883 83.5075 162.179 82.3715 162.179ZM81.9155 160.739C82.6035 160.739 83.2195 160.603 83.7635 160.331C84.3075 160.043 84.7715 159.659 85.1555 159.179C85.5555 158.699 85.8595 158.163 86.0675 157.571C86.2755 156.963 86.3795 156.339 86.3795 155.699C86.3795 155.027 86.2595 154.387 86.0195 153.779C85.7955 153.171 85.4675 152.635 85.0355 152.171C84.6035 151.707 84.1075 151.339 83.5475 151.067C82.9875 150.795 82.3795 150.659 81.7235 150.659C81.3075 150.659 80.8755 150.739 80.4275 150.899C79.9795 151.059 79.5475 151.291 79.1315 151.595C78.7315 151.883 78.3955 152.211 78.1235 152.579C77.8515 152.947 77.6835 153.339 77.6195 153.755V157.595C77.8755 158.187 78.2195 158.723 78.6515 159.203C79.0835 159.667 79.5795 160.043 80.1395 160.331C80.7155 160.603 81.3075 160.739 81.9155 160.739ZM89.792 158.339C89.792 157.555 90.016 156.883 90.464 156.323C90.912 155.747 91.528 155.307 92.312 155.003C93.112 154.683 94.032 154.523 95.072 154.523C95.68 154.523 96.312 154.571 96.968 154.667C97.624 154.763 98.208 154.907 98.72 155.099V154.043C98.72 152.987 98.408 152.147 97.784 151.523C97.16 150.899 96.296 150.587 95.192 150.587C94.52 150.587 93.856 150.715 93.2 150.971C92.56 151.211 91.888 151.571 91.184 152.051L90.56 150.899C91.376 150.339 92.176 149.923 92.96 149.651C93.744 149.363 94.544 149.219 95.36 149.219C96.896 149.219 98.112 149.659 99.008 150.539C99.904 151.419 100.352 152.635 100.352 154.187V159.971C100.352 160.195 100.4 160.363 100.496 160.475C100.592 160.571 100.744 160.627 100.952 160.643V161.939C100.776 161.955 100.624 161.971 100.496 161.987C100.368 162.003 100.272 162.003 100.208 161.987C99.808 161.971 99.504 161.843 99.296 161.603C99.088 161.363 98.976 161.107 98.96 160.835L98.936 159.923C98.376 160.643 97.648 161.203 96.752 161.603C95.856 161.987 94.944 162.179 94.016 162.179C93.216 162.179 92.488 162.011 91.832 161.675C91.192 161.323 90.688 160.859 90.32 160.283C89.968 159.691 89.792 159.043 89.792 158.339ZM98.168 159.299C98.344 159.075 98.48 158.859 98.576 158.651C98.672 158.443 98.72 158.259 98.72 158.099V156.275C98.176 156.067 97.608 155.907 97.016 155.795C96.44 155.683 95.856 155.627 95.264 155.627C94.096 155.627 93.152 155.859 92.432 156.323C91.712 156.787 91.352 157.419 91.352 158.219C91.352 158.683 91.472 159.123 91.712 159.539C91.952 159.939 92.304 160.275 92.768 160.547C93.232 160.803 93.776 160.931 94.4 160.931C95.184 160.931 95.912 160.779 96.584 160.475C97.272 160.171 97.8 159.779 98.168 159.299ZM103.854 161.939V149.435H105.486V154.811H112.638V149.435H114.27V161.939H112.638V156.275H105.486V161.939H103.854ZM120.99 161.939V150.899H116.526V149.435H127.086V150.899H122.622V161.939H120.99ZM129.284 161.939V149.459H130.916V159.731L138.524 149.435H139.988V161.939H138.356V151.835L130.868 161.939H129.284ZM149.942 162.179C148.902 162.179 147.966 161.907 147.134 161.363C146.318 160.819 145.67 160.147 145.19 159.347V167.051H143.558V149.435H145.022V151.859C145.518 151.075 146.182 150.443 147.014 149.963C147.846 149.467 148.734 149.219 149.678 149.219C150.542 149.219 151.334 149.403 152.054 149.771C152.774 150.123 153.398 150.603 153.926 151.211C154.454 151.819 154.862 152.515 155.15 153.299C155.454 154.067 155.606 154.867 155.606 155.699C155.606 156.867 155.366 157.947 154.886 158.939C154.422 159.915 153.766 160.699 152.918 161.291C152.07 161.883 151.078 162.179 149.942 162.179ZM149.486 160.739C150.174 160.739 150.79 160.603 151.334 160.331C151.878 160.043 152.342 159.659 152.726 159.179C153.126 158.699 153.43 158.163 153.638 157.571C153.846 156.963 153.95 156.339 153.95 155.699C153.95 155.027 153.83 154.387 153.59 153.779C153.366 153.171 153.038 152.635 152.606 152.171C152.174 151.707 151.678 151.339 151.118 151.067C150.558 150.795 149.95 150.659 149.294 150.659C148.878 150.659 148.446 150.739 147.998 150.899C147.55 151.059 147.118 151.291 146.702 151.595C146.302 151.883 145.966 152.211 145.694 152.579C145.422 152.947 145.254 153.339 145.19 153.755V157.595C145.446 158.187 145.79 158.723 146.222 159.203C146.654 159.667 147.15 160.043 147.71 160.331C148.286 160.603 148.878 160.739 149.486 160.739ZM163.698 162.179C162.802 162.179 161.97 162.011 161.202 161.675C160.45 161.323 159.794 160.851 159.234 160.259C158.69 159.651 158.266 158.963 157.962 158.195C157.658 157.411 157.506 156.587 157.506 155.723C157.506 154.827 157.658 153.995 157.962 153.227C158.266 152.443 158.698 151.755 159.258 151.163C159.818 150.555 160.474 150.083 161.226 149.747C161.994 149.395 162.826 149.219 163.722 149.219C164.618 149.219 165.442 149.395 166.194 149.747C166.946 150.083 167.602 150.555 168.162 151.163C168.722 151.755 169.154 152.443 169.458 153.227C169.762 153.995 169.914 154.827 169.914 155.723C169.914 156.587 169.762 157.411 169.458 158.195C169.154 158.963 168.722 159.651 168.162 160.259C167.618 160.851 166.962 161.323 166.194 161.675C165.442 162.011 164.61 162.179 163.698 162.179ZM159.162 155.747C159.162 156.675 159.362 157.523 159.762 158.291C160.178 159.043 160.73 159.643 161.418 160.091C162.106 160.523 162.866 160.739 163.698 160.739C164.53 160.739 165.29 160.515 165.978 160.067C166.666 159.619 167.218 159.011 167.634 158.243C168.05 157.459 168.258 156.611 168.258 155.699C168.258 154.771 168.05 153.923 167.634 153.155C167.218 152.387 166.666 151.779 165.978 151.331C165.29 150.883 164.53 150.659 163.698 150.659C162.866 150.659 162.106 150.891 161.418 151.355C160.746 151.819 160.202 152.435 159.786 153.203C159.37 153.955 159.162 154.803 159.162 155.747ZM172.62 161.939V149.435H178.86C179.564 149.435 180.156 149.587 180.636 149.891C181.116 150.179 181.476 150.555 181.716 151.019C181.972 151.483 182.1 151.979 182.1 152.507C182.1 153.179 181.94 153.787 181.62 154.331C181.3 154.859 180.836 155.259 180.228 155.531C180.948 155.739 181.532 156.115 181.98 156.659C182.428 157.203 182.652 157.859 182.652 158.627C182.652 159.299 182.484 159.883 182.148 160.379C181.828 160.875 181.38 161.259 180.804 161.531C180.244 161.803 179.596 161.939 178.86 161.939H172.62ZM174.18 160.763H178.812C179.228 160.763 179.604 160.659 179.94 160.451C180.292 160.227 180.564 159.939 180.756 159.587C180.964 159.235 181.068 158.867 181.068 158.483C181.068 158.067 180.972 157.691 180.78 157.355C180.588 157.003 180.332 156.723 180.012 156.515C179.692 156.307 179.324 156.203 178.908 156.203H174.18V160.763ZM174.18 155.075H178.428C178.844 155.075 179.212 154.963 179.532 154.739C179.852 154.515 180.1 154.227 180.276 153.875C180.452 153.523 180.54 153.155 180.54 152.771C180.54 152.195 180.348 151.691 179.964 151.259C179.596 150.827 179.116 150.611 178.524 150.611H174.18V155.075ZM184.479 158.339C184.479 157.555 184.704 156.883 185.152 156.323C185.6 155.747 186.216 155.307 187 155.003C187.8 154.683 188.72 154.523 189.76 154.523C190.368 154.523 191 154.571 191.656 154.667C192.312 154.763 192.896 154.907 193.408 155.099V154.043C193.408 152.987 193.096 152.147 192.472 151.523C191.848 150.899 190.984 150.587 189.88 150.587C189.208 150.587 188.544 150.715 187.888 150.971C187.248 151.211 186.576 151.571 185.872 152.051L185.248 150.899C186.064 150.339 186.864 149.923 187.648 149.651C188.432 149.363 189.232 149.219 190.048 149.219C191.584 149.219 192.8 149.659 193.696 150.539C194.592 151.419 195.04 152.635 195.04 154.187V159.971C195.04 160.195 195.088 160.363 195.184 160.475C195.28 160.571 195.432 160.627 195.64 160.643V161.939C195.464 161.955 195.312 161.971 195.184 161.987C195.056 162.003 194.96 162.003 194.896 161.987C194.496 161.971 194.192 161.843 193.984 161.603C193.776 161.363 193.664 161.107 193.648 160.835L193.624 159.923C193.064 160.643 192.336 161.203 191.44 161.603C190.544 161.987 189.632 162.179 188.704 162.179C187.904 162.179 187.176 162.011 186.52 161.675C185.88 161.323 185.376 160.859 185.008 160.283C184.656 159.691 184.479 159.043 184.479 158.339ZM192.856 159.299C193.032 159.075 193.168 158.859 193.264 158.651C193.36 158.443 193.408 158.259 193.408 158.099V156.275C192.864 156.067 192.296 155.907 191.704 155.795C191.128 155.683 190.544 155.627 189.952 155.627C188.784 155.627 187.84 155.859 187.12 156.323C186.4 156.787 186.04 157.419 186.04 158.219C186.04 158.683 186.16 159.123 186.4 159.539C186.64 159.939 186.992 160.275 187.456 160.547C187.92 160.803 188.464 160.931 189.088 160.931C189.872 160.931 190.6 160.779 191.272 160.475C191.96 160.171 192.488 159.779 192.856 159.299ZM198.542 161.939V149.435H200.174V154.811H207.326V149.435H208.958V161.939H207.326V156.275H200.174V161.939H198.542ZM212.534 161.939V149.435H214.166V154.811H221.318V149.435H222.95V161.939H221.318V156.275H214.166V161.939H212.534ZM226.526 161.939V149.435H228.158V153.851H230.99C232.414 153.851 233.486 154.219 234.206 154.955C234.942 155.675 235.31 156.627 235.31 157.811C235.31 158.579 235.15 159.275 234.83 159.899C234.51 160.523 234.038 161.019 233.414 161.387C232.806 161.755 232.038 161.939 231.11 161.939H226.526ZM228.158 160.643H230.894C231.55 160.643 232.078 160.515 232.478 160.259C232.878 159.987 233.174 159.643 233.366 159.227C233.558 158.795 233.654 158.331 233.654 157.835C233.654 157.355 233.566 156.915 233.39 156.515C233.23 156.099 232.942 155.771 232.526 155.531C232.126 155.275 231.566 155.147 230.846 155.147H228.158V160.643ZM237.59 161.939V149.459H239.222V161.939H237.59ZM242.792 161.939V149.459H244.424V159.731L252.032 149.435H253.496V161.939H251.864V151.835L244.376 161.939H242.792ZM248.168 147.851C247.08 147.851 246.24 147.595 245.648 147.083C245.056 146.571 244.76 145.923 244.76 145.139H245.96C245.96 145.619 246.136 146.019 246.488 146.339C246.856 146.659 247.416 146.819 248.168 146.819C248.904 146.819 249.44 146.667 249.776 146.363C250.128 146.059 250.328 145.651 250.376 145.139H251.552C251.552 145.923 251.256 146.571 250.664 147.083C250.072 147.595 249.24 147.851 248.168 147.851ZM60.1783 189.939V177.435H70.2343V189.939H68.6023V178.899H61.8103V189.939H60.1783ZM80.227 190.179C79.187 190.179 78.251 189.907 77.419 189.363C76.603 188.819 75.955 188.147 75.475 187.347V195.051H73.843V177.435H75.307V179.859C75.803 179.075 76.467 178.443 77.299 177.963C78.131 177.467 79.019 177.219 79.963 177.219C80.827 177.219 81.619 177.403 82.339 177.771C83.059 178.123 83.683 178.603 84.211 179.211C84.739 179.819 85.147 180.515 85.435 181.299C85.739 182.067 85.891 182.867 85.891 183.699C85.891 184.867 85.651 185.947 85.171 186.939C84.707 187.915 84.051 188.699 83.203 189.291C82.355 189.883 81.363 190.179 80.227 190.179ZM79.771 188.739C80.459 188.739 81.075 188.603 81.619 188.331C82.163 188.043 82.627 187.659 83.011 187.179C83.411 186.699 83.715 186.163 83.923 185.571C84.131 184.963 84.235 184.339 84.235 183.699C84.235 183.027 84.115 182.387 83.875 181.779C83.651 181.171 83.323 180.635 82.891 180.171C82.459 179.707 81.963 179.339 81.403 179.067C80.843 178.795 80.235 178.659 79.579 178.659C79.163 178.659 78.731 178.739 78.283 178.899C77.835 179.059 77.403 179.291 76.987 179.595C76.587 179.883 76.251 180.211 75.979 180.579C75.707 180.947 75.539 181.339 75.475 181.755V185.595C75.731 186.187 76.075 186.723 76.507 187.203C76.939 187.667 77.435 188.043 77.995 188.331C78.571 188.603 79.163 188.739 79.771 188.739ZM88.6315 189.939V177.459H90.2635V187.731L97.8715 177.435H99.3355V189.939H97.7035V179.835L90.2155 189.939H88.6315ZM106.529 190.083C105.377 190.083 104.393 189.867 103.577 189.435C102.761 188.987 102.137 188.363 101.705 187.563L103.049 186.963C103.353 187.523 103.793 187.963 104.369 188.283C104.945 188.587 105.641 188.739 106.457 188.739C107.433 188.739 108.209 188.515 108.785 188.067C109.377 187.619 109.673 187.019 109.673 186.267C109.673 185.579 109.441 185.027 108.977 184.611C108.513 184.195 107.873 183.979 107.057 183.963H105.785V182.835H107.153C107.505 182.835 107.825 182.739 108.113 182.547C108.401 182.355 108.625 182.099 108.785 181.779C108.945 181.459 109.025 181.099 109.025 180.699C109.025 180.075 108.801 179.571 108.353 179.187C107.921 178.803 107.281 178.611 106.433 178.611C105.729 178.611 105.137 178.755 104.657 179.043C104.193 179.315 103.817 179.723 103.529 180.267L102.281 179.595C102.649 178.859 103.193 178.283 103.913 177.867C104.649 177.451 105.505 177.243 106.481 177.243C107.281 177.243 107.977 177.379 108.569 177.651C109.177 177.907 109.649 178.283 109.985 178.779C110.337 179.259 110.513 179.843 110.513 180.531C110.513 181.123 110.369 181.675 110.081 182.187C109.793 182.683 109.393 183.059 108.881 183.315C109.617 183.539 110.185 183.931 110.585 184.491C111.001 185.051 111.209 185.707 111.209 186.459C111.209 187.211 111.009 187.859 110.609 188.403C110.209 188.947 109.657 189.363 108.953 189.651C108.249 189.939 107.441 190.083 106.529 190.083ZM123.686 190.083C122.534 190.083 121.55 189.867 120.734 189.435C119.918 188.987 119.294 188.363 118.862 187.563L120.206 186.963C120.51 187.523 120.95 187.963 121.526 188.283C122.102 188.587 122.798 188.739 123.614 188.739C124.59 188.739 125.366 188.515 125.942 188.067C126.534 187.619 126.83 187.019 126.83 186.267C126.83 185.579 126.598 185.027 126.134 184.611C125.67 184.195 125.03 183.979 124.214 183.963H122.942V182.835H124.31C124.662 182.835 124.982 182.739 125.27 182.547C125.558 182.355 125.782 182.099 125.942 181.779C126.102 181.459 126.182 181.099 126.182 180.699C126.182 180.075 125.958 179.571 125.51 179.187C125.078 178.803 124.438 178.611 123.59 178.611C122.886 178.611 122.294 178.755 121.814 179.043C121.35 179.315 120.974 179.723 120.686 180.267L119.438 179.595C119.806 178.859 120.35 178.283 121.07 177.867C121.806 177.451 122.662 177.243 123.638 177.243C124.438 177.243 125.134 177.379 125.726 177.651C126.334 177.907 126.806 178.283 127.142 178.779C127.494 179.259 127.67 179.843 127.67 180.531C127.67 181.123 127.526 181.675 127.238 182.187C126.95 182.683 126.55 183.059 126.038 183.315C126.774 183.539 127.342 183.931 127.742 184.491C128.158 185.051 128.366 185.707 128.366 186.459C128.366 187.211 128.166 187.859 127.766 188.403C127.366 188.947 126.814 189.363 126.11 189.651C125.406 189.939 124.598 190.083 123.686 190.083ZM130.093 186.339C130.093 185.555 130.317 184.883 130.765 184.323C131.213 183.747 131.829 183.307 132.613 183.003C133.413 182.683 134.333 182.523 135.373 182.523C135.981 182.523 136.613 182.571 137.269 182.667C137.925 182.763 138.509 182.907 139.021 183.099V182.043C139.021 180.987 138.709 180.147 138.085 179.523C137.461 178.899 136.597 178.587 135.493 178.587C134.821 178.587 134.157 178.715 133.501 178.971C132.861 179.211 132.189 179.571 131.485 180.051L130.861 178.899C131.677 178.339 132.477 177.923 133.261 177.651C134.045 177.363 134.845 177.219 135.661 177.219C137.197 177.219 138.413 177.659 139.309 178.539C140.205 179.419 140.653 180.635 140.653 182.187V187.971C140.653 188.195 140.701 188.363 140.797 188.475C140.893 188.571 141.045 188.627 141.253 188.643V189.939C141.077 189.955 140.925 189.971 140.797 189.987C140.669 190.003 140.573 190.003 140.509 189.987C140.109 189.971 139.805 189.843 139.597 189.603C139.389 189.363 139.277 189.107 139.261 188.835L139.237 187.923C138.677 188.643 137.949 189.203 137.053 189.603C136.157 189.987 135.245 190.179 134.317 190.179C133.517 190.179 132.789 190.011 132.133 189.675C131.493 189.323 130.989 188.859 130.621 188.283C130.269 187.691 130.093 187.043 130.093 186.339ZM138.469 187.299C138.645 187.075 138.781 186.859 138.877 186.651C138.973 186.443 139.021 186.259 139.021 186.099V184.275C138.477 184.067 137.909 183.907 137.317 183.795C136.741 183.683 136.157 183.627 135.565 183.627C134.397 183.627 133.453 183.859 132.733 184.323C132.013 184.787 131.653 185.419 131.653 186.219C131.653 186.683 131.773 187.123 132.013 187.539C132.253 187.939 132.605 188.275 133.069 188.547C133.533 188.803 134.077 188.931 134.701 188.931C135.485 188.931 136.213 188.779 136.885 188.475C137.573 188.171 138.101 187.779 138.469 187.299ZM153.92 190.083C152.768 190.083 151.784 189.867 150.968 189.435C150.152 188.987 149.528 188.363 149.096 187.563L150.44 186.963C150.744 187.523 151.184 187.963 151.76 188.283C152.336 188.587 153.032 188.739 153.848 188.739C154.824 188.739 155.6 188.515 156.176 188.067C156.768 187.619 157.064 187.019 157.064 186.267C157.064 185.579 156.832 185.027 156.368 184.611C155.904 184.195 155.264 183.979 154.448 183.963H153.176V182.835H154.544C154.896 182.835 155.216 182.739 155.504 182.547C155.792 182.355 156.016 182.099 156.176 181.779C156.336 181.459 156.416 181.099 156.416 180.699C156.416 180.075 156.192 179.571 155.744 179.187C155.312 178.803 154.672 178.611 153.824 178.611C153.12 178.611 152.528 178.755 152.048 179.043C151.584 179.315 151.208 179.723 150.92 180.267L149.672 179.595C150.04 178.859 150.584 178.283 151.304 177.867C152.04 177.451 152.896 177.243 153.872 177.243C154.672 177.243 155.368 177.379 155.96 177.651C156.568 177.907 157.04 178.283 157.376 178.779C157.728 179.259 157.904 179.843 157.904 180.531C157.904 181.123 157.76 181.675 157.472 182.187C157.184 182.683 156.784 183.059 156.272 183.315C157.008 183.539 157.576 183.931 157.976 184.491C158.392 185.051 158.6 185.707 158.6 186.459C158.6 187.211 158.4 187.859 158 188.403C157.6 188.947 157.048 189.363 156.344 189.651C155.64 189.939 154.832 190.083 153.92 190.083ZM160.327 186.339C160.327 185.555 160.551 184.883 160.999 184.323C161.447 183.747 162.063 183.307 162.847 183.003C163.647 182.683 164.567 182.523 165.607 182.523C166.215 182.523 166.847 182.571 167.503 182.667C168.159 182.763 168.743 182.907 169.255 183.099V182.043C169.255 180.987 168.943 180.147 168.319 179.523C167.695 178.899 166.831 178.587 165.727 178.587C165.055 178.587 164.391 178.715 163.735 178.971C163.095 179.211 162.423 179.571 161.719 180.051L161.095 178.899C161.911 178.339 162.711 177.923 163.495 177.651C164.279 177.363 165.079 177.219 165.895 177.219C167.431 177.219 168.647 177.659 169.543 178.539C170.439 179.419 170.887 180.635 170.887 182.187V187.971C170.887 188.195 170.935 188.363 171.031 188.475C171.127 188.571 171.279 188.627 171.487 188.643V189.939C171.311 189.955 171.159 189.971 171.031 189.987C170.903 190.003 170.807 190.003 170.743 189.987C170.343 189.971 170.039 189.843 169.831 189.603C169.623 189.363 169.511 189.107 169.495 188.835L169.471 187.923C168.911 188.643 168.183 189.203 167.287 189.603C166.391 189.987 165.479 190.179 164.551 190.179C163.751 190.179 163.023 190.011 162.367 189.675C161.727 189.323 161.223 188.859 160.855 188.283C160.503 187.691 160.327 187.043 160.327 186.339ZM168.703 187.299C168.879 187.075 169.015 186.859 169.111 186.651C169.207 186.443 169.255 186.259 169.255 186.099V184.275C168.711 184.067 168.143 183.907 167.551 183.795C166.975 183.683 166.391 183.627 165.799 183.627C164.631 183.627 163.687 183.859 162.967 184.323C162.247 184.787 161.887 185.419 161.887 186.219C161.887 186.683 162.007 187.123 162.247 187.539C162.487 187.939 162.839 188.275 163.303 188.547C163.767 188.803 164.311 188.931 164.935 188.931C165.719 188.931 166.447 188.779 167.119 188.475C167.807 188.171 168.335 187.779 168.703 187.299ZM174.389 189.939V177.435H181.853V178.899H176.021V189.939H174.389ZM190.524 190.179C189.484 190.179 188.548 189.907 187.716 189.363C186.9 188.819 186.252 188.147 185.772 187.347V195.051H184.14V177.435H185.604V179.859C186.1 179.075 186.764 178.443 187.596 177.963C188.428 177.467 189.316 177.219 190.26 177.219C191.124 177.219 191.916 177.403 192.636 177.771C193.356 178.123 193.98 178.603 194.508 179.211C195.036 179.819 195.444 180.515 195.732 181.299C196.036 182.067 196.188 182.867 196.188 183.699C196.188 184.867 195.948 185.947 195.468 186.939C195.004 187.915 194.348 188.699 193.5 189.291C192.652 189.883 191.66 190.179 190.524 190.179ZM190.068 188.739C190.756 188.739 191.372 188.603 191.916 188.331C192.46 188.043 192.924 187.659 193.308 187.179C193.708 186.699 194.012 186.163 194.22 185.571C194.428 184.963 194.532 184.339 194.532 183.699C194.532 183.027 194.412 182.387 194.172 181.779C193.948 181.171 193.62 180.635 193.188 180.171C192.756 179.707 192.26 179.339 191.7 179.067C191.14 178.795 190.532 178.659 189.876 178.659C189.46 178.659 189.028 178.739 188.58 178.899C188.132 179.059 187.7 179.291 187.284 179.595C186.884 179.883 186.548 180.211 186.276 180.579C186.004 180.947 185.836 181.339 185.772 181.755V185.595C186.028 186.187 186.372 186.723 186.804 187.203C187.236 187.667 187.732 188.043 188.292 188.331C188.868 188.603 189.46 188.739 190.068 188.739ZM199.898 195.171C199.626 195.171 199.346 195.123 199.058 195.027C198.786 194.947 198.506 194.827 198.218 194.667L198.818 193.515C198.994 193.611 199.154 193.691 199.298 193.755C199.458 193.819 199.626 193.851 199.802 193.851C200.218 193.851 200.61 193.643 200.978 193.227C201.346 192.811 201.698 192.203 202.034 191.403L202.658 189.843L197.09 177.435H198.818L203.402 188.259L207.626 177.435H209.258L203.306 191.907C202.986 192.659 202.65 193.275 202.298 193.755C201.946 194.235 201.57 194.587 201.17 194.811C200.77 195.051 200.346 195.171 199.898 195.171ZM215.162 190.083C214.01 190.083 213.026 189.867 212.21 189.435C211.394 188.987 210.77 188.363 210.338 187.563L211.682 186.963C211.986 187.523 212.426 187.963 213.002 188.283C213.578 188.587 214.274 188.739 215.09 188.739C216.066 188.739 216.842 188.515 217.418 188.067C218.01 187.619 218.306 187.019 218.306 186.267C218.306 185.579 218.074 185.027 217.61 184.611C217.146 184.195 216.506 183.979 215.69 183.963H214.418V182.835H215.786C216.138 182.835 216.458 182.739 216.746 182.547C217.034 182.355 217.258 182.099 217.418 181.779C217.578 181.459 217.658 181.099 217.658 180.699C217.658 180.075 217.434 179.571 216.986 179.187C216.554 178.803 215.914 178.611 215.066 178.611C214.362 178.611 213.77 178.755 213.29 179.043C212.826 179.315 212.45 179.723 212.162 180.267L210.914 179.595C211.282 178.859 211.826 178.283 212.546 177.867C213.282 177.451 214.138 177.243 215.114 177.243C215.914 177.243 216.61 177.379 217.202 177.651C217.81 177.907 218.282 178.283 218.618 178.779C218.97 179.259 219.146 179.843 219.146 180.531C219.146 181.123 219.002 181.675 218.714 182.187C218.426 182.683 218.026 183.059 217.514 183.315C218.25 183.539 218.818 183.931 219.218 184.491C219.634 185.051 219.842 185.707 219.842 186.459C219.842 187.211 219.642 187.859 219.242 188.403C218.842 188.947 218.29 189.363 217.586 189.651C216.882 189.939 216.074 190.083 215.162 190.083ZM222.553 189.939V177.435H224.185V182.787H226.057L230.257 177.435H232.129L227.353 183.507L232.729 189.939H230.809L226.057 184.299H224.185V189.939H222.553ZM236.414 195.171C236.142 195.171 235.862 195.123 235.574 195.027C235.302 194.947 235.022 194.827 234.734 194.667L235.334 193.515C235.51 193.611 235.67 193.691 235.814 193.755C235.974 193.819 236.142 193.851 236.318 193.851C236.734 193.851 237.126 193.643 237.494 193.227C237.862 192.811 238.214 192.203 238.55 191.403L239.174 189.843L233.606 177.435H235.334L239.918 188.259L244.142 177.435H245.774L239.822 191.907C239.502 192.659 239.166 193.275 238.814 193.755C238.462 194.235 238.086 194.587 237.686 194.811C237.286 195.051 236.862 195.171 236.414 195.171ZM60.0184 217.939V212.707C59.5064 212.947 58.9704 213.131 58.4104 213.259C57.8504 213.371 57.2504 213.427 56.6104 213.427C55.2344 213.427 54.1944 213.075 53.4904 212.371C52.8024 211.667 52.4584 210.587 52.4584 209.131V205.435H54.0904V208.915C54.0904 210.035 54.3144 210.851 54.7624 211.363C55.2264 211.875 55.9624 212.131 56.9704 212.131C57.5304 212.131 58.0904 212.067 58.6504 211.939C59.2104 211.811 59.6664 211.643 60.0184 211.435V205.435H61.6504V217.939H60.0184ZM70.6414 218.179C69.7454 218.179 68.9134 218.011 68.1454 217.675C67.3774 217.323 66.7134 216.851 66.1534 216.259C65.5934 215.651 65.1534 214.955 64.8334 214.171C64.5294 213.387 64.3774 212.547 64.3774 211.651C64.3774 210.483 64.6414 209.411 65.1694 208.435C65.7134 207.459 66.4574 206.683 67.4014 206.107C68.3454 205.515 69.4174 205.219 70.6174 205.219C71.8494 205.219 72.9214 205.515 73.8334 206.107C74.7614 206.699 75.4894 207.483 76.0174 208.459C76.5454 209.419 76.8094 210.475 76.8094 211.627C76.8094 211.755 76.8094 211.883 76.8094 212.011C76.8094 212.123 76.8014 212.211 76.7854 212.275H66.0814C66.1614 213.171 66.4094 213.971 66.8254 214.675C67.2574 215.363 67.8094 215.915 68.4814 216.331C69.1694 216.731 69.9134 216.931 70.7134 216.931C71.5294 216.931 72.2974 216.723 73.0174 216.307C73.7534 215.891 74.2654 215.347 74.5534 214.675L75.9694 215.059C75.7134 215.651 75.3214 216.187 74.7934 216.667C74.2654 217.147 73.6414 217.523 72.9214 217.795C72.2174 218.051 71.4574 218.179 70.6414 218.179ZM66.0334 211.099H75.2734C75.2094 210.187 74.9614 209.387 74.5294 208.699C74.1134 208.011 73.5614 207.475 72.8734 207.091C72.2014 206.691 71.4574 206.491 70.6414 206.491C69.8254 206.491 69.0814 206.691 68.4094 207.091C67.7374 207.475 67.1854 208.019 66.7534 208.723C66.3374 209.411 66.0974 210.203 66.0334 211.099ZM79.3033 217.939V205.435H80.9353V210.787H82.8073L87.0073 205.435H88.8793L84.1033 211.507L89.4793 217.939H87.5593L82.8073 212.299H80.9353V217.939H79.3033ZM90.7412 214.339C90.7412 213.555 90.9652 212.883 91.4132 212.323C91.8612 211.747 92.4772 211.307 93.2612 211.003C94.0612 210.683 94.9812 210.523 96.0212 210.523C96.6292 210.523 97.2612 210.571 97.9172 210.667C98.5732 210.763 99.1572 210.907 99.6692 211.099V210.043C99.6692 208.987 99.3572 208.147 98.7332 207.523C98.1092 206.899 97.2452 206.587 96.1412 206.587C95.4692 206.587 94.8052 206.715 94.1492 206.971C93.5092 207.211 92.8372 207.571 92.1332 208.051L91.5092 206.899C92.3252 206.339 93.1252 205.923 93.9092 205.651C94.6932 205.363 95.4932 205.219 96.3092 205.219C97.8452 205.219 99.0612 205.659 99.9572 206.539C100.853 207.419 101.301 208.635 101.301 210.187V215.971C101.301 216.195 101.349 216.363 101.445 216.475C101.541 216.571 101.693 216.627 101.901 216.643V217.939C101.725 217.955 101.573 217.971 101.445 217.987C101.317 218.003 101.221 218.003 101.157 217.987C100.757 217.971 100.453 217.843 100.245 217.603C100.037 217.363 99.9252 217.107 99.9092 216.835L99.8852 215.923C99.3252 216.643 98.5972 217.203 97.7012 217.603C96.8052 217.987 95.8932 218.179 94.9652 218.179C94.1652 218.179 93.4372 218.011 92.7812 217.675C92.1412 217.323 91.6372 216.859 91.2692 216.283C90.9172 215.691 90.7412 215.043 90.7412 214.339ZM99.1172 215.299C99.2932 215.075 99.4292 214.859 99.5252 214.651C99.6212 214.443 99.6692 214.259 99.6692 214.099V212.275C99.1252 212.067 98.5572 211.907 97.9652 211.795C97.3892 211.683 96.8052 211.627 96.2132 211.627C95.0452 211.627 94.1012 211.859 93.3812 212.323C92.6612 212.787 92.3012 213.419 92.3012 214.219C92.3012 214.683 92.4212 215.123 92.6612 215.539C92.9012 215.939 93.2532 216.275 93.7172 216.547C94.1812 216.803 94.7252 216.931 95.3492 216.931C96.1332 216.931 96.8612 216.779 97.5332 216.475C98.2212 216.171 98.7492 215.779 99.1172 215.299ZM116.369 218.179C115.457 218.179 114.617 218.011 113.849 217.675C113.097 217.323 112.433 216.843 111.857 216.235C111.297 215.627 110.857 214.931 110.537 214.147C110.233 213.363 110.081 212.531 110.081 211.651C110.081 210.467 110.345 209.387 110.873 208.411C111.401 207.435 112.137 206.659 113.081 206.083C114.025 205.507 115.113 205.219 116.345 205.219C117.513 205.219 118.545 205.491 119.441 206.035C120.337 206.563 121.001 207.283 121.433 208.195L119.849 208.699C119.497 208.059 119.001 207.563 118.361 207.211C117.737 206.843 117.041 206.659 116.273 206.659C115.441 206.659 114.681 206.875 113.993 207.307C113.305 207.739 112.753 208.331 112.337 209.083C111.937 209.835 111.737 210.691 111.737 211.651C111.737 212.595 111.945 213.451 112.361 214.219C112.777 214.987 113.329 215.603 114.017 216.067C114.705 216.515 115.465 216.739 116.297 216.739C116.841 216.739 117.361 216.643 117.857 216.451C118.369 216.259 118.809 216.003 119.177 215.683C119.561 215.347 119.817 214.987 119.945 214.603L121.553 215.083C121.329 215.675 120.953 216.211 120.425 216.691C119.913 217.155 119.305 217.523 118.601 217.795C117.913 218.051 117.169 218.179 116.369 218.179ZM135.658 218.179C134.746 218.179 133.906 218.011 133.138 217.675C132.386 217.323 131.722 216.843 131.146 216.235C130.586 215.627 130.146 214.931 129.826 214.147C129.522 213.363 129.37 212.531 129.37 211.651C129.37 210.467 129.634 209.387 130.162 208.411C130.69 207.435 131.426 206.659 132.37 206.083C133.314 205.507 134.402 205.219 135.634 205.219C136.802 205.219 137.834 205.491 138.73 206.035C139.626 206.563 140.29 207.283 140.722 208.195L139.138 208.699C138.786 208.059 138.29 207.563 137.65 207.211C137.026 206.843 136.33 206.659 135.562 206.659C134.73 206.659 133.97 206.875 133.282 207.307C132.594 207.739 132.042 208.331 131.626 209.083C131.226 209.835 131.026 210.691 131.026 211.651C131.026 212.595 131.234 213.451 131.65 214.219C132.066 214.987 132.618 215.603 133.306 216.067C133.994 216.515 134.754 216.739 135.586 216.739C136.13 216.739 136.65 216.643 137.146 216.451C137.658 216.259 138.098 216.003 138.466 215.683C138.85 215.347 139.106 214.987 139.234 214.603L140.842 215.083C140.618 215.675 140.242 216.211 139.714 216.691C139.202 217.155 138.594 217.523 137.89 217.795C137.202 218.051 136.458 218.179 135.658 218.179ZM148.616 218.179C147.72 218.179 146.888 218.011 146.12 217.675C145.368 217.323 144.712 216.851 144.152 216.259C143.608 215.651 143.184 214.963 142.88 214.195C142.576 213.411 142.424 212.587 142.424 211.723C142.424 210.827 142.576 209.995 142.88 209.227C143.184 208.443 143.616 207.755 144.176 207.163C144.736 206.555 145.392 206.083 146.144 205.747C146.912 205.395 147.744 205.219 148.64 205.219C149.536 205.219 150.36 205.395 151.112 205.747C151.864 206.083 152.52 206.555 153.08 207.163C153.64 207.755 154.072 208.443 154.376 209.227C154.68 209.995 154.832 210.827 154.832 211.723C154.832 212.587 154.68 213.411 154.376 214.195C154.072 214.963 153.64 215.651 153.08 216.259C152.536 216.851 151.88 217.323 151.112 217.675C150.36 218.011 149.528 218.179 148.616 218.179ZM144.08 211.747C144.08 212.675 144.28 213.523 144.68 214.291C145.096 215.043 145.648 215.643 146.336 216.091C147.024 216.523 147.784 216.739 148.616 216.739C149.448 216.739 150.208 216.515 150.896 216.067C151.584 215.619 152.136 215.011 152.552 214.243C152.968 213.459 153.176 212.611 153.176 211.699C153.176 210.771 152.968 209.923 152.552 209.155C152.136 208.387 151.584 207.779 150.896 207.331C150.208 206.883 149.448 206.659 148.616 206.659C147.784 206.659 147.024 206.891 146.336 207.355C145.664 207.819 145.12 208.435 144.704 209.203C144.288 209.955 144.08 210.803 144.08 211.747ZM162.986 218.179C162.074 218.179 161.234 218.011 160.466 217.675C159.714 217.323 159.05 216.843 158.474 216.235C157.914 215.627 157.474 214.931 157.154 214.147C156.85 213.363 156.698 212.531 156.698 211.651C156.698 210.467 156.962 209.387 157.49 208.411C158.018 207.435 158.754 206.659 159.698 206.083C160.642 205.507 161.73 205.219 162.962 205.219C164.13 205.219 165.162 205.491 166.058 206.035C166.954 206.563 167.618 207.283 168.05 208.195L166.466 208.699C166.114 208.059 165.618 207.563 164.978 207.211C164.354 206.843 163.658 206.659 162.89 206.659C162.058 206.659 161.298 206.875 160.61 207.307C159.922 207.739 159.37 208.331 158.954 209.083C158.554 209.835 158.354 210.691 158.354 211.651C158.354 212.595 158.562 213.451 158.978 214.219C159.394 214.987 159.946 215.603 160.634 216.067C161.322 216.515 162.082 216.739 162.914 216.739C163.458 216.739 163.978 216.643 164.474 216.451C164.986 216.259 165.426 216.003 165.794 215.683C166.178 215.347 166.434 214.987 166.562 214.603L168.17 215.083C167.946 215.675 167.57 216.211 167.042 216.691C166.53 217.155 165.922 217.523 165.218 217.795C164.53 218.051 163.786 218.179 162.986 218.179ZM170.71 217.939V205.459H172.342V215.731L179.95 205.435H181.414V217.939H179.782V207.835L172.294 217.939H170.71ZM190.408 218.179C189.496 218.179 188.656 218.011 187.888 217.675C187.136 217.323 186.472 216.843 185.896 216.235C185.336 215.627 184.896 214.931 184.576 214.147C184.272 213.363 184.12 212.531 184.12 211.651C184.12 210.467 184.384 209.387 184.912 208.411C185.44 207.435 186.176 206.659 187.12 206.083C188.064 205.507 189.152 205.219 190.384 205.219C191.552 205.219 192.584 205.491 193.48 206.035C194.376 206.563 195.04 207.283 195.472 208.195L193.888 208.699C193.536 208.059 193.04 207.563 192.4 207.211C191.776 206.843 191.08 206.659 190.312 206.659C189.48 206.659 188.72 206.875 188.032 207.307C187.344 207.739 186.792 208.331 186.376 209.083C185.976 209.835 185.776 210.691 185.776 211.651C185.776 212.595 185.984 213.451 186.4 214.219C186.816 214.987 187.368 215.603 188.056 216.067C188.744 216.515 189.504 216.739 190.336 216.739C190.88 216.739 191.4 216.643 191.896 216.451C192.408 216.259 192.848 216.003 193.216 215.683C193.6 215.347 193.856 214.987 193.984 214.603L195.592 215.083C195.368 215.675 194.992 216.211 194.464 216.691C193.952 217.155 193.344 217.523 192.64 217.795C191.952 218.051 191.208 218.179 190.408 218.179ZM198.131 217.939V205.435H199.763V210.787H201.635L205.835 205.435H207.707L202.931 211.507L208.307 217.939H206.387L201.635 212.299H199.763V217.939H198.131ZM209.569 214.339C209.569 213.555 209.793 212.883 210.241 212.323C210.689 211.747 211.305 211.307 212.089 211.003C212.889 210.683 213.809 210.523 214.849 210.523C215.457 210.523 216.089 210.571 216.745 210.667C217.401 210.763 217.985 210.907 218.497 211.099V210.043C218.497 208.987 218.185 208.147 217.561 207.523C216.937 206.899 216.073 206.587 214.969 206.587C214.297 206.587 213.633 206.715 212.977 206.971C212.337 207.211 211.665 207.571 210.961 208.051L210.337 206.899C211.153 206.339 211.953 205.923 212.737 205.651C213.521 205.363 214.321 205.219 215.137 205.219C216.673 205.219 217.889 205.659 218.785 206.539C219.681 207.419 220.129 208.635 220.129 210.187V215.971C220.129 216.195 220.177 216.363 220.273 216.475C220.369 216.571 220.521 216.627 220.729 216.643V217.939C220.553 217.955 220.401 217.971 220.273 217.987C220.145 218.003 220.049 218.003 219.985 217.987C219.585 217.971 219.281 217.843 219.073 217.603C218.865 217.363 218.753 217.107 218.737 216.835L218.713 215.923C218.153 216.643 217.425 217.203 216.529 217.603C215.633 217.987 214.721 218.179 213.793 218.179C212.993 218.179 212.265 218.011 211.609 217.675C210.969 217.323 210.465 216.859 210.097 216.283C209.745 215.691 209.569 215.043 209.569 214.339ZM217.945 215.299C218.121 215.075 218.257 214.859 218.353 214.651C218.449 214.443 218.497 214.259 218.497 214.099V212.275C217.953 212.067 217.385 211.907 216.793 211.795C216.217 211.683 215.633 211.627 215.041 211.627C213.873 211.627 212.929 211.859 212.209 212.323C211.489 212.787 211.129 213.419 211.129 214.219C211.129 214.683 211.249 215.123 211.489 215.539C211.729 215.939 212.081 216.275 212.545 216.547C213.009 216.803 213.553 216.931 214.177 216.931C214.961 216.931 215.689 216.779 216.361 216.475C217.049 216.171 217.577 215.779 217.945 215.299ZM223.631 217.939V205.435H225.311L230.279 214.051L235.271 205.435H236.879V217.939H235.319V207.883L230.807 215.707H229.751L225.191 207.883V217.939H223.631ZM240.46 217.939V205.459H242.092V215.731L249.7 205.435H251.164V217.939H249.532V207.835L242.044 217.939H240.46Z" fill="white"/>
</svg>
