<svg width="1735" height="28" viewBox="0 0 1735 28" fill="none" xmlns="http://www.w3.org/2000/svg">
<path d="M665.158 10.936H657.406V8.008H670.222L661.774 25.048H658.126L665.158 10.936ZM683.747 14.968C683.747 16.376 683.476 17.632 682.932 18.736C682.404 19.824 681.668 20.68 680.724 21.304C679.796 21.928 678.74 22.24 677.556 22.24C676.372 22.24 675.308 21.928 674.364 21.304C673.436 20.68 672.7 19.824 672.156 18.736C671.628 17.632 671.364 16.376 671.364 14.968C671.364 13.56 671.628 12.312 672.156 11.224C672.7 10.12 673.436 9.256 674.364 8.632C675.308 7.992 676.372 7.672 677.556 7.672C678.74 7.672 679.796 7.992 680.724 8.632C681.668 9.256 682.404 10.12 682.932 11.224C683.476 12.312 683.747 13.56 683.747 14.968ZM680.508 14.968C680.508 14.104 680.38 13.352 680.124 12.712C679.884 12.056 679.54 11.544 679.092 11.176C678.644 10.808 678.132 10.624 677.556 10.624C676.964 10.624 676.444 10.808 675.996 11.176C675.548 11.544 675.196 12.056 674.94 12.712C674.7 13.352 674.58 14.104 674.58 14.968C674.58 15.832 674.7 16.584 674.94 17.224C675.196 17.864 675.548 18.368 675.996 18.736C676.444 19.104 676.964 19.288 677.556 19.288C678.132 19.288 678.636 19.104 679.068 18.736C679.516 18.368 679.868 17.864 680.124 17.224C680.38 16.568 680.508 15.816 680.508 14.968ZM690.695 16.288V13.384H697.631V16.288H690.695ZM690.695 19.36V17.776H698.927V19.36H690.695ZM692.471 22V4.96H698.687C699.519 4.96 700.263 5.12 700.919 5.44C701.591 5.76 702.159 6.192 702.623 6.736C703.103 7.28 703.471 7.888 703.727 8.56C703.983 9.232 704.111 9.92 704.111 10.624C704.111 11.584 703.895 12.496 703.463 13.36C703.047 14.224 702.447 14.928 701.663 15.472C700.879 16.016 699.935 16.288 698.831 16.288H695.759V22H692.471ZM695.759 13.384H698.615C699.111 13.384 699.519 13.272 699.839 13.048C700.159 12.824 700.391 12.504 700.535 12.088C700.695 11.656 700.775 11.168 700.775 10.624C700.775 10.032 700.679 9.528 700.487 9.112C700.311 8.696 700.047 8.384 699.695 8.176C699.359 7.968 698.951 7.864 698.471 7.864H695.759V13.384ZM711.798 16.864V13.96H731.286V16.864H711.798ZM739.902 22V9.424H743.262L747.198 16.696L751.158 9.424H754.47V22H751.422V13.864L748.206 19.768H746.19L742.95 13.864V22H739.902ZM757.433 22V9.448H760.649V17.704L766.289 9.424H769.217V22H766.001V13.936L760.433 22H757.433ZM772.152 22V9.424H775.368V14.224H780.456V9.424H783.672V22H780.456V16.912H775.368V22H772.152ZM786.612 22V9.448H789.828V17.704L795.468 9.424H798.396V22H795.18V13.936L789.612 22H786.612ZM801.331 22V9.424H804.691L808.627 16.696L812.587 9.424H815.899V22H812.851V13.864L809.635 19.768H807.619L804.379 13.864V22H801.331ZM817.998 18.28C817.998 17.464 818.222 16.752 818.67 16.144C819.134 15.52 819.774 15.04 820.59 14.704C821.406 14.368 822.342 14.2 823.398 14.2C823.926 14.2 824.462 14.24 825.006 14.32C825.55 14.4 826.022 14.528 826.422 14.704V14.032C826.422 13.232 826.182 12.616 825.702 12.184C825.238 11.752 824.542 11.536 823.614 11.536C822.926 11.536 822.27 11.656 821.646 11.896C821.022 12.136 820.366 12.488 819.678 12.952L818.646 10.84C819.478 10.296 820.326 9.888 821.19 9.616C822.07 9.344 822.99 9.208 823.95 9.208C825.742 9.208 827.134 9.656 828.126 10.552C829.134 11.448 829.638 12.728 829.638 14.392V18.4C829.638 18.736 829.694 18.976 829.806 19.12C829.934 19.264 830.134 19.352 830.406 19.384V22C830.118 22.048 829.854 22.088 829.614 22.12C829.39 22.152 829.198 22.168 829.038 22.168C828.398 22.168 827.91 22.024 827.574 21.736C827.254 21.448 827.054 21.096 826.974 20.68L826.902 20.032C826.358 20.736 825.678 21.28 824.862 21.664C824.046 22.048 823.214 22.24 822.366 22.24C821.534 22.24 820.782 22.072 820.11 21.736C819.454 21.384 818.934 20.912 818.55 20.32C818.182 19.712 817.998 19.032 817.998 18.28ZM825.822 18.928C825.998 18.736 826.142 18.544 826.254 18.352C826.366 18.16 826.422 17.984 826.422 17.824V16.552C826.038 16.392 825.622 16.272 825.174 16.192C824.726 16.096 824.302 16.048 823.902 16.048C823.07 16.048 822.382 16.232 821.838 16.6C821.31 16.952 821.046 17.424 821.046 18.016C821.046 18.336 821.134 18.64 821.31 18.928C821.486 19.216 821.742 19.448 822.078 19.624C822.414 19.8 822.814 19.888 823.278 19.888C823.758 19.888 824.23 19.8 824.694 19.624C825.158 19.432 825.534 19.2 825.822 18.928ZM831.732 22.168V19.312C832.116 19.296 832.46 19.2 832.764 19.024C833.068 18.848 833.332 18.552 833.556 18.136C833.796 17.704 833.98 17.104 834.108 16.336C834.252 15.568 834.348 14.584 834.396 13.384L834.564 9.424H843.996V22H840.78V12.232H837.396L837.348 13.696C837.284 15.344 837.124 16.712 836.868 17.8C836.612 18.888 836.252 19.752 835.788 20.392C835.34 21.016 834.78 21.464 834.108 21.736C833.436 22.008 832.644 22.152 831.732 22.168ZM846.917 22V9.424H850.133V13.384H852.989C854.493 13.384 855.645 13.768 856.445 14.536C857.245 15.304 857.645 16.32 857.645 17.584C857.645 18.432 857.477 19.192 857.141 19.864C856.805 20.536 856.309 21.064 855.653 21.448C854.997 21.816 854.181 22 853.205 22H846.917ZM850.133 19.552H852.701C853.133 19.552 853.485 19.464 853.757 19.288C854.045 19.112 854.253 18.88 854.381 18.592C854.525 18.304 854.597 17.976 854.597 17.608C854.597 17.256 854.533 16.944 854.405 16.672C854.277 16.384 854.069 16.16 853.781 16C853.509 15.824 853.141 15.736 852.677 15.736H850.133V19.552ZM859.667 22V9.424H862.883V14.224H867.971V9.424H871.187V22H867.971V16.912H862.883V22H859.667ZM873.264 18.28C873.264 17.464 873.488 16.752 873.936 16.144C874.4 15.52 875.04 15.04 875.856 14.704C876.672 14.368 877.608 14.2 878.664 14.2C879.192 14.2 879.728 14.24 880.272 14.32C880.816 14.4 881.288 14.528 881.688 14.704V14.032C881.688 13.232 881.448 12.616 880.968 12.184C880.504 11.752 879.808 11.536 878.88 11.536C878.192 11.536 877.536 11.656 876.912 11.896C876.288 12.136 875.632 12.488 874.944 12.952L873.912 10.84C874.744 10.296 875.592 9.888 876.456 9.616C877.336 9.344 878.256 9.208 879.216 9.208C881.008 9.208 882.4 9.656 883.392 10.552C884.4 11.448 884.904 12.728 884.904 14.392V18.4C884.904 18.736 884.96 18.976 885.072 19.12C885.2 19.264 885.4 19.352 885.672 19.384V22C885.384 22.048 885.12 22.088 884.88 22.12C884.656 22.152 884.464 22.168 884.304 22.168C883.664 22.168 883.176 22.024 882.84 21.736C882.52 21.448 882.32 21.096 882.24 20.68L882.168 20.032C881.624 20.736 880.944 21.28 880.128 21.664C879.312 22.048 878.48 22.24 877.632 22.24C876.8 22.24 876.048 22.072 875.376 21.736C874.72 21.384 874.2 20.912 873.816 20.32C873.448 19.712 873.264 19.032 873.264 18.28ZM881.088 18.928C881.264 18.736 881.408 18.544 881.52 18.352C881.632 18.16 881.688 17.984 881.688 17.824V16.552C881.304 16.392 880.888 16.272 880.44 16.192C879.992 16.096 879.568 16.048 879.168 16.048C878.336 16.048 877.648 16.232 877.104 16.6C876.576 16.952 876.312 17.424 876.312 18.016C876.312 18.336 876.4 18.64 876.576 18.928C876.752 19.216 877.008 19.448 877.344 19.624C877.68 19.8 878.08 19.888 878.544 19.888C879.024 19.888 879.496 19.8 879.96 19.624C880.424 19.432 880.8 19.2 881.088 18.928ZM887.237 22L890.429 17.104C889.677 16.896 889.077 16.488 888.629 15.88C888.197 15.272 887.981 14.472 887.981 13.48C887.981 12.648 888.173 11.928 888.557 11.32C888.941 10.712 889.469 10.24 890.141 9.904C890.813 9.552 891.589 9.376 892.469 9.376H898.445V22H895.229V17.656H893.525L890.765 22H887.237ZM892.853 15.352H895.229V11.848H892.973C892.397 11.848 891.941 12.008 891.605 12.328C891.269 12.648 891.101 13.064 891.101 13.576C891.101 14.088 891.245 14.512 891.533 14.848C891.837 15.184 892.277 15.352 892.853 15.352ZM912.984 22.24C911.96 22.24 911.04 22.072 910.224 21.736C909.408 21.384 908.712 20.904 908.136 20.296C907.56 19.672 907.112 18.968 906.792 18.184C906.488 17.4 906.336 16.576 906.336 15.712C906.336 14.528 906.6 13.448 907.128 12.472C907.672 11.48 908.44 10.688 909.432 10.096C910.424 9.504 911.6 9.208 912.96 9.208C914.32 9.208 915.488 9.504 916.464 10.096C917.44 10.688 918.168 11.464 918.648 12.424L915.504 13.384C915.232 12.92 914.872 12.568 914.424 12.328C913.976 12.072 913.48 11.944 912.936 11.944C912.328 11.944 911.768 12.104 911.256 12.424C910.76 12.728 910.368 13.168 910.08 13.744C909.792 14.304 909.648 14.96 909.648 15.712C909.648 16.448 909.792 17.104 910.08 17.68C910.384 18.24 910.784 18.688 911.28 19.024C911.776 19.344 912.328 19.504 912.936 19.504C913.32 19.504 913.68 19.44 914.016 19.312C914.368 19.184 914.68 19.008 914.952 18.784C915.224 18.56 915.424 18.304 915.552 18.016L918.696 18.976C918.408 19.6 917.984 20.16 917.424 20.656C916.88 21.152 916.232 21.544 915.48 21.832C914.744 22.104 913.912 22.24 912.984 22.24ZM922.313 27.424C921.977 27.424 921.633 27.384 921.281 27.304C920.945 27.224 920.553 27.104 920.105 26.944L920.729 24.4C920.969 24.512 921.193 24.592 921.401 24.64C921.625 24.688 921.825 24.712 922.001 24.712C922.401 24.712 922.753 24.568 923.057 24.28C923.377 23.992 923.633 23.552 923.825 22.96L924.209 21.928L919.121 9.424H922.457L925.841 18.712L928.817 9.424H931.889L926.753 23.8C926.481 24.568 926.121 25.216 925.673 25.744C925.225 26.288 924.713 26.704 924.137 26.992C923.561 27.28 922.953 27.424 922.313 27.424ZM933.636 22V9.424H936.996L940.932 16.696L944.892 9.424H948.204V22H945.156V13.864L941.94 19.768H939.924L936.684 13.864V22H933.636ZM951.167 22V9.424H954.527L958.463 16.696L962.423 9.424H965.735V22H962.687V13.864L959.471 19.768H957.455L954.215 13.864V22H951.167ZM967.834 18.28C967.834 17.464 968.058 16.752 968.506 16.144C968.97 15.52 969.61 15.04 970.426 14.704C971.242 14.368 972.178 14.2 973.234 14.2C973.762 14.2 974.298 14.24 974.842 14.32C975.386 14.4 975.858 14.528 976.258 14.704V14.032C976.258 13.232 976.018 12.616 975.538 12.184C975.074 11.752 974.378 11.536 973.45 11.536C972.762 11.536 972.106 11.656 971.482 11.896C970.858 12.136 970.202 12.488 969.514 12.952L968.482 10.84C969.314 10.296 970.162 9.888 971.026 9.616C971.906 9.344 972.826 9.208 973.786 9.208C975.578 9.208 976.97 9.656 977.962 10.552C978.97 11.448 979.474 12.728 979.474 14.392V18.4C979.474 18.736 979.53 18.976 979.642 19.12C979.77 19.264 979.97 19.352 980.242 19.384V22C979.954 22.048 979.69 22.088 979.45 22.12C979.226 22.152 979.034 22.168 978.874 22.168C978.234 22.168 977.746 22.024 977.41 21.736C977.09 21.448 976.89 21.096 976.81 20.68L976.738 20.032C976.194 20.736 975.514 21.28 974.698 21.664C973.882 22.048 973.05 22.24 972.202 22.24C971.37 22.24 970.618 22.072 969.946 21.736C969.29 21.384 968.77 20.912 968.386 20.32C968.018 19.712 967.834 19.032 967.834 18.28ZM975.658 18.928C975.834 18.736 975.978 18.544 976.09 18.352C976.202 18.16 976.258 17.984 976.258 17.824V16.552C975.874 16.392 975.458 16.272 975.01 16.192C974.562 16.096 974.138 16.048 973.738 16.048C972.906 16.048 972.218 16.232 971.674 16.6C971.146 16.952 970.882 17.424 970.882 18.016C970.882 18.336 970.97 18.64 971.146 18.928C971.322 19.216 971.578 19.448 971.914 19.624C972.25 19.8 972.65 19.888 973.114 19.888C973.594 19.888 974.066 19.8 974.53 19.624C974.994 19.432 975.37 19.2 975.658 18.928ZM988.245 22V9.424H999.525V22H996.309V12.232H991.461V22H988.245ZM1008.26 22.24C1007.23 22.24 1006.31 22.072 1005.5 21.736C1004.68 21.384 1003.98 20.904 1003.41 20.296C1002.85 19.688 1002.42 18.992 1002.11 18.208C1001.81 17.424 1001.66 16.6 1001.66 15.736C1001.66 14.856 1001.81 14.024 1002.11 13.24C1002.42 12.456 1002.85 11.76 1003.41 11.152C1003.98 10.544 1004.68 10.072 1005.5 9.736C1006.31 9.384 1007.23 9.208 1008.26 9.208C1009.28 9.208 1010.19 9.384 1010.99 9.736C1011.81 10.072 1012.5 10.544 1013.08 11.152C1013.66 11.76 1014.09 12.456 1014.38 13.24C1014.68 14.024 1014.83 14.856 1014.83 15.736C1014.83 16.6 1014.68 17.424 1014.38 18.208C1014.09 18.992 1013.66 19.688 1013.08 20.296C1012.52 20.904 1011.83 21.384 1011.02 21.736C1010.2 22.072 1009.28 22.24 1008.26 22.24ZM1004.97 15.736C1004.97 16.472 1005.11 17.128 1005.4 17.704C1005.69 18.264 1006.08 18.704 1006.58 19.024C1007.07 19.344 1007.63 19.504 1008.26 19.504C1008.86 19.504 1009.42 19.344 1009.91 19.024C1010.41 18.688 1010.8 18.24 1011.09 17.68C1011.39 17.104 1011.54 16.448 1011.54 15.712C1011.54 14.992 1011.39 14.344 1011.09 13.768C1010.8 13.192 1010.41 12.744 1009.91 12.424C1009.42 12.104 1008.86 11.944 1008.26 11.944C1007.63 11.944 1007.07 12.112 1006.58 12.448C1006.08 12.768 1005.69 13.216 1005.4 13.792C1005.11 14.352 1004.97 15 1004.97 15.736ZM1017 22V9.424H1020.22V14.176H1021.3L1024.71 9.424H1028.21L1023.75 15.496L1028.69 22H1025.02L1021.25 17.008H1020.22V22H1017ZM1032.56 27.424C1032.23 27.424 1031.88 27.384 1031.53 27.304C1031.19 27.224 1030.8 27.104 1030.35 26.944L1030.98 24.4C1031.22 24.512 1031.44 24.592 1031.65 24.64C1031.87 24.688 1032.07 24.712 1032.25 24.712C1032.65 24.712 1033 24.568 1033.31 24.28C1033.63 23.992 1033.88 23.552 1034.07 22.96L1034.46 21.928L1029.37 9.424H1032.71L1036.09 18.712L1039.07 9.424H1042.14L1037 23.8C1036.73 24.568 1036.37 25.216 1035.92 25.744C1035.47 26.288 1034.96 26.704 1034.39 26.992C1033.81 27.28 1033.2 27.424 1032.56 27.424ZM1043.89 22V9.424H1055.17V22H1051.95V12.232H1047.1V22H1043.89ZM1058.09 22V9.424H1061.31V14.176H1062.39L1065.79 9.424H1069.3L1064.83 15.496L1069.78 22H1066.11L1062.34 17.008H1061.31V22H1058.09ZM1071.78 22V9.448H1074.99V17.704L1080.63 9.424H1083.56V22H1080.34V13.936L1074.78 22H1071.78Z" fill="white"/>
<path d="M1114.02 11.2238C1113.41 10.6139 1112.8 10.1782 1112.19 9.74258L1111.58 9.30693C1110.36 8.52277 1109.14 8 1107.75 8C1107.05 8 1106.44 8.08714 1105.74 8.2614C1105.74 8.2614 1105.05 8.52279 1104 9.21983C1106.61 11.3981 1108.97 14.5347 1111.58 17.0614L1111.84 17.2357L1111.93 17.3228C1112.19 17.5842 1112.45 17.7584 1112.63 18.0198L1112.89 18.2812L1113.41 18.7169L1114.02 19.1525C1115.5 20.1109 1117.07 20.808 1118.72 20.7208C1119.42 20.7208 1120.12 20.5466 1120.9 20.3723C1120.9 20.3723 1121.77 20.1109 1122.82 19.4139C1119.51 17.1485 1116.81 13.6634 1114.02 11.2238Z" fill="#F7AA3E" fill-opacity="0.4"/>
<path d="M1125.12 11.2238C1124.51 10.6139 1123.9 10.1782 1123.29 9.74258L1122.68 9.30693C1121.46 8.52277 1120.24 8 1118.85 8C1118.15 8 1117.54 8.08714 1116.85 8.2614C1116.85 8.2614 1116.15 8.52279 1115.1 9.21983C1117.72 11.3981 1120.07 14.5347 1122.68 17.0614L1122.95 17.2357L1123.03 17.3228C1123.29 17.5842 1123.56 17.7584 1123.73 18.0198L1123.99 18.2812L1124.51 18.7169L1125.12 19.1525C1126.6 20.1109 1128.17 20.808 1129.83 20.7208C1130.53 20.7208 1131.22 20.5466 1132.01 20.3723C1132.01 20.3723 1132.88 20.1109 1133.92 19.4139C1130.61 17.1485 1127.91 13.6634 1125.12 11.2238Z" fill="#F7AA3E" fill-opacity="0.4"/>
<path d="M1136.23 11.2238C1135.62 10.6139 1135.01 10.1782 1134.4 9.74258L1133.79 9.30693C1132.57 8.52277 1131.35 8 1129.95 8C1129.26 8 1128.65 8.08714 1127.95 8.2614C1127.95 8.2614 1127.25 8.52279 1126.21 9.21983C1128.82 11.3981 1131.17 14.5347 1133.79 17.0614L1134.05 17.2357L1134.13 17.3228C1134.4 17.5842 1134.66 17.7584 1134.83 18.0198L1135.09 18.2812L1135.62 18.7169L1136.23 19.1525C1137.71 20.1109 1139.28 20.808 1140.93 20.7208C1141.63 20.7208 1142.32 20.5466 1143.11 20.3723C1143.11 20.3723 1143.98 20.1109 1145.03 19.4139C1141.71 17.1485 1139.01 13.6634 1136.23 11.2238Z" fill="#F7AA3E" fill-opacity="0.4"/>
<path d="M1147.33 11.2238C1146.72 10.6139 1146.11 10.1782 1145.5 9.74258L1144.89 9.30693C1143.67 8.52277 1142.45 8 1141.06 8C1140.36 8 1139.75 8.08714 1139.05 8.2614C1139.05 8.2614 1138.35 8.52279 1137.31 9.21983C1139.92 11.3981 1142.27 14.5347 1144.89 17.0614L1145.15 17.2357L1145.24 17.3228C1145.5 17.5842 1145.76 17.7584 1145.93 18.0198L1146.2 18.2812L1146.72 18.7169L1147.33 19.1525C1148.81 20.1109 1150.38 20.808 1152.03 20.7208C1152.73 20.7208 1153.43 20.5466 1154.21 20.3723C1154.21 20.3723 1155.08 20.1109 1156.13 19.4139C1152.82 17.1485 1150.12 13.6634 1147.33 11.2238Z" fill="#F7AA3E" fill-opacity="0.4"/>
<path d="M1158.43 11.2238C1157.82 10.6139 1157.21 10.1782 1156.6 9.74258L1155.99 9.30693C1154.77 8.52277 1153.55 8 1152.16 8C1151.46 8 1150.85 8.08714 1150.15 8.2614C1150.15 8.2614 1149.46 8.52279 1148.41 9.21983C1151.03 11.3981 1153.38 14.5347 1155.99 17.0614L1156.25 17.2357L1156.34 17.3228C1156.6 17.5842 1156.86 17.7584 1157.04 18.0198L1157.3 18.2812L1157.82 18.7169L1158.43 19.1525C1159.91 20.1109 1161.48 20.808 1163.14 20.7208C1163.83 20.7208 1164.53 20.5466 1165.32 20.3723C1165.32 20.3723 1166.19 20.1109 1167.23 19.4139C1163.92 17.1485 1161.22 13.6634 1158.43 11.2238Z" fill="#F7AA3E" fill-opacity="0.4"/>
<path d="M1169.54 11.2238C1168.93 10.6139 1168.32 10.1782 1167.71 9.74258L1167.1 9.30693C1165.88 8.52277 1164.66 8 1163.26 8C1162.57 8 1161.96 8.08714 1161.26 8.2614C1161.26 8.2614 1160.56 8.52279 1159.52 9.21983C1162.13 11.3981 1164.48 14.5347 1167.1 17.0614L1167.36 17.2357L1167.44 17.3228C1167.71 17.5842 1167.97 17.7584 1168.14 18.0198L1168.4 18.2812L1168.93 18.7169L1169.54 19.1525C1171.02 20.1109 1172.58 20.808 1174.24 20.7208C1174.94 20.7208 1175.63 20.5466 1176.42 20.3723C1176.42 20.3723 1177.29 20.1109 1178.34 19.4139C1175.02 17.1485 1172.32 13.6634 1169.54 11.2238Z" fill="#F7AA3E" fill-opacity="0.4"/>
<path d="M1180.64 11.2238C1180.03 10.6139 1179.42 10.1782 1178.81 9.74258L1178.2 9.30693C1176.98 8.52277 1175.76 8 1174.37 8C1173.67 8 1173.06 8.08714 1172.36 8.2614C1172.36 8.2614 1171.66 8.52279 1170.62 9.21983C1173.23 11.3981 1175.59 14.5347 1178.2 17.0614L1178.46 17.2357L1178.55 17.3228C1178.81 17.5842 1179.07 17.7584 1179.24 18.0198L1179.51 18.2812L1180.03 18.7169L1180.64 19.1525C1182.12 20.1109 1183.69 20.808 1185.34 20.7208C1186.04 20.7208 1186.74 20.5466 1187.52 20.3723C1187.52 20.3723 1188.39 20.1109 1189.44 19.4139C1186.13 17.1485 1183.43 13.6634 1180.64 11.2238Z" fill="#F7AA3E" fill-opacity="0.4"/>
<path d="M1191.74 11.2238C1191.13 10.6139 1190.52 10.1782 1189.91 9.74258L1189.3 9.30693C1188.08 8.52277 1186.86 8 1185.47 8C1184.77 8 1184.16 8.08714 1183.47 8.2614C1183.47 8.2614 1182.77 8.52279 1181.72 9.21983C1184.34 11.3981 1186.69 14.5347 1189.3 17.0614L1189.56 17.2357L1189.65 17.3228C1189.91 17.5842 1190.17 17.7584 1190.35 18.0198L1190.61 18.2812L1191.13 18.7169L1191.74 19.1525C1193.22 20.1109 1194.79 20.808 1196.45 20.7208C1197.14 20.7208 1197.84 20.5466 1198.63 20.3723C1198.63 20.3723 1199.5 20.1109 1200.54 19.4139C1197.23 17.1485 1194.53 13.6634 1191.74 11.2238Z" fill="#F7AA3E" fill-opacity="0.4"/>
<path d="M1202.85 11.2238C1202.24 10.6139 1201.63 10.1782 1201.02 9.74258L1200.41 9.30693C1199.19 8.52277 1197.97 8 1196.57 8C1195.88 8 1195.27 8.08714 1194.57 8.2614C1194.57 8.2614 1193.87 8.52279 1192.83 9.21983C1195.44 11.3981 1197.79 14.5347 1200.41 17.0614L1200.67 17.2357L1200.75 17.3228C1201.02 17.5842 1201.28 17.7584 1201.45 18.0198L1201.71 18.2812L1202.24 18.7169L1202.85 19.1525C1204.33 20.1109 1205.9 20.808 1207.55 20.7208C1208.25 20.7208 1208.95 20.5466 1209.73 20.3723C1209.73 20.3723 1210.6 20.1109 1211.65 19.4139C1208.34 17.1485 1205.63 13.6634 1202.85 11.2238Z" fill="#F7AA3E" fill-opacity="0.4"/>
<path d="M1213.95 11.2238C1213.34 10.6139 1212.73 10.1782 1212.12 9.74258L1211.51 9.30693C1210.29 8.52277 1209.07 8 1207.68 8C1206.98 8 1206.37 8.08714 1205.67 8.2614C1205.67 8.2614 1204.98 8.52279 1203.93 9.21983C1206.54 11.3981 1208.9 14.5347 1211.51 17.0614L1211.77 17.2357L1211.86 17.3228C1212.12 17.5842 1212.38 17.7584 1212.56 18.0198L1212.82 18.2812L1213.34 18.7169L1213.95 19.1525C1215.43 20.1109 1217 20.808 1218.65 20.7208C1219.35 20.7208 1220.05 20.5466 1220.83 20.3723C1220.83 20.3723 1221.7 20.1109 1222.75 19.4139C1219.44 17.1485 1216.74 13.6634 1213.95 11.2238Z" fill="#F7AA3E" fill-opacity="0.4"/>
<path d="M1225.05 11.2238C1224.44 10.6139 1223.83 10.1782 1223.22 9.74258L1222.61 9.30693C1221.39 8.52277 1220.17 8 1218.78 8C1218.08 8 1217.47 8.08714 1216.78 8.2614C1216.78 8.2614 1216.08 8.52279 1215.03 9.21983C1217.65 11.3981 1220 14.5347 1222.61 17.0614L1222.87 17.2357L1222.96 17.3228C1223.22 17.5842 1223.48 17.7584 1223.66 18.0198L1223.92 18.2812L1224.44 18.7169L1225.05 19.1525C1226.53 20.1109 1228.1 20.808 1229.76 20.7208C1230.46 20.7208 1231.15 20.5466 1231.94 20.3723C1231.94 20.3723 1232.81 20.1109 1233.85 19.4139C1230.54 17.1485 1227.84 13.6634 1225.05 11.2238Z" fill="#F7AA3E" fill-opacity="0.4"/>
<path d="M1236.16 11.2238C1235.55 10.6139 1234.94 10.1782 1234.33 9.74258L1233.72 9.30693C1232.5 8.52277 1231.28 8 1229.88 8C1229.19 8 1228.58 8.08714 1227.88 8.2614C1227.88 8.2614 1227.18 8.52279 1226.14 9.21983C1228.75 11.3981 1231.1 14.5347 1233.72 17.0614L1233.98 17.2357L1234.07 17.3228C1234.33 17.5842 1234.59 17.7584 1234.76 18.0198L1235.02 18.2812L1235.55 18.7169L1236.16 19.1525C1237.64 20.1109 1239.21 20.808 1240.86 20.7208C1241.56 20.7208 1242.26 20.5466 1243.04 20.3723C1243.04 20.3723 1243.91 20.1109 1244.96 19.4139C1241.65 17.1485 1238.94 13.6634 1236.16 11.2238Z" fill="#F7AA3E" fill-opacity="0.4"/>
<path d="M1247.26 11.2238C1246.65 10.6139 1246.04 10.1782 1245.43 9.74258L1244.82 9.30693C1243.6 8.52277 1242.38 8 1240.99 8C1240.29 8 1239.68 8.08714 1238.98 8.2614C1238.98 8.2614 1238.29 8.52279 1237.24 9.21983C1239.85 11.3981 1242.21 14.5347 1244.82 17.0614L1245.08 17.2357L1245.17 17.3228C1245.43 17.5842 1245.69 17.7584 1245.87 18.0198L1246.13 18.2812L1246.65 18.7169L1247.26 19.1525C1248.74 20.1109 1250.31 20.808 1251.97 20.7208C1252.66 20.7208 1253.36 20.5466 1254.14 20.3723C1254.14 20.3723 1255.01 20.1109 1256.06 19.4139C1252.75 17.1485 1250.05 13.6634 1247.26 11.2238Z" fill="#F7AA3E" fill-opacity="0.4"/>
<path d="M1258.36 11.2238C1257.75 10.6139 1257.14 10.1782 1256.53 9.74258L1255.92 9.30693C1254.7 8.52277 1253.48 8 1252.09 8C1251.39 8 1250.78 8.08714 1250.09 8.2614C1250.09 8.2614 1249.39 8.52279 1248.34 9.21983C1250.96 11.3981 1253.31 14.5347 1255.92 17.0614L1256.19 17.2357L1256.27 17.3228C1256.53 17.5842 1256.8 17.7584 1256.97 18.0198L1257.23 18.2812L1257.75 18.7169L1258.36 19.1525C1259.84 20.1109 1261.41 20.808 1263.07 20.7208C1263.77 20.7208 1264.46 20.5466 1265.25 20.3723C1265.25 20.3723 1266.12 20.1109 1267.16 19.4139C1263.85 17.1485 1261.15 13.6634 1258.36 11.2238Z" fill="#F7AA3E" fill-opacity="0.4"/>
<path d="M1269.47 11.2238C1268.86 10.6139 1268.25 10.1782 1267.64 9.74258L1267.03 9.30693C1265.81 8.52277 1264.59 8 1263.19 8C1262.5 8 1261.89 8.08714 1261.19 8.2614C1261.19 8.2614 1260.49 8.52279 1259.45 9.21983C1262.06 11.3981 1264.41 14.5347 1267.03 17.0614L1267.29 17.2357L1267.38 17.3228C1267.64 17.5842 1267.9 17.7584 1268.07 18.0198L1268.33 18.2812L1268.86 18.7169L1269.47 19.1525C1270.95 20.1109 1272.52 20.808 1274.17 20.7208C1274.87 20.7208 1275.57 20.5466 1276.35 20.3723C1276.35 20.3723 1277.22 20.1109 1278.27 19.4139C1274.96 17.1485 1272.26 13.6634 1269.47 11.2238Z" fill="#F7AA3E" fill-opacity="0.4"/>
<path d="M1280.57 11.2238C1279.96 10.6139 1279.35 10.1782 1278.74 9.74258L1278.13 9.30693C1276.91 8.52277 1275.69 8 1274.3 8C1273.6 8 1272.99 8.08714 1272.29 8.2614C1272.29 8.2614 1271.6 8.52279 1270.55 9.21983C1273.16 11.3981 1275.52 14.5347 1278.13 17.0614L1278.39 17.2357L1278.48 17.3228C1278.74 17.5842 1279 17.7584 1279.18 18.0198L1279.44 18.2812L1279.96 18.7169L1280.57 19.1525C1282.05 20.1109 1283.62 20.808 1285.28 20.7208C1285.97 20.7208 1286.67 20.5466 1287.45 20.3723C1287.45 20.3723 1288.33 20.1109 1289.37 19.4139C1286.06 17.1485 1283.36 13.6634 1280.57 11.2238Z" fill="#F7AA3E" fill-opacity="0.4"/>
<path d="M1291.67 11.2238C1291.06 10.6139 1290.45 10.1782 1289.84 9.74258L1289.23 9.30693C1288.01 8.52277 1286.79 8 1285.4 8C1284.7 8 1284.09 8.08714 1283.4 8.2614C1283.4 8.2614 1282.7 8.52279 1281.65 9.21983C1284.27 11.3981 1286.62 14.5347 1289.23 17.0614L1289.5 17.2357L1289.58 17.3228C1289.84 17.5842 1290.11 17.7584 1290.28 18.0198L1290.54 18.2812L1291.06 18.7169L1291.67 19.1525C1293.16 20.1109 1294.72 20.808 1296.38 20.7208C1297.08 20.7208 1297.77 20.5466 1298.56 20.3723C1298.56 20.3723 1299.43 20.1109 1300.47 19.4139C1297.16 17.1485 1294.46 13.6634 1291.67 11.2238Z" fill="#F7AA3E" fill-opacity="0.4"/>
<path d="M1302.78 11.2238C1302.17 10.6139 1301.56 10.1782 1300.95 9.74258L1300.34 9.30693C1299.12 8.52277 1297.9 8 1296.5 8C1295.81 8 1295.2 8.08714 1294.5 8.2614C1294.5 8.2614 1293.8 8.52279 1292.76 9.21983C1295.37 11.3981 1297.72 14.5347 1300.34 17.0614L1300.6 17.2357L1300.69 17.3228C1300.95 17.5842 1301.21 17.7584 1301.38 18.0198L1301.64 18.2812L1302.17 18.7169L1302.78 19.1525C1304.26 20.1109 1305.83 20.808 1307.48 20.7208C1308.18 20.7208 1308.88 20.5466 1309.66 20.3723C1309.66 20.3723 1310.53 20.1109 1311.58 19.4139C1308.27 17.1485 1305.57 13.6634 1302.78 11.2238Z" fill="#F7AA3E" fill-opacity="0.4"/>
<path d="M1313.88 11.2238C1313.27 10.6139 1312.66 10.1782 1312.05 9.74258L1311.44 9.30693C1310.22 8.52277 1309 8 1307.61 8C1306.91 8 1306.3 8.08714 1305.6 8.2614C1305.6 8.2614 1304.91 8.52279 1303.86 9.21983C1306.48 11.3981 1308.83 14.5347 1311.44 17.0614L1311.7 17.2357L1311.79 17.3228C1312.05 17.5842 1312.31 17.7584 1312.49 18.0198L1312.75 18.2812L1313.27 18.7169L1313.88 19.1525C1315.36 20.1109 1316.93 20.808 1318.59 20.7208C1319.28 20.7208 1319.98 20.5466 1320.76 20.3723C1320.76 20.3723 1321.64 20.1109 1322.68 19.4139C1319.37 17.1485 1316.67 13.6634 1313.88 11.2238Z" fill="#F7AA3E" fill-opacity="0.4"/>
<path d="M1324.98 11.2238C1324.37 10.6139 1323.76 10.1782 1323.15 9.74258L1322.55 9.30693C1321.33 8.52277 1320.11 8 1318.71 8C1318.01 8 1317.4 8.08714 1316.71 8.2614C1316.71 8.2614 1316.01 8.52279 1314.96 9.21983C1317.58 11.3981 1319.93 14.5347 1322.55 17.0614L1322.81 17.2357L1322.89 17.3228C1323.15 17.5842 1323.42 17.7584 1323.59 18.0198L1323.85 18.2812L1324.37 18.7169L1324.98 19.1525C1326.47 20.1109 1328.03 20.808 1329.69 20.7208C1330.39 20.7208 1331.08 20.5466 1331.87 20.3723C1331.87 20.3723 1332.74 20.1109 1333.78 19.4139C1330.47 17.1485 1327.77 13.6634 1324.98 11.2238Z" fill="#F7AA3E" fill-opacity="0.4"/>
<path d="M1336.09 11.2238C1335.48 10.6139 1334.87 10.1782 1334.26 9.74258L1333.65 9.30693C1332.43 8.52277 1331.21 8 1329.81 8C1329.12 8 1328.51 8.08714 1327.81 8.2614C1327.81 8.2614 1327.11 8.52279 1326.07 9.21983C1328.68 11.3981 1331.03 14.5347 1333.65 17.0614L1333.91 17.2357L1334 17.3228C1334.26 17.5842 1334.52 17.7584 1334.69 18.0198L1334.96 18.2812L1335.48 18.7169L1336.09 19.1525C1337.57 20.1109 1339.14 20.808 1340.79 20.7208C1341.49 20.7208 1342.19 20.5466 1342.97 20.3723C1342.97 20.3723 1343.84 20.1109 1344.89 19.4139C1341.58 17.1485 1338.88 13.6634 1336.09 11.2238Z" fill="#F7AA3E" fill-opacity="0.4"/>
<path d="M1347.19 11.2238C1346.58 10.6139 1345.97 10.1782 1345.36 9.74258L1344.75 9.30693C1343.53 8.52277 1342.31 8 1340.92 8C1340.22 8 1339.61 8.08714 1338.91 8.2614C1338.91 8.2614 1338.22 8.52279 1337.17 9.21983C1339.79 11.3981 1342.14 14.5347 1344.75 17.0614L1345.01 17.2357L1345.1 17.3228C1345.36 17.5842 1345.62 17.7584 1345.8 18.0198L1346.06 18.2812L1346.58 18.7169L1347.19 19.1525C1348.67 20.1109 1350.24 20.808 1351.9 20.7208C1352.59 20.7208 1353.29 20.5466 1354.07 20.3723C1354.07 20.3723 1354.95 20.1109 1355.99 19.4139C1352.68 17.1485 1349.98 13.6634 1347.19 11.2238Z" fill="#F7AA3E" fill-opacity="0.4"/>
<path d="M1358.3 11.2238C1357.69 10.6139 1357.08 10.1782 1356.47 9.74258L1355.86 9.30693C1354.64 8.52277 1353.42 8 1352.02 8C1351.32 8 1350.72 8.08714 1350.02 8.2614C1350.02 8.2614 1349.32 8.52279 1348.28 9.21983C1350.89 11.3981 1353.24 14.5347 1355.86 17.0614L1356.12 17.2357L1356.2 17.3228C1356.47 17.5842 1356.73 17.7584 1356.9 18.0198L1357.16 18.2812L1357.69 18.7169L1358.3 19.1525C1359.78 20.1109 1361.34 20.808 1363 20.7208C1363.7 20.7208 1364.39 20.5466 1365.18 20.3723C1365.18 20.3723 1366.05 20.1109 1367.1 19.4139C1363.78 17.1485 1361.08 13.6634 1358.3 11.2238Z" fill="#F7AA3E" fill-opacity="0.4"/>
<path d="M1369.4 11.2238C1368.79 10.6139 1368.18 10.1782 1367.57 9.74258L1366.96 9.30693C1365.74 8.52277 1364.52 8 1363.13 8C1362.43 8 1361.82 8.08714 1361.12 8.2614C1361.12 8.2614 1360.42 8.52279 1359.38 9.21983C1361.99 11.3981 1364.35 14.5347 1366.96 17.0614L1367.22 17.2357L1367.31 17.3228C1367.57 17.5842 1367.83 17.7584 1368 18.0198L1368.27 18.2812L1368.79 18.7169L1369.4 19.1525C1370.88 20.1109 1372.45 20.808 1374.1 20.7208C1374.8 20.7208 1375.5 20.5466 1376.28 20.3723C1376.28 20.3723 1377.15 20.1109 1378.2 19.4139C1374.89 17.1485 1372.19 13.6634 1369.4 11.2238Z" fill="#F7AA3E" fill-opacity="0.4"/>
<path d="M1380.5 11.2238C1379.89 10.6139 1379.28 10.1782 1378.67 9.74258L1378.06 9.30693C1376.84 8.52277 1375.62 8 1374.23 8C1373.53 8 1372.92 8.08714 1372.23 8.2614C1372.23 8.2614 1371.53 8.52279 1370.48 9.21983C1373.1 11.3981 1375.45 14.5347 1378.06 17.0614L1378.32 17.2357L1378.41 17.3228C1378.67 17.5842 1378.93 17.7584 1379.11 18.0198L1379.37 18.2812L1379.89 18.7169L1380.5 19.1525C1381.98 20.1109 1383.55 20.808 1385.21 20.7208C1385.9 20.7208 1386.6 20.5466 1387.39 20.3723C1387.39 20.3723 1388.26 20.1109 1389.3 19.4139C1385.99 17.1485 1383.29 13.6634 1380.5 11.2238Z" fill="#F7AA3E" fill-opacity="0.4"/>
<path d="M1391.61 11.2238C1391 10.6139 1390.39 10.1782 1389.78 9.74258L1389.17 9.30693C1387.95 8.52277 1386.73 8 1385.33 8C1384.64 8 1384.03 8.08714 1383.33 8.2614C1383.33 8.2614 1382.63 8.52279 1381.59 9.21983C1384.2 11.3981 1386.55 14.5347 1389.17 17.0614L1389.43 17.2357L1389.51 17.3228C1389.78 17.5842 1390.04 17.7584 1390.21 18.0198L1390.47 18.2812L1391 18.7169L1391.61 19.1525C1393.09 20.1109 1394.66 20.808 1396.31 20.7208C1397.01 20.7208 1397.7 20.5466 1398.49 20.3723C1398.49 20.3723 1399.36 20.1109 1400.41 19.4139C1397.09 17.1485 1394.39 13.6634 1391.61 11.2238Z" fill="#F7AA3E" fill-opacity="0.4"/>
<path d="M1402.71 11.2238C1402.1 10.6139 1401.49 10.1782 1400.88 9.74258L1400.27 9.30693C1399.05 8.52277 1397.83 8 1396.44 8C1395.74 8 1395.13 8.08714 1394.43 8.2614C1394.43 8.2614 1393.74 8.52279 1392.69 9.21983C1395.3 11.3981 1397.66 14.5347 1400.27 17.0614L1400.53 17.2357L1400.62 17.3228C1400.88 17.5842 1401.14 17.7584 1401.32 18.0198L1401.58 18.2812L1402.1 18.7169L1402.71 19.1525C1404.19 20.1109 1405.76 20.808 1407.41 20.7208C1408.11 20.7208 1408.81 20.5466 1409.59 20.3723C1409.59 20.3723 1410.46 20.1109 1411.51 19.4139C1408.2 17.1485 1405.5 13.6634 1402.71 11.2238Z" fill="#F7AA3E" fill-opacity="0.4"/>
<path d="M1413.81 11.2238C1413.2 10.6139 1412.59 10.1782 1411.98 9.74258L1411.37 9.30693C1410.15 8.52277 1408.93 8 1407.54 8C1406.84 8 1406.23 8.08714 1405.54 8.2614C1405.54 8.2614 1404.84 8.52279 1403.79 9.21983C1406.41 11.3981 1408.76 14.5347 1411.37 17.0614L1411.63 17.2357L1411.72 17.3228C1411.98 17.5842 1412.24 17.7584 1412.42 18.0198L1412.68 18.2812L1413.2 18.7169L1413.81 19.1525C1415.29 20.1109 1416.86 20.808 1418.52 20.7208C1419.21 20.7208 1419.91 20.5466 1420.7 20.3723C1420.7 20.3723 1421.57 20.1109 1422.61 19.4139C1419.3 17.1485 1416.6 13.6634 1413.81 11.2238Z" fill="#F7AA3E" fill-opacity="0.4"/>
<path d="M1424.92 11.2238C1424.31 10.6139 1423.7 10.1782 1423.09 9.74258L1422.48 9.30693C1421.26 8.52277 1420.04 8 1418.64 8C1417.95 8 1417.34 8.08714 1416.64 8.2614C1416.64 8.2614 1415.94 8.52279 1414.9 9.21983C1417.51 11.3981 1419.86 14.5347 1422.48 17.0614L1422.74 17.2357L1422.83 17.3228C1423.09 17.5842 1423.35 17.7584 1423.52 18.0198L1423.78 18.2812L1424.31 18.7169L1424.92 19.1525C1426.4 20.1109 1427.97 20.808 1429.62 20.7208C1430.32 20.7208 1431.02 20.5466 1431.8 20.3723C1431.8 20.3723 1432.67 20.1109 1433.72 19.4139C1430.41 17.1485 1427.7 13.6634 1424.92 11.2238Z" fill="#F7AA3E" fill-opacity="0.4"/>
<path d="M1436.02 11.2238C1435.41 10.6139 1434.8 10.1782 1434.19 9.74258L1433.58 9.30693C1432.36 8.52277 1431.14 8 1429.75 8C1429.05 8 1428.44 8.08714 1427.74 8.2614C1427.74 8.2614 1427.05 8.52279 1426 9.21983C1428.61 11.3981 1430.97 14.5347 1433.58 17.0614L1433.84 17.2357L1433.93 17.3228C1434.19 17.5842 1434.45 17.7584 1434.63 18.0198L1434.89 18.2812L1435.41 18.7169L1436.02 19.1525C1437.5 20.1109 1439.07 20.808 1440.72 20.7208C1441.42 20.7208 1442.12 20.5466 1442.9 20.3723C1442.9 20.3723 1443.77 20.1109 1444.82 19.4139C1441.51 17.1485 1438.81 13.6634 1436.02 11.2238Z" fill="#F7AA3E" fill-opacity="0.4"/>
<path d="M1447.12 11.2238C1446.51 10.6139 1445.9 10.1782 1445.29 9.74258L1444.68 9.30693C1443.46 8.52277 1442.24 8 1440.85 8C1440.15 8 1439.54 8.08714 1438.85 8.2614C1438.85 8.2614 1438.15 8.52279 1437.1 9.21983C1439.72 11.3981 1442.07 14.5347 1444.68 17.0614L1444.95 17.2357L1445.03 17.3228C1445.29 17.5842 1445.56 17.7584 1445.73 18.0198L1445.99 18.2812L1446.51 18.7169L1447.12 19.1525C1448.6 20.1109 1450.17 20.808 1451.83 20.7208C1452.53 20.7208 1453.22 20.5466 1454.01 20.3723C1454.01 20.3723 1454.88 20.1109 1455.92 19.4139C1452.61 17.1485 1449.91 13.6634 1447.12 11.2238Z" fill="#F7AA3E" fill-opacity="0.4"/>
<path d="M1458.23 11.2238C1457.62 10.6139 1457.01 10.1782 1456.4 9.74258L1455.79 9.30693C1454.57 8.52277 1453.35 8 1451.95 8C1451.26 8 1450.65 8.08714 1449.95 8.2614C1449.95 8.2614 1449.25 8.52279 1448.21 9.21983C1450.82 11.3981 1453.17 14.5347 1455.79 17.0614L1456.05 17.2357L1456.14 17.3228C1456.4 17.5842 1456.66 17.7584 1456.83 18.0198L1457.09 18.2812L1457.62 18.7169L1458.23 19.1525C1459.71 20.1109 1461.28 20.808 1462.93 20.7208C1463.63 20.7208 1464.33 20.5466 1465.11 20.3723C1465.11 20.3723 1465.98 20.1109 1467.03 19.4139C1463.72 17.1485 1461.01 13.6634 1458.23 11.2238Z" fill="#F7AA3E" fill-opacity="0.4"/>
<path d="M1469.33 11.2238C1468.72 10.6139 1468.11 10.1782 1467.5 9.74258L1466.89 9.30693C1465.67 8.52277 1464.45 8 1463.06 8C1462.36 8 1461.75 8.08714 1461.05 8.2614C1461.05 8.2614 1460.36 8.52279 1459.31 9.21983C1461.92 11.3981 1464.28 14.5347 1466.89 17.0614L1467.15 17.2357L1467.24 17.3228C1467.5 17.5842 1467.76 17.7584 1467.94 18.0198L1468.2 18.2812L1468.72 18.7169L1469.33 19.1525C1470.81 20.1109 1472.38 20.808 1474.04 20.7208C1474.73 20.7208 1475.43 20.5466 1476.21 20.3723C1476.21 20.3723 1477.08 20.1109 1478.13 19.4139C1474.82 17.1485 1472.12 13.6634 1469.33 11.2238Z" fill="#F7AA3E" fill-opacity="0.4"/>
<path d="M1480.43 11.2238C1479.82 10.6139 1479.21 10.1782 1478.6 9.74258L1477.99 9.30693C1476.77 8.52277 1475.55 8 1474.16 8C1473.46 8 1472.85 8.08714 1472.16 8.2614C1472.16 8.2614 1471.46 8.52279 1470.41 9.21983C1473.03 11.3981 1475.38 14.5347 1477.99 17.0614L1478.26 17.2357L1478.34 17.3228C1478.6 17.5842 1478.87 17.7584 1479.04 18.0198L1479.3 18.2812L1479.82 18.7169L1480.43 19.1525C1481.92 20.1109 1483.48 20.808 1485.14 20.7208C1485.84 20.7208 1486.53 20.5466 1487.32 20.3723C1487.32 20.3723 1488.19 20.1109 1489.23 19.4139C1485.92 17.1485 1483.22 13.6634 1480.43 11.2238Z" fill="#F7AA3E" fill-opacity="0.4"/>
<path d="M1491.54 11.2238C1490.93 10.6139 1490.32 10.1782 1489.71 9.74258L1489.1 9.30693C1487.88 8.52277 1486.66 8 1485.26 8C1484.57 8 1483.96 8.08714 1483.26 8.2614C1483.26 8.2614 1482.56 8.52279 1481.52 9.21983C1484.13 11.3981 1486.48 14.5347 1489.1 17.0614L1489.36 17.2357L1489.45 17.3228C1489.71 17.5842 1489.97 17.7584 1490.14 18.0198L1490.4 18.2812L1490.93 18.7169L1491.54 19.1525C1493.02 20.1109 1494.59 20.808 1496.24 20.7208C1496.94 20.7208 1497.64 20.5466 1498.42 20.3723C1498.42 20.3723 1499.29 20.1109 1500.34 19.4139C1497.03 17.1485 1494.33 13.6634 1491.54 11.2238Z" fill="#F7AA3E" fill-opacity="0.4"/>
<path d="M1502.64 11.2238C1502.03 10.6139 1501.42 10.1782 1500.81 9.74258L1500.2 9.30693C1498.98 8.52277 1497.76 8 1496.37 8C1495.67 8 1495.06 8.08714 1494.36 8.2614C1494.36 8.2614 1493.67 8.52279 1492.62 9.21983C1495.23 11.3981 1497.59 14.5347 1500.2 17.0614L1500.46 17.2357L1500.55 17.3228C1500.81 17.5842 1501.07 17.7584 1501.25 18.0198L1501.51 18.2812L1502.03 18.7169L1502.64 19.1525C1504.12 20.1109 1505.69 20.808 1507.35 20.7208C1508.04 20.7208 1508.74 20.5466 1509.52 20.3723C1509.52 20.3723 1510.4 20.1109 1511.44 19.4139C1508.13 17.1485 1505.43 13.6634 1502.64 11.2238Z" fill="#F7AA3E" fill-opacity="0.4"/>
<path d="M1513.74 11.2238C1513.13 10.6139 1512.52 10.1782 1511.91 9.74258L1511.3 9.30693C1510.08 8.52277 1508.87 8 1507.47 8C1506.77 8 1506.16 8.08714 1505.47 8.2614C1505.47 8.2614 1504.77 8.52279 1503.72 9.21983C1506.34 11.3981 1508.69 14.5347 1511.3 17.0614L1511.57 17.2357L1511.65 17.3228C1511.91 17.5842 1512.18 17.7584 1512.35 18.0198L1512.61 18.2812L1513.13 18.7169L1513.74 19.1525C1515.23 20.1109 1516.79 20.808 1518.45 20.7208C1519.15 20.7208 1519.84 20.5466 1520.63 20.3723C1520.63 20.3723 1521.5 20.1109 1522.54 19.4139C1519.23 17.1485 1516.53 13.6634 1513.74 11.2238Z" fill="#F7AA3E" fill-opacity="0.4"/>
<path d="M1524.85 11.2238C1524.24 10.6139 1523.63 10.1782 1523.02 9.74258L1522.41 9.30693C1521.19 8.52277 1519.97 8 1518.57 8C1517.88 8 1517.27 8.08714 1516.57 8.2614C1516.57 8.2614 1515.87 8.52279 1514.83 9.21983C1517.44 11.3981 1519.79 14.5347 1522.41 17.0614L1522.67 17.2357L1522.76 17.3228C1523.02 17.5842 1523.28 17.7584 1523.45 18.0198L1523.72 18.2812L1524.24 18.7169L1524.85 19.1525C1526.33 20.1109 1527.9 20.808 1529.55 20.7208C1530.25 20.7208 1530.95 20.5466 1531.73 20.3723C1531.73 20.3723 1532.6 20.1109 1533.65 19.4139C1530.34 17.1485 1527.64 13.6634 1524.85 11.2238Z" fill="#F7AA3E" fill-opacity="0.4"/>
<path d="M1535.95 11.2238C1535.34 10.6139 1534.73 10.1782 1534.12 9.74258L1533.51 9.30693C1532.29 8.52277 1531.07 8 1529.68 8C1528.98 8 1528.37 8.08714 1527.67 8.2614C1527.67 8.2614 1526.98 8.52279 1525.93 9.21983C1528.55 11.3981 1530.9 14.5347 1533.51 17.0614L1533.77 17.2357L1533.86 17.3228C1534.12 17.5842 1534.38 17.7584 1534.56 18.0198L1534.82 18.2812L1535.34 18.7169L1535.95 19.1525C1537.43 20.1109 1539 20.808 1540.66 20.7208C1541.35 20.7208 1542.05 20.5466 1542.83 20.3723C1542.83 20.3723 1543.71 20.1109 1544.75 19.4139C1541.44 17.1485 1538.74 13.6634 1535.95 11.2238Z" fill="#F7AA3E" fill-opacity="0.4"/>
<path d="M1547.05 11.2238C1546.45 10.6139 1545.84 10.1782 1545.23 9.74258L1544.62 9.30693C1543.4 8.52277 1542.18 8 1540.78 8C1540.08 8 1539.47 8.08714 1538.78 8.2614C1538.78 8.2614 1538.08 8.52279 1537.04 9.21983C1539.65 11.3981 1542 14.5347 1544.62 17.0614L1544.88 17.2357L1544.96 17.3228C1545.23 17.5842 1545.49 17.7584 1545.66 18.0198L1545.92 18.2812L1546.45 18.7169L1547.05 19.1525C1548.54 20.1109 1550.1 20.808 1551.76 20.7208C1552.46 20.7208 1553.15 20.5466 1553.94 20.3723C1553.94 20.3723 1554.81 20.1109 1555.85 19.4139C1552.54 17.1485 1549.84 13.6634 1547.05 11.2238Z" fill="#F7AA3E" fill-opacity="0.4"/>
<path d="M1558.16 11.2238C1557.55 10.6139 1556.94 10.1782 1556.33 9.74258L1555.72 9.30693C1554.5 8.52277 1553.28 8 1551.89 8C1551.19 8 1550.58 8.08714 1549.88 8.2614C1549.88 8.2614 1549.18 8.52279 1548.14 9.21983C1550.75 11.3981 1553.1 14.5347 1555.72 17.0614L1555.98 17.2357L1556.07 17.3228C1556.33 17.5842 1556.59 17.7584 1556.76 18.0198L1557.03 18.2812L1557.55 18.7169L1558.16 19.1525C1559.64 20.1109 1561.21 20.808 1562.86 20.7208C1563.56 20.7208 1564.26 20.5466 1565.04 20.3723C1565.04 20.3723 1565.91 20.1109 1566.96 19.4139C1563.65 17.1485 1560.95 13.6634 1558.16 11.2238Z" fill="#F7AA3E" fill-opacity="0.4"/>
<path d="M1569.26 11.2238C1568.65 10.6139 1568.04 10.1782 1567.43 9.74258L1566.82 9.30693C1565.6 8.52277 1564.38 8 1562.99 8C1562.29 8 1561.68 8.08714 1560.98 8.2614C1560.98 8.2614 1560.29 8.52279 1559.24 9.21983C1561.86 11.3981 1564.21 14.5347 1566.82 17.0614L1567.08 17.2357L1567.17 17.3228C1567.43 17.5842 1567.69 17.7584 1567.87 18.0198L1568.13 18.2812L1568.65 18.7169L1569.26 19.1525C1570.74 20.1109 1572.31 20.808 1573.97 20.7208C1574.66 20.7208 1575.36 20.5466 1576.15 20.3723C1576.15 20.3723 1577.02 20.1109 1578.06 19.4139C1574.75 17.1485 1572.05 13.6634 1569.26 11.2238Z" fill="#F7AA3E" fill-opacity="0.4"/>
<path d="M1580.37 11.2238C1579.76 10.6139 1579.15 10.1782 1578.54 9.74258L1577.93 9.30693C1576.71 8.52277 1575.49 8 1574.09 8C1573.4 8 1572.79 8.08714 1572.09 8.2614C1572.09 8.2614 1571.39 8.52279 1570.35 9.21983C1572.96 11.3981 1575.31 14.5347 1577.93 17.0614L1578.19 17.2357L1578.27 17.3228C1578.54 17.5842 1578.8 17.7584 1578.97 18.0198L1579.23 18.2812L1579.76 18.7169L1580.37 19.1525C1581.85 20.1109 1583.42 20.808 1585.07 20.7208C1585.77 20.7208 1586.46 20.5466 1587.25 20.3723C1587.25 20.3723 1588.12 20.1109 1589.17 19.4139C1585.85 17.1485 1583.15 13.6634 1580.37 11.2238Z" fill="#F7AA3E" fill-opacity="0.4"/>
<path d="M1591.47 11.2238C1590.86 10.6139 1590.25 10.1782 1589.64 9.74258L1589.03 9.30693C1587.81 8.52277 1586.59 8 1585.2 8C1584.5 8 1583.89 8.08714 1583.19 8.2614C1583.19 8.2614 1582.49 8.52279 1581.45 9.21983C1584.06 11.3981 1586.42 14.5347 1589.03 17.0614L1589.29 17.2357L1589.38 17.3228C1589.64 17.5842 1589.9 17.7584 1590.08 18.0198L1590.34 18.2812L1590.86 18.7169L1591.47 19.1525C1592.95 20.1109 1594.52 20.808 1596.17 20.7208C1596.87 20.7208 1597.57 20.5466 1598.35 20.3723C1598.35 20.3723 1599.22 20.1109 1600.27 19.4139C1596.96 17.1485 1594.26 13.6634 1591.47 11.2238Z" fill="#F7AA3E" fill-opacity="0.4"/>
<path d="M1602.57 11.2238C1601.96 10.6139 1601.35 10.1782 1600.74 9.74258L1600.13 9.30693C1598.91 8.52277 1597.69 8 1596.3 8C1595.6 8 1594.99 8.08714 1594.3 8.2614C1594.3 8.2614 1593.6 8.52279 1592.55 9.21983C1595.17 11.3981 1597.52 14.5347 1600.13 17.0614L1600.39 17.2357L1600.48 17.3228C1600.74 17.5842 1601 17.7584 1601.18 18.0198L1601.44 18.2812L1601.96 18.7169L1602.57 19.1525C1604.05 20.1109 1605.62 20.808 1607.28 20.7208C1607.97 20.7208 1608.67 20.5466 1609.46 20.3723C1609.46 20.3723 1610.33 20.1109 1611.37 19.4139C1608.06 17.1485 1605.36 13.6634 1602.57 11.2238Z" fill="#F7AA3E" fill-opacity="0.4"/>
<path d="M1613.68 11.2238C1613.07 10.6139 1612.46 10.1782 1611.85 9.74258L1611.24 9.30693C1610.02 8.52277 1608.8 8 1607.4 8C1606.71 8 1606.1 8.08714 1605.4 8.2614C1605.4 8.2614 1604.7 8.52279 1603.66 9.21983C1606.27 11.3981 1608.62 14.5347 1611.24 17.0614L1611.5 17.2357L1611.58 17.3228C1611.85 17.5842 1612.11 17.7584 1612.28 18.0198L1612.54 18.2812L1613.07 18.7169L1613.68 19.1525C1615.16 20.1109 1616.73 20.808 1618.38 20.7208C1619.08 20.7208 1619.78 20.5466 1620.56 20.3723C1620.56 20.3723 1621.43 20.1109 1622.48 19.4139C1619.17 17.1485 1616.46 13.6634 1613.68 11.2238Z" fill="#F7AA3E" fill-opacity="0.4"/>
<path d="M1624.78 11.2238C1624.17 10.6139 1623.56 10.1782 1622.95 9.74258L1622.34 9.30693C1621.12 8.52277 1619.9 8 1618.51 8C1617.81 8 1617.2 8.08714 1616.5 8.2614C1616.5 8.2614 1615.81 8.52279 1614.76 9.21983C1617.37 11.3981 1619.73 14.5347 1622.34 17.0614L1622.6 17.2357L1622.69 17.3228C1622.95 17.5842 1623.21 17.7584 1623.39 18.0198L1623.65 18.2812L1624.17 18.7169L1624.78 19.1525C1626.26 20.1109 1627.83 20.808 1629.48 20.7208C1630.18 20.7208 1630.88 20.5466 1631.66 20.3723C1631.66 20.3723 1632.53 20.1109 1633.58 19.4139C1630.27 17.1485 1627.57 13.6634 1624.78 11.2238Z" fill="#F7AA3E" fill-opacity="0.4"/>
<path d="M1635.88 11.2238C1635.27 10.6139 1634.66 10.1782 1634.05 9.74258L1633.44 9.30693C1632.22 8.52277 1631 8 1629.61 8C1628.91 8 1628.3 8.08714 1627.61 8.2614C1627.61 8.2614 1626.91 8.52279 1625.86 9.21983C1628.48 11.3981 1630.83 14.5347 1633.44 17.0614L1633.7 17.2357L1633.79 17.3228C1634.05 17.5842 1634.31 17.7584 1634.49 18.0198L1634.75 18.2812L1635.27 18.7169L1635.88 19.1525C1637.36 20.1109 1638.93 20.808 1640.59 20.7208C1641.29 20.7208 1641.98 20.5466 1642.77 20.3723C1642.77 20.3723 1643.64 20.1109 1644.68 19.4139C1641.37 17.1485 1638.67 13.6634 1635.88 11.2238Z" fill="#F7AA3E" fill-opacity="0.4"/>
<path d="M1646.99 11.2238C1646.38 10.6139 1645.77 10.1782 1645.16 9.74258L1644.55 9.30693C1643.33 8.52277 1642.11 8 1640.71 8C1640.02 8 1639.41 8.08714 1638.71 8.2614C1638.71 8.2614 1638.01 8.52279 1636.97 9.21983C1639.58 11.3981 1641.93 14.5347 1644.55 17.0614L1644.81 17.2357L1644.9 17.3228C1645.16 17.5842 1645.42 17.7584 1645.59 18.0198L1645.85 18.2812L1646.38 18.7169L1646.99 19.1525C1648.47 20.1109 1650.04 20.808 1651.69 20.7208C1652.39 20.7208 1653.09 20.5466 1653.87 20.3723C1653.87 20.3723 1654.74 20.1109 1655.79 19.4139C1652.48 17.1485 1649.77 13.6634 1646.99 11.2238Z" fill="#F7AA3E" fill-opacity="0.4"/>
<path d="M1658.09 11.2238C1657.48 10.6139 1656.87 10.1782 1656.26 9.74258L1655.65 9.30693C1654.43 8.52277 1653.21 8 1651.82 8C1651.12 8 1650.51 8.08714 1649.81 8.2614C1649.81 8.2614 1649.12 8.52279 1648.07 9.21983C1650.68 11.3981 1653.04 14.5347 1655.65 17.0614L1655.91 17.2357L1656 17.3228C1656.26 17.5842 1656.52 17.7584 1656.7 18.0198L1656.96 18.2812L1657.48 18.7169L1658.09 19.1525C1659.57 20.1109 1661.14 20.808 1662.8 20.7208C1663.49 20.7208 1664.19 20.5466 1664.97 20.3723C1664.97 20.3723 1665.84 20.1109 1666.89 19.4139C1663.58 17.1485 1660.88 13.6634 1658.09 11.2238Z" fill="#F7AA3E" fill-opacity="0.4"/>
<path d="M1669.19 11.2238C1668.58 10.6139 1667.97 10.1782 1667.36 9.74258L1666.75 9.30693C1665.53 8.52277 1664.31 8 1662.92 8C1662.22 8 1661.61 8.08714 1660.92 8.2614C1660.92 8.2614 1660.22 8.52279 1659.17 9.21983C1661.79 11.3981 1664.14 14.5347 1666.75 17.0614L1667.02 17.2357L1667.1 17.3228C1667.36 17.5842 1667.63 17.7584 1667.8 18.0198L1668.06 18.2812L1668.58 18.7169L1669.19 19.1525C1670.67 20.1109 1672.24 20.808 1673.9 20.7208C1674.6 20.7208 1675.29 20.5466 1676.08 20.3723C1676.08 20.3723 1676.95 20.1109 1677.99 19.4139C1674.68 17.1485 1671.98 13.6634 1669.19 11.2238Z" fill="#F7AA3E" fill-opacity="0.4"/>
<path d="M1680.3 11.2238C1679.69 10.6139 1679.08 10.1782 1678.47 9.74258L1677.86 9.30693C1676.64 8.52277 1675.42 8 1674.02 8C1673.33 8 1672.72 8.08714 1672.02 8.2614C1672.02 8.2614 1671.32 8.52279 1670.28 9.21983C1672.89 11.3981 1675.24 14.5347 1677.86 17.0614L1678.12 17.2357L1678.21 17.3228C1678.47 17.5842 1678.73 17.7584 1678.9 18.0198L1679.16 18.2812L1679.69 18.7169L1680.3 19.1525C1681.78 20.1109 1683.35 20.808 1685 20.7208C1685.7 20.7208 1686.4 20.5466 1687.18 20.3723C1687.18 20.3723 1688.05 20.1109 1689.1 19.4139C1685.79 17.1485 1683.09 13.6634 1680.3 11.2238Z" fill="#F7AA3E" fill-opacity="0.4"/>
<path d="M1691.4 11.2238C1690.79 10.6139 1690.18 10.1782 1689.57 9.74258L1688.96 9.30693C1687.74 8.52277 1686.52 8 1685.13 8C1684.43 8 1683.82 8.08714 1683.12 8.2614C1683.12 8.2614 1682.43 8.52279 1681.38 9.21983C1683.99 11.3981 1686.35 14.5347 1688.96 17.0614L1689.22 17.2357L1689.31 17.3228C1689.57 17.5842 1689.83 17.7584 1690.01 18.0198L1690.27 18.2812L1690.79 18.7169L1691.4 19.1525C1692.88 20.1109 1694.45 20.808 1696.11 20.7208C1696.8 20.7208 1697.5 20.5466 1698.28 20.3723C1698.28 20.3723 1699.16 20.1109 1700.2 19.4139C1696.89 17.1485 1694.19 13.6634 1691.4 11.2238Z" fill="#F7AA3E" fill-opacity="0.4"/>
<path d="M1702.5 11.2238C1701.89 10.6139 1701.28 10.1782 1700.67 9.74258L1700.06 9.30693C1698.84 8.52277 1697.62 8 1696.23 8C1695.53 8 1694.92 8.08714 1694.23 8.2614C1694.23 8.2614 1693.53 8.52279 1692.48 9.21983C1695.1 11.3981 1697.45 14.5347 1700.06 17.0614L1700.33 17.2357L1700.41 17.3228C1700.67 17.5842 1700.94 17.7584 1701.11 18.0198L1701.37 18.2812L1701.89 18.7169L1702.5 19.1525C1703.99 20.1109 1705.55 20.808 1707.21 20.7208C1707.91 20.7208 1708.6 20.5466 1709.39 20.3723C1709.39 20.3723 1710.26 20.1109 1711.3 19.4139C1707.99 17.1485 1705.29 13.6634 1702.5 11.2238Z" fill="#F7AA3E" fill-opacity="0.4"/>
<path d="M1713.61 11.2238C1713 10.6139 1712.39 10.1782 1711.78 9.74258L1711.17 9.30693C1709.95 8.52277 1708.73 8 1707.33 8C1706.64 8 1706.03 8.08714 1705.33 8.2614C1705.33 8.2614 1704.63 8.52279 1703.59 9.21983C1706.2 11.3981 1708.55 14.5347 1711.17 17.0614L1711.43 17.2357L1711.52 17.3228C1711.78 17.5842 1712.04 17.7584 1712.21 18.0198L1712.48 18.2812L1713 18.7169L1713.61 19.1525C1715.09 20.1109 1716.66 20.808 1718.31 20.7208C1719.01 20.7208 1719.71 20.5466 1720.49 20.3723C1720.49 20.3723 1721.36 20.1109 1722.41 19.4139C1719.1 17.1485 1716.4 13.6634 1713.61 11.2238Z" fill="#F7AA3E" fill-opacity="0.4"/>
<path d="M1724.71 11.2238C1724.1 10.6139 1723.49 10.1782 1722.88 9.74258L1722.27 9.30693C1721.05 8.52277 1719.83 8 1718.44 8C1717.74 8 1717.13 8.08714 1716.43 8.2614C1716.43 8.2614 1715.74 8.52279 1714.69 9.21983C1717.31 11.3981 1719.66 14.5347 1722.27 17.0614L1722.53 17.2357L1722.62 17.3228C1722.88 17.5842 1723.14 17.7584 1723.32 18.0198L1723.58 18.2812L1724.1 18.7169L1724.71 19.1525C1726.19 20.1109 1727.76 20.808 1729.42 20.7208C1730.11 20.7208 1730.81 20.5466 1731.59 20.3723C1731.59 20.3723 1732.47 20.1109 1733.51 19.4139C1730.2 17.1485 1727.5 13.6634 1724.71 11.2238Z" fill="#F7AA3E" fill-opacity="0.4"/>
<path d="M1735.81 11.2238C1735.2 10.6139 1734.59 10.1782 1733.99 9.74258L1733.38 9.30693C1732.16 8.52277 1730.94 8 1729.54 8C1728.84 8 1728.23 8.08714 1727.54 8.2614C1727.54 8.2614 1726.84 8.52279 1725.79 9.21983C1728.41 11.3981 1730.76 14.5347 1733.38 17.0614L1733.64 17.2357L1733.72 17.3228C1733.99 17.5842 1734.25 17.7584 1734.42 18.0198L1734.68 18.2812L1735.2 18.7169L1735.81 19.1525C1737.3 20.1109 1738.86 20.808 1740.52 20.7208C1741.22 20.7208 1741.91 20.5466 1742.7 20.3723C1742.7 20.3723 1743.57 20.1109 1744.61 19.4139C1741.3 17.1485 1738.6 13.6634 1735.81 11.2238Z" fill="#F7AA3E" fill-opacity="0.4"/>
<path d="M1.09014 11.2238C0.480238 10.6139 -0.129643 10.1782 -0.739545 9.74258L-1.34951 9.30693C-2.56932 8.52277 -3.78914 8 -5.18321 8C-5.88024 8 -6.49008 8.08714 -7.18711 8.2614C-7.18711 8.2614 -7.88414 8.52279 -8.92969 9.21983C-6.31582 11.3981 -3.96338 14.5347 -1.34951 17.0614L-1.08808 17.2357L-1.00097 17.3228C-0.739588 17.5842 -0.478159 17.7584 -0.303901 18.0198L-0.0425778 18.2812L0.480175 18.7169L1.09014 19.1525C2.57133 20.1109 4.13968 20.808 5.79513 20.7208C6.49216 20.7208 7.18919 20.5466 7.97335 20.3723C7.97335 20.3723 8.8446 20.1109 9.89014 19.4139C6.57924 17.1485 3.87827 13.6634 1.09014 11.2238Z" fill="#F7AA3E" fill-opacity="0.4"/>
<path d="M12.1937 11.2238C11.5838 10.6139 10.9739 10.1782 10.364 9.74258L9.754 9.30693C8.5342 8.52277 7.31437 8 5.92031 8C5.22328 8 4.61344 8.08714 3.91641 8.2614C3.91641 8.2614 3.21938 8.52279 2.17383 9.21983C4.7877 11.3981 7.14014 14.5347 9.754 17.0614L10.0154 17.2357L10.1025 17.3228C10.3639 17.5842 10.6254 17.7584 10.7996 18.0198L11.0609 18.2812L11.5837 18.7169L12.1937 19.1525C13.6748 20.1109 15.2432 20.808 16.8986 20.7208C17.5957 20.7208 18.2927 20.5466 19.0769 20.3723C19.0769 20.3723 19.9481 20.1109 20.9937 19.4139C17.6828 17.1485 14.9818 13.6634 12.1937 11.2238Z" fill="#F7AA3E" fill-opacity="0.4"/>
<path d="M23.2972 11.2238C22.6873 10.6139 22.0774 10.1782 21.4675 9.74258L20.8575 9.30693C19.6377 8.52277 18.4179 8 17.0238 8C16.3268 8 15.717 8.08714 15.0199 8.2614C15.0199 8.2614 14.3229 8.52279 13.2773 9.21983C15.8912 11.3981 18.2437 14.5347 20.8575 17.0614L21.1189 17.2357L21.2061 17.3228C21.4674 17.5842 21.7289 17.7584 21.9031 18.0198L22.1645 18.2812L22.6872 18.7169L23.2972 19.1525C24.7784 20.1109 26.3467 20.808 28.0022 20.7208C28.6992 20.7208 29.3962 20.5466 30.1804 20.3723C30.1804 20.3723 31.0516 20.1109 32.0972 19.4139C28.7863 17.1485 26.0853 13.6634 23.2972 11.2238Z" fill="#F7AA3E" fill-opacity="0.4"/>
<path d="M34.4007 11.2238C33.7908 10.6139 33.1809 10.1782 32.571 9.74258L31.961 9.30693C30.7412 8.52277 29.5214 8 28.1273 8C27.4303 8 26.8205 8.08714 26.1234 8.2614C26.1234 8.2614 25.4264 8.52279 24.3809 9.21983C26.9947 11.3981 29.3472 14.5347 31.961 17.0614L32.2225 17.2357L32.3096 17.3228C32.571 17.5842 32.8324 17.7584 33.0066 18.0198L33.268 18.2812L33.7907 18.7169L34.4007 19.1525C35.8819 20.1109 37.4502 20.808 39.1057 20.7208C39.8027 20.7208 40.4997 20.5466 41.2839 20.3723C41.2839 20.3723 42.1551 20.1109 43.2007 19.4139C39.8898 17.1485 37.1888 13.6634 34.4007 11.2238Z" fill="#F7AA3E" fill-opacity="0.4"/>
<path d="M45.5042 11.2238C44.8943 10.6139 44.2844 10.1782 43.6745 9.74258L43.0646 9.30693C41.8447 8.52277 40.6249 8 39.2309 8C38.5338 8 37.924 8.08714 37.227 8.2614C37.227 8.2614 36.5299 8.52279 35.4844 9.21983C38.0982 11.3981 40.4507 14.5347 43.0646 17.0614L43.326 17.2357L43.4131 17.3228C43.6745 17.5842 43.9359 17.7584 44.1102 18.0198L44.3715 18.2812L44.8942 18.7169L45.5042 19.1525C46.9854 20.1109 48.5537 20.808 50.2092 20.7208C50.9062 20.7208 51.6033 20.5466 52.3874 20.3723C52.3874 20.3723 53.2587 20.1109 54.3042 19.4139C50.9933 17.1485 48.2923 13.6634 45.5042 11.2238Z" fill="#F7AA3E" fill-opacity="0.4"/>
<path d="M56.6077 11.2238C55.9978 10.6139 55.3879 10.1782 54.778 9.74258L54.1681 9.30693C52.9483 8.52277 51.7284 8 50.3344 8C49.6373 8 49.0275 8.08714 48.3305 8.2614C48.3305 8.2614 47.6334 8.52279 46.5879 9.21983C49.2018 11.3981 51.5542 14.5347 54.1681 17.0614L54.4295 17.2357L54.5166 17.3228C54.778 17.5842 55.0394 17.7584 55.2137 18.0198L55.475 18.2812L55.9978 18.7169L56.6077 19.1525C58.0889 20.1109 59.6573 20.808 61.3127 20.7208C62.0097 20.7208 62.7068 20.5466 63.4909 20.3723C63.4909 20.3723 64.3622 20.1109 65.4077 19.4139C62.0968 17.1485 59.3958 13.6634 56.6077 11.2238Z" fill="#F7AA3E" fill-opacity="0.4"/>
<path d="M67.7112 11.2238C67.1013 10.6139 66.4915 10.1782 65.8815 9.74258L65.2716 9.30693C64.0518 8.52277 62.832 8 61.4379 8C60.7409 8 60.131 8.08714 59.434 8.2614C59.434 8.2614 58.737 8.52279 57.6914 9.21983C60.3053 11.3981 62.6577 14.5347 65.2716 17.0614L65.533 17.2357L65.6201 17.3228C65.8815 17.5842 66.1429 17.7584 66.3172 18.0198L66.5785 18.2812L67.1013 18.7169L67.7112 19.1525C69.1924 20.1109 70.7608 20.808 72.4162 20.7208C73.1133 20.7208 73.8103 20.5466 74.5944 20.3723C74.5944 20.3723 75.4657 20.1109 76.5112 19.4139C73.2003 17.1485 70.4994 13.6634 67.7112 11.2238Z" fill="#F7AA3E" fill-opacity="0.4"/>
<path d="M78.8148 11.2238C78.2048 10.6139 77.595 10.1782 76.9851 9.74258L76.3751 9.30693C75.1553 8.52277 73.9355 8 72.5414 8C71.8444 8 71.2345 8.08714 70.5375 8.2614C70.5375 8.2614 69.8405 8.52279 68.7949 9.21983C71.4088 11.3981 73.7612 14.5347 76.3751 17.0614L76.6365 17.2357L76.7236 17.3228C76.985 17.5842 77.2465 17.7584 77.4207 18.0198L77.682 18.2812L78.2048 18.7169L78.8148 19.1525C80.2959 20.1109 81.8643 20.808 83.5197 20.7208C84.2168 20.7208 84.9138 20.5466 85.698 20.3723C85.698 20.3723 86.5692 20.1109 87.6148 19.4139C84.3039 17.1485 81.6029 13.6634 78.8148 11.2238Z" fill="#F7AA3E" fill-opacity="0.4"/>
<path d="M89.9183 11.2238C89.3084 10.6139 88.6985 10.1782 88.0886 9.74258L87.4786 9.30693C86.2588 8.52277 85.039 8 83.6449 8C82.9479 8 82.338 8.08714 81.641 8.2614C81.641 8.2614 80.944 8.52279 79.8984 9.21983C82.5123 11.3981 84.8647 14.5347 87.4786 17.0614L87.74 17.2357L87.8272 17.3228C88.0885 17.5842 88.35 17.7584 88.5242 18.0198L88.7855 18.2812L89.3083 18.7169L89.9183 19.1525C91.3995 20.1109 92.9678 20.808 94.6233 20.7208C95.3203 20.7208 96.0173 20.5466 96.8015 20.3723C96.8015 20.3723 97.6727 20.1109 98.7183 19.4139C95.4074 17.1485 92.7064 13.6634 89.9183 11.2238Z" fill="#F7AA3E" fill-opacity="0.4"/>
<path d="M101.022 11.2238C100.412 10.6139 99.802 10.1782 99.1921 9.74258L98.5821 9.30693C97.3623 8.52277 96.1425 8 94.7484 8C94.0514 8 93.4416 8.08714 92.7445 8.2614C92.7445 8.2614 92.0475 8.52279 91.002 9.21983C93.6158 11.3981 95.9683 14.5347 98.5821 17.0614L98.8436 17.2357L98.9307 17.3228C99.1921 17.5842 99.4535 17.7584 99.6277 18.0198L99.8891 18.2812L100.412 18.7169L101.022 19.1525C102.503 20.1109 104.071 20.808 105.727 20.7208C106.424 20.7208 107.121 20.5466 107.905 20.3723C107.905 20.3723 108.776 20.1109 109.822 19.4139C106.511 17.1485 103.81 13.6634 101.022 11.2238Z" fill="#F7AA3E" fill-opacity="0.4"/>
<path d="M112.125 11.2238C111.515 10.6139 110.906 10.1782 110.296 9.74258L109.686 9.30693C108.466 8.52277 107.246 8 105.852 8C105.155 8 104.545 8.08714 103.848 8.2614C103.848 8.2614 103.151 8.52279 102.105 9.21983C104.719 11.3981 107.072 14.5347 109.686 17.0614L109.947 17.2357L110.034 17.3228C110.296 17.5842 110.557 17.7584 110.731 18.0198L110.993 18.2812L111.515 18.7169L112.125 19.1525C113.606 20.1109 115.175 20.808 116.83 20.7208C117.527 20.7208 118.224 20.5466 119.009 20.3723C119.009 20.3723 119.88 20.1109 120.925 19.4139C117.614 17.1485 114.913 13.6634 112.125 11.2238Z" fill="#F7AA3E" fill-opacity="0.4"/>
<path d="M123.229 11.2238C122.619 10.6139 122.009 10.1782 121.399 9.74258L120.789 9.30693C119.569 8.52277 118.35 8 116.955 8C116.258 8 115.649 8.08714 114.952 8.2614C114.952 8.2614 114.255 8.52279 113.209 9.21983C115.823 11.3981 118.175 14.5347 120.789 17.0614L121.051 17.2357L121.138 17.3228C121.399 17.5842 121.661 17.7584 121.835 18.0198L122.096 18.2812L122.619 18.7169L123.229 19.1525C124.71 20.1109 126.278 20.808 127.934 20.7208C128.631 20.7208 129.328 20.5466 130.112 20.3723C130.112 20.3723 130.983 20.1109 132.029 19.4139C128.718 17.1485 126.017 13.6634 123.229 11.2238Z" fill="#F7AA3E" fill-opacity="0.4"/>
<path d="M134.332 11.2238C133.722 10.6139 133.113 10.1782 132.503 9.74258L131.893 9.30693C130.673 8.52277 129.453 8 128.059 8C127.362 8 126.752 8.08714 126.055 8.2614C126.055 8.2614 125.358 8.52279 124.312 9.21983C126.926 11.3981 129.279 14.5347 131.893 17.0614L132.154 17.2357L132.241 17.3228C132.503 17.5842 132.764 17.7584 132.938 18.0198L133.2 18.2812L133.722 18.7169L134.332 19.1525C135.814 20.1109 137.382 20.808 139.037 20.7208C139.734 20.7208 140.431 20.5466 141.216 20.3723C141.216 20.3723 142.087 20.1109 143.132 19.4139C139.821 17.1485 137.12 13.6634 134.332 11.2238Z" fill="#F7AA3E" fill-opacity="0.4"/>
<path d="M145.436 11.2238C144.826 10.6139 144.216 10.1782 143.606 9.74258L142.996 9.30693C141.776 8.52277 140.557 8 139.162 8C138.465 8 137.856 8.08714 137.159 8.2614C137.159 8.2614 136.462 8.52279 135.416 9.21983C138.03 11.3981 140.382 14.5347 142.996 17.0614L143.258 17.2357L143.345 17.3228C143.606 17.5842 143.868 17.7584 144.042 18.0198L144.303 18.2812L144.826 18.7169L145.436 19.1525C146.917 20.1109 148.485 20.808 150.141 20.7208C150.838 20.7208 151.535 20.5466 152.319 20.3723C152.319 20.3723 153.19 20.1109 154.236 19.4139C150.925 17.1485 148.224 13.6634 145.436 11.2238Z" fill="#F7AA3E" fill-opacity="0.4"/>
<path d="M156.539 11.2238C155.929 10.6139 155.32 10.1782 154.71 9.74258L154.1 9.30693C152.88 8.52277 151.66 8 150.266 8C149.569 8 148.959 8.08714 148.262 8.2614C148.262 8.2614 147.565 8.52279 146.52 9.21983C149.133 11.3981 151.486 14.5347 154.1 17.0614L154.361 17.2357L154.448 17.3228C154.71 17.5842 154.971 17.7584 155.145 18.0198L155.407 18.2812L155.929 18.7169L156.539 19.1525C158.021 20.1109 159.589 20.808 161.244 20.7208C161.941 20.7208 162.638 20.5466 163.423 20.3723C163.423 20.3723 164.294 20.1109 165.339 19.4139C162.028 17.1485 159.327 13.6634 156.539 11.2238Z" fill="#F7AA3E" fill-opacity="0.4"/>
<path d="M167.643 11.2238C167.033 10.6139 166.423 10.1782 165.813 9.74258L165.203 9.30693C163.983 8.52277 162.764 8 161.37 8C160.672 8 160.063 8.08714 159.366 8.2614C159.366 8.2614 158.669 8.52279 157.623 9.21983C160.237 11.3981 162.589 14.5347 165.203 17.0614L165.465 17.2357L165.552 17.3228C165.813 17.5842 166.075 17.7584 166.249 18.0198L166.51 18.2812L167.033 18.7169L167.643 19.1525C169.124 20.1109 170.692 20.808 172.348 20.7208C173.045 20.7208 173.742 20.5466 174.526 20.3723C174.526 20.3723 175.397 20.1109 176.443 19.4139C173.132 17.1485 170.431 13.6634 167.643 11.2238Z" fill="#F7AA3E" fill-opacity="0.4"/>
<path d="M178.746 11.2238C178.136 10.6139 177.527 10.1782 176.917 9.74258L176.307 9.30693C175.087 8.52277 173.867 8 172.473 8C171.776 8 171.166 8.08714 170.469 8.2614C170.469 8.2614 169.772 8.52279 168.727 9.21983C171.34 11.3981 173.693 14.5347 176.307 17.0614L176.568 17.2357L176.655 17.3228C176.917 17.5842 177.178 17.7584 177.352 18.0198L177.614 18.2812L178.136 18.7169L178.746 19.1525C180.228 20.1109 181.796 20.808 183.451 20.7208C184.148 20.7208 184.845 20.5466 185.63 20.3723C185.63 20.3723 186.501 20.1109 187.546 19.4139C184.235 17.1485 181.535 13.6634 178.746 11.2238Z" fill="#F7AA3E" fill-opacity="0.4"/>
<path d="M189.85 11.2238C189.24 10.6139 188.63 10.1782 188.02 9.74258L187.41 9.30693C186.19 8.52277 184.971 8 183.577 8C182.88 8 182.27 8.08714 181.573 8.2614C181.573 8.2614 180.876 8.52279 179.83 9.21983C182.444 11.3981 184.796 14.5347 187.41 17.0614L187.672 17.2357L187.759 17.3228C188.02 17.5842 188.282 17.7584 188.456 18.0198L188.717 18.2812L189.24 18.7169L189.85 19.1525C191.331 20.1109 192.899 20.808 194.555 20.7208C195.252 20.7208 195.949 20.5466 196.733 20.3723C196.733 20.3723 197.604 20.1109 198.65 19.4139C195.339 17.1485 192.638 13.6634 189.85 11.2238Z" fill="#F7AA3E" fill-opacity="0.4"/>
<path d="M200.953 11.2238C200.344 10.6139 199.734 10.1782 199.124 9.74258L198.514 9.30693C197.294 8.52277 196.074 8 194.68 8C193.983 8 193.373 8.08714 192.676 8.2614C192.676 8.2614 191.979 8.52279 190.934 9.21983C193.547 11.3981 195.9 14.5347 198.514 17.0614L198.775 17.2357L198.862 17.3228C199.124 17.5842 199.385 17.7584 199.559 18.0198L199.821 18.2812L200.343 18.7169L200.953 19.1525C202.435 20.1109 204.003 20.808 205.658 20.7208C206.355 20.7208 207.052 20.5466 207.837 20.3723C207.837 20.3723 208.708 20.1109 209.753 19.4139C206.443 17.1485 203.742 13.6634 200.953 11.2238Z" fill="#F7AA3E" fill-opacity="0.4"/>
<path d="M212.057 11.2238C211.447 10.6139 210.837 10.1782 210.227 9.74258L209.617 9.30693C208.397 8.52277 207.178 8 205.784 8C205.087 8 204.477 8.08714 203.78 8.2614C203.78 8.2614 203.083 8.52279 202.037 9.21983C204.651 11.3981 207.003 14.5347 209.617 17.0614L209.879 17.2357L209.966 17.3228C210.227 17.5842 210.489 17.7584 210.663 18.0198L210.924 18.2812L211.447 18.7169L212.057 19.1525C213.538 20.1109 215.106 20.808 216.762 20.7208C217.459 20.7208 218.156 20.5466 218.94 20.3723C218.94 20.3723 219.811 20.1109 220.857 19.4139C217.546 17.1485 214.845 13.6634 212.057 11.2238Z" fill="#F7AA3E" fill-opacity="0.4"/>
<path d="M223.16 11.2238C222.551 10.6139 221.941 10.1782 221.331 9.74258L220.721 9.30693C219.501 8.52277 218.281 8 216.887 8C216.19 8 215.58 8.08714 214.883 8.2614C214.883 8.2614 214.186 8.52279 213.141 9.21983C215.754 11.3981 218.107 14.5347 220.721 17.0614L220.982 17.2357L221.069 17.3228C221.331 17.5842 221.592 17.7584 221.766 18.0198L222.028 18.2812L222.55 18.7169L223.16 19.1525C224.642 20.1109 226.21 20.808 227.865 20.7208C228.562 20.7208 229.26 20.5466 230.044 20.3723C230.044 20.3723 230.915 20.1109 231.96 19.4139C228.65 17.1485 225.949 13.6634 223.16 11.2238Z" fill="#F7AA3E" fill-opacity="0.4"/>
<path d="M234.264 11.2238C233.654 10.6139 233.044 10.1782 232.434 9.74258L231.824 9.30693C230.605 8.52277 229.385 8 227.991 8C227.294 8 226.684 8.08714 225.987 8.2614C225.987 8.2614 225.29 8.52279 224.244 9.21983C226.858 11.3981 229.21 14.5347 231.824 17.0614L232.086 17.2357L232.173 17.3228C232.434 17.5842 232.696 17.7584 232.87 18.0198L233.131 18.2812L233.654 18.7169L234.264 19.1525C235.745 20.1109 237.314 20.808 238.969 20.7208C239.666 20.7208 240.363 20.5466 241.147 20.3723C241.147 20.3723 242.018 20.1109 243.064 19.4139C239.753 17.1485 237.052 13.6634 234.264 11.2238Z" fill="#F7AA3E" fill-opacity="0.4"/>
<path d="M245.367 11.2238C244.758 10.6139 244.148 10.1782 243.538 9.74258L242.928 9.30693C241.708 8.52277 240.488 8 239.094 8C238.397 8 237.787 8.08714 237.09 8.2614C237.09 8.2614 236.393 8.52279 235.348 9.21983C237.962 11.3981 240.314 14.5347 242.928 17.0614L243.189 17.2357L243.276 17.3228C243.538 17.5842 243.799 17.7584 243.973 18.0198L244.235 18.2812L244.758 18.7169L245.367 19.1525C246.849 20.1109 248.417 20.808 250.072 20.7208C250.77 20.7208 251.467 20.5466 252.251 20.3723C252.251 20.3723 253.122 20.1109 254.167 19.4139C250.857 17.1485 248.156 13.6634 245.367 11.2238Z" fill="#F7AA3E" fill-opacity="0.4"/>
<path d="M256.471 11.2238C255.861 10.6139 255.251 10.1782 254.641 9.74258L254.031 9.30693C252.812 8.52277 251.592 8 250.198 8C249.501 8 248.891 8.08714 248.194 8.2614C248.194 8.2614 247.497 8.52279 246.451 9.21983C249.065 11.3981 251.417 14.5347 254.031 17.0614L254.293 17.2357L254.38 17.3228C254.641 17.5842 254.903 17.7584 255.077 18.0198L255.338 18.2812L255.861 18.7169L256.471 19.1525C257.952 20.1109 259.521 20.808 261.176 20.7208C261.873 20.7208 262.57 20.5466 263.354 20.3723C263.354 20.3723 264.225 20.1109 265.271 19.4139C261.96 17.1485 259.259 13.6634 256.471 11.2238Z" fill="#F7AA3E" fill-opacity="0.4"/>
<path d="M267.575 11.2238C266.965 10.6139 266.355 10.1782 265.745 9.74258L265.135 9.30693C263.915 8.52277 262.695 8 261.301 8C260.604 8 259.994 8.08714 259.297 8.2614C259.297 8.2614 258.6 8.52279 257.555 9.21983C260.169 11.3981 262.521 14.5347 265.135 17.0614L265.396 17.2357L265.483 17.3228C265.745 17.5842 266.006 17.7584 266.18 18.0198L266.442 18.2812L266.965 18.7169L267.575 19.1525C269.056 20.1109 270.624 20.808 272.28 20.7208C272.977 20.7208 273.674 20.5466 274.458 20.3723C274.458 20.3723 275.329 20.1109 276.375 19.4139C273.064 17.1485 270.363 13.6634 267.575 11.2238Z" fill="#F7AA3E" fill-opacity="0.4"/>
<path d="M278.678 11.2238C278.068 10.6139 277.458 10.1782 276.848 9.74258L276.238 9.30693C275.019 8.52277 273.799 8 272.405 8C271.708 8 271.098 8.08714 270.401 8.2614C270.401 8.2614 269.704 8.52279 268.658 9.21983C271.272 11.3981 273.625 14.5347 276.238 17.0614L276.5 17.2357L276.587 17.3228C276.848 17.5842 277.11 17.7584 277.284 18.0198L277.545 18.2812L278.068 18.7169L278.678 19.1525C280.159 20.1109 281.728 20.808 283.383 20.7208C284.08 20.7208 284.777 20.5466 285.561 20.3723C285.561 20.3723 286.432 20.1109 287.478 19.4139C284.167 17.1485 281.466 13.6634 278.678 11.2238Z" fill="#F7AA3E" fill-opacity="0.4"/>
<path d="M289.782 11.2238C289.172 10.6139 288.562 10.1782 287.952 9.74258L287.342 9.30693C286.122 8.52277 284.902 8 283.508 8C282.811 8 282.201 8.08714 281.504 8.2614C281.504 8.2614 280.807 8.52279 279.762 9.21983C282.376 11.3981 284.728 14.5347 287.342 17.0614L287.603 17.2357L287.69 17.3228C287.952 17.5842 288.213 17.7584 288.388 18.0198L288.649 18.2812L289.172 18.7169L289.782 19.1525C291.263 20.1109 292.831 20.808 294.487 20.7208C295.184 20.7208 295.881 20.5466 296.665 20.3723C296.665 20.3723 297.536 20.1109 298.582 19.4139C295.271 17.1485 292.57 13.6634 289.782 11.2238Z" fill="#F7AA3E" fill-opacity="0.4"/>
<path d="M300.885 11.2238C300.275 10.6139 299.665 10.1782 299.055 9.74258L298.445 9.30693C297.226 8.52277 296.006 8 294.612 8C293.915 8 293.305 8.08714 292.608 8.2614C292.608 8.2614 291.911 8.52279 290.865 9.21983C293.479 11.3981 295.832 14.5347 298.445 17.0614L298.707 17.2357L298.794 17.3228C299.055 17.5842 299.317 17.7584 299.491 18.0198L299.752 18.2812L300.275 18.7169L300.885 19.1525C302.366 20.1109 303.935 20.808 305.59 20.7208C306.287 20.7208 306.984 20.5466 307.768 20.3723C307.768 20.3723 308.64 20.1109 309.685 19.4139C306.374 17.1485 303.673 13.6634 300.885 11.2238Z" fill="#F7AA3E" fill-opacity="0.4"/>
<path d="M311.989 11.2238C311.379 10.6139 310.769 10.1782 310.159 9.74258L309.549 9.30693C308.329 8.52277 307.109 8 305.715 8C305.018 8 304.408 8.08714 303.711 8.2614C303.711 8.2614 303.014 8.52279 301.969 9.21983C304.583 11.3981 306.935 14.5347 309.549 17.0614L309.81 17.2357L309.897 17.3228C310.159 17.5842 310.42 17.7584 310.595 18.0198L310.856 18.2812L311.379 18.7169L311.989 19.1525C313.47 20.1109 315.038 20.808 316.694 20.7208C317.391 20.7208 318.088 20.5466 318.872 20.3723C318.872 20.3723 319.743 20.1109 320.789 19.4139C317.478 17.1485 314.777 13.6634 311.989 11.2238Z" fill="#F7AA3E" fill-opacity="0.4"/>
<path d="M323.092 11.2238C322.482 10.6139 321.872 10.1782 321.262 9.74258L320.652 9.30693C319.433 8.52277 318.213 8 316.819 8C316.122 8 315.512 8.08714 314.815 8.2614C314.815 8.2614 314.118 8.52279 313.072 9.21983C315.686 11.3981 318.039 14.5347 320.652 17.0614L320.914 17.2357L321.001 17.3228C321.262 17.5842 321.524 17.7584 321.698 18.0198L321.959 18.2812L322.482 18.7169L323.092 19.1525C324.573 20.1109 326.142 20.808 327.797 20.7208C328.494 20.7208 329.191 20.5466 329.975 20.3723C329.975 20.3723 330.847 20.1109 331.892 19.4139C328.581 17.1485 325.88 13.6634 323.092 11.2238Z" fill="#F7AA3E" fill-opacity="0.4"/>
<path d="M334.196 11.2238C333.586 10.6139 332.976 10.1782 332.366 9.74258L331.756 9.30693C330.536 8.52277 329.316 8 327.922 8C327.225 8 326.615 8.08714 325.918 8.2614C325.918 8.2614 325.221 8.52279 324.176 9.21983C326.79 11.3981 329.142 14.5347 331.756 17.0614L332.017 17.2357L332.104 17.3228C332.366 17.5842 332.627 17.7584 332.802 18.0198L333.063 18.2812L333.586 18.7169L334.196 19.1525C335.677 20.1109 337.245 20.808 338.901 20.7208C339.598 20.7208 340.295 20.5466 341.079 20.3723C341.079 20.3723 341.95 20.1109 342.996 19.4139C339.685 17.1485 336.984 13.6634 334.196 11.2238Z" fill="#F7AA3E" fill-opacity="0.4"/>
<path d="M345.299 11.2238C344.689 10.6139 344.079 10.1782 343.469 9.74258L342.859 9.30693C341.64 8.52277 340.42 8 339.026 8C338.329 8 337.719 8.08714 337.022 8.2614C337.022 8.2614 336.325 8.52279 335.279 9.21983C337.893 11.3981 340.246 14.5347 342.859 17.0614L343.121 17.2357L343.208 17.3228C343.469 17.5842 343.731 17.7584 343.905 18.0198L344.166 18.2812L344.689 18.7169L345.299 19.1525C346.78 20.1109 348.349 20.808 350.004 20.7208C350.701 20.7208 351.398 20.5466 352.182 20.3723C352.182 20.3723 353.054 20.1109 354.099 19.4139C350.788 17.1485 348.087 13.6634 345.299 11.2238Z" fill="#F7AA3E" fill-opacity="0.4"/>
<path d="M356.403 11.2238C355.793 10.6139 355.183 10.1782 354.573 9.74258L353.963 9.30693C352.743 8.52277 351.523 8 350.129 8C349.432 8 348.822 8.08714 348.125 8.2614C348.125 8.2614 347.428 8.52279 346.383 9.21983C348.997 11.3981 351.349 14.5347 353.963 17.0614L354.224 17.2357L354.312 17.3228C354.573 17.5842 354.834 17.7584 355.009 18.0198L355.27 18.2812L355.793 18.7169L356.403 19.1525C357.884 20.1109 359.452 20.808 361.108 20.7208C361.805 20.7208 362.502 20.5466 363.286 20.3723C363.286 20.3723 364.157 20.1109 365.203 19.4139C361.892 17.1485 359.191 13.6634 356.403 11.2238Z" fill="#F7AA3E" fill-opacity="0.4"/>
<path d="M367.506 11.2238C366.896 10.6139 366.286 10.1782 365.676 9.74258L365.067 9.30693C363.847 8.52277 362.627 8 361.233 8C360.536 8 359.926 8.08714 359.229 8.2614C359.229 8.2614 358.532 8.52279 357.486 9.21983C360.1 11.3981 362.453 14.5347 365.067 17.0614L365.328 17.2357L365.415 17.3228C365.676 17.5842 365.938 17.7584 366.112 18.0198L366.373 18.2812L366.896 18.7169L367.506 19.1525C368.987 20.1109 370.556 20.808 372.211 20.7208C372.908 20.7208 373.605 20.5466 374.389 20.3723C374.389 20.3723 375.261 20.1109 376.306 19.4139C372.995 17.1485 370.294 13.6634 367.506 11.2238Z" fill="#F7AA3E" fill-opacity="0.4"/>
<path d="M378.61 11.2238C378 10.6139 377.39 10.1782 376.78 9.74258L376.17 9.30693C374.95 8.52277 373.73 8 372.336 8C371.639 8 371.029 8.08714 370.332 8.2614C370.332 8.2614 369.635 8.52279 368.59 9.21983C371.204 11.3981 373.556 14.5347 376.17 17.0614L376.431 17.2357L376.519 17.3228C376.78 17.5842 377.041 17.7584 377.216 18.0198L377.477 18.2812L378 18.7169L378.61 19.1525C380.091 20.1109 381.659 20.808 383.315 20.7208C384.012 20.7208 384.709 20.5466 385.493 20.3723C385.493 20.3723 386.364 20.1109 387.41 19.4139C384.099 17.1485 381.398 13.6634 378.61 11.2238Z" fill="#F7AA3E" fill-opacity="0.4"/>
<path d="M389.713 11.2238C389.103 10.6139 388.493 10.1782 387.884 9.74258L387.274 9.30693C386.054 8.52277 384.834 8 383.44 8C382.743 8 382.133 8.08714 381.436 8.2614C381.436 8.2614 380.739 8.52279 379.693 9.21983C382.307 11.3981 384.66 14.5347 387.274 17.0614L387.535 17.2357L387.622 17.3228C387.883 17.5842 388.145 17.7584 388.319 18.0198L388.58 18.2812L389.103 18.7169L389.713 19.1525C391.194 20.1109 392.763 20.808 394.418 20.7208C395.115 20.7208 395.812 20.5466 396.596 20.3723C396.596 20.3723 397.468 20.1109 398.513 19.4139C395.202 17.1485 392.501 13.6634 389.713 11.2238Z" fill="#F7AA3E" fill-opacity="0.4"/>
<path d="M400.817 11.2238C400.207 10.6139 399.597 10.1782 398.987 9.74258L398.377 9.30693C397.157 8.52277 395.937 8 394.543 8C393.846 8 393.236 8.08714 392.539 8.2614C392.539 8.2614 391.842 8.52279 390.797 9.21983C393.411 11.3981 395.763 14.5347 398.377 17.0614L398.638 17.2357L398.726 17.3228C398.987 17.5842 399.248 17.7584 399.423 18.0198L399.684 18.2812L400.207 18.7169L400.817 19.1525C402.298 20.1109 403.866 20.808 405.522 20.7208C406.219 20.7208 406.916 20.5466 407.7 20.3723C407.7 20.3723 408.571 20.1109 409.617 19.4139C406.306 17.1485 403.605 13.6634 400.817 11.2238Z" fill="#F7AA3E" fill-opacity="0.4"/>
<path d="M411.92 11.2238C411.31 10.6139 410.7 10.1782 410.091 9.74258L409.481 9.30693C408.261 8.52277 407.041 8 405.647 8C404.95 8 404.34 8.08714 403.643 8.2614C403.643 8.2614 402.946 8.52279 401.9 9.21983C404.514 11.3981 406.867 14.5347 409.481 17.0614L409.742 17.2357L409.829 17.3228C410.09 17.5842 410.352 17.7584 410.526 18.0198L410.788 18.2812L411.31 18.7169L411.92 19.1525C413.401 20.1109 414.97 20.808 416.625 20.7208C417.322 20.7208 418.019 20.5466 418.803 20.3723C418.803 20.3723 419.675 20.1109 420.72 19.4139C417.409 17.1485 414.708 13.6634 411.92 11.2238Z" fill="#F7AA3E" fill-opacity="0.4"/>
<path d="M423.024 11.2238C422.414 10.6139 421.804 10.1782 421.194 9.74258L420.584 9.30693C419.364 8.52277 418.144 8 416.75 8C416.053 8 415.444 8.08714 414.746 8.2614C414.746 8.2614 414.049 8.52279 413.004 9.21983C415.618 11.3981 417.97 14.5347 420.584 17.0614L420.846 17.2357L420.933 17.3228C421.194 17.5842 421.455 17.7584 421.63 18.0198L421.891 18.2812L422.414 18.7169L423.024 19.1525C424.505 20.1109 426.073 20.808 427.729 20.7208C428.426 20.7208 429.123 20.5466 429.907 20.3723C429.907 20.3723 430.778 20.1109 431.824 19.4139C428.513 17.1485 425.812 13.6634 423.024 11.2238Z" fill="#F7AA3E" fill-opacity="0.4"/>
<path d="M434.127 11.2238C433.517 10.6139 432.907 10.1782 432.298 9.74258L431.688 9.30693C430.468 8.52277 429.248 8 427.854 8C427.157 8 426.547 8.08714 425.85 8.2614C425.85 8.2614 425.153 8.52279 424.107 9.21983C426.721 11.3981 429.074 14.5347 431.688 17.0614L431.949 17.2357L432.036 17.3228C432.298 17.5842 432.559 17.7584 432.733 18.0198L432.995 18.2812L433.517 18.7169L434.127 19.1525C435.608 20.1109 437.177 20.808 438.832 20.7208C439.529 20.7208 440.226 20.5466 441.01 20.3723C441.01 20.3723 441.882 20.1109 442.927 19.4139C439.616 17.1485 436.915 13.6634 434.127 11.2238Z" fill="#F7AA3E" fill-opacity="0.4"/>
<path d="M445.231 11.2238C444.621 10.6139 444.011 10.1782 443.401 9.74258L442.791 9.30693C441.571 8.52277 440.351 8 438.957 8C438.26 8 437.651 8.08714 436.954 8.2614C436.954 8.2614 436.256 8.52279 435.211 9.21983C437.825 11.3981 440.177 14.5347 442.791 17.0614L443.053 17.2357L443.14 17.3228C443.401 17.5842 443.662 17.7584 443.837 18.0198L444.098 18.2812L444.621 18.7169L445.231 19.1525C446.712 20.1109 448.28 20.808 449.936 20.7208C450.633 20.7208 451.33 20.5466 452.114 20.3723C452.114 20.3723 452.985 20.1109 454.031 19.4139C450.72 17.1485 448.019 13.6634 445.231 11.2238Z" fill="#F7AA3E" fill-opacity="0.4"/>
<path d="M456.334 11.2238C455.724 10.6139 455.114 10.1782 454.505 9.74258L453.895 9.30693C452.675 8.52277 451.455 8 450.061 8C449.364 8 448.754 8.08714 448.057 8.2614C448.057 8.2614 447.36 8.52279 446.314 9.21983C448.928 11.3981 451.281 14.5347 453.895 17.0614L454.156 17.2357L454.243 17.3228C454.505 17.5842 454.766 17.7584 454.94 18.0198L455.202 18.2812L455.724 18.7169L456.334 19.1525C457.815 20.1109 459.384 20.808 461.039 20.7208C461.736 20.7208 462.433 20.5466 463.217 20.3723C463.217 20.3723 464.089 20.1109 465.134 19.4139C461.823 17.1485 459.122 13.6634 456.334 11.2238Z" fill="#F7AA3E" fill-opacity="0.4"/>
<path d="M467.438 11.2238C466.828 10.6139 466.218 10.1782 465.608 9.74258L464.998 9.30693C463.778 8.52277 462.559 8 461.164 8C460.467 8 459.858 8.08714 459.161 8.2614C459.161 8.2614 458.464 8.52279 457.418 9.21983C460.032 11.3981 462.384 14.5347 464.998 17.0614L465.26 17.2357L465.347 17.3228C465.608 17.5842 465.869 17.7584 466.044 18.0198L466.305 18.2812L466.828 18.7169L467.438 19.1525C468.919 20.1109 470.487 20.808 472.143 20.7208C472.84 20.7208 473.537 20.5466 474.321 20.3723C474.321 20.3723 475.192 20.1109 476.238 19.4139C472.927 17.1485 470.226 13.6634 467.438 11.2238Z" fill="#F7AA3E" fill-opacity="0.4"/>
<path d="M478.541 11.2238C477.931 10.6139 477.322 10.1782 476.712 9.74258L476.102 9.30693C474.882 8.52277 473.662 8 472.268 8C471.571 8 470.961 8.08714 470.264 8.2614C470.264 8.2614 469.567 8.52279 468.521 9.21983C471.135 11.3981 473.488 14.5347 476.102 17.0614L476.363 17.2357L476.45 17.3228C476.712 17.5842 476.973 17.7584 477.147 18.0198L477.409 18.2812L477.931 18.7169L478.541 19.1525C480.023 20.1109 481.591 20.808 483.246 20.7208C483.943 20.7208 484.64 20.5466 485.425 20.3723C485.425 20.3723 486.296 20.1109 487.341 19.4139C484.03 17.1485 481.329 13.6634 478.541 11.2238Z" fill="#F7AA3E" fill-opacity="0.4"/>
<path d="M489.645 11.2238C489.035 10.6139 488.425 10.1782 487.815 9.74258L487.205 9.30693C485.985 8.52277 484.766 8 483.371 8C482.674 8 482.065 8.08714 481.368 8.2614C481.368 8.2614 480.671 8.52279 479.625 9.21983C482.239 11.3981 484.591 14.5347 487.205 17.0614L487.467 17.2357L487.554 17.3228C487.815 17.5842 488.077 17.7584 488.251 18.0198L488.512 18.2812L489.035 18.7169L489.645 19.1525C491.126 20.1109 492.694 20.808 494.35 20.7208C495.047 20.7208 495.744 20.5466 496.528 20.3723C496.528 20.3723 497.399 20.1109 498.445 19.4139C495.134 17.1485 492.433 13.6634 489.645 11.2238Z" fill="#F7AA3E" fill-opacity="0.4"/>
<path d="M500.748 11.2238C500.138 10.6139 499.529 10.1782 498.919 9.74258L498.309 9.30693C497.089 8.52277 495.869 8 494.475 8C493.778 8 493.168 8.08714 492.471 8.2614C492.471 8.2614 491.774 8.52279 490.729 9.21983C493.342 11.3981 495.695 14.5347 498.309 17.0614L498.57 17.2357L498.657 17.3228C498.919 17.5842 499.18 17.7584 499.354 18.0198L499.616 18.2812L500.138 18.7169L500.748 19.1525C502.23 20.1109 503.798 20.808 505.453 20.7208C506.15 20.7208 506.847 20.5466 507.632 20.3723C507.632 20.3723 508.503 20.1109 509.548 19.4139C506.237 17.1485 503.536 13.6634 500.748 11.2238Z" fill="#F7AA3E" fill-opacity="0.4"/>
<path d="M511.852 11.2238C511.242 10.6139 510.632 10.1782 510.022 9.74258L509.412 9.30693C508.192 8.52277 506.973 8 505.579 8C504.881 8 504.272 8.08714 503.575 8.2614C503.575 8.2614 502.878 8.52279 501.832 9.21983C504.446 11.3981 506.798 14.5347 509.412 17.0614L509.674 17.2357L509.761 17.3228C510.022 17.5842 510.284 17.7584 510.458 18.0198L510.719 18.2812L511.242 18.7169L511.852 19.1525C513.333 20.1109 514.901 20.808 516.557 20.7208C517.254 20.7208 517.951 20.5466 518.735 20.3723C518.735 20.3723 519.606 20.1109 520.652 19.4139C517.341 17.1485 514.64 13.6634 511.852 11.2238Z" fill="#F7AA3E" fill-opacity="0.4"/>
<path d="M522.955 11.2238C522.345 10.6139 521.736 10.1782 521.126 9.74258L520.516 9.30693C519.296 8.52277 518.076 8 516.682 8C515.985 8 515.375 8.08714 514.678 8.2614C514.678 8.2614 513.981 8.52279 512.936 9.21983C515.549 11.3981 517.902 14.5347 520.516 17.0614L520.777 17.2357L520.864 17.3228C521.126 17.5842 521.387 17.7584 521.561 18.0198L521.823 18.2812L522.345 18.7169L522.955 19.1525C524.437 20.1109 526.005 20.808 527.66 20.7208C528.357 20.7208 529.054 20.5466 529.839 20.3723C529.839 20.3723 530.71 20.1109 531.755 19.4139C528.444 17.1485 525.744 13.6634 522.955 11.2238Z" fill="#F7AA3E" fill-opacity="0.4"/>
<path d="M534.059 11.2238C533.449 10.6139 532.839 10.1782 532.229 9.74258L531.619 9.30693C530.399 8.52277 529.18 8 527.786 8C527.089 8 526.479 8.08714 525.782 8.2614C525.782 8.2614 525.085 8.52279 524.039 9.21983C526.653 11.3981 529.005 14.5347 531.619 17.0614L531.881 17.2357L531.968 17.3228C532.229 17.5842 532.491 17.7584 532.665 18.0198L532.926 18.2812L533.449 18.7169L534.059 19.1525C535.54 20.1109 537.108 20.808 538.764 20.7208C539.461 20.7208 540.158 20.5466 540.942 20.3723C540.942 20.3723 541.813 20.1109 542.859 19.4139C539.548 17.1485 536.847 13.6634 534.059 11.2238Z" fill="#F7AA3E" fill-opacity="0.4"/>
<path d="M545.162 11.2238C544.553 10.6139 543.943 10.1782 543.333 9.74258L542.723 9.30693C541.503 8.52277 540.283 8 538.889 8C538.192 8 537.582 8.08714 536.885 8.2614C536.885 8.2614 536.188 8.52279 535.143 9.21983C537.756 11.3981 540.109 14.5347 542.723 17.0614L542.984 17.2357L543.071 17.3228C543.333 17.5842 543.594 17.7584 543.768 18.0198L544.03 18.2812L544.552 18.7169L545.162 19.1525C546.644 20.1109 548.212 20.808 549.867 20.7208C550.564 20.7208 551.261 20.5466 552.046 20.3723C552.046 20.3723 552.917 20.1109 553.962 19.4139C550.652 17.1485 547.951 13.6634 545.162 11.2238Z" fill="#F7AA3E" fill-opacity="0.4"/>
<path d="M556.266 11.2238C555.656 10.6139 555.046 10.1782 554.436 9.74258L553.826 9.30693C552.606 8.52277 551.387 8 549.993 8C549.296 8 548.686 8.08714 547.989 8.2614C547.989 8.2614 547.292 8.52279 546.246 9.21983C548.86 11.3981 551.212 14.5347 553.826 17.0614L554.088 17.2357L554.175 17.3228C554.436 17.5842 554.698 17.7584 554.872 18.0198L555.133 18.2812L555.656 18.7169L556.266 19.1525C557.747 20.1109 559.315 20.808 560.971 20.7208C561.668 20.7208 562.365 20.5466 563.149 20.3723C563.149 20.3723 564.02 20.1109 565.066 19.4139C561.755 17.1485 559.054 13.6634 556.266 11.2238Z" fill="#F7AA3E" fill-opacity="0.4"/>
<path d="M567.369 11.2238C566.76 10.6139 566.15 10.1782 565.54 9.74258L564.93 9.30693C563.71 8.52277 562.49 8 561.096 8C560.399 8 559.789 8.08714 559.092 8.2614C559.092 8.2614 558.395 8.52279 557.35 9.21983C559.963 11.3981 562.316 14.5347 564.93 17.0614L565.191 17.2357L565.278 17.3228C565.54 17.5842 565.801 17.7584 565.975 18.0198L566.237 18.2812L566.759 18.7169L567.369 19.1525C568.851 20.1109 570.419 20.808 572.074 20.7208C572.771 20.7208 573.468 20.5466 574.253 20.3723C574.253 20.3723 575.124 20.1109 576.169 19.4139C572.859 17.1485 570.158 13.6634 567.369 11.2238Z" fill="#F7AA3E" fill-opacity="0.4"/>
<path d="M578.473 11.2238C577.863 10.6139 577.253 10.1782 576.643 9.74258L576.033 9.30693C574.813 8.52277 573.594 8 572.2 8C571.503 8 570.893 8.08714 570.196 8.2614C570.196 8.2614 569.499 8.52279 568.453 9.21983C571.067 11.3981 573.419 14.5347 576.033 17.0614L576.295 17.2357L576.382 17.3228C576.643 17.5842 576.905 17.7584 577.079 18.0198L577.34 18.2812L577.863 18.7169L578.473 19.1525C579.954 20.1109 581.522 20.808 583.178 20.7208C583.875 20.7208 584.572 20.5466 585.356 20.3723C585.356 20.3723 586.227 20.1109 587.273 19.4139C583.962 17.1485 581.261 13.6634 578.473 11.2238Z" fill="#F7AA3E" fill-opacity="0.4"/>
<path d="M589.576 11.2238C588.967 10.6139 588.357 10.1782 587.747 9.74258L587.137 9.30693C585.917 8.52277 584.697 8 583.303 8C582.606 8 581.996 8.08714 581.299 8.2614C581.299 8.2614 580.602 8.52279 579.557 9.21983C582.171 11.3981 584.523 14.5347 587.137 17.0614L587.398 17.2357L587.485 17.3228C587.747 17.5842 588.008 17.7584 588.182 18.0198L588.444 18.2812L588.967 18.7169L589.576 19.1525C591.058 20.1109 592.626 20.808 594.281 20.7208C594.978 20.7208 595.676 20.5466 596.46 20.3723C596.46 20.3723 597.331 20.1109 598.376 19.4139C595.066 17.1485 592.365 13.6634 589.576 11.2238Z" fill="#F7AA3E" fill-opacity="0.4"/>
<path d="M600.68 11.2238C600.07 10.6139 599.46 10.1782 598.85 9.74258L598.24 9.30693C597.021 8.52277 595.801 8 594.407 8C593.71 8 593.1 8.08714 592.403 8.2614C592.403 8.2614 591.706 8.52279 590.66 9.21983C593.274 11.3981 595.626 14.5347 598.24 17.0614L598.502 17.2357L598.589 17.3228C598.85 17.5842 599.112 17.7584 599.286 18.0198L599.547 18.2812L600.07 18.7169L600.68 19.1525C602.161 20.1109 603.73 20.808 605.385 20.7208C606.082 20.7208 606.779 20.5466 607.563 20.3723C607.563 20.3723 608.434 20.1109 609.48 19.4139C606.169 17.1485 603.468 13.6634 600.68 11.2238Z" fill="#F7AA3E" fill-opacity="0.4"/>
<path d="M611.784 11.2238C611.174 10.6139 610.564 10.1782 609.954 9.74258L609.344 9.30693C608.124 8.52277 606.904 8 605.51 8C604.813 8 604.203 8.08714 603.506 8.2614C603.506 8.2614 602.809 8.52279 601.764 9.21983C604.378 11.3981 606.73 14.5347 609.344 17.0614L609.605 17.2357L609.692 17.3228C609.954 17.5842 610.215 17.7584 610.389 18.0198L610.651 18.2812L611.174 18.7169L611.784 19.1525C613.265 20.1109 614.833 20.808 616.488 20.7208C617.186 20.7208 617.883 20.5466 618.667 20.3723C618.667 20.3723 619.538 20.1109 620.584 19.4139C617.273 17.1485 614.572 13.6634 611.784 11.2238Z" fill="#F7AA3E" fill-opacity="0.4"/>
<path d="M622.887 11.2238C622.277 10.6139 621.667 10.1782 621.057 9.74258L620.447 9.30693C619.228 8.52277 618.008 8 616.614 8C615.917 8 615.307 8.08714 614.61 8.2614C614.61 8.2614 613.913 8.52279 612.867 9.21983C615.481 11.3981 617.833 14.5347 620.447 17.0614L620.709 17.2357L620.796 17.3228C621.057 17.5842 621.319 17.7584 621.493 18.0198L621.754 18.2812L622.277 18.7169L622.887 19.1525C624.368 20.1109 625.937 20.808 627.592 20.7208C628.289 20.7208 628.986 20.5466 629.77 20.3723C629.77 20.3723 630.641 20.1109 631.687 19.4139C628.376 17.1485 625.675 13.6634 622.887 11.2238Z" fill="#F7AA3E" fill-opacity="0.4"/>
</svg>
