<svg width="304" height="307" viewBox="0 0 304 307" fill="none" xmlns="http://www.w3.org/2000/svg">
<path d="M299.958 156.516C299.092 155.647 298.514 154.778 297.648 153.909C294.473 151.013 290.72 147.827 287.833 145.51C284.946 143.192 282.925 141.744 282.925 141.744C278.883 144.641 278.306 149.565 279.46 153.909C280.038 156.516 281.193 158.833 282.925 160.282C285.234 162.599 288.121 164.916 291.297 168.102C294.184 171.288 297.071 174.764 299.669 178.819C301.979 176.212 304 172.157 304 168.102C304 164.047 302.845 159.702 299.958 156.516Z" fill="white"/>
<path d="M287.833 175.342C284.946 171.867 282.636 169.26 282.636 169.26C279.172 170.998 277.151 174.184 276.862 177.949C276.862 179.687 276.573 181.425 276.862 183.163C277.151 184.901 277.728 186.349 278.594 187.797C280.327 190.404 282.925 193.59 284.946 197.066C286.967 200.542 289.276 204.886 291.008 209.521C293.895 207.493 296.205 203.728 297.648 199.673C298.515 195.618 298.226 190.983 296.205 187.218C294.184 183.452 290.72 178.818 287.833 175.342Z" fill="white"/>
<path d="M283.794 209.809C282.639 207.492 281.484 205.175 280.329 203.148C278.308 199.093 276.287 196.196 276.287 196.196C272.534 197.065 269.936 199.962 269.07 203.437C267.626 206.623 267.626 210.389 268.781 213.575C269.359 215.023 270.225 216.761 270.802 218.499C271.668 220.237 272.246 221.975 272.823 224.002C274.267 228.057 275.421 232.402 276.287 237.615C279.463 236.167 282.639 232.981 284.66 229.505C285.814 227.767 286.392 225.45 286.392 223.423C286.681 221.395 286.392 219.078 285.814 217.051C285.526 214.444 284.66 212.127 283.794 209.809Z" fill="white"/>
<path d="M269.644 239.644C269.355 237.617 268.777 235.3 268.489 233.272C267.911 231.245 267.334 228.927 266.757 227.189C265.602 223.714 264.736 221.107 264.736 221.107C259.828 221.107 256.652 224.872 254.92 228.927C253.765 231.245 253.476 234.141 254.054 236.458C254.92 239.644 255.497 243.12 256.075 247.465C256.652 251.52 257.23 256.444 256.652 261.368C260.116 260.788 263.581 258.181 266.468 254.995C267.911 253.258 269.066 251.52 269.644 249.492C270.221 247.465 270.51 245.147 270.221 243.12C270.221 241.961 269.932 240.803 269.644 239.644Z" fill="white"/>
<path d="M248.568 243.12C244.815 242.541 241.639 244.279 239.041 246.596C236.443 248.913 234.999 252.678 234.999 255.864C234.999 259.05 234.999 262.816 234.71 267.16C234.71 269.188 234.422 271.505 234.133 273.822C233.844 276.139 233.267 278.457 232.401 280.774C234.133 280.774 236.154 280.484 237.886 279.905C239.618 279.036 241.639 278.167 243.083 276.719C246.258 274.112 248.857 270.347 249.145 266.002C249.434 261.657 249.723 255.864 249.434 251.52C249.145 246.596 248.568 243.12 248.568 243.12Z" fill="white"/>
<path d="M217.675 262.815C216.232 263.684 214.788 265.132 213.922 266.58C213.056 268.029 212.19 269.477 211.613 270.925C210.169 277.008 208.726 286.276 203.818 294.676C210.747 296.703 220.851 291.78 223.738 283.669C224.893 279.325 226.336 273.822 226.914 269.187C227.202 266.87 227.491 264.843 227.491 263.394C227.491 261.946 227.78 261.077 227.78 261.077C224.315 260.208 220.562 260.788 217.675 262.815Z" fill="white"/>
<path d="M191.412 275.56C189.391 277.008 187.081 278.746 186.215 280.773C184.772 283.67 183.328 287.145 181.308 290.911C179.287 294.676 176.688 298.441 173.513 302.207C175.245 303.076 176.977 303.365 178.998 303.655C181.019 303.945 183.04 303.655 185.061 303.076C189.102 301.917 192.855 299.31 195.165 295.835C195.742 294.966 196.32 293.807 196.897 292.649C198.918 288.594 200.65 284.249 201.805 280.773C202.382 279.035 202.96 277.587 203.249 276.428C203.537 275.27 203.826 274.691 203.826 274.691C200.073 272.373 195.165 272.953 191.412 275.56Z" fill="white"/>
<path d="M168.016 280.195C166.284 280.484 164.552 281.353 163.108 281.933C161.665 282.802 160.221 283.67 159.355 285.119C157.334 287.726 155.314 290.912 152.427 294.098C149.828 297.284 146.364 300.47 142.611 303.656C145.498 305.683 149.54 307.132 153.87 306.842C158.201 306.552 162.242 304.815 165.129 301.628C166.573 300.18 168.016 298.153 169.748 295.836C171.192 293.808 172.635 291.491 174.079 289.753C176.677 285.988 178.121 282.802 178.121 282.802C174.945 280.195 171.481 279.326 168.016 280.195Z" fill="white"/>
<path d="M150.414 285.698C148.393 282.222 144.928 280.774 141.175 280.774C140.309 280.774 139.443 280.774 138.577 281.064C137.711 281.064 136.845 281.353 135.979 281.643C134.247 282.222 132.803 282.802 131.648 283.96C129.339 285.988 126.452 288.884 122.987 291.491C119.812 294.098 115.77 296.705 111.439 298.732C113.749 301.339 117.502 303.366 121.833 304.235C126.163 304.815 130.494 303.946 133.958 301.629C137.422 299.311 141.753 294.967 144.928 291.781C148.104 288.305 150.414 285.698 150.414 285.698Z" fill="white"/>
<path d="M122.986 282.511C121.254 277.877 116.923 275.849 112.593 275.559C109.995 275.27 107.396 275.559 105.375 277.008C99.6015 280.483 92.0954 284.538 82.5684 287.145C84.3005 290.331 87.7649 292.938 91.518 294.676C95.5598 296.124 100.179 296.124 103.932 294.676C105.087 294.097 105.953 293.807 107.108 293.228C110.861 291.49 115.191 288.593 118.078 286.566C120.965 283.959 122.986 282.511 122.986 282.511Z" fill="white"/>
<path d="M97.2938 273.533C96.7164 269.478 94.1181 266.871 90.9424 265.422C87.7668 263.685 84.0137 263.395 81.1267 264.264C77.951 265.422 74.4867 266.581 70.4449 267.45C66.4031 268.319 61.784 269.188 56.5874 269.478C57.7422 272.953 60.3405 276.139 63.8048 278.457C67.2692 281.063 71.8884 281.932 75.9301 281.063C80.2606 280.194 85.4572 278.457 89.7876 276.719C94.1181 274.981 97.2938 273.533 97.2938 273.533Z" fill="white"/>
<path d="M73.6161 259.339C73.6161 257.312 73.3274 255.574 72.4614 254.125C72.1727 253.256 71.5953 252.677 71.0179 252.098C70.4405 251.519 69.8631 250.65 69.2857 250.07C66.6874 247.753 62.9343 246.595 59.7587 246.884C56.583 247.174 52.8299 247.464 48.7881 247.753C44.7464 247.753 39.5498 248.043 34.9307 246.884C34.9307 250.65 37.2402 254.125 40.1272 257.312C41.5707 258.76 43.3029 260.208 45.3238 261.077C47.3447 261.946 49.3655 262.235 51.6751 262.235C56.0056 262.235 61.4908 261.656 66.11 261.077C70.1518 260.208 73.6161 259.339 73.6161 259.339Z" fill="white"/>
<path d="M53.4047 240.803C53.9821 238.486 53.6934 236.458 52.8273 234.141C51.9612 232.113 50.8064 230.376 49.0742 228.927C47.0533 227.19 44.455 226.031 42.4342 225.741C39.2585 225.452 35.5054 224.872 31.4636 224.293C29.4428 224.003 27.1332 223.424 24.8236 222.845C22.8027 222.266 20.4931 221.397 18.1835 220.528C17.8948 222.266 18.1835 224.293 18.4722 226.321C19.0496 228.348 19.9157 230.086 21.0705 231.824C22.2253 233.562 23.6688 235.3 25.401 236.458C26.2671 237.037 27.1332 237.617 27.9993 238.196C28.8654 238.486 30.0202 239.065 31.1749 239.065C32.3297 239.355 33.4845 239.355 34.6393 239.644C38.9698 240.224 43.5889 240.803 47.342 240.803C50.8064 240.803 53.4047 240.803 53.4047 240.803Z" fill="white"/>
<path d="M35.2205 217.922C36.6639 218.211 37.53 218.211 37.53 218.211C38.9735 214.736 38.9735 210.97 37.2413 207.784C36.3752 206.336 35.2205 204.888 33.777 203.729C32.6222 202.57 31.1787 201.701 29.7352 201.122C26.8482 199.964 23.0952 199.095 19.0534 197.357C18.1873 197.067 17.0325 196.488 15.8777 196.198C15.0116 195.619 13.8568 195.329 12.9907 194.75C10.9699 193.591 8.94898 192.433 6.9281 190.985C5.77331 194.171 5.48461 198.805 7.50549 202.57C9.23768 206.625 11.836 210.101 15.8777 211.839C19.9195 213.577 25.4047 215.315 29.7352 216.473C31.7561 217.053 33.777 217.632 35.2205 217.922Z" fill="white"/>
<path d="M19.3424 189.535C23.3841 191.562 26.5598 193.011 26.5598 193.011C31.7564 186.928 27.7146 177.949 22.8067 174.763C20.2085 173.025 16.7441 171.287 12.991 168.97C9.52664 166.653 6.06227 163.756 2.59789 159.991C1.7318 161.439 1.15441 163.467 0.577012 165.205C0.288314 167.232 -0.000383601 169.26 0.577012 171.287C1.4431 175.342 3.46399 179.397 6.92836 182.004C10.104 184.611 15.3006 187.507 19.3424 189.535Z" fill="white"/>
<path d="M6.35135 153.909C9.52702 156.805 13.2801 159.991 16.1671 162.309C19.054 164.626 21.0749 166.074 21.0749 166.074C25.1167 163.177 25.6941 158.254 24.5393 153.909C23.9619 151.302 22.8071 148.985 21.0749 147.537C18.7653 145.22 15.8784 142.902 12.7027 139.716C9.81572 136.53 6.92874 133.054 4.33047 128.999C2.02088 131.606 0 135.661 0 139.716C0 144.061 1.15479 148.406 4.04177 151.592C4.61916 152.171 5.48526 153.04 6.35135 153.909Z" fill="white"/>
<path d="M16.1628 132.476C19.0498 135.952 21.3593 138.559 21.3593 138.559C24.8237 136.821 26.8446 133.635 27.1333 129.869C27.1333 128.132 27.422 126.394 27.1333 124.656C26.8446 122.918 26.2672 121.47 25.4011 120.021C23.6689 117.415 21.0706 114.229 19.0498 110.753C17.0289 107.277 14.7193 102.932 12.9871 98.2981C10.1001 100.326 7.79056 104.091 6.34707 108.146C5.48098 112.201 5.76967 116.835 7.79056 120.601C9.81144 124.076 13.2758 129 16.1628 132.476Z" fill="white"/>
<path d="M20.2112 97.7173C21.366 100.034 22.5208 102.352 23.6755 104.379C25.6964 108.434 27.7173 111.331 27.7173 111.331C31.4704 110.462 34.0687 107.565 34.9348 104.089C36.3782 100.903 36.3782 97.138 35.2234 93.9519C34.6461 92.5037 33.78 90.7658 33.2026 89.0279C32.3365 87.2901 31.7591 85.5522 31.1817 83.5247C29.7382 79.4697 28.5834 75.125 27.7173 69.9114C24.5416 71.3596 21.366 74.5457 19.3451 78.0214C17.9016 80.6282 17.3242 82.6558 17.3242 84.6833C17.0355 86.7108 17.3242 89.0279 17.9016 91.0555C18.479 93.083 19.3451 95.4001 20.2112 97.7173Z" fill="white"/>
<path d="M34.3601 67.8839C34.6488 69.9114 35.2262 72.2286 35.5149 74.2561C36.0923 76.2836 36.6697 78.6008 37.2471 80.3386C38.4019 83.8144 39.2679 86.4212 39.2679 86.4212C44.1758 86.4212 47.3515 82.6558 49.0837 78.6008C50.2385 76.2836 50.5272 73.3871 49.9498 71.07C49.0837 67.8839 48.5063 64.4082 47.9289 60.0635C47.3515 56.0085 46.7741 51.0845 47.3515 46.1605C43.8871 46.7398 40.4227 49.3466 37.5358 52.5327C36.0923 54.2706 34.9375 56.0084 34.3601 58.036C33.7827 60.0635 33.494 62.3806 33.7827 64.4082C33.7827 65.5667 34.0714 66.7253 34.3601 67.8839Z" fill="white"/>
<path d="M55.4285 64.698C59.1816 65.2773 62.3573 63.5394 64.9556 61.2223C67.5539 58.9051 68.9973 55.1397 68.9973 51.9537C68.9973 48.7676 68.9973 45.0022 69.286 40.6575C69.286 38.63 69.5747 36.3128 69.8634 33.9957C70.1521 31.6785 70.7295 29.3613 71.5956 27.0442C69.8634 27.0442 67.8425 27.3338 66.1104 27.9131C64.3782 28.7821 62.3573 29.651 60.9138 31.0992C57.7381 33.706 55.1398 37.4714 54.8512 41.8161C54.5625 46.1607 54.2738 51.9537 54.5625 56.2983C54.8512 61.2223 55.4285 64.698 55.4285 64.698Z" fill="white"/>
<path d="M86.3183 45.0027C87.7618 44.1337 89.2053 42.6855 90.0714 41.2373C90.9375 39.7891 91.8035 38.3408 92.3809 36.8926C93.8244 30.8101 95.2679 21.5414 100.176 13.1417C93.247 11.1142 83.1426 16.0382 80.2556 24.1482C79.1008 28.4929 77.6574 33.9962 77.08 38.6305C76.7913 40.9476 76.5026 42.9752 76.5026 44.4234C76.5026 45.8716 76.2139 46.7405 76.2139 46.7405C79.6782 47.6095 83.4313 46.7405 86.3183 45.0027Z" fill="white"/>
<path d="M112.596 32.2574C114.617 30.8092 116.926 29.0713 117.792 27.0438C119.236 24.1474 120.679 20.6716 122.7 16.9062C124.721 13.1408 127.319 9.37546 130.495 5.61007C128.763 4.74114 127.031 4.45149 125.01 4.16185C122.989 3.8722 120.968 4.16185 118.947 4.74114C114.905 5.89972 111.152 8.50652 108.843 11.9823C108.265 12.8512 107.688 14.0098 107.11 15.1684C105.089 19.2234 103.357 23.5681 102.203 27.0438C101.625 28.7817 101.048 30.2299 100.759 31.3885C100.47 32.5471 100.182 33.1263 100.182 33.1263C103.935 35.4435 108.843 34.8642 112.596 32.2574Z" fill="white"/>
<path d="M135.979 27.6237C137.711 27.334 139.443 26.4651 140.887 25.8858C142.33 25.0169 143.774 24.1479 144.64 22.6997C146.661 20.0929 148.682 16.9068 151.569 13.7207C154.167 10.5346 157.631 7.34855 161.384 4.16245C158.497 2.13494 154.456 0.686714 150.125 0.976359C145.795 1.266 141.753 3.00387 138.866 6.18997C137.422 7.63819 135.979 9.66571 134.247 11.9829C132.803 14.0104 131.36 16.3275 129.916 18.0654C127.318 21.8308 125.875 25.0169 125.875 25.0169C129.05 27.334 132.515 28.203 135.979 27.6237Z" fill="white"/>
<path d="M153.583 22.121C155.604 25.5967 159.069 27.0449 162.822 27.0449C163.688 27.0449 164.554 27.0449 165.42 26.7553C166.286 26.7553 167.152 26.4656 168.018 26.176C169.751 25.5967 171.194 25.0174 172.349 23.8588C174.658 21.8313 177.545 18.9349 181.01 16.3281C184.185 13.7213 188.227 11.1145 192.558 9.08695C189.959 6.48015 186.206 4.45263 182.165 3.5837C177.834 3.00441 173.504 3.87334 170.039 6.1905C166.575 8.50766 162.244 12.8523 159.069 16.0384C155.893 19.5142 153.583 22.121 153.583 22.121Z" fill="white"/>
<path d="M181.013 25.3078C182.745 29.9421 187.076 31.9696 191.406 32.2592C194.005 32.5489 196.603 32.2592 198.624 30.811C204.398 27.3353 211.904 23.2803 221.431 20.6735C219.699 17.4874 216.234 14.8806 212.481 13.1427C208.439 11.6945 203.82 11.6945 200.067 13.1427C198.912 13.722 198.046 14.0116 196.892 14.5909C193.138 16.3288 188.808 19.2252 185.921 21.2527C183.034 23.5699 181.013 25.3078 181.013 25.3078Z" fill="white"/>
<path d="M206.708 33.9954C207.285 38.0504 209.884 40.6572 213.059 42.1055C216.235 43.8433 219.988 44.133 222.875 43.264C226.051 42.1055 229.515 40.9469 233.557 40.078C237.599 39.209 242.218 38.3401 247.414 38.0504C246.26 34.5747 243.661 31.3886 240.197 29.0714C236.733 26.4646 232.113 25.5957 228.072 26.4646C223.741 27.3336 218.545 29.0714 214.214 30.8093C209.884 32.5472 206.708 33.9954 206.708 33.9954Z" fill="white"/>
<path d="M235 57.4579C237.598 59.7751 241.351 60.9337 244.527 60.644C247.702 60.3544 251.455 60.0647 255.497 59.7751C259.539 59.7751 264.736 59.4854 269.355 60.644C269.355 56.8786 267.045 53.4029 264.158 50.2168C262.715 48.7686 260.982 47.3204 258.962 46.4514C256.941 45.5825 254.92 45.2928 252.61 45.2928C248.28 45.2928 242.795 45.8721 238.175 46.4514C233.556 47.3204 230.092 48.1893 230.092 48.1893C230.092 50.2168 230.38 51.9547 231.247 53.4029C231.535 54.2718 232.113 54.8511 232.69 55.4304C233.556 56.2994 234.134 56.8786 235 57.4579Z" fill="white"/>
<path d="M261.853 81.787C265.028 82.0766 268.781 82.6559 272.823 83.2352C274.844 83.5249 277.154 84.1042 279.463 84.6835C281.484 85.2627 283.794 86.1317 286.103 87.0006C286.392 85.2627 286.103 83.2352 285.814 81.2077C285.237 79.1802 284.371 77.4423 283.216 75.7045C282.061 73.9666 280.618 72.2287 278.886 71.0701C278.02 70.4908 277.154 69.9116 276.287 69.3323C275.421 69.0426 274.267 68.4633 273.112 68.4633C271.957 68.1737 270.802 68.1737 269.647 67.884C265.317 67.3048 260.698 66.7255 256.945 66.7255C253.192 66.7255 250.593 66.7255 250.593 66.7255C250.016 69.0426 250.305 71.0701 251.171 73.3873C252.037 75.4148 253.192 77.1527 254.924 78.6009C256.945 80.3388 259.543 81.4974 261.853 81.787Z" fill="white"/>
<path d="M268.777 89.6076C267.333 89.318 266.467 89.318 266.467 89.318C265.023 92.7937 265.023 96.5591 266.756 99.7452C267.622 101.193 268.777 102.642 270.22 103.8C271.375 104.959 272.818 105.828 274.262 106.407C277.149 107.566 280.902 108.435 284.944 110.172C285.81 110.462 286.964 111.041 288.119 111.331C288.985 111.91 290.14 112.2 291.006 112.779C293.027 113.938 295.048 115.096 297.069 116.545C298.224 113.359 298.512 108.724 296.492 104.959C294.759 100.904 292.161 97.428 288.119 95.6902C284.078 93.9523 278.592 92.2144 274.262 91.0559C272.241 90.4766 270.22 89.8973 268.777 89.6076Z" fill="white"/>
<path d="M284.65 117.991C280.608 115.964 277.432 114.515 277.432 114.515C272.236 120.598 276.277 129.577 281.185 132.763C283.784 134.501 287.248 136.239 291.001 138.556C294.465 140.873 297.93 143.77 301.394 147.535C302.26 146.087 302.838 144.059 303.415 142.321C303.704 140.294 303.992 138.266 303.415 136.239C302.549 132.184 300.528 128.129 297.064 125.522C293.888 122.915 288.691 120.019 284.65 117.991Z" fill="white"/>
<path d="M107.112 127.439C109.232 127.439 110.292 128.339 110.292 130.139C110.292 131.579 109.892 132.579 109.092 133.139C108.292 133.699 107.032 133.979 105.312 133.979H104.052L103.812 137.159C103.692 138.999 103.292 140.239 102.612 140.879C101.972 141.519 100.912 141.839 99.4319 141.839C97.3119 141.839 96.2519 140.539 96.2519 137.939C96.2519 137.499 96.2719 137.159 96.3119 136.919L96.6119 133.979C90.8119 133.979 86.4119 133.959 83.4119 133.919C82.5319 133.919 81.7519 133.519 81.0719 132.719C80.3919 131.919 80.0519 130.879 80.0519 129.599C80.0519 128.839 80.1919 128.039 80.4719 127.199C82.2319 122.079 84.8719 116.259 88.3919 109.739C89.1519 108.339 89.9119 107.359 90.6719 106.799C91.4719 106.199 92.6919 105.899 94.3319 105.899C95.2119 105.899 95.8719 106.099 96.3119 106.499C96.7919 106.899 97.0319 107.419 97.0319 108.059C97.0319 108.739 96.8319 109.419 96.4319 110.099C92.5119 117.259 89.7519 123.039 88.1519 127.439H97.3919C97.8719 123.719 98.5319 120.179 99.3719 116.819C99.6919 115.579 100.212 114.639 100.932 113.999C101.652 113.319 102.652 112.979 103.932 112.979C105.972 112.979 106.992 113.859 106.992 115.619C106.992 116.139 106.952 116.539 106.872 116.819C106.152 120.219 105.512 123.759 104.952 127.439H107.112ZM127.161 141.239C123.241 141.239 120.201 139.959 118.041 137.399C115.921 134.839 114.861 131.179 114.861 126.419C114.861 122.379 115.481 118.819 116.721 115.739C118.001 112.619 119.761 110.199 122.001 108.479C124.281 106.759 126.921 105.899 129.921 105.899C133.841 105.899 136.861 107.179 138.981 109.739C141.141 112.299 142.221 115.959 142.221 120.719C142.221 124.759 141.581 128.339 140.301 131.459C139.061 134.539 137.301 136.939 135.021 138.659C132.781 140.379 130.161 141.239 127.161 141.239ZM127.761 134.519C129.921 134.519 131.621 133.319 132.861 130.919C134.101 128.519 134.721 125.259 134.721 121.139C134.721 118.379 134.261 116.279 133.341 114.839C132.421 113.359 131.081 112.619 129.321 112.619C127.161 112.619 125.461 113.839 124.221 116.279C122.981 118.679 122.361 121.939 122.361 126.059C122.361 128.819 122.801 130.919 123.681 132.359C124.601 133.799 125.961 134.519 127.761 134.519ZM159.739 141.239C155.819 141.239 152.779 139.959 150.619 137.399C148.499 134.839 147.439 131.179 147.439 126.419C147.439 122.379 148.059 118.819 149.299 115.739C150.579 112.619 152.339 110.199 154.579 108.479C156.859 106.759 159.499 105.899 162.499 105.899C166.419 105.899 169.439 107.179 171.559 109.739C173.719 112.299 174.799 115.959 174.799 120.719C174.799 124.759 174.159 128.339 172.879 131.459C171.639 134.539 169.879 136.939 167.599 138.659C165.359 140.379 162.739 141.239 159.739 141.239ZM160.339 134.519C162.499 134.519 164.199 133.319 165.439 130.919C166.679 128.519 167.299 125.259 167.299 121.139C167.299 118.379 166.839 116.279 165.919 114.839C164.999 113.359 163.659 112.619 161.899 112.619C159.739 112.619 158.039 113.839 156.799 116.279C155.559 118.679 154.939 121.939 154.939 126.059C154.939 128.819 155.379 130.919 156.259 132.359C157.179 133.799 158.539 134.519 160.339 134.519ZM192.317 141.239C188.397 141.239 185.357 139.959 183.197 137.399C181.077 134.839 180.017 131.179 180.017 126.419C180.017 122.379 180.637 118.819 181.877 115.739C183.157 112.619 184.917 110.199 187.157 108.479C189.437 106.759 192.077 105.899 195.077 105.899C198.997 105.899 202.017 107.179 204.137 109.739C206.297 112.299 207.377 115.959 207.377 120.719C207.377 124.759 206.737 128.339 205.457 131.459C204.217 134.539 202.457 136.939 200.177 138.659C197.937 140.379 195.317 141.239 192.317 141.239ZM192.917 134.519C195.077 134.519 196.777 133.319 198.017 130.919C199.257 128.519 199.877 125.259 199.877 121.139C199.877 118.379 199.417 116.279 198.497 114.839C197.577 113.359 196.237 112.619 194.477 112.619C192.317 112.619 190.617 113.839 189.377 116.279C188.137 118.679 187.517 121.939 187.517 126.059C187.517 128.819 187.957 130.919 188.837 132.359C189.757 133.799 191.117 134.519 192.917 134.519ZM238.995 116.639C238.995 118.959 238.335 121.099 237.015 123.059C235.735 125.019 233.815 126.599 231.255 127.799C228.735 128.999 225.675 129.639 222.075 129.719L221.775 132.179L229.155 132.119C229.675 132.119 230.075 132.299 230.355 132.659C230.675 132.979 230.835 133.379 230.835 133.859C230.835 134.459 230.635 134.999 230.235 135.479C229.835 135.919 229.295 136.119 228.615 136.079L221.355 136.019L221.175 137.639C220.935 140.039 219.635 141.239 217.275 141.239C214.955 141.239 213.795 140.219 213.795 138.179L213.915 136.019H211.995C211.475 136.019 211.075 135.879 210.795 135.599C210.515 135.279 210.375 134.899 210.375 134.459C210.375 133.899 210.575 133.379 210.975 132.899C211.375 132.419 211.895 132.179 212.535 132.179H214.395C214.595 130.979 214.735 130.159 214.815 129.719H212.595C212.075 129.719 211.675 129.579 211.395 129.299C211.155 129.019 211.035 128.659 211.035 128.219C211.035 127.619 211.275 127.059 211.755 126.539C212.235 126.019 212.835 125.759 213.555 125.759H215.475C215.555 125.239 215.715 124.259 215.955 122.819L217.095 116.159C217.215 115.439 217.455 113.919 217.815 111.599L216.735 112.019C216.495 112.139 216.255 112.199 216.015 112.199C215.495 112.199 215.075 112.019 214.755 111.659C214.435 111.299 214.275 110.839 214.275 110.279C214.275 109.239 214.875 108.359 216.075 107.639C217.115 106.999 218.435 106.499 220.035 106.139C221.635 105.739 223.295 105.539 225.015 105.539C229.735 105.539 233.235 106.539 235.515 108.539C237.835 110.539 238.995 113.239 238.995 116.639ZM231.675 116.879C231.675 114.879 231.175 113.379 230.175 112.379C229.215 111.339 227.535 110.739 225.135 110.579L224.535 114.359C224.455 114.639 224.395 114.939 224.355 115.259C224.315 115.539 224.275 115.799 224.235 116.039L223.095 122.699L222.675 125.579C225.755 125.139 228.015 124.159 229.455 122.639C230.935 121.119 231.675 119.199 231.675 116.879Z" fill="white"/>
<path d="M65.551 182.987V181.571H66.631C66.999 181.571 67.271 181.467 67.447 181.259C67.639 181.051 67.847 180.739 68.071 180.323L68.815 178.763L61.543 165.899H63.391L69.583 177.059L74.743 165.899H76.495L69.367 181.139C69.047 181.795 68.719 182.267 68.383 182.555C68.047 182.843 67.575 182.987 66.967 182.987H65.551ZM78.108 182.939V170.435H79.74V175.811H86.892V170.435H88.524V182.939H86.892V177.275H79.74V182.939H78.108ZM92.1002 182.939V170.459H93.7322V180.731L101.34 170.435H102.804V182.939H101.172V172.835L93.6842 182.939H92.1002ZM106.35 182.939V170.435H112.59C113.294 170.435 113.886 170.587 114.366 170.891C114.846 171.179 115.206 171.555 115.446 172.019C115.702 172.483 115.83 172.979 115.83 173.507C115.83 174.179 115.67 174.787 115.35 175.331C115.03 175.859 114.566 176.259 113.958 176.531C114.678 176.739 115.262 177.115 115.71 177.659C116.158 178.203 116.382 178.859 116.382 179.627C116.382 180.299 116.214 180.883 115.878 181.379C115.558 181.875 115.11 182.259 114.534 182.531C113.974 182.803 113.326 182.939 112.59 182.939H106.35ZM107.91 181.763H112.542C112.958 181.763 113.334 181.659 113.67 181.451C114.022 181.227 114.294 180.939 114.486 180.587C114.694 180.235 114.798 179.867 114.798 179.483C114.798 179.067 114.702 178.691 114.51 178.355C114.318 178.003 114.062 177.723 113.742 177.515C113.422 177.307 113.054 177.203 112.638 177.203H107.91V181.763ZM107.91 176.075H112.158C112.574 176.075 112.942 175.963 113.262 175.739C113.582 175.515 113.83 175.227 114.006 174.875C114.182 174.523 114.27 174.155 114.27 173.771C114.27 173.195 114.078 172.691 113.694 172.259C113.326 171.827 112.846 171.611 112.254 171.611H107.91V176.075ZM124.618 183.179C123.722 183.179 122.89 183.011 122.122 182.675C121.354 182.323 120.69 181.851 120.13 181.259C119.57 180.651 119.13 179.955 118.81 179.171C118.506 178.387 118.354 177.547 118.354 176.651C118.354 175.483 118.618 174.411 119.146 173.435C119.69 172.459 120.434 171.683 121.378 171.107C122.322 170.515 123.394 170.219 124.594 170.219C125.826 170.219 126.898 170.515 127.81 171.107C128.738 171.699 129.466 172.483 129.994 173.459C130.522 174.419 130.786 175.475 130.786 176.627C130.786 176.755 130.786 176.883 130.786 177.011C130.786 177.123 130.778 177.211 130.762 177.275H120.058C120.138 178.171 120.386 178.971 120.802 179.675C121.234 180.363 121.786 180.915 122.458 181.331C123.146 181.731 123.89 181.931 124.69 181.931C125.506 181.931 126.274 181.723 126.994 181.307C127.73 180.891 128.242 180.347 128.53 179.675L129.946 180.059C129.69 180.651 129.298 181.187 128.77 181.667C128.242 182.147 127.618 182.523 126.898 182.795C126.194 183.051 125.434 183.179 124.618 183.179ZM120.01 176.099H129.25C129.186 175.187 128.938 174.387 128.506 173.699C128.09 173.011 127.538 172.475 126.85 172.091C126.178 171.691 125.434 171.491 124.618 171.491C123.802 171.491 123.058 171.691 122.386 172.091C121.714 172.475 121.162 173.019 120.73 173.723C120.314 174.411 120.074 175.203 120.01 176.099ZM139.688 183.179C138.648 183.179 137.712 182.907 136.88 182.363C136.064 181.819 135.416 181.147 134.936 180.347V188.051H133.304V170.435H134.768V172.859C135.264 172.075 135.928 171.443 136.76 170.963C137.592 170.467 138.48 170.219 139.424 170.219C140.288 170.219 141.08 170.403 141.8 170.771C142.52 171.123 143.144 171.603 143.672 172.211C144.2 172.819 144.608 173.515 144.896 174.299C145.2 175.067 145.352 175.867 145.352 176.699C145.352 177.867 145.112 178.947 144.632 179.939C144.168 180.915 143.512 181.699 142.664 182.291C141.816 182.883 140.824 183.179 139.688 183.179ZM139.232 181.739C139.92 181.739 140.536 181.603 141.08 181.331C141.624 181.043 142.088 180.659 142.472 180.179C142.872 179.699 143.176 179.163 143.384 178.571C143.592 177.963 143.696 177.339 143.696 176.699C143.696 176.027 143.576 175.387 143.336 174.779C143.112 174.171 142.784 173.635 142.352 173.171C141.92 172.707 141.424 172.339 140.864 172.067C140.304 171.795 139.696 171.659 139.04 171.659C138.624 171.659 138.192 171.739 137.744 171.899C137.296 172.059 136.864 172.291 136.448 172.595C136.048 172.883 135.712 173.211 135.44 173.579C135.168 173.947 135 174.339 134.936 174.755V178.595C135.192 179.187 135.536 179.723 135.968 180.203C136.4 180.667 136.896 181.043 137.456 181.331C138.032 181.603 138.624 181.739 139.232 181.739ZM153.54 183.179C152.628 183.179 151.788 183.011 151.02 182.675C150.268 182.323 149.604 181.843 149.028 181.235C148.468 180.627 148.028 179.931 147.708 179.147C147.404 178.363 147.252 177.531 147.252 176.651C147.252 175.467 147.516 174.387 148.044 173.411C148.572 172.435 149.308 171.659 150.252 171.083C151.196 170.507 152.284 170.219 153.516 170.219C154.684 170.219 155.716 170.491 156.612 171.035C157.508 171.563 158.172 172.283 158.604 173.195L157.02 173.699C156.668 173.059 156.172 172.563 155.532 172.211C154.908 171.843 154.212 171.659 153.444 171.659C152.612 171.659 151.852 171.875 151.164 172.307C150.476 172.739 149.924 173.331 149.508 174.083C149.108 174.835 148.908 175.691 148.908 176.651C148.908 177.595 149.116 178.451 149.532 179.219C149.948 179.987 150.5 180.603 151.188 181.067C151.876 181.515 152.636 181.739 153.468 181.739C154.012 181.739 154.532 181.643 155.028 181.451C155.54 181.259 155.98 181.003 156.348 180.683C156.732 180.347 156.988 179.987 157.116 179.603L158.724 180.083C158.5 180.675 158.124 181.211 157.596 181.691C157.084 182.155 156.476 182.523 155.772 182.795C155.084 183.051 154.34 183.179 153.54 183.179ZM160.28 179.339C160.28 178.555 160.504 177.883 160.952 177.323C161.4 176.747 162.016 176.307 162.8 176.003C163.6 175.683 164.52 175.523 165.56 175.523C166.168 175.523 166.8 175.571 167.456 175.667C168.112 175.763 168.696 175.907 169.208 176.099V175.043C169.208 173.987 168.896 173.147 168.272 172.523C167.648 171.899 166.784 171.587 165.68 171.587C165.008 171.587 164.344 171.715 163.688 171.971C163.048 172.211 162.376 172.571 161.672 173.051L161.048 171.899C161.864 171.339 162.664 170.923 163.448 170.651C164.232 170.363 165.032 170.219 165.848 170.219C167.384 170.219 168.6 170.659 169.496 171.539C170.392 172.419 170.84 173.635 170.84 175.187V180.971C170.84 181.195 170.888 181.363 170.984 181.475C171.08 181.571 171.232 181.627 171.44 181.643V182.939C171.264 182.955 171.112 182.971 170.984 182.987C170.856 183.003 170.76 183.003 170.696 182.987C170.296 182.971 169.992 182.843 169.784 182.603C169.576 182.363 169.464 182.107 169.448 181.835L169.424 180.923C168.864 181.643 168.136 182.203 167.24 182.603C166.344 182.987 165.432 183.179 164.504 183.179C163.704 183.179 162.976 183.011 162.32 182.675C161.68 182.323 161.176 181.859 160.808 181.283C160.456 180.691 160.28 180.043 160.28 179.339ZM168.656 180.299C168.832 180.075 168.968 179.859 169.064 179.651C169.16 179.443 169.208 179.259 169.208 179.099V177.275C168.664 177.067 168.096 176.907 167.504 176.795C166.928 176.683 166.344 176.627 165.752 176.627C164.584 176.627 163.64 176.859 162.92 177.323C162.2 177.787 161.84 178.419 161.84 179.219C161.84 179.683 161.96 180.123 162.2 180.539C162.44 180.939 162.792 181.275 163.256 181.547C163.72 181.803 164.264 181.931 164.888 181.931C165.672 181.931 166.4 181.779 167.072 181.475C167.76 181.171 168.288 180.779 168.656 180.299ZM173.166 183.011V181.523C173.598 181.523 173.982 181.411 174.318 181.187C174.654 180.947 174.95 180.547 175.206 179.987C175.478 179.427 175.694 178.659 175.854 177.683C176.014 176.691 176.118 175.435 176.166 173.915L176.31 170.435H184.422V182.939H182.79V171.899H177.75L177.702 174.059C177.638 175.787 177.502 177.235 177.294 178.403C177.086 179.555 176.79 180.467 176.406 181.139C176.038 181.811 175.582 182.291 175.038 182.579C174.494 182.867 173.87 183.011 173.166 183.011ZM188.006 182.939V170.435H189.638V174.851H192.878C194.302 174.851 195.374 175.219 196.094 175.955C196.83 176.675 197.198 177.627 197.198 178.811C197.198 179.579 197.038 180.275 196.718 180.899C196.398 181.523 195.926 182.019 195.302 182.387C194.694 182.755 193.926 182.939 192.998 182.939H188.006ZM189.638 181.643H192.782C193.438 181.643 193.966 181.515 194.366 181.259C194.766 180.987 195.062 180.643 195.254 180.227C195.446 179.795 195.542 179.331 195.542 178.835C195.542 178.355 195.454 177.915 195.278 177.515C195.118 177.099 194.83 176.771 194.414 176.531C194.014 176.275 193.454 176.147 192.734 176.147H189.638V181.643ZM199.725 182.939V170.435H201.357V175.811H208.509V170.435H210.141V182.939H208.509V177.275H201.357V182.939H199.725ZM213.717 182.939V170.435H215.349V174.851H218.181C219.605 174.851 220.677 175.219 221.397 175.955C222.133 176.675 222.501 177.627 222.501 178.811C222.501 179.579 222.341 180.275 222.021 180.899C221.701 181.523 221.229 182.019 220.605 182.387C219.997 182.755 219.229 182.939 218.301 182.939H213.717ZM215.349 181.643H218.085C218.741 181.643 219.269 181.515 219.669 181.259C220.069 180.987 220.365 180.643 220.557 180.227C220.749 179.795 220.845 179.331 220.845 178.835C220.845 178.355 220.757 177.915 220.581 177.515C220.421 177.099 220.133 176.771 219.717 176.531C219.317 176.275 218.757 176.147 218.037 176.147H215.349V181.643ZM224.781 182.939V170.459H226.413V182.939H224.781ZM229.983 182.939V170.459H231.615V180.731L239.223 170.435H240.687V182.939H239.055V172.835L231.567 182.939H229.983ZM235.359 168.851C234.271 168.851 233.431 168.595 232.839 168.083C232.247 167.571 231.951 166.923 231.951 166.139H233.151C233.151 166.619 233.327 167.019 233.679 167.339C234.047 167.659 234.607 167.819 235.359 167.819C236.095 167.819 236.631 167.667 236.967 167.363C237.319 167.059 237.519 166.651 237.567 166.139H238.743C238.743 166.923 238.447 167.571 237.855 168.083C237.263 168.595 236.431 168.851 235.359 168.851ZM91.5365 211.179C90.6245 211.179 89.7845 211.011 89.0165 210.675C88.2645 210.323 87.6005 209.843 87.0245 209.235C86.4645 208.627 86.0245 207.931 85.7045 207.147C85.4005 206.363 85.2485 205.531 85.2485 204.651C85.2485 203.467 85.5125 202.387 86.0405 201.411C86.5685 200.435 87.3045 199.659 88.2485 199.083C89.1925 198.507 90.2805 198.219 91.5125 198.219C92.6805 198.219 93.7125 198.491 94.6085 199.035C95.5045 199.563 96.1685 200.283 96.6005 201.195L95.0165 201.699C94.6645 201.059 94.1685 200.563 93.5285 200.211C92.9045 199.843 92.2085 199.659 91.4405 199.659C90.6085 199.659 89.8485 199.875 89.1605 200.307C88.4725 200.739 87.9205 201.331 87.5045 202.083C87.1045 202.835 86.9045 203.691 86.9045 204.651C86.9045 205.595 87.1125 206.451 87.5285 207.219C87.9445 207.987 88.4965 208.603 89.1845 209.067C89.8725 209.515 90.6325 209.739 91.4645 209.739C92.0085 209.739 92.5285 209.643 93.0245 209.451C93.5365 209.259 93.9765 209.003 94.3445 208.683C94.7285 208.347 94.9845 207.987 95.1125 207.603L96.7205 208.083C96.4965 208.675 96.1205 209.211 95.5925 209.691C95.0805 210.155 94.4725 210.523 93.7685 210.795C93.0805 211.051 92.3365 211.179 91.5365 211.179ZM104.567 211.179C103.671 211.179 102.839 211.011 102.071 210.675C101.303 210.323 100.639 209.851 100.079 209.259C99.5192 208.651 99.0792 207.955 98.7592 207.171C98.4552 206.387 98.3032 205.547 98.3032 204.651C98.3032 203.483 98.5672 202.411 99.0952 201.435C99.6392 200.459 100.383 199.683 101.327 199.107C102.271 198.515 103.343 198.219 104.543 198.219C105.775 198.219 106.847 198.515 107.759 199.107C108.687 199.699 109.415 200.483 109.943 201.459C110.471 202.419 110.735 203.475 110.735 204.627C110.735 204.755 110.735 204.883 110.735 205.011C110.735 205.123 110.727 205.211 110.711 205.275H100.007C100.087 206.171 100.335 206.971 100.751 207.675C101.183 208.363 101.735 208.915 102.407 209.331C103.095 209.731 103.839 209.931 104.639 209.931C105.455 209.931 106.223 209.723 106.943 209.307C107.679 208.891 108.191 208.347 108.479 207.675L109.895 208.059C109.639 208.651 109.247 209.187 108.719 209.667C108.191 210.147 107.567 210.523 106.847 210.795C106.143 211.051 105.383 211.179 104.567 211.179ZM99.9592 204.099H109.199C109.135 203.187 108.887 202.387 108.455 201.699C108.039 201.011 107.487 200.475 106.799 200.091C106.127 199.691 105.383 199.491 104.567 199.491C103.751 199.491 103.007 199.691 102.335 200.091C101.663 200.475 101.111 201.019 100.679 201.723C100.263 202.411 100.023 203.203 99.9592 204.099ZM119.637 211.179C118.597 211.179 117.661 210.907 116.829 210.363C116.013 209.819 115.365 209.147 114.885 208.347V216.051H113.253V198.435H114.717V200.859C115.213 200.075 115.877 199.443 116.709 198.963C117.541 198.467 118.429 198.219 119.373 198.219C120.237 198.219 121.029 198.403 121.749 198.771C122.469 199.123 123.093 199.603 123.621 200.211C124.149 200.819 124.557 201.515 124.845 202.299C125.149 203.067 125.301 203.867 125.301 204.699C125.301 205.867 125.061 206.947 124.581 207.939C124.117 208.915 123.461 209.699 122.613 210.291C121.765 210.883 120.773 211.179 119.637 211.179ZM119.181 209.739C119.869 209.739 120.485 209.603 121.029 209.331C121.573 209.043 122.037 208.659 122.421 208.179C122.821 207.699 123.125 207.163 123.333 206.571C123.541 205.963 123.645 205.339 123.645 204.699C123.645 204.027 123.525 203.387 123.285 202.779C123.061 202.171 122.733 201.635 122.301 201.171C121.869 200.707 121.373 200.339 120.813 200.067C120.253 199.795 119.645 199.659 118.989 199.659C118.573 199.659 118.141 199.739 117.693 199.899C117.245 200.059 116.813 200.291 116.397 200.595C115.997 200.883 115.661 201.211 115.389 201.579C115.117 201.947 114.949 202.339 114.885 202.755V206.595C115.141 207.187 115.485 207.723 115.917 208.203C116.349 208.667 116.845 209.043 117.405 209.331C117.981 209.603 118.573 209.739 119.181 209.739ZM131.186 210.939V199.899H126.722V198.435H137.282V199.899H132.818V210.939H131.186ZM139.479 210.939V198.459H141.111V208.731L148.719 198.435H150.183V210.939H148.551V200.835L141.063 210.939H139.479ZM159.513 216.051V210.939H158.961C157.729 210.939 156.657 210.651 155.745 210.075C154.833 209.499 154.129 208.747 153.633 207.819C153.137 206.875 152.889 205.843 152.889 204.723C152.889 203.587 153.137 202.547 153.633 201.603C154.145 200.659 154.857 199.899 155.769 199.323C156.681 198.747 157.745 198.459 158.961 198.459H159.513V193.419H161.145V198.459H161.697C162.913 198.459 163.977 198.747 164.889 199.323C165.801 199.899 166.505 200.659 167.001 201.603C167.513 202.547 167.769 203.587 167.769 204.723C167.769 205.843 167.521 206.875 167.025 207.819C166.529 208.747 165.825 209.499 164.913 210.075C164.001 210.651 162.929 210.939 161.697 210.939H161.145V216.051H159.513ZM158.961 209.571H159.561V199.827H158.961C158.097 199.827 157.329 200.051 156.657 200.499C155.985 200.931 155.457 201.523 155.073 202.275C154.689 203.011 154.497 203.835 154.497 204.747C154.497 205.643 154.681 206.459 155.049 207.195C155.433 207.931 155.961 208.515 156.633 208.947C157.305 209.363 158.081 209.571 158.961 209.571ZM161.073 209.571H161.697C162.577 209.571 163.353 209.363 164.025 208.947C164.697 208.515 165.217 207.931 165.585 207.195C165.969 206.459 166.161 205.643 166.161 204.747C166.161 203.835 165.969 203.011 165.585 202.275C165.201 201.523 164.673 200.931 164.001 200.499C163.345 200.051 162.577 199.827 161.697 199.827H161.073V209.571ZM170.487 210.939V198.459H172.119V208.731L179.727 198.435H181.191V210.939H179.559V200.835L172.071 210.939H170.487ZM184.737 210.939V198.435H186.369V203.787H188.241L192.441 198.435H194.313L189.537 204.507L194.913 210.939H192.993L188.241 205.299H186.369V210.939H184.737ZM196.175 207.339C196.175 206.555 196.399 205.883 196.847 205.323C197.295 204.747 197.911 204.307 198.695 204.003C199.495 203.683 200.415 203.523 201.455 203.523C202.063 203.523 202.695 203.571 203.351 203.667C204.007 203.763 204.591 203.907 205.103 204.099V203.043C205.103 201.987 204.791 201.147 204.167 200.523C203.543 199.899 202.679 199.587 201.575 199.587C200.903 199.587 200.239 199.715 199.583 199.971C198.943 200.211 198.271 200.571 197.567 201.051L196.943 199.899C197.759 199.339 198.559 198.923 199.343 198.651C200.127 198.363 200.927 198.219 201.743 198.219C203.279 198.219 204.495 198.659 205.391 199.539C206.287 200.419 206.735 201.635 206.735 203.187V208.971C206.735 209.195 206.783 209.363 206.879 209.475C206.975 209.571 207.127 209.627 207.335 209.643V210.939C207.159 210.955 207.007 210.971 206.879 210.987C206.751 211.003 206.655 211.003 206.591 210.987C206.191 210.971 205.887 210.843 205.679 210.603C205.471 210.363 205.359 210.107 205.343 209.835L205.319 208.923C204.759 209.643 204.031 210.203 203.135 210.603C202.239 210.987 201.327 211.179 200.399 211.179C199.599 211.179 198.871 211.011 198.215 210.675C197.575 210.323 197.071 209.859 196.703 209.283C196.351 208.691 196.175 208.043 196.175 207.339ZM204.551 208.299C204.727 208.075 204.863 207.859 204.959 207.651C205.055 207.443 205.103 207.259 205.103 207.099V205.275C204.559 205.067 203.991 204.907 203.399 204.795C202.823 204.683 202.239 204.627 201.647 204.627C200.479 204.627 199.535 204.859 198.815 205.323C198.095 205.787 197.735 206.419 197.735 207.219C197.735 207.683 197.855 208.123 198.095 208.539C198.335 208.939 198.687 209.275 199.151 209.547C199.615 209.803 200.159 209.931 200.783 209.931C201.567 209.931 202.295 209.779 202.967 209.475C203.655 209.171 204.183 208.779 204.551 208.299ZM213.17 210.939V199.899H208.706V198.435H219.266V199.899H214.802V210.939H213.17Z" fill="white"/>
</svg>
