<svg width="304" height="307" viewBox="0 0 304 307" fill="none" xmlns="http://www.w3.org/2000/svg">
<path d="M299.958 156.516C299.092 155.647 298.514 154.778 297.648 153.909C294.473 151.013 290.72 147.827 287.833 145.51C284.946 143.192 282.925 141.744 282.925 141.744C278.883 144.641 278.306 149.565 279.46 153.909C280.038 156.516 281.193 158.833 282.925 160.282C285.234 162.599 288.121 164.916 291.297 168.102C294.184 171.288 297.071 174.764 299.669 178.819C301.979 176.212 304 172.157 304 168.102C304 164.047 302.845 159.702 299.958 156.516Z" fill="white"/>
<path d="M287.833 175.342C284.946 171.867 282.636 169.26 282.636 169.26C279.172 170.998 277.151 174.184 276.862 177.949C276.862 179.687 276.573 181.425 276.862 183.163C277.151 184.901 277.728 186.349 278.594 187.797C280.327 190.404 282.925 193.59 284.946 197.066C286.967 200.542 289.276 204.886 291.008 209.521C293.895 207.493 296.205 203.728 297.648 199.673C298.515 195.618 298.226 190.983 296.205 187.218C294.184 183.452 290.72 178.818 287.833 175.342Z" fill="white"/>
<path d="M283.794 209.809C282.639 207.492 281.484 205.175 280.329 203.148C278.308 199.093 276.287 196.196 276.287 196.196C272.534 197.065 269.936 199.962 269.07 203.437C267.626 206.623 267.626 210.389 268.781 213.575C269.359 215.023 270.225 216.761 270.802 218.499C271.668 220.237 272.246 221.975 272.823 224.002C274.267 228.057 275.421 232.402 276.287 237.615C279.463 236.167 282.639 232.981 284.66 229.505C285.814 227.767 286.392 225.45 286.392 223.423C286.681 221.395 286.392 219.078 285.814 217.051C285.526 214.444 284.66 212.127 283.794 209.809Z" fill="white"/>
<path d="M269.644 239.644C269.355 237.617 268.777 235.3 268.489 233.272C267.911 231.245 267.334 228.927 266.757 227.189C265.602 223.714 264.736 221.107 264.736 221.107C259.828 221.107 256.652 224.872 254.92 228.927C253.765 231.245 253.476 234.141 254.054 236.458C254.92 239.644 255.497 243.12 256.075 247.465C256.652 251.52 257.23 256.444 256.652 261.368C260.116 260.788 263.581 258.181 266.468 254.995C267.911 253.258 269.066 251.52 269.644 249.492C270.221 247.465 270.51 245.147 270.221 243.12C270.221 241.961 269.932 240.803 269.644 239.644Z" fill="white"/>
<path d="M248.568 243.12C244.815 242.541 241.639 244.279 239.041 246.596C236.443 248.913 234.999 252.678 234.999 255.864C234.999 259.05 234.999 262.816 234.71 267.16C234.71 269.188 234.422 271.505 234.133 273.822C233.844 276.139 233.267 278.457 232.401 280.774C234.133 280.774 236.154 280.484 237.886 279.905C239.618 279.036 241.639 278.167 243.083 276.719C246.258 274.112 248.857 270.347 249.145 266.002C249.434 261.657 249.723 255.864 249.434 251.52C249.145 246.596 248.568 243.12 248.568 243.12Z" fill="white"/>
<path d="M217.675 262.815C216.232 263.684 214.788 265.132 213.922 266.58C213.056 268.029 212.19 269.477 211.613 270.925C210.169 277.008 208.726 286.276 203.818 294.676C210.747 296.703 220.851 291.78 223.738 283.669C224.893 279.325 226.336 273.822 226.914 269.187C227.202 266.87 227.491 264.843 227.491 263.394C227.491 261.946 227.78 261.077 227.78 261.077C224.315 260.208 220.562 260.788 217.675 262.815Z" fill="white"/>
<path d="M191.412 275.56C189.391 277.008 187.081 278.746 186.215 280.773C184.772 283.67 183.328 287.145 181.308 290.911C179.287 294.676 176.688 298.441 173.513 302.207C175.245 303.076 176.977 303.365 178.998 303.655C181.019 303.945 183.04 303.655 185.061 303.076C189.102 301.917 192.855 299.31 195.165 295.835C195.742 294.966 196.32 293.807 196.897 292.649C198.918 288.594 200.65 284.249 201.805 280.773C202.382 279.035 202.96 277.587 203.249 276.428C203.537 275.27 203.826 274.691 203.826 274.691C200.073 272.373 195.165 272.953 191.412 275.56Z" fill="white"/>
<path d="M168.016 280.195C166.284 280.484 164.552 281.353 163.108 281.933C161.665 282.802 160.221 283.67 159.355 285.119C157.334 287.726 155.314 290.912 152.427 294.098C149.828 297.284 146.364 300.47 142.611 303.656C145.498 305.683 149.54 307.132 153.87 306.842C158.201 306.552 162.242 304.815 165.129 301.628C166.573 300.18 168.016 298.153 169.748 295.836C171.192 293.808 172.635 291.491 174.079 289.753C176.677 285.988 178.121 282.802 178.121 282.802C174.945 280.195 171.481 279.326 168.016 280.195Z" fill="white"/>
<path d="M150.414 285.698C148.393 282.222 144.928 280.774 141.175 280.774C140.309 280.774 139.443 280.774 138.577 281.064C137.711 281.064 136.845 281.353 135.979 281.643C134.247 282.222 132.803 282.802 131.648 283.96C129.339 285.988 126.452 288.884 122.987 291.491C119.812 294.098 115.77 296.705 111.439 298.732C113.749 301.339 117.502 303.366 121.833 304.235C126.163 304.815 130.494 303.946 133.958 301.629C137.422 299.311 141.753 294.967 144.928 291.781C148.104 288.305 150.414 285.698 150.414 285.698Z" fill="white"/>
<path d="M122.986 282.511C121.254 277.877 116.923 275.849 112.593 275.559C109.995 275.27 107.396 275.559 105.375 277.008C99.6015 280.483 92.0954 284.538 82.5684 287.145C84.3005 290.331 87.7649 292.938 91.518 294.676C95.5598 296.124 100.179 296.124 103.932 294.676C105.087 294.097 105.953 293.807 107.108 293.228C110.861 291.49 115.191 288.593 118.078 286.566C120.965 283.959 122.986 282.511 122.986 282.511Z" fill="white"/>
<path d="M97.2938 273.533C96.7164 269.478 94.1181 266.871 90.9424 265.422C87.7668 263.685 84.0137 263.395 81.1267 264.264C77.951 265.422 74.4867 266.581 70.4449 267.45C66.4031 268.319 61.784 269.188 56.5874 269.478C57.7422 272.953 60.3405 276.139 63.8048 278.457C67.2692 281.063 71.8884 281.932 75.9301 281.063C80.2606 280.194 85.4572 278.457 89.7876 276.719C94.1181 274.981 97.2938 273.533 97.2938 273.533Z" fill="white"/>
<path d="M73.6161 259.339C73.6161 257.312 73.3274 255.574 72.4614 254.125C72.1727 253.256 71.5953 252.677 71.0179 252.098C70.4405 251.519 69.8631 250.65 69.2857 250.07C66.6874 247.753 62.9343 246.595 59.7587 246.884C56.583 247.174 52.8299 247.464 48.7881 247.753C44.7464 247.753 39.5498 248.043 34.9307 246.884C34.9307 250.65 37.2402 254.125 40.1272 257.312C41.5707 258.76 43.3029 260.208 45.3238 261.077C47.3447 261.946 49.3655 262.235 51.6751 262.235C56.0056 262.235 61.4908 261.656 66.11 261.077C70.1518 260.208 73.6161 259.339 73.6161 259.339Z" fill="white"/>
<path d="M53.4047 240.803C53.9821 238.486 53.6934 236.458 52.8273 234.141C51.9612 232.113 50.8064 230.376 49.0742 228.927C47.0533 227.19 44.455 226.031 42.4342 225.741C39.2585 225.452 35.5054 224.872 31.4636 224.293C29.4428 224.003 27.1332 223.424 24.8236 222.845C22.8027 222.266 20.4931 221.397 18.1835 220.528C17.8948 222.266 18.1835 224.293 18.4722 226.321C19.0496 228.348 19.9157 230.086 21.0705 231.824C22.2253 233.562 23.6688 235.3 25.401 236.458C26.2671 237.037 27.1332 237.617 27.9993 238.196C28.8654 238.486 30.0202 239.065 31.1749 239.065C32.3297 239.355 33.4845 239.355 34.6393 239.644C38.9698 240.224 43.5889 240.803 47.342 240.803C50.8064 240.803 53.4047 240.803 53.4047 240.803Z" fill="white"/>
<path d="M35.2205 217.922C36.6639 218.211 37.53 218.211 37.53 218.211C38.9735 214.736 38.9735 210.97 37.2413 207.784C36.3752 206.336 35.2205 204.888 33.777 203.729C32.6222 202.57 31.1787 201.701 29.7352 201.122C26.8482 199.964 23.0952 199.095 19.0534 197.357C18.1873 197.067 17.0325 196.488 15.8777 196.198C15.0116 195.619 13.8568 195.329 12.9907 194.75C10.9699 193.591 8.94898 192.433 6.9281 190.985C5.77331 194.171 5.48461 198.805 7.50549 202.57C9.23768 206.625 11.836 210.101 15.8777 211.839C19.9195 213.577 25.4047 215.315 29.7352 216.473C31.7561 217.053 33.777 217.632 35.2205 217.922Z" fill="white"/>
<path d="M19.3424 189.535C23.3841 191.562 26.5598 193.011 26.5598 193.011C31.7564 186.928 27.7146 177.949 22.8067 174.763C20.2085 173.025 16.7441 171.287 12.991 168.97C9.52664 166.653 6.06227 163.756 2.59789 159.991C1.7318 161.439 1.15441 163.467 0.577012 165.205C0.288314 167.232 -0.000383601 169.26 0.577012 171.287C1.4431 175.342 3.46399 179.397 6.92836 182.004C10.104 184.611 15.3006 187.507 19.3424 189.535Z" fill="white"/>
<path d="M6.35135 153.909C9.52702 156.805 13.2801 159.991 16.1671 162.309C19.054 164.626 21.0749 166.074 21.0749 166.074C25.1167 163.177 25.6941 158.254 24.5393 153.909C23.9619 151.302 22.8071 148.985 21.0749 147.537C18.7653 145.22 15.8784 142.902 12.7027 139.716C9.81572 136.53 6.92874 133.054 4.33047 128.999C2.02088 131.606 0 135.661 0 139.716C0 144.061 1.15479 148.406 4.04177 151.592C4.61916 152.171 5.48526 153.04 6.35135 153.909Z" fill="white"/>
<path d="M16.1628 132.476C19.0498 135.952 21.3593 138.559 21.3593 138.559C24.8237 136.821 26.8446 133.635 27.1333 129.869C27.1333 128.132 27.422 126.394 27.1333 124.656C26.8446 122.918 26.2672 121.47 25.4011 120.021C23.6689 117.415 21.0706 114.229 19.0498 110.753C17.0289 107.277 14.7193 102.932 12.9871 98.2981C10.1001 100.326 7.79056 104.091 6.34707 108.146C5.48098 112.201 5.76967 116.835 7.79056 120.601C9.81144 124.076 13.2758 129 16.1628 132.476Z" fill="white"/>
<path d="M20.2112 97.7173C21.366 100.034 22.5208 102.352 23.6755 104.379C25.6964 108.434 27.7173 111.331 27.7173 111.331C31.4704 110.462 34.0687 107.565 34.9348 104.089C36.3782 100.903 36.3782 97.138 35.2234 93.9519C34.6461 92.5037 33.78 90.7658 33.2026 89.0279C32.3365 87.2901 31.7591 85.5522 31.1817 83.5247C29.7382 79.4697 28.5834 75.125 27.7173 69.9114C24.5416 71.3596 21.366 74.5457 19.3451 78.0214C17.9016 80.6282 17.3242 82.6558 17.3242 84.6833C17.0355 86.7108 17.3242 89.0279 17.9016 91.0555C18.479 93.083 19.3451 95.4001 20.2112 97.7173Z" fill="white"/>
<path d="M34.3601 67.8839C34.6488 69.9114 35.2262 72.2286 35.5149 74.2561C36.0923 76.2836 36.6697 78.6008 37.2471 80.3386C38.4019 83.8144 39.2679 86.4212 39.2679 86.4212C44.1758 86.4212 47.3515 82.6558 49.0837 78.6008C50.2385 76.2836 50.5272 73.3871 49.9498 71.07C49.0837 67.8839 48.5063 64.4082 47.9289 60.0635C47.3515 56.0085 46.7741 51.0845 47.3515 46.1605C43.8871 46.7398 40.4227 49.3466 37.5358 52.5327C36.0923 54.2706 34.9375 56.0084 34.3601 58.036C33.7827 60.0635 33.494 62.3806 33.7827 64.4082C33.7827 65.5667 34.0714 66.7253 34.3601 67.8839Z" fill="white"/>
<path d="M55.4285 64.698C59.1816 65.2773 62.3573 63.5394 64.9556 61.2223C67.5539 58.9051 68.9973 55.1397 68.9973 51.9537C68.9973 48.7676 68.9973 45.0022 69.286 40.6575C69.286 38.63 69.5747 36.3128 69.8634 33.9957C70.1521 31.6785 70.7295 29.3613 71.5956 27.0442C69.8634 27.0442 67.8425 27.3338 66.1104 27.9131C64.3782 28.7821 62.3573 29.651 60.9138 31.0992C57.7381 33.706 55.1398 37.4714 54.8512 41.8161C54.5625 46.1607 54.2738 51.9537 54.5625 56.2983C54.8512 61.2223 55.4285 64.698 55.4285 64.698Z" fill="white"/>
<path d="M86.3183 45.0027C87.7618 44.1337 89.2053 42.6855 90.0714 41.2373C90.9375 39.7891 91.8035 38.3408 92.3809 36.8926C93.8244 30.8101 95.2679 21.5414 100.176 13.1417C93.247 11.1142 83.1426 16.0382 80.2556 24.1482C79.1008 28.4929 77.6574 33.9962 77.08 38.6305C76.7913 40.9476 76.5026 42.9752 76.5026 44.4234C76.5026 45.8716 76.2139 46.7405 76.2139 46.7405C79.6782 47.6095 83.4313 46.7405 86.3183 45.0027Z" fill="white"/>
<path d="M112.596 32.2574C114.617 30.8092 116.926 29.0713 117.792 27.0438C119.236 24.1474 120.679 20.6716 122.7 16.9062C124.721 13.1408 127.319 9.37546 130.495 5.61007C128.763 4.74114 127.031 4.45149 125.01 4.16185C122.989 3.8722 120.968 4.16185 118.947 4.74114C114.905 5.89972 111.152 8.50652 108.843 11.9823C108.265 12.8512 107.688 14.0098 107.11 15.1684C105.089 19.2234 103.357 23.5681 102.203 27.0438C101.625 28.7817 101.048 30.2299 100.759 31.3885C100.47 32.5471 100.182 33.1263 100.182 33.1263C103.935 35.4435 108.843 34.8642 112.596 32.2574Z" fill="white"/>
<path d="M135.979 27.6237C137.711 27.334 139.443 26.4651 140.887 25.8858C142.33 25.0169 143.774 24.1479 144.64 22.6997C146.661 20.0929 148.682 16.9068 151.569 13.7207C154.167 10.5346 157.631 7.34855 161.384 4.16245C158.497 2.13494 154.456 0.686714 150.125 0.976359C145.795 1.266 141.753 3.00387 138.866 6.18997C137.422 7.63819 135.979 9.66571 134.247 11.9829C132.803 14.0104 131.36 16.3275 129.916 18.0654C127.318 21.8308 125.875 25.0169 125.875 25.0169C129.05 27.334 132.515 28.203 135.979 27.6237Z" fill="white"/>
<path d="M153.583 22.121C155.604 25.5967 159.069 27.0449 162.822 27.0449C163.688 27.0449 164.554 27.0449 165.42 26.7553C166.286 26.7553 167.152 26.4656 168.018 26.176C169.751 25.5967 171.194 25.0174 172.349 23.8588C174.658 21.8313 177.545 18.9349 181.01 16.3281C184.185 13.7213 188.227 11.1145 192.558 9.08695C189.959 6.48015 186.206 4.45263 182.165 3.5837C177.834 3.00441 173.504 3.87334 170.039 6.1905C166.575 8.50766 162.244 12.8523 159.069 16.0384C155.893 19.5142 153.583 22.121 153.583 22.121Z" fill="white"/>
<path d="M181.013 25.3078C182.745 29.9421 187.076 31.9696 191.406 32.2592C194.005 32.5489 196.603 32.2592 198.624 30.811C204.398 27.3353 211.904 23.2803 221.431 20.6735C219.699 17.4874 216.234 14.8806 212.481 13.1427C208.439 11.6945 203.82 11.6945 200.067 13.1427C198.912 13.722 198.046 14.0116 196.892 14.5909C193.138 16.3288 188.808 19.2252 185.921 21.2527C183.034 23.5699 181.013 25.3078 181.013 25.3078Z" fill="white"/>
<path d="M206.708 33.9954C207.285 38.0504 209.884 40.6572 213.059 42.1055C216.235 43.8433 219.988 44.133 222.875 43.264C226.051 42.1055 229.515 40.9469 233.557 40.078C237.599 39.209 242.218 38.3401 247.414 38.0504C246.26 34.5747 243.661 31.3886 240.197 29.0714C236.733 26.4646 232.113 25.5957 228.072 26.4646C223.741 27.3336 218.545 29.0714 214.214 30.8093C209.884 32.5472 206.708 33.9954 206.708 33.9954Z" fill="white"/>
<path d="M235 57.4579C237.598 59.7751 241.351 60.9337 244.527 60.644C247.702 60.3544 251.455 60.0647 255.497 59.7751C259.539 59.7751 264.736 59.4854 269.355 60.644C269.355 56.8786 267.045 53.4029 264.158 50.2168C262.715 48.7686 260.982 47.3204 258.962 46.4514C256.941 45.5825 254.92 45.2928 252.61 45.2928C248.28 45.2928 242.795 45.8721 238.175 46.4514C233.556 47.3204 230.092 48.1893 230.092 48.1893C230.092 50.2168 230.38 51.9547 231.247 53.4029C231.535 54.2718 232.113 54.8511 232.69 55.4304C233.556 56.2994 234.134 56.8786 235 57.4579Z" fill="white"/>
<path d="M261.853 81.787C265.028 82.0766 268.781 82.6559 272.823 83.2352C274.844 83.5249 277.154 84.1042 279.463 84.6835C281.484 85.2627 283.794 86.1317 286.103 87.0006C286.392 85.2627 286.103 83.2352 285.814 81.2077C285.237 79.1802 284.371 77.4423 283.216 75.7045C282.061 73.9666 280.618 72.2287 278.886 71.0701C278.02 70.4908 277.154 69.9116 276.287 69.3323C275.421 69.0426 274.267 68.4633 273.112 68.4633C271.957 68.1737 270.802 68.1737 269.647 67.884C265.317 67.3048 260.698 66.7255 256.945 66.7255C253.192 66.7255 250.593 66.7255 250.593 66.7255C250.016 69.0426 250.305 71.0701 251.171 73.3873C252.037 75.4148 253.192 77.1527 254.924 78.6009C256.945 80.3388 259.543 81.4974 261.853 81.787Z" fill="white"/>
<path d="M268.777 89.6076C267.333 89.318 266.467 89.318 266.467 89.318C265.023 92.7937 265.023 96.5591 266.756 99.7452C267.622 101.193 268.777 102.642 270.22 103.8C271.375 104.959 272.818 105.828 274.262 106.407C277.149 107.566 280.902 108.435 284.944 110.172C285.81 110.462 286.964 111.041 288.119 111.331C288.985 111.91 290.14 112.2 291.006 112.779C293.027 113.938 295.048 115.096 297.069 116.545C298.224 113.359 298.512 108.724 296.492 104.959C294.759 100.904 292.161 97.428 288.119 95.6902C284.078 93.9523 278.592 92.2144 274.262 91.0559C272.241 90.4766 270.22 89.8973 268.777 89.6076Z" fill="white"/>
<path d="M284.65 117.991C280.608 115.964 277.432 114.515 277.432 114.515C272.236 120.598 276.277 129.577 281.185 132.763C283.784 134.501 287.248 136.239 291.001 138.556C294.465 140.873 297.93 143.77 301.394 147.535C302.26 146.087 302.838 144.059 303.415 142.321C303.704 140.294 303.992 138.266 303.415 136.239C302.549 132.184 300.528 128.129 297.064 125.522C293.888 122.915 288.691 120.019 284.65 117.991Z" fill="white"/>
<path d="M48.9495 148.239C47.9495 148.239 47.0695 147.939 46.3095 147.339C45.5495 146.739 45.1695 145.799 45.1695 144.519L45.2295 143.859C45.6695 139.739 46.1895 135.459 46.7895 131.019C47.4295 126.539 47.9695 123.099 48.4095 120.699L43.7295 122.019L43.0095 122.139C42.2495 122.139 41.6495 121.839 41.2095 121.239C40.7695 120.639 40.5495 119.959 40.5495 119.199L40.6095 118.659C40.6895 117.899 40.9295 117.279 41.3295 116.799C41.7295 116.319 42.4895 115.839 43.6095 115.359C44.7695 114.879 46.4895 114.359 48.7695 113.799L51.2895 113.199C52.2095 112.999 52.9695 112.899 53.5695 112.899C54.7295 112.899 55.5895 113.199 56.1495 113.799C56.7495 114.399 57.0495 115.239 57.0495 116.319C57.0495 116.799 56.9895 117.319 56.8695 117.879C56.2295 120.999 55.0095 129.879 53.2095 144.519C52.8895 146.999 51.4695 148.239 48.9495 148.239ZM75.108 148.239C71.188 148.239 68.148 146.959 65.988 144.399C63.868 141.839 62.808 138.179 62.808 133.419C62.808 129.379 63.428 125.819 64.668 122.739C65.948 119.619 67.708 117.199 69.948 115.479C72.228 113.759 74.868 112.899 77.868 112.899C81.788 112.899 84.808 114.179 86.928 116.739C89.088 119.299 90.168 122.959 90.168 127.719C90.168 131.759 89.528 135.339 88.248 138.459C87.008 141.539 85.248 143.939 82.968 145.659C80.728 147.379 78.108 148.239 75.108 148.239ZM75.708 141.519C77.868 141.519 79.568 140.319 80.808 137.919C82.048 135.519 82.668 132.259 82.668 128.139C82.668 125.379 82.208 123.279 81.288 121.839C80.368 120.359 79.028 119.619 77.268 119.619C75.108 119.619 73.408 120.839 72.168 123.279C70.928 125.679 70.308 128.939 70.308 133.059C70.308 135.819 70.748 137.919 71.628 139.359C72.548 140.799 73.908 141.519 75.708 141.519ZM107.686 148.239C103.766 148.239 100.726 146.959 98.5662 144.399C96.4462 141.839 95.3862 138.179 95.3862 133.419C95.3862 129.379 96.0062 125.819 97.2462 122.739C98.5262 119.619 100.286 117.199 102.526 115.479C104.806 113.759 107.446 112.899 110.446 112.899C114.366 112.899 117.386 114.179 119.506 116.739C121.666 119.299 122.746 122.959 122.746 127.719C122.746 131.759 122.106 135.339 120.826 138.459C119.586 141.539 117.826 143.939 115.546 145.659C113.306 147.379 110.686 148.239 107.686 148.239ZM108.286 141.519C110.446 141.519 112.146 140.319 113.386 137.919C114.626 135.519 115.246 132.259 115.246 128.139C115.246 125.379 114.786 123.279 113.866 121.839C112.946 120.359 111.606 119.619 109.846 119.619C107.686 119.619 105.986 120.839 104.746 123.279C103.506 125.679 102.886 128.939 102.886 133.059C102.886 135.819 103.326 137.919 104.206 139.359C105.126 140.799 106.486 141.519 108.286 141.519ZM156.143 148.239C152.223 148.239 149.183 146.959 147.023 144.399C144.903 141.839 143.843 138.179 143.843 133.419C143.843 129.379 144.463 125.819 145.703 122.739C146.983 119.619 148.743 117.199 150.983 115.479C153.263 113.759 155.903 112.899 158.903 112.899C162.823 112.899 165.843 114.179 167.963 116.739C170.123 119.299 171.203 122.959 171.203 127.719C171.203 131.759 170.563 135.339 169.283 138.459C168.043 141.539 166.283 143.939 164.003 145.659C161.763 147.379 159.143 148.239 156.143 148.239ZM156.743 141.519C158.903 141.519 160.603 140.319 161.843 137.919C163.083 135.519 163.703 132.259 163.703 128.139C163.703 125.379 163.243 123.279 162.323 121.839C161.403 120.359 160.063 119.619 158.303 119.619C156.143 119.619 154.443 120.839 153.203 123.279C151.963 125.679 151.343 128.939 151.343 133.059C151.343 135.819 151.783 137.919 152.663 139.359C153.583 140.799 154.943 141.519 156.743 141.519ZM188.721 148.239C184.801 148.239 181.761 146.959 179.601 144.399C177.481 141.839 176.421 138.179 176.421 133.419C176.421 129.379 177.041 125.819 178.281 122.739C179.561 119.619 181.321 117.199 183.561 115.479C185.841 113.759 188.481 112.899 191.481 112.899C195.401 112.899 198.421 114.179 200.541 116.739C202.701 119.299 203.781 122.959 203.781 127.719C203.781 131.759 203.141 135.339 201.861 138.459C200.621 141.539 198.861 143.939 196.581 145.659C194.341 147.379 191.721 148.239 188.721 148.239ZM189.321 141.519C191.481 141.519 193.181 140.319 194.421 137.919C195.661 135.519 196.281 132.259 196.281 128.139C196.281 125.379 195.821 123.279 194.901 121.839C193.981 120.359 192.641 119.619 190.881 119.619C188.721 119.619 187.021 120.839 185.781 123.279C184.541 125.679 183.921 128.939 183.921 133.059C183.921 135.819 184.361 137.919 185.241 139.359C186.161 140.799 187.521 141.519 189.321 141.519ZM221.299 148.239C217.379 148.239 214.339 146.959 212.179 144.399C210.059 141.839 208.999 138.179 208.999 133.419C208.999 129.379 209.619 125.819 210.859 122.739C212.139 119.619 213.899 117.199 216.139 115.479C218.419 113.759 221.059 112.899 224.059 112.899C227.979 112.899 230.999 114.179 233.119 116.739C235.279 119.299 236.359 122.959 236.359 127.719C236.359 131.759 235.719 135.339 234.439 138.459C233.199 141.539 231.439 143.939 229.159 145.659C226.919 147.379 224.299 148.239 221.299 148.239ZM221.899 141.519C224.059 141.519 225.759 140.319 226.999 137.919C228.239 135.519 228.859 132.259 228.859 128.139C228.859 125.379 228.399 123.279 227.479 121.839C226.559 120.359 225.219 119.619 223.459 119.619C221.299 119.619 219.599 120.839 218.359 123.279C217.119 125.679 216.499 128.939 216.499 133.059C216.499 135.819 216.939 137.919 217.819 139.359C218.739 140.799 220.099 141.519 221.899 141.519ZM267.978 123.639C267.978 125.959 267.318 128.099 265.998 130.059C264.718 132.019 262.798 133.599 260.238 134.799C257.718 135.999 254.658 136.639 251.058 136.719L250.758 139.179L258.138 139.119C258.658 139.119 259.058 139.299 259.338 139.659C259.658 139.979 259.818 140.379 259.818 140.859C259.818 141.459 259.618 141.999 259.218 142.479C258.818 142.919 258.278 143.119 257.598 143.079L250.338 143.019L250.158 144.639C249.918 147.039 248.618 148.239 246.258 148.239C243.938 148.239 242.778 147.219 242.778 145.179L242.898 143.019H240.978C240.458 143.019 240.058 142.879 239.778 142.599C239.498 142.279 239.358 141.899 239.358 141.459C239.358 140.899 239.558 140.379 239.958 139.899C240.358 139.419 240.878 139.179 241.518 139.179H243.378C243.578 137.979 243.718 137.159 243.798 136.719H241.578C241.058 136.719 240.658 136.579 240.378 136.299C240.138 136.019 240.018 135.659 240.018 135.219C240.018 134.619 240.258 134.059 240.738 133.539C241.218 133.019 241.818 132.759 242.538 132.759H244.458C244.538 132.239 244.698 131.259 244.938 129.819L246.078 123.159C246.198 122.439 246.438 120.919 246.798 118.599L245.718 119.019C245.478 119.139 245.238 119.199 244.998 119.199C244.478 119.199 244.058 119.019 243.738 118.659C243.418 118.299 243.258 117.839 243.258 117.279C243.258 116.239 243.858 115.359 245.058 114.639C246.098 113.999 247.418 113.499 249.018 113.139C250.618 112.739 252.278 112.539 253.998 112.539C258.718 112.539 262.218 113.539 264.498 115.539C266.818 117.539 267.978 120.239 267.978 123.639ZM260.658 123.879C260.658 121.879 260.158 120.379 259.158 119.379C258.198 118.339 256.518 117.739 254.118 117.579L253.518 121.359C253.438 121.639 253.378 121.939 253.338 122.259C253.298 122.539 253.258 122.799 253.218 123.039L252.078 129.699L251.658 132.579C254.738 132.139 256.998 131.159 258.438 129.639C259.918 128.119 260.658 126.199 260.658 123.879Z" fill="white"/>
<path d="M60.551 189.987V188.571H61.631C61.999 188.571 62.271 188.467 62.447 188.259C62.639 188.051 62.847 187.739 63.071 187.323L63.815 185.763L56.543 172.899H58.391L64.583 184.059L69.743 172.899H71.495L64.367 188.139C64.047 188.795 63.719 189.267 63.383 189.555C63.047 189.843 62.575 189.987 61.967 189.987H60.551ZM73.108 189.939V177.435H74.74V182.811H81.892V177.435H83.524V189.939H81.892V184.275H74.74V189.939H73.108ZM87.1002 189.939V177.459H88.7322V187.731L96.3402 177.435H97.8042V189.939H96.1722V179.835L88.6842 189.939H87.1002ZM101.35 189.939V177.435H107.59C108.294 177.435 108.886 177.587 109.366 177.891C109.846 178.179 110.206 178.555 110.446 179.019C110.702 179.483 110.83 179.979 110.83 180.507C110.83 181.179 110.67 181.787 110.35 182.331C110.03 182.859 109.566 183.259 108.958 183.531C109.678 183.739 110.262 184.115 110.71 184.659C111.158 185.203 111.382 185.859 111.382 186.627C111.382 187.299 111.214 187.883 110.878 188.379C110.558 188.875 110.11 189.259 109.534 189.531C108.974 189.803 108.326 189.939 107.59 189.939H101.35ZM102.91 188.763H107.542C107.958 188.763 108.334 188.659 108.67 188.451C109.022 188.227 109.294 187.939 109.486 187.587C109.694 187.235 109.798 186.867 109.798 186.483C109.798 186.067 109.702 185.691 109.51 185.355C109.318 185.003 109.062 184.723 108.742 184.515C108.422 184.307 108.054 184.203 107.638 184.203H102.91V188.763ZM102.91 183.075H107.158C107.574 183.075 107.942 182.963 108.262 182.739C108.582 182.515 108.83 182.227 109.006 181.875C109.182 181.523 109.27 181.155 109.27 180.771C109.27 180.195 109.078 179.691 108.694 179.259C108.326 178.827 107.846 178.611 107.254 178.611H102.91V183.075ZM119.618 190.179C118.722 190.179 117.89 190.011 117.122 189.675C116.354 189.323 115.69 188.851 115.13 188.259C114.57 187.651 114.13 186.955 113.81 186.171C113.506 185.387 113.354 184.547 113.354 183.651C113.354 182.483 113.618 181.411 114.146 180.435C114.69 179.459 115.434 178.683 116.378 178.107C117.322 177.515 118.394 177.219 119.594 177.219C120.826 177.219 121.898 177.515 122.81 178.107C123.738 178.699 124.466 179.483 124.994 180.459C125.522 181.419 125.786 182.475 125.786 183.627C125.786 183.755 125.786 183.883 125.786 184.011C125.786 184.123 125.778 184.211 125.762 184.275H115.058C115.138 185.171 115.386 185.971 115.802 186.675C116.234 187.363 116.786 187.915 117.458 188.331C118.146 188.731 118.89 188.931 119.69 188.931C120.506 188.931 121.274 188.723 121.994 188.307C122.73 187.891 123.242 187.347 123.53 186.675L124.946 187.059C124.69 187.651 124.298 188.187 123.77 188.667C123.242 189.147 122.618 189.523 121.898 189.795C121.194 190.051 120.434 190.179 119.618 190.179ZM115.01 183.099H124.25C124.186 182.187 123.938 181.387 123.506 180.699C123.09 180.011 122.538 179.475 121.85 179.091C121.178 178.691 120.434 178.491 119.618 178.491C118.802 178.491 118.058 178.691 117.386 179.091C116.714 179.475 116.162 180.019 115.73 180.723C115.314 181.411 115.074 182.203 115.01 183.099ZM134.688 190.179C133.648 190.179 132.712 189.907 131.88 189.363C131.064 188.819 130.416 188.147 129.936 187.347V195.051H128.304V177.435H129.768V179.859C130.264 179.075 130.928 178.443 131.76 177.963C132.592 177.467 133.48 177.219 134.424 177.219C135.288 177.219 136.08 177.403 136.8 177.771C137.52 178.123 138.144 178.603 138.672 179.211C139.2 179.819 139.608 180.515 139.896 181.299C140.2 182.067 140.352 182.867 140.352 183.699C140.352 184.867 140.112 185.947 139.632 186.939C139.168 187.915 138.512 188.699 137.664 189.291C136.816 189.883 135.824 190.179 134.688 190.179ZM134.232 188.739C134.92 188.739 135.536 188.603 136.08 188.331C136.624 188.043 137.088 187.659 137.472 187.179C137.872 186.699 138.176 186.163 138.384 185.571C138.592 184.963 138.696 184.339 138.696 183.699C138.696 183.027 138.576 182.387 138.336 181.779C138.112 181.171 137.784 180.635 137.352 180.171C136.92 179.707 136.424 179.339 135.864 179.067C135.304 178.795 134.696 178.659 134.04 178.659C133.624 178.659 133.192 178.739 132.744 178.899C132.296 179.059 131.864 179.291 131.448 179.595C131.048 179.883 130.712 180.211 130.44 180.579C130.168 180.947 130 181.339 129.936 181.755V185.595C130.192 186.187 130.536 186.723 130.968 187.203C131.4 187.667 131.896 188.043 132.456 188.331C133.032 188.603 133.624 188.739 134.232 188.739ZM148.54 190.179C147.628 190.179 146.788 190.011 146.02 189.675C145.268 189.323 144.604 188.843 144.028 188.235C143.468 187.627 143.028 186.931 142.708 186.147C142.404 185.363 142.252 184.531 142.252 183.651C142.252 182.467 142.516 181.387 143.044 180.411C143.572 179.435 144.308 178.659 145.252 178.083C146.196 177.507 147.284 177.219 148.516 177.219C149.684 177.219 150.716 177.491 151.612 178.035C152.508 178.563 153.172 179.283 153.604 180.195L152.02 180.699C151.668 180.059 151.172 179.563 150.532 179.211C149.908 178.843 149.212 178.659 148.444 178.659C147.612 178.659 146.852 178.875 146.164 179.307C145.476 179.739 144.924 180.331 144.508 181.083C144.108 181.835 143.908 182.691 143.908 183.651C143.908 184.595 144.116 185.451 144.532 186.219C144.948 186.987 145.5 187.603 146.188 188.067C146.876 188.515 147.636 188.739 148.468 188.739C149.012 188.739 149.532 188.643 150.028 188.451C150.54 188.259 150.98 188.003 151.348 187.683C151.732 187.347 151.988 186.987 152.116 186.603L153.724 187.083C153.5 187.675 153.124 188.211 152.596 188.691C152.084 189.155 151.476 189.523 150.772 189.795C150.084 190.051 149.34 190.179 148.54 190.179ZM155.28 186.339C155.28 185.555 155.504 184.883 155.952 184.323C156.4 183.747 157.016 183.307 157.8 183.003C158.6 182.683 159.52 182.523 160.56 182.523C161.168 182.523 161.8 182.571 162.456 182.667C163.112 182.763 163.696 182.907 164.208 183.099V182.043C164.208 180.987 163.896 180.147 163.272 179.523C162.648 178.899 161.784 178.587 160.68 178.587C160.008 178.587 159.344 178.715 158.688 178.971C158.048 179.211 157.376 179.571 156.672 180.051L156.048 178.899C156.864 178.339 157.664 177.923 158.448 177.651C159.232 177.363 160.032 177.219 160.848 177.219C162.384 177.219 163.6 177.659 164.496 178.539C165.392 179.419 165.84 180.635 165.84 182.187V187.971C165.84 188.195 165.888 188.363 165.984 188.475C166.08 188.571 166.232 188.627 166.44 188.643V189.939C166.264 189.955 166.112 189.971 165.984 189.987C165.856 190.003 165.76 190.003 165.696 189.987C165.296 189.971 164.992 189.843 164.784 189.603C164.576 189.363 164.464 189.107 164.448 188.835L164.424 187.923C163.864 188.643 163.136 189.203 162.24 189.603C161.344 189.987 160.432 190.179 159.504 190.179C158.704 190.179 157.976 190.011 157.32 189.675C156.68 189.323 156.176 188.859 155.808 188.283C155.456 187.691 155.28 187.043 155.28 186.339ZM163.656 187.299C163.832 187.075 163.968 186.859 164.064 186.651C164.16 186.443 164.208 186.259 164.208 186.099V184.275C163.664 184.067 163.096 183.907 162.504 183.795C161.928 183.683 161.344 183.627 160.752 183.627C159.584 183.627 158.64 183.859 157.92 184.323C157.2 184.787 156.84 185.419 156.84 186.219C156.84 186.683 156.96 187.123 157.2 187.539C157.44 187.939 157.792 188.275 158.256 188.547C158.72 188.803 159.264 188.931 159.888 188.931C160.672 188.931 161.4 188.779 162.072 188.475C162.76 188.171 163.288 187.779 163.656 187.299ZM168.166 190.011V188.523C168.598 188.523 168.982 188.411 169.318 188.187C169.654 187.947 169.95 187.547 170.206 186.987C170.478 186.427 170.694 185.659 170.854 184.683C171.014 183.691 171.118 182.435 171.166 180.915L171.31 177.435H179.422V189.939H177.79V178.899H172.75L172.702 181.059C172.638 182.787 172.502 184.235 172.294 185.403C172.086 186.555 171.79 187.467 171.406 188.139C171.038 188.811 170.582 189.291 170.038 189.579C169.494 189.867 168.87 190.011 168.166 190.011ZM183.006 189.939V177.435H184.638V181.851H187.878C189.302 181.851 190.374 182.219 191.094 182.955C191.83 183.675 192.198 184.627 192.198 185.811C192.198 186.579 192.038 187.275 191.718 187.899C191.398 188.523 190.926 189.019 190.302 189.387C189.694 189.755 188.926 189.939 187.998 189.939H183.006ZM184.638 188.643H187.782C188.438 188.643 188.966 188.515 189.366 188.259C189.766 187.987 190.062 187.643 190.254 187.227C190.446 186.795 190.542 186.331 190.542 185.835C190.542 185.355 190.454 184.915 190.278 184.515C190.118 184.099 189.83 183.771 189.414 183.531C189.014 183.275 188.454 183.147 187.734 183.147H184.638V188.643ZM194.725 189.939V177.435H196.357V182.811H203.509V177.435H205.141V189.939H203.509V184.275H196.357V189.939H194.725ZM208.717 189.939V177.435H210.349V181.851H213.181C214.605 181.851 215.677 182.219 216.397 182.955C217.133 183.675 217.501 184.627 217.501 185.811C217.501 186.579 217.341 187.275 217.021 187.899C216.701 188.523 216.229 189.019 215.605 189.387C214.997 189.755 214.229 189.939 213.301 189.939H208.717ZM210.349 188.643H213.085C213.741 188.643 214.269 188.515 214.669 188.259C215.069 187.987 215.365 187.643 215.557 187.227C215.749 186.795 215.845 186.331 215.845 185.835C215.845 185.355 215.757 184.915 215.581 184.515C215.421 184.099 215.133 183.771 214.717 183.531C214.317 183.275 213.757 183.147 213.037 183.147H210.349V188.643ZM219.781 189.939V177.459H221.413V189.939H219.781ZM224.983 189.939V177.459H226.615V187.731L234.223 177.435H235.687V189.939H234.055V179.835L226.567 189.939H224.983ZM230.359 175.851C229.271 175.851 228.431 175.595 227.839 175.083C227.247 174.571 226.951 173.923 226.951 173.139H228.151C228.151 173.619 228.327 174.019 228.679 174.339C229.047 174.659 229.607 174.819 230.359 174.819C231.095 174.819 231.631 174.667 231.967 174.363C232.319 174.059 232.519 173.651 232.567 173.139H233.743C233.743 173.923 233.447 174.571 232.855 175.083C232.263 175.595 231.431 175.851 230.359 175.851ZM86.5365 218.179C85.6245 218.179 84.7845 218.011 84.0165 217.675C83.2645 217.323 82.6005 216.843 82.0245 216.235C81.4645 215.627 81.0245 214.931 80.7045 214.147C80.4005 213.363 80.2485 212.531 80.2485 211.651C80.2485 210.467 80.5125 209.387 81.0405 208.411C81.5685 207.435 82.3045 206.659 83.2485 206.083C84.1925 205.507 85.2805 205.219 86.5125 205.219C87.6805 205.219 88.7125 205.491 89.6085 206.035C90.5045 206.563 91.1685 207.283 91.6005 208.195L90.0165 208.699C89.6645 208.059 89.1685 207.563 88.5285 207.211C87.9045 206.843 87.2085 206.659 86.4405 206.659C85.6085 206.659 84.8485 206.875 84.1605 207.307C83.4725 207.739 82.9205 208.331 82.5045 209.083C82.1045 209.835 81.9045 210.691 81.9045 211.651C81.9045 212.595 82.1125 213.451 82.5285 214.219C82.9445 214.987 83.4965 215.603 84.1845 216.067C84.8725 216.515 85.6325 216.739 86.4645 216.739C87.0085 216.739 87.5285 216.643 88.0245 216.451C88.5365 216.259 88.9765 216.003 89.3445 215.683C89.7285 215.347 89.9845 214.987 90.1125 214.603L91.7205 215.083C91.4965 215.675 91.1205 216.211 90.5925 216.691C90.0805 217.155 89.4725 217.523 88.7685 217.795C88.0805 218.051 87.3365 218.179 86.5365 218.179ZM99.5672 218.179C98.6712 218.179 97.8392 218.011 97.0712 217.675C96.3032 217.323 95.6392 216.851 95.0792 216.259C94.5192 215.651 94.0792 214.955 93.7592 214.171C93.4552 213.387 93.3032 212.547 93.3032 211.651C93.3032 210.483 93.5672 209.411 94.0952 208.435C94.6392 207.459 95.3832 206.683 96.3272 206.107C97.2712 205.515 98.3432 205.219 99.5432 205.219C100.775 205.219 101.847 205.515 102.759 206.107C103.687 206.699 104.415 207.483 104.943 208.459C105.471 209.419 105.735 210.475 105.735 211.627C105.735 211.755 105.735 211.883 105.735 212.011C105.735 212.123 105.727 212.211 105.711 212.275H95.0072C95.0872 213.171 95.3352 213.971 95.7512 214.675C96.1832 215.363 96.7352 215.915 97.4072 216.331C98.0952 216.731 98.8392 216.931 99.6392 216.931C100.455 216.931 101.223 216.723 101.943 216.307C102.679 215.891 103.191 215.347 103.479 214.675L104.895 215.059C104.639 215.651 104.247 216.187 103.719 216.667C103.191 217.147 102.567 217.523 101.847 217.795C101.143 218.051 100.383 218.179 99.5672 218.179ZM94.9592 211.099H104.199C104.135 210.187 103.887 209.387 103.455 208.699C103.039 208.011 102.487 207.475 101.799 207.091C101.127 206.691 100.383 206.491 99.5672 206.491C98.7512 206.491 98.0072 206.691 97.3352 207.091C96.6632 207.475 96.1112 208.019 95.6792 208.723C95.2632 209.411 95.0232 210.203 94.9592 211.099ZM114.637 218.179C113.597 218.179 112.661 217.907 111.829 217.363C111.013 216.819 110.365 216.147 109.885 215.347V223.051H108.253V205.435H109.717V207.859C110.213 207.075 110.877 206.443 111.709 205.963C112.541 205.467 113.429 205.219 114.373 205.219C115.237 205.219 116.029 205.403 116.749 205.771C117.469 206.123 118.093 206.603 118.621 207.211C119.149 207.819 119.557 208.515 119.845 209.299C120.149 210.067 120.301 210.867 120.301 211.699C120.301 212.867 120.061 213.947 119.581 214.939C119.117 215.915 118.461 216.699 117.613 217.291C116.765 217.883 115.773 218.179 114.637 218.179ZM114.181 216.739C114.869 216.739 115.485 216.603 116.029 216.331C116.573 216.043 117.037 215.659 117.421 215.179C117.821 214.699 118.125 214.163 118.333 213.571C118.541 212.963 118.645 212.339 118.645 211.699C118.645 211.027 118.525 210.387 118.285 209.779C118.061 209.171 117.733 208.635 117.301 208.171C116.869 207.707 116.373 207.339 115.813 207.067C115.253 206.795 114.645 206.659 113.989 206.659C113.573 206.659 113.141 206.739 112.693 206.899C112.245 207.059 111.813 207.291 111.397 207.595C110.997 207.883 110.661 208.211 110.389 208.579C110.117 208.947 109.949 209.339 109.885 209.755V213.595C110.141 214.187 110.485 214.723 110.917 215.203C111.349 215.667 111.845 216.043 112.405 216.331C112.981 216.603 113.573 216.739 114.181 216.739ZM126.186 217.939V206.899H121.722V205.435H132.282V206.899H127.818V217.939H126.186ZM134.479 217.939V205.459H136.111V215.731L143.719 205.435H145.183V217.939H143.551V207.835L136.063 217.939H134.479ZM154.513 223.051V217.939H153.961C152.729 217.939 151.657 217.651 150.745 217.075C149.833 216.499 149.129 215.747 148.633 214.819C148.137 213.875 147.889 212.843 147.889 211.723C147.889 210.587 148.137 209.547 148.633 208.603C149.145 207.659 149.857 206.899 150.769 206.323C151.681 205.747 152.745 205.459 153.961 205.459H154.513V200.419H156.145V205.459H156.697C157.913 205.459 158.977 205.747 159.889 206.323C160.801 206.899 161.505 207.659 162.001 208.603C162.513 209.547 162.769 210.587 162.769 211.723C162.769 212.843 162.521 213.875 162.025 214.819C161.529 215.747 160.825 216.499 159.913 217.075C159.001 217.651 157.929 217.939 156.697 217.939H156.145V223.051H154.513ZM153.961 216.571H154.561V206.827H153.961C153.097 206.827 152.329 207.051 151.657 207.499C150.985 207.931 150.457 208.523 150.073 209.275C149.689 210.011 149.497 210.835 149.497 211.747C149.497 212.643 149.681 213.459 150.049 214.195C150.433 214.931 150.961 215.515 151.633 215.947C152.305 216.363 153.081 216.571 153.961 216.571ZM156.073 216.571H156.697C157.577 216.571 158.353 216.363 159.025 215.947C159.697 215.515 160.217 214.931 160.585 214.195C160.969 213.459 161.161 212.643 161.161 211.747C161.161 210.835 160.969 210.011 160.585 209.275C160.201 208.523 159.673 207.931 159.001 207.499C158.345 207.051 157.577 206.827 156.697 206.827H156.073V216.571ZM165.487 217.939V205.459H167.119V215.731L174.727 205.435H176.191V217.939H174.559V207.835L167.071 217.939H165.487ZM179.737 217.939V205.435H181.369V210.787H183.241L187.441 205.435H189.313L184.537 211.507L189.913 217.939H187.993L183.241 212.299H181.369V217.939H179.737ZM191.175 214.339C191.175 213.555 191.399 212.883 191.847 212.323C192.295 211.747 192.911 211.307 193.695 211.003C194.495 210.683 195.415 210.523 196.455 210.523C197.063 210.523 197.695 210.571 198.351 210.667C199.007 210.763 199.591 210.907 200.103 211.099V210.043C200.103 208.987 199.791 208.147 199.167 207.523C198.543 206.899 197.679 206.587 196.575 206.587C195.903 206.587 195.239 206.715 194.583 206.971C193.943 207.211 193.271 207.571 192.567 208.051L191.943 206.899C192.759 206.339 193.559 205.923 194.343 205.651C195.127 205.363 195.927 205.219 196.743 205.219C198.279 205.219 199.495 205.659 200.391 206.539C201.287 207.419 201.735 208.635 201.735 210.187V215.971C201.735 216.195 201.783 216.363 201.879 216.475C201.975 216.571 202.127 216.627 202.335 216.643V217.939C202.159 217.955 202.007 217.971 201.879 217.987C201.751 218.003 201.655 218.003 201.591 217.987C201.191 217.971 200.887 217.843 200.679 217.603C200.471 217.363 200.359 217.107 200.343 216.835L200.319 215.923C199.759 216.643 199.031 217.203 198.135 217.603C197.239 217.987 196.327 218.179 195.399 218.179C194.599 218.179 193.871 218.011 193.215 217.675C192.575 217.323 192.071 216.859 191.703 216.283C191.351 215.691 191.175 215.043 191.175 214.339ZM199.551 215.299C199.727 215.075 199.863 214.859 199.959 214.651C200.055 214.443 200.103 214.259 200.103 214.099V212.275C199.559 212.067 198.991 211.907 198.399 211.795C197.823 211.683 197.239 211.627 196.647 211.627C195.479 211.627 194.535 211.859 193.815 212.323C193.095 212.787 192.735 213.419 192.735 214.219C192.735 214.683 192.855 215.123 193.095 215.539C193.335 215.939 193.687 216.275 194.151 216.547C194.615 216.803 195.159 216.931 195.783 216.931C196.567 216.931 197.295 216.779 197.967 216.475C198.655 216.171 199.183 215.779 199.551 215.299ZM208.17 217.939V206.899H203.706V205.435H214.266V206.899H209.802V217.939H208.17Z" fill="white"/>
</svg>
