<svg width="304" height="306" viewBox="0 0 304 306" fill="none" xmlns="http://www.w3.org/2000/svg">
<path d="M299.958 155.577C299.092 154.708 298.514 153.839 297.648 152.97C294.473 150.073 290.72 146.887 287.833 144.57C284.946 142.253 282.925 140.805 282.925 140.805C278.883 143.701 278.306 148.625 279.46 152.97C280.038 155.577 281.193 157.894 282.925 159.342C285.234 161.659 288.121 163.976 291.297 167.162C294.184 170.349 297.071 173.824 299.669 177.879C301.979 175.273 304 171.218 304 167.162C304 163.107 302.845 158.763 299.958 155.577Z" fill="white"/>
<path d="M287.833 174.403C284.946 170.927 282.636 168.32 282.636 168.32C279.172 170.058 277.151 173.244 276.862 177.01C276.862 178.748 276.573 180.486 276.862 182.223C277.151 183.961 277.728 185.409 278.594 186.858C280.327 189.464 282.925 192.651 284.946 196.126C286.967 199.602 289.276 203.947 291.008 208.581C293.895 206.554 296.205 202.788 297.648 198.733C298.515 194.678 298.226 190.044 296.205 186.278C294.184 182.513 290.72 177.879 287.833 174.403Z" fill="white"/>
<path d="M283.794 208.87C282.639 206.553 281.484 204.236 280.329 202.208C278.308 198.153 276.287 195.257 276.287 195.257C272.534 196.126 269.936 199.022 269.07 202.498C267.626 205.684 267.626 209.449 268.781 212.635C269.359 214.084 270.225 215.821 270.802 217.559C271.668 219.297 272.246 221.035 272.823 223.063C274.267 227.118 275.421 231.462 276.287 236.676C279.463 235.228 282.639 232.042 284.66 228.566C285.814 226.828 286.392 224.511 286.392 222.483C286.681 220.456 286.392 218.139 285.814 216.111C285.526 213.504 284.66 211.187 283.794 208.87Z" fill="white"/>
<path d="M269.644 238.705C269.355 236.677 268.777 234.36 268.489 232.333C267.911 230.305 267.334 227.988 266.757 226.25C265.602 222.774 264.736 220.167 264.736 220.167C259.828 220.167 256.652 223.933 254.92 227.988C253.765 230.305 253.476 233.202 254.054 235.519C254.92 238.705 255.497 242.18 256.075 246.525C256.652 250.58 257.23 255.504 256.652 260.428C260.116 259.849 263.581 257.242 266.468 254.056C267.911 252.318 269.066 250.58 269.644 248.553C270.221 246.525 270.51 244.208 270.221 242.18C270.221 241.022 269.932 239.863 269.644 238.705Z" fill="white"/>
<path d="M248.568 242.181C244.815 241.601 241.639 243.339 239.041 245.656C236.443 247.973 234.999 251.739 234.999 254.925C234.999 258.111 234.999 261.876 234.71 266.221C234.71 268.249 234.422 270.566 234.133 272.883C233.844 275.2 233.267 277.517 232.401 279.834C234.133 279.834 236.154 279.545 237.886 278.965C239.618 278.096 241.639 277.228 243.083 275.779C246.258 273.173 248.857 269.407 249.145 265.062C249.434 260.718 249.723 254.925 249.434 250.58C249.145 245.656 248.568 242.181 248.568 242.181Z" fill="white"/>
<path d="M217.675 261.876C216.232 262.745 214.788 264.193 213.922 265.641C213.056 267.089 212.19 268.537 211.613 269.986C210.169 276.068 208.726 285.337 203.818 293.737C210.747 295.764 220.851 290.84 223.738 282.73C224.893 278.385 226.336 272.882 226.914 268.248C227.202 265.931 227.491 263.903 227.491 262.455C227.491 261.007 227.78 260.138 227.78 260.138C224.315 259.269 220.562 259.848 217.675 261.876Z" fill="white"/>
<path d="M191.412 274.62C189.391 276.068 187.081 277.806 186.215 279.834C184.772 282.73 183.328 286.206 181.308 289.971C179.287 293.737 176.688 297.502 173.513 301.267C175.245 302.136 176.977 302.426 178.998 302.716C181.019 303.005 183.04 302.716 185.061 302.136C189.102 300.978 192.855 298.371 195.165 294.895C195.742 294.026 196.32 292.868 196.897 291.709C198.918 287.654 200.65 283.309 201.805 279.834C202.382 278.096 202.96 276.648 203.249 275.489C203.537 274.33 203.826 273.751 203.826 273.751C200.073 271.434 195.165 272.013 191.412 274.62Z" fill="white"/>
<path d="M168.016 279.255C166.284 279.545 164.552 280.414 163.108 280.993C161.665 281.862 160.221 282.731 159.355 284.179C157.334 286.786 155.314 289.972 152.427 293.158C149.828 296.344 146.364 299.53 142.611 302.717C145.498 304.744 149.54 306.192 153.87 305.903C158.201 305.613 162.242 303.875 165.129 300.689C166.573 299.241 168.016 297.213 169.748 294.896C171.192 292.869 172.635 290.551 174.079 288.814C176.677 285.048 178.121 281.862 178.121 281.862C174.945 279.255 171.481 278.386 168.016 279.255Z" fill="white"/>
<path d="M150.414 284.759C148.393 281.283 144.928 279.835 141.175 279.835C140.309 279.835 139.443 279.835 138.577 280.124C137.711 280.124 136.845 280.414 135.979 280.704C134.247 281.283 132.803 281.862 131.648 283.021C129.339 285.048 126.452 287.945 122.987 290.552C119.812 293.158 115.77 295.765 111.439 297.793C113.749 300.4 117.502 302.427 121.833 303.296C126.163 303.875 130.494 303.006 133.958 300.689C137.422 298.372 141.753 294.027 144.928 290.841C148.104 287.365 150.414 284.759 150.414 284.759Z" fill="white"/>
<path d="M122.986 281.571C121.254 276.937 116.923 274.91 112.593 274.62C109.995 274.33 107.396 274.62 105.375 276.068C99.6015 279.544 92.0954 283.599 82.5684 286.206C84.3005 289.392 87.7649 291.999 91.518 293.737C95.5598 295.185 100.179 295.185 103.932 293.737C105.087 293.157 105.953 292.868 107.108 292.288C110.861 290.55 115.191 287.654 118.078 285.626C120.965 283.02 122.986 281.571 122.986 281.571Z" fill="white"/>
<path d="M97.2938 272.593C96.7164 268.538 94.1181 265.931 90.9424 264.483C87.7668 262.745 84.0137 262.456 81.1267 263.324C77.951 264.483 74.4867 265.642 70.4449 266.511C66.4031 267.379 61.784 268.248 56.5874 268.538C57.7422 272.014 60.3405 275.2 63.8048 277.517C67.2692 280.124 71.8884 280.993 75.9301 280.124C80.2606 279.255 85.4572 277.517 89.7876 275.779C94.1181 274.041 97.2938 272.593 97.2938 272.593Z" fill="white"/>
<path d="M73.6161 258.4C73.6161 256.372 73.3274 254.634 72.4614 253.186C72.1727 252.317 71.5953 251.738 71.0179 251.158C70.4405 250.579 69.8631 249.71 69.2857 249.131C66.6874 246.814 62.9343 245.655 59.7587 245.945C56.583 246.235 52.8299 246.524 48.7881 246.814C44.7464 246.814 39.5498 247.103 34.9307 245.945C34.9307 249.71 37.2402 253.186 40.1272 256.372C41.5707 257.82 43.3029 259.269 45.3238 260.137C47.3447 261.006 49.3655 261.296 51.6751 261.296C56.0056 261.296 61.4908 260.717 66.11 260.137C70.1518 259.269 73.6161 258.4 73.6161 258.4Z" fill="white"/>
<path d="M53.4047 239.863C53.9821 237.546 53.6934 235.519 52.8273 233.202C51.9612 231.174 50.8064 229.436 49.0742 227.988C47.0533 226.25 44.455 225.091 42.4342 224.802C39.2585 224.512 35.5054 223.933 31.4636 223.354C29.4428 223.064 27.1332 222.485 24.8236 221.905C22.8027 221.326 20.4931 220.457 18.1835 219.588C17.8948 221.326 18.1835 223.354 18.4722 225.381C19.0496 227.409 19.9157 229.147 21.0705 230.884C22.2253 232.622 23.6688 234.36 25.401 235.519C26.2671 236.098 27.1332 236.677 27.9993 237.257C28.8654 237.546 30.0202 238.126 31.1749 238.126C32.3297 238.415 33.4845 238.415 34.6393 238.705C38.9698 239.284 43.5889 239.863 47.342 239.863C50.8064 239.863 53.4047 239.863 53.4047 239.863Z" fill="white"/>
<path d="M35.2205 216.982C36.6639 217.272 37.53 217.272 37.53 217.272C38.9735 213.796 38.9735 210.031 37.2413 206.845C36.3752 205.396 35.2205 203.948 33.777 202.79C32.6222 201.631 31.1787 200.762 29.7352 200.183C26.8482 199.024 23.0952 198.155 19.0534 196.417C18.1873 196.128 17.0325 195.548 15.8777 195.259C15.0116 194.68 13.8568 194.39 12.9907 193.811C10.9699 192.652 8.94898 191.493 6.9281 190.045C5.77331 193.231 5.48461 197.866 7.50549 201.631C9.23768 205.686 11.836 209.162 15.8777 210.9C19.9195 212.638 25.4047 214.375 29.7352 215.534C31.7561 216.113 33.777 216.693 35.2205 216.982Z" fill="white"/>
<path d="M19.3424 188.595C23.3841 190.623 26.5598 192.071 26.5598 192.071C31.7564 185.989 27.7146 177.01 22.8067 173.824C20.2085 172.086 16.7441 170.348 12.991 168.031C9.52664 165.713 6.06227 162.817 2.59789 159.052C1.7318 160.5 1.15441 162.527 0.577012 164.265C0.288314 166.293 -0.000383601 168.32 0.577012 170.348C1.4431 174.403 3.46399 178.458 6.92836 181.065C10.104 183.671 15.3006 186.568 19.3424 188.595Z" fill="white"/>
<path d="M6.35135 152.969C9.52702 155.866 13.2801 159.052 16.1671 161.369C19.054 163.686 21.0749 165.134 21.0749 165.134C25.1167 162.238 25.6941 157.314 24.5393 152.969C23.9619 150.363 22.8071 148.045 21.0749 146.597C18.7653 144.28 15.8784 141.963 12.7027 138.777C9.81572 135.591 6.92874 132.115 4.33047 128.06C2.02088 130.667 0 134.722 0 138.777C0 143.121 1.15479 147.466 4.04177 150.652C4.61916 151.232 5.48526 152.1 6.35135 152.969Z" fill="white"/>
<path d="M16.1628 131.537C19.0498 135.012 21.3593 137.619 21.3593 137.619C24.8237 135.881 26.8446 132.695 27.1333 128.93C27.1333 127.192 27.422 125.454 27.1333 123.716C26.8446 121.978 26.2672 120.53 25.4011 119.082C23.6689 116.475 21.0706 113.289 19.0498 109.813C17.0289 106.338 14.7193 101.993 12.9871 97.3586C10.1001 99.3861 7.79056 103.151 6.34707 107.207C5.48098 111.262 5.76967 115.896 7.79056 119.661C9.81144 123.137 13.2758 128.061 16.1628 131.537Z" fill="white"/>
<path d="M20.2112 96.7778C21.366 99.095 22.5208 101.412 23.6755 103.44C25.6964 107.495 27.7173 110.391 27.7173 110.391C31.4704 109.522 34.0687 106.626 34.9348 103.15C36.3782 99.9639 36.3782 96.1985 35.2234 93.0124C34.6461 91.5642 33.78 89.8264 33.2026 88.0885C32.3365 86.3506 31.7591 84.6127 31.1817 82.5852C29.7382 78.5302 28.5834 74.1855 27.7173 68.9719C24.5416 70.4201 21.366 73.6062 19.3451 77.082C17.9016 79.6888 17.3242 81.7163 17.3242 83.7438C17.0355 85.7713 17.3242 88.0885 17.9016 90.116C18.479 92.1435 19.3451 94.4607 20.2112 96.7778Z" fill="white"/>
<path d="M34.3601 66.9445C34.6488 68.972 35.2262 71.2892 35.5149 73.3167C36.0923 75.3442 36.6697 77.6614 37.2471 79.3992C38.4019 82.875 39.2679 85.4818 39.2679 85.4818C44.1758 85.4818 47.3515 81.7164 49.0837 77.6614C50.2385 75.3442 50.5272 72.4478 49.9498 70.1306C49.0837 66.9445 48.5063 63.4688 47.9289 59.1241C47.3515 55.0691 46.7741 50.1451 47.3515 45.2211C43.8871 45.8004 40.4227 48.4072 37.5358 51.5933C36.0923 53.3312 34.9375 55.0691 34.3601 57.0966C33.7827 59.1241 33.494 61.4412 33.7827 63.4688C33.7827 64.6273 34.0714 65.7859 34.3601 66.9445Z" fill="white"/>
<path d="M55.4285 63.7586C59.1816 64.3379 62.3573 62.6 64.9556 60.2828C67.5539 57.9657 68.9973 54.2003 68.9973 51.0142C68.9973 47.8281 68.9973 44.0627 69.286 39.718C69.286 37.6905 69.5747 35.3734 69.8634 33.0562C70.1521 30.7391 70.7295 28.4219 71.5956 26.1047C69.8634 26.1047 67.8425 26.3944 66.1104 26.9737C64.3782 27.8426 62.3573 28.7115 60.9138 30.1598C57.7381 32.7666 55.1398 36.532 54.8512 40.8766C54.5625 45.2213 54.2738 51.0142 54.5625 55.3589C54.8512 60.2828 55.4285 63.7586 55.4285 63.7586Z" fill="white"/>
<path d="M86.3183 44.0632C87.7618 43.1943 89.2053 41.7461 90.0714 40.2978C90.9375 38.8496 91.8035 37.4014 92.3809 35.9532C93.8244 29.8706 95.2679 20.602 100.176 12.2023C93.247 10.1748 83.1426 15.0987 80.2556 23.2088C79.1008 27.5535 77.6574 33.0567 77.08 37.691C76.7913 40.0082 76.5026 42.0357 76.5026 43.4839C76.5026 44.9322 76.2139 45.8011 76.2139 45.8011C79.6782 46.67 83.4313 45.8011 86.3183 44.0632Z" fill="white"/>
<path d="M112.596 31.318C114.617 29.8697 116.926 28.1319 117.792 26.1043C119.236 23.2079 120.679 19.7322 122.7 15.9668C124.721 12.2014 127.319 8.436 130.495 4.67062C128.763 3.80168 127.031 3.51204 125.01 3.22239C122.989 2.93275 120.968 3.22239 118.947 3.80168C114.905 4.96026 111.152 7.56707 108.843 11.0428C108.265 11.9117 107.688 13.0703 107.11 14.2289C105.089 18.2839 103.357 22.6286 102.203 26.1043C101.625 27.8422 101.048 29.2904 100.759 30.449C100.47 31.6076 100.182 32.1869 100.182 32.1869C103.935 34.504 108.843 33.9248 112.596 31.318Z" fill="white"/>
<path d="M135.979 26.6842C137.711 26.3946 139.443 25.5257 140.887 24.9464C142.33 24.0774 143.774 23.2085 144.64 21.7603C146.661 19.1535 148.682 15.9674 151.569 12.7813C154.167 9.59519 157.631 6.40909 161.384 3.223C158.497 1.19549 154.456 -0.252739 150.125 0.0369057C145.795 0.326551 141.753 2.06442 138.866 5.25051C137.422 6.69874 135.979 8.72625 134.247 11.0434C132.803 13.0709 131.36 15.3881 129.916 17.126C127.318 20.8913 125.875 24.0774 125.875 24.0774C129.05 26.3946 132.515 27.2635 135.979 26.6842Z" fill="white"/>
<path d="M153.583 21.1815C155.604 24.6573 159.069 26.1055 162.822 26.1055C163.688 26.1055 164.554 26.1055 165.42 25.8158C166.286 25.8158 167.152 25.5262 168.018 25.2366C169.751 24.6573 171.194 24.078 172.349 22.9194C174.658 20.8919 177.545 17.9954 181.01 15.3886C184.185 12.7818 188.227 10.175 192.558 8.1475C189.959 5.5407 186.206 3.51318 182.165 2.64425C177.834 2.06496 173.504 2.93389 170.039 5.25105C166.575 7.56821 162.244 11.9129 159.069 15.099C155.893 18.5747 153.583 21.1815 153.583 21.1815Z" fill="white"/>
<path d="M181.013 24.3683C182.745 29.0026 187.076 31.0301 191.406 31.3197C194.005 31.6094 196.603 31.3197 198.624 29.8715C204.398 26.3958 211.904 22.3407 221.431 19.7339C219.699 16.5478 216.234 13.941 212.481 12.2032C208.439 10.7549 203.82 10.7549 200.067 12.2032C198.912 12.7825 198.046 13.0721 196.892 13.6514C193.138 15.3893 188.808 18.2857 185.921 20.3132C183.034 22.6304 181.013 24.3683 181.013 24.3683Z" fill="white"/>
<path d="M206.708 33.056C207.285 37.111 209.884 39.7178 213.059 41.166C216.235 42.9039 219.988 43.1935 222.875 42.3246C226.051 41.166 229.515 40.0074 233.557 39.1385C237.599 38.2696 242.218 37.4006 247.414 37.111C246.26 33.6352 243.661 30.4492 240.197 28.132C236.733 25.5252 232.113 24.6563 228.072 25.5252C223.741 26.3941 218.545 28.132 214.214 29.8699C209.884 31.6077 206.708 33.056 206.708 33.056Z" fill="white"/>
<path d="M235 56.5185C237.598 58.8356 241.351 59.9942 244.527 59.7046C247.702 59.4149 251.455 59.1253 255.497 58.8356C259.539 58.8356 264.736 58.546 269.355 59.7046C269.355 55.9392 267.045 52.4635 264.158 49.2774C262.715 47.8291 260.982 46.3809 258.962 45.512C256.941 44.643 254.92 44.3534 252.61 44.3534C248.28 44.3534 242.795 44.9327 238.175 45.512C233.556 46.3809 230.092 47.2498 230.092 47.2498C230.092 49.2774 230.38 51.0152 231.247 52.4635C231.535 53.3324 232.113 53.9117 232.69 54.491C233.556 55.3599 234.134 55.9392 235 56.5185Z" fill="white"/>
<path d="M261.853 80.8476C265.028 81.1373 268.781 81.7165 272.823 82.2958C274.844 82.5855 277.154 83.1648 279.463 83.7441C281.484 84.3233 283.794 85.1923 286.103 86.0612C286.392 84.3233 286.103 82.2958 285.814 80.2683C285.237 78.2408 284.371 76.5029 283.216 74.7651C282.061 73.0272 280.618 71.2893 278.886 70.1307C278.02 69.5515 277.154 68.9722 276.287 68.3929C275.421 68.1032 274.267 67.5239 273.112 67.5239C271.957 67.2343 270.802 67.2343 269.647 66.9447C265.317 66.3654 260.698 65.7861 256.945 65.7861C253.192 65.7861 250.593 65.7861 250.593 65.7861C250.016 68.1032 250.305 70.1307 251.171 72.4479C252.037 74.4754 253.192 76.2133 254.924 77.6615C256.945 79.3994 259.543 80.558 261.853 80.8476Z" fill="white"/>
<path d="M268.777 88.6681C267.333 88.3785 266.467 88.3785 266.467 88.3785C265.023 91.8542 265.023 95.6196 266.756 98.8057C267.622 100.254 268.777 101.702 270.22 102.861C271.375 104.019 272.818 104.888 274.262 105.468C277.149 106.626 280.902 107.495 284.944 109.233C285.81 109.523 286.964 110.102 288.119 110.391C288.985 110.971 290.14 111.26 291.006 111.84C293.027 112.998 295.048 114.157 297.069 115.605C298.224 112.419 298.512 107.785 296.492 104.019C294.759 99.9643 292.161 96.4885 288.119 94.7507C284.078 93.0128 278.592 91.2749 274.262 90.1163C272.241 89.5371 270.22 88.9578 268.777 88.6681Z" fill="white"/>
<path d="M284.65 117.052C280.608 115.024 277.432 113.576 277.432 113.576C272.236 119.659 276.277 128.638 281.185 131.824C283.784 133.561 287.248 135.299 291.001 137.617C294.465 139.934 297.93 142.83 301.394 146.596C302.26 145.147 302.838 143.12 303.415 141.382C303.704 139.354 303.992 137.327 303.415 135.299C302.549 131.244 300.528 127.189 297.064 124.582C293.888 121.976 288.691 119.079 284.65 117.052Z" fill="white"/>
<path d="M111.256 120.3C110.256 120.3 109.376 120 108.616 119.4C107.856 118.8 107.476 117.86 107.476 116.58L107.536 115.92C107.976 111.8 108.496 107.52 109.096 103.08C109.736 98.6 110.276 95.16 110.716 92.76L106.036 94.08L105.316 94.2C104.556 94.2 103.956 93.9 103.516 93.3C103.076 92.7 102.856 92.02 102.856 91.26L102.916 90.72C102.996 89.96 103.236 89.34 103.636 88.86C104.036 88.38 104.796 87.9 105.916 87.42C107.076 86.94 108.796 86.42 111.076 85.86L113.596 85.26C114.516 85.06 115.276 84.96 115.876 84.96C117.036 84.96 117.896 85.26 118.456 85.86C119.056 86.46 119.356 87.3 119.356 88.38C119.356 88.86 119.296 89.38 119.176 89.94C118.536 93.06 117.316 101.94 115.516 116.58C115.196 119.06 113.776 120.3 111.256 120.3ZM137.415 120.3C133.495 120.3 130.455 119.02 128.295 116.46C126.175 113.9 125.115 110.24 125.115 105.48C125.115 101.44 125.735 97.88 126.975 94.8C128.255 91.68 130.015 89.26 132.255 87.54C134.535 85.82 137.175 84.96 140.175 84.96C144.095 84.96 147.115 86.24 149.235 88.8C151.395 91.36 152.475 95.02 152.475 99.78C152.475 103.82 151.835 107.4 150.555 110.52C149.315 113.6 147.555 116 145.275 117.72C143.035 119.44 140.415 120.3 137.415 120.3ZM138.015 113.58C140.175 113.58 141.875 112.38 143.115 109.98C144.355 107.58 144.975 104.32 144.975 100.2C144.975 97.44 144.515 95.34 143.595 93.9C142.675 92.42 141.335 91.68 139.575 91.68C137.415 91.68 135.715 92.9 134.475 95.34C133.235 97.74 132.615 101 132.615 105.12C132.615 107.88 133.055 109.98 133.935 111.42C134.855 112.86 136.215 113.58 138.015 113.58ZM169.993 120.3C166.073 120.3 163.033 119.02 160.873 116.46C158.753 113.9 157.693 110.24 157.693 105.48C157.693 101.44 158.313 97.88 159.553 94.8C160.833 91.68 162.593 89.26 164.833 87.54C167.113 85.82 169.753 84.96 172.753 84.96C176.673 84.96 179.693 86.24 181.813 88.8C183.973 91.36 185.053 95.02 185.053 99.78C185.053 103.82 184.413 107.4 183.133 110.52C181.893 113.6 180.133 116 177.853 117.72C175.613 119.44 172.993 120.3 169.993 120.3ZM170.593 113.58C172.753 113.58 174.453 112.38 175.693 109.98C176.933 107.58 177.553 104.32 177.553 100.2C177.553 97.44 177.093 95.34 176.173 93.9C175.253 92.42 173.913 91.68 172.153 91.68C169.993 91.68 168.293 92.9 167.053 95.34C165.813 97.74 165.193 101 165.193 105.12C165.193 107.88 165.633 109.98 166.513 111.42C167.433 112.86 168.793 113.58 170.593 113.58ZM216.671 95.7C216.671 98.02 216.011 100.16 214.691 102.12C213.411 104.08 211.491 105.66 208.931 106.86C206.411 108.06 203.351 108.7 199.751 108.78L199.451 111.24L206.831 111.18C207.351 111.18 207.751 111.36 208.031 111.72C208.351 112.04 208.511 112.44 208.511 112.92C208.511 113.52 208.311 114.06 207.911 114.54C207.511 114.98 206.971 115.18 206.291 115.14L199.031 115.08L198.851 116.7C198.611 119.1 197.311 120.3 194.951 120.3C192.631 120.3 191.471 119.28 191.471 117.24L191.591 115.08H189.671C189.151 115.08 188.751 114.94 188.471 114.66C188.191 114.34 188.051 113.96 188.051 113.52C188.051 112.96 188.251 112.44 188.651 111.96C189.051 111.48 189.571 111.24 190.211 111.24H192.071C192.271 110.04 192.411 109.22 192.491 108.78H190.271C189.751 108.78 189.351 108.64 189.071 108.36C188.831 108.08 188.711 107.72 188.711 107.28C188.711 106.68 188.951 106.12 189.431 105.6C189.911 105.08 190.511 104.82 191.231 104.82H193.151C193.231 104.3 193.391 103.32 193.631 101.88L194.771 95.22C194.891 94.5 195.131 92.98 195.491 90.66L194.411 91.08C194.171 91.2 193.931 91.26 193.691 91.26C193.171 91.26 192.751 91.08 192.431 90.72C192.111 90.36 191.951 89.9 191.951 89.34C191.951 88.3 192.551 87.42 193.751 86.7C194.791 86.06 196.111 85.56 197.711 85.2C199.311 84.8 200.971 84.6 202.691 84.6C207.411 84.6 210.911 85.6 213.191 87.6C215.511 89.6 216.671 92.3 216.671 95.7ZM209.351 95.94C209.351 93.94 208.851 92.44 207.851 91.44C206.891 90.4 205.211 89.8 202.811 89.64L202.211 93.42C202.131 93.7 202.071 94 202.031 94.32C201.991 94.6 201.951 94.86 201.911 95.1L200.771 101.76L200.351 104.64C203.431 104.2 205.691 103.22 207.131 101.7C208.611 100.18 209.351 98.26 209.351 95.94Z" fill="white"/>
<path d="M53.929 162V144.96H63.601V146.448H55.609V162H53.929ZM64.96 158.4C64.96 157.616 65.184 156.944 65.632 156.384C66.08 155.808 66.696 155.368 67.48 155.064C68.28 154.744 69.2 154.584 70.24 154.584C70.848 154.584 71.48 154.632 72.136 154.728C72.792 154.824 73.376 154.968 73.888 155.16V154.104C73.888 153.048 73.576 152.208 72.952 151.584C72.328 150.96 71.464 150.648 70.36 150.648C69.688 150.648 69.024 150.776 68.368 151.032C67.728 151.272 67.056 151.632 66.352 152.112L65.728 150.96C66.544 150.4 67.344 149.984 68.128 149.712C68.912 149.424 69.712 149.28 70.528 149.28C72.064 149.28 73.28 149.72 74.176 150.6C75.072 151.48 75.52 152.696 75.52 154.248V160.032C75.52 160.256 75.568 160.424 75.664 160.536C75.76 160.632 75.912 160.688 76.12 160.704V162C75.944 162.016 75.792 162.032 75.664 162.048C75.536 162.064 75.44 162.064 75.376 162.048C74.976 162.032 74.672 161.904 74.464 161.664C74.256 161.424 74.144 161.168 74.128 160.896L74.104 159.984C73.544 160.704 72.816 161.264 71.92 161.664C71.024 162.048 70.112 162.24 69.184 162.24C68.384 162.24 67.656 162.072 67 161.736C66.36 161.384 65.856 160.92 65.488 160.344C65.136 159.752 64.96 159.104 64.96 158.4ZM73.336 159.36C73.512 159.136 73.648 158.92 73.744 158.712C73.84 158.504 73.888 158.32 73.888 158.16V156.336C73.344 156.128 72.776 155.968 72.184 155.856C71.608 155.744 71.024 155.688 70.432 155.688C69.264 155.688 68.32 155.92 67.6 156.384C66.88 156.848 66.52 157.48 66.52 158.28C66.52 158.744 66.64 159.184 66.88 159.6C67.12 160 67.472 160.336 67.936 160.608C68.4 160.864 68.944 160.992 69.568 160.992C70.352 160.992 71.08 160.84 71.752 160.536C72.44 160.232 72.968 159.84 73.336 159.36ZM85.4301 162.24C84.3901 162.24 83.4541 161.968 82.6221 161.424C81.8061 160.88 81.1581 160.208 80.6781 159.408V167.112H79.0461V149.496H80.5101V151.92C81.0061 151.136 81.6701 150.504 82.5021 150.024C83.3341 149.528 84.2221 149.28 85.1661 149.28C86.0301 149.28 86.8221 149.464 87.5421 149.832C88.2621 150.184 88.8861 150.664 89.4141 151.272C89.9421 151.88 90.3501 152.576 90.6381 153.36C90.9421 154.128 91.0941 154.928 91.0941 155.76C91.0941 156.928 90.8541 158.008 90.3741 159C89.9101 159.976 89.2541 160.76 88.4061 161.352C87.5581 161.944 86.5661 162.24 85.4301 162.24ZM84.9741 160.8C85.6621 160.8 86.2781 160.664 86.8221 160.392C87.3661 160.104 87.8301 159.72 88.2141 159.24C88.6141 158.76 88.9181 158.224 89.1261 157.632C89.3341 157.024 89.4381 156.4 89.4381 155.76C89.4381 155.088 89.3181 154.448 89.0781 153.84C88.8541 153.232 88.5261 152.696 88.0941 152.232C87.6621 151.768 87.1661 151.4 86.6061 151.128C86.0461 150.856 85.4381 150.72 84.7821 150.72C84.3661 150.72 83.9341 150.8 83.4861 150.96C83.0381 151.12 82.6061 151.352 82.1901 151.656C81.7901 151.944 81.4541 152.272 81.1821 152.64C80.9101 153.008 80.7421 153.4 80.6781 153.816V157.656C80.9341 158.248 81.2781 158.784 81.7101 159.264C82.1421 159.728 82.6381 160.104 83.1981 160.392C83.7741 160.664 84.3661 160.8 84.9741 160.8ZM92.8506 158.4C92.8506 157.616 93.0746 156.944 93.5226 156.384C93.9706 155.808 94.5866 155.368 95.3706 155.064C96.1706 154.744 97.0906 154.584 98.1306 154.584C98.7386 154.584 99.3706 154.632 100.027 154.728C100.683 154.824 101.267 154.968 101.779 155.16V154.104C101.779 153.048 101.467 152.208 100.843 151.584C100.219 150.96 99.3546 150.648 98.2506 150.648C97.5786 150.648 96.9146 150.776 96.2586 151.032C95.6186 151.272 94.9466 151.632 94.2426 152.112L93.6186 150.96C94.4346 150.4 95.2346 149.984 96.0186 149.712C96.8026 149.424 97.6026 149.28 98.4186 149.28C99.9546 149.28 101.171 149.72 102.067 150.6C102.963 151.48 103.411 152.696 103.411 154.248V160.032C103.411 160.256 103.459 160.424 103.555 160.536C103.651 160.632 103.803 160.688 104.011 160.704V162C103.835 162.016 103.683 162.032 103.555 162.048C103.427 162.064 103.331 162.064 103.267 162.048C102.867 162.032 102.563 161.904 102.355 161.664C102.147 161.424 102.035 161.168 102.019 160.896L101.995 159.984C101.435 160.704 100.707 161.264 99.8106 161.664C98.9146 162.048 98.0026 162.24 97.0746 162.24C96.2746 162.24 95.5466 162.072 94.8906 161.736C94.2506 161.384 93.7466 160.92 93.3786 160.344C93.0266 159.752 92.8506 159.104 92.8506 158.4ZM101.227 159.36C101.403 159.136 101.539 158.92 101.635 158.712C101.731 158.504 101.779 158.32 101.779 158.16V156.336C101.235 156.128 100.667 155.968 100.075 155.856C99.4986 155.744 98.9146 155.688 98.3226 155.688C97.1546 155.688 96.2106 155.92 95.4906 156.384C94.7706 156.848 94.4106 157.48 94.4106 158.28C94.4106 158.744 94.5306 159.184 94.7706 159.6C95.0106 160 95.3626 160.336 95.8266 160.608C96.2906 160.864 96.8346 160.992 97.4586 160.992C98.2426 160.992 98.9706 160.84 99.6426 160.536C100.331 160.232 100.859 159.84 101.227 159.36ZM106.913 162V149.496H108.545V154.872H115.697V149.496H117.329V162H115.697V156.336H108.545V162H106.913ZM124.049 162V150.96H119.585V149.496H130.145V150.96H125.681V162H124.049ZM132.342 162V149.52H133.974V159.792L141.582 149.496H143.046V162H141.414V151.896L133.926 162H132.342ZM153 162.24C151.96 162.24 151.024 161.968 150.192 161.424C149.376 160.88 148.728 160.208 148.248 159.408V167.112H146.616V149.496H148.08V151.92C148.576 151.136 149.24 150.504 150.072 150.024C150.904 149.528 151.792 149.28 152.736 149.28C153.6 149.28 154.392 149.464 155.112 149.832C155.832 150.184 156.456 150.664 156.984 151.272C157.512 151.88 157.92 152.576 158.208 153.36C158.512 154.128 158.664 154.928 158.664 155.76C158.664 156.928 158.424 158.008 157.944 159C157.48 159.976 156.824 160.76 155.976 161.352C155.128 161.944 154.136 162.24 153 162.24ZM152.544 160.8C153.232 160.8 153.848 160.664 154.392 160.392C154.936 160.104 155.4 159.72 155.784 159.24C156.184 158.76 156.488 158.224 156.696 157.632C156.904 157.024 157.008 156.4 157.008 155.76C157.008 155.088 156.888 154.448 156.648 153.84C156.424 153.232 156.096 152.696 155.664 152.232C155.232 151.768 154.736 151.4 154.176 151.128C153.616 150.856 153.008 150.72 152.352 150.72C151.936 150.72 151.504 150.8 151.056 150.96C150.608 151.12 150.176 151.352 149.76 151.656C149.36 151.944 149.024 152.272 148.752 152.64C148.48 153.008 148.312 153.4 148.248 153.816V157.656C148.504 158.248 148.848 158.784 149.28 159.264C149.712 159.728 150.208 160.104 150.768 160.392C151.344 160.664 151.936 160.8 152.544 160.8ZM166.757 162.24C165.861 162.24 165.029 162.072 164.261 161.736C163.509 161.384 162.853 160.912 162.293 160.32C161.749 159.712 161.325 159.024 161.021 158.256C160.717 157.472 160.565 156.648 160.565 155.784C160.565 154.888 160.717 154.056 161.021 153.288C161.325 152.504 161.757 151.816 162.317 151.224C162.877 150.616 163.533 150.144 164.285 149.808C165.053 149.456 165.885 149.28 166.781 149.28C167.677 149.28 168.501 149.456 169.253 149.808C170.005 150.144 170.661 150.616 171.221 151.224C171.781 151.816 172.213 152.504 172.517 153.288C172.821 154.056 172.973 154.888 172.973 155.784C172.973 156.648 172.821 157.472 172.517 158.256C172.213 159.024 171.781 159.712 171.221 160.32C170.677 160.912 170.021 161.384 169.253 161.736C168.501 162.072 167.669 162.24 166.757 162.24ZM162.221 155.808C162.221 156.736 162.421 157.584 162.821 158.352C163.237 159.104 163.789 159.704 164.477 160.152C165.165 160.584 165.925 160.8 166.757 160.8C167.589 160.8 168.349 160.576 169.037 160.128C169.725 159.68 170.277 159.072 170.693 158.304C171.109 157.52 171.317 156.672 171.317 155.76C171.317 154.832 171.109 153.984 170.693 153.216C170.277 152.448 169.725 151.84 169.037 151.392C168.349 150.944 167.589 150.72 166.757 150.72C165.925 150.72 165.165 150.952 164.477 151.416C163.805 151.88 163.261 152.496 162.845 153.264C162.429 154.016 162.221 154.864 162.221 155.808ZM175.678 162V149.496H181.918C182.622 149.496 183.214 149.648 183.694 149.952C184.174 150.24 184.534 150.616 184.774 151.08C185.03 151.544 185.158 152.04 185.158 152.568C185.158 153.24 184.998 153.848 184.678 154.392C184.358 154.92 183.894 155.32 183.286 155.592C184.006 155.8 184.59 156.176 185.038 156.72C185.486 157.264 185.71 157.92 185.71 158.688C185.71 159.36 185.542 159.944 185.206 160.44C184.886 160.936 184.438 161.32 183.862 161.592C183.302 161.864 182.654 162 181.918 162H175.678ZM177.238 160.824H181.87C182.286 160.824 182.662 160.72 182.998 160.512C183.35 160.288 183.622 160 183.814 159.648C184.022 159.296 184.126 158.928 184.126 158.544C184.126 158.128 184.03 157.752 183.838 157.416C183.646 157.064 183.39 156.784 183.07 156.576C182.75 156.368 182.382 156.264 181.966 156.264H177.238V160.824ZM177.238 155.136H181.486C181.902 155.136 182.27 155.024 182.59 154.8C182.91 154.576 183.158 154.288 183.334 153.936C183.51 153.584 183.598 153.216 183.598 152.832C183.598 152.256 183.406 151.752 183.022 151.32C182.654 150.888 182.174 150.672 181.582 150.672H177.238V155.136ZM187.538 158.4C187.538 157.616 187.762 156.944 188.21 156.384C188.658 155.808 189.274 155.368 190.058 155.064C190.858 154.744 191.778 154.584 192.818 154.584C193.426 154.584 194.058 154.632 194.714 154.728C195.37 154.824 195.954 154.968 196.466 155.16V154.104C196.466 153.048 196.154 152.208 195.53 151.584C194.906 150.96 194.042 150.648 192.938 150.648C192.266 150.648 191.602 150.776 190.946 151.032C190.306 151.272 189.634 151.632 188.93 152.112L188.306 150.96C189.122 150.4 189.922 149.984 190.706 149.712C191.49 149.424 192.29 149.28 193.106 149.28C194.642 149.28 195.858 149.72 196.754 150.6C197.65 151.48 198.098 152.696 198.098 154.248V160.032C198.098 160.256 198.146 160.424 198.242 160.536C198.338 160.632 198.49 160.688 198.698 160.704V162C198.522 162.016 198.37 162.032 198.242 162.048C198.114 162.064 198.018 162.064 197.954 162.048C197.554 162.032 197.25 161.904 197.042 161.664C196.834 161.424 196.722 161.168 196.706 160.896L196.682 159.984C196.122 160.704 195.394 161.264 194.498 161.664C193.602 162.048 192.69 162.24 191.762 162.24C190.962 162.24 190.234 162.072 189.578 161.736C188.938 161.384 188.434 160.92 188.066 160.344C187.714 159.752 187.538 159.104 187.538 158.4ZM195.914 159.36C196.09 159.136 196.226 158.92 196.322 158.712C196.418 158.504 196.466 158.32 196.466 158.16V156.336C195.922 156.128 195.354 155.968 194.762 155.856C194.186 155.744 193.602 155.688 193.01 155.688C191.842 155.688 190.898 155.92 190.178 156.384C189.458 156.848 189.098 157.48 189.098 158.28C189.098 158.744 189.218 159.184 189.458 159.6C189.698 160 190.05 160.336 190.514 160.608C190.978 160.864 191.522 160.992 192.146 160.992C192.93 160.992 193.658 160.84 194.33 160.536C195.018 160.232 195.546 159.84 195.914 159.36ZM201.6 162V149.496H203.232V154.872H210.384V149.496H212.016V162H210.384V156.336H203.232V162H201.6ZM215.592 162V149.496H217.224V154.872H224.376V149.496H226.008V162H224.376V156.336H217.224V162H215.592ZM229.585 162V149.496H231.217V153.912H234.049C235.473 153.912 236.545 154.28 237.265 155.016C238.001 155.736 238.369 156.688 238.369 157.872C238.369 158.64 238.209 159.336 237.889 159.96C237.569 160.584 237.097 161.08 236.473 161.448C235.865 161.816 235.097 162 234.169 162H229.585ZM231.217 160.704H233.953C234.609 160.704 235.137 160.576 235.537 160.32C235.937 160.048 236.233 159.704 236.425 159.288C236.617 158.856 236.713 158.392 236.713 157.896C236.713 157.416 236.625 156.976 236.449 156.576C236.289 156.16 236.001 155.832 235.585 155.592C235.185 155.336 234.625 155.208 233.905 155.208H231.217V160.704ZM240.649 162V149.52H242.281V162H240.649ZM245.85 162V149.52H247.482V159.792L255.09 149.496H256.554V162H254.922V151.896L247.434 162H245.85ZM251.226 147.912C250.138 147.912 249.298 147.656 248.706 147.144C248.114 146.632 247.818 145.984 247.818 145.2H249.018C249.018 145.68 249.194 146.08 249.546 146.4C249.914 146.72 250.474 146.88 251.226 146.88C251.962 146.88 252.498 146.728 252.834 146.424C253.186 146.12 253.386 145.712 253.434 145.2H254.61C254.61 145.984 254.314 146.632 253.722 147.144C253.13 147.656 252.298 147.912 251.226 147.912ZM60.1783 190V177.496H70.2343V190H68.6023V178.96H61.8103V190H60.1783ZM80.227 190.24C79.187 190.24 78.251 189.968 77.419 189.424C76.603 188.88 75.955 188.208 75.475 187.408V195.112H73.843V177.496H75.307V179.92C75.803 179.136 76.467 178.504 77.299 178.024C78.131 177.528 79.019 177.28 79.963 177.28C80.827 177.28 81.619 177.464 82.339 177.832C83.059 178.184 83.683 178.664 84.211 179.272C84.739 179.88 85.147 180.576 85.435 181.36C85.739 182.128 85.891 182.928 85.891 183.76C85.891 184.928 85.651 186.008 85.171 187C84.707 187.976 84.051 188.76 83.203 189.352C82.355 189.944 81.363 190.24 80.227 190.24ZM79.771 188.8C80.459 188.8 81.075 188.664 81.619 188.392C82.163 188.104 82.627 187.72 83.011 187.24C83.411 186.76 83.715 186.224 83.923 185.632C84.131 185.024 84.235 184.4 84.235 183.76C84.235 183.088 84.115 182.448 83.875 181.84C83.651 181.232 83.323 180.696 82.891 180.232C82.459 179.768 81.963 179.4 81.403 179.128C80.843 178.856 80.235 178.72 79.579 178.72C79.163 178.72 78.731 178.8 78.283 178.96C77.835 179.12 77.403 179.352 76.987 179.656C76.587 179.944 76.251 180.272 75.979 180.64C75.707 181.008 75.539 181.4 75.475 181.816V185.656C75.731 186.248 76.075 186.784 76.507 187.264C76.939 187.728 77.435 188.104 77.995 188.392C78.571 188.664 79.163 188.8 79.771 188.8ZM88.6315 190V177.52H90.2635V187.792L97.8715 177.496H99.3355V190H97.7035V179.896L90.2155 190H88.6315ZM106.529 190.144C105.377 190.144 104.393 189.928 103.577 189.496C102.761 189.048 102.137 188.424 101.705 187.624L103.049 187.024C103.353 187.584 103.793 188.024 104.369 188.344C104.945 188.648 105.641 188.8 106.457 188.8C107.433 188.8 108.209 188.576 108.785 188.128C109.377 187.68 109.673 187.08 109.673 186.328C109.673 185.64 109.441 185.088 108.977 184.672C108.513 184.256 107.873 184.04 107.057 184.024H105.785V182.896H107.153C107.505 182.896 107.825 182.8 108.113 182.608C108.401 182.416 108.625 182.16 108.785 181.84C108.945 181.52 109.025 181.16 109.025 180.76C109.025 180.136 108.801 179.632 108.353 179.248C107.921 178.864 107.281 178.672 106.433 178.672C105.729 178.672 105.137 178.816 104.657 179.104C104.193 179.376 103.817 179.784 103.529 180.328L102.281 179.656C102.649 178.92 103.193 178.344 103.913 177.928C104.649 177.512 105.505 177.304 106.481 177.304C107.281 177.304 107.977 177.44 108.569 177.712C109.177 177.968 109.649 178.344 109.985 178.84C110.337 179.32 110.513 179.904 110.513 180.592C110.513 181.184 110.369 181.736 110.081 182.248C109.793 182.744 109.393 183.12 108.881 183.376C109.617 183.6 110.185 183.992 110.585 184.552C111.001 185.112 111.209 185.768 111.209 186.52C111.209 187.272 111.009 187.92 110.609 188.464C110.209 189.008 109.657 189.424 108.953 189.712C108.249 190 107.441 190.144 106.529 190.144ZM123.686 190.144C122.534 190.144 121.55 189.928 120.734 189.496C119.918 189.048 119.294 188.424 118.862 187.624L120.206 187.024C120.51 187.584 120.95 188.024 121.526 188.344C122.102 188.648 122.798 188.8 123.614 188.8C124.59 188.8 125.366 188.576 125.942 188.128C126.534 187.68 126.83 187.08 126.83 186.328C126.83 185.64 126.598 185.088 126.134 184.672C125.67 184.256 125.03 184.04 124.214 184.024H122.942V182.896H124.31C124.662 182.896 124.982 182.8 125.27 182.608C125.558 182.416 125.782 182.16 125.942 181.84C126.102 181.52 126.182 181.16 126.182 180.76C126.182 180.136 125.958 179.632 125.51 179.248C125.078 178.864 124.438 178.672 123.59 178.672C122.886 178.672 122.294 178.816 121.814 179.104C121.35 179.376 120.974 179.784 120.686 180.328L119.438 179.656C119.806 178.92 120.35 178.344 121.07 177.928C121.806 177.512 122.662 177.304 123.638 177.304C124.438 177.304 125.134 177.44 125.726 177.712C126.334 177.968 126.806 178.344 127.142 178.84C127.494 179.32 127.67 179.904 127.67 180.592C127.67 181.184 127.526 181.736 127.238 182.248C126.95 182.744 126.55 183.12 126.038 183.376C126.774 183.6 127.342 183.992 127.742 184.552C128.158 185.112 128.366 185.768 128.366 186.52C128.366 187.272 128.166 187.92 127.766 188.464C127.366 189.008 126.814 189.424 126.11 189.712C125.406 190 124.598 190.144 123.686 190.144ZM130.093 186.4C130.093 185.616 130.317 184.944 130.765 184.384C131.213 183.808 131.829 183.368 132.613 183.064C133.413 182.744 134.333 182.584 135.373 182.584C135.981 182.584 136.613 182.632 137.269 182.728C137.925 182.824 138.509 182.968 139.021 183.16V182.104C139.021 181.048 138.709 180.208 138.085 179.584C137.461 178.96 136.597 178.648 135.493 178.648C134.821 178.648 134.157 178.776 133.501 179.032C132.861 179.272 132.189 179.632 131.485 180.112L130.861 178.96C131.677 178.4 132.477 177.984 133.261 177.712C134.045 177.424 134.845 177.28 135.661 177.28C137.197 177.28 138.413 177.72 139.309 178.6C140.205 179.48 140.653 180.696 140.653 182.248V188.032C140.653 188.256 140.701 188.424 140.797 188.536C140.893 188.632 141.045 188.688 141.253 188.704V190C141.077 190.016 140.925 190.032 140.797 190.048C140.669 190.064 140.573 190.064 140.509 190.048C140.109 190.032 139.805 189.904 139.597 189.664C139.389 189.424 139.277 189.168 139.261 188.896L139.237 187.984C138.677 188.704 137.949 189.264 137.053 189.664C136.157 190.048 135.245 190.24 134.317 190.24C133.517 190.24 132.789 190.072 132.133 189.736C131.493 189.384 130.989 188.92 130.621 188.344C130.269 187.752 130.093 187.104 130.093 186.4ZM138.469 187.36C138.645 187.136 138.781 186.92 138.877 186.712C138.973 186.504 139.021 186.32 139.021 186.16V184.336C138.477 184.128 137.909 183.968 137.317 183.856C136.741 183.744 136.157 183.688 135.565 183.688C134.397 183.688 133.453 183.92 132.733 184.384C132.013 184.848 131.653 185.48 131.653 186.28C131.653 186.744 131.773 187.184 132.013 187.6C132.253 188 132.605 188.336 133.069 188.608C133.533 188.864 134.077 188.992 134.701 188.992C135.485 188.992 136.213 188.84 136.885 188.536C137.573 188.232 138.101 187.84 138.469 187.36ZM153.92 190.144C152.768 190.144 151.784 189.928 150.968 189.496C150.152 189.048 149.528 188.424 149.096 187.624L150.44 187.024C150.744 187.584 151.184 188.024 151.76 188.344C152.336 188.648 153.032 188.8 153.848 188.8C154.824 188.8 155.6 188.576 156.176 188.128C156.768 187.68 157.064 187.08 157.064 186.328C157.064 185.64 156.832 185.088 156.368 184.672C155.904 184.256 155.264 184.04 154.448 184.024H153.176V182.896H154.544C154.896 182.896 155.216 182.8 155.504 182.608C155.792 182.416 156.016 182.16 156.176 181.84C156.336 181.52 156.416 181.16 156.416 180.76C156.416 180.136 156.192 179.632 155.744 179.248C155.312 178.864 154.672 178.672 153.824 178.672C153.12 178.672 152.528 178.816 152.048 179.104C151.584 179.376 151.208 179.784 150.92 180.328L149.672 179.656C150.04 178.92 150.584 178.344 151.304 177.928C152.04 177.512 152.896 177.304 153.872 177.304C154.672 177.304 155.368 177.44 155.96 177.712C156.568 177.968 157.04 178.344 157.376 178.84C157.728 179.32 157.904 179.904 157.904 180.592C157.904 181.184 157.76 181.736 157.472 182.248C157.184 182.744 156.784 183.12 156.272 183.376C157.008 183.6 157.576 183.992 157.976 184.552C158.392 185.112 158.6 185.768 158.6 186.52C158.6 187.272 158.4 187.92 158 188.464C157.6 189.008 157.048 189.424 156.344 189.712C155.64 190 154.832 190.144 153.92 190.144ZM160.327 186.4C160.327 185.616 160.551 184.944 160.999 184.384C161.447 183.808 162.063 183.368 162.847 183.064C163.647 182.744 164.567 182.584 165.607 182.584C166.215 182.584 166.847 182.632 167.503 182.728C168.159 182.824 168.743 182.968 169.255 183.16V182.104C169.255 181.048 168.943 180.208 168.319 179.584C167.695 178.96 166.831 178.648 165.727 178.648C165.055 178.648 164.391 178.776 163.735 179.032C163.095 179.272 162.423 179.632 161.719 180.112L161.095 178.96C161.911 178.4 162.711 177.984 163.495 177.712C164.279 177.424 165.079 177.28 165.895 177.28C167.431 177.28 168.647 177.72 169.543 178.6C170.439 179.48 170.887 180.696 170.887 182.248V188.032C170.887 188.256 170.935 188.424 171.031 188.536C171.127 188.632 171.279 188.688 171.487 188.704V190C171.311 190.016 171.159 190.032 171.031 190.048C170.903 190.064 170.807 190.064 170.743 190.048C170.343 190.032 170.039 189.904 169.831 189.664C169.623 189.424 169.511 189.168 169.495 188.896L169.471 187.984C168.911 188.704 168.183 189.264 167.287 189.664C166.391 190.048 165.479 190.24 164.551 190.24C163.751 190.24 163.023 190.072 162.367 189.736C161.727 189.384 161.223 188.92 160.855 188.344C160.503 187.752 160.327 187.104 160.327 186.4ZM168.703 187.36C168.879 187.136 169.015 186.92 169.111 186.712C169.207 186.504 169.255 186.32 169.255 186.16V184.336C168.711 184.128 168.143 183.968 167.551 183.856C166.975 183.744 166.391 183.688 165.799 183.688C164.631 183.688 163.687 183.92 162.967 184.384C162.247 184.848 161.887 185.48 161.887 186.28C161.887 186.744 162.007 187.184 162.247 187.6C162.487 188 162.839 188.336 163.303 188.608C163.767 188.864 164.311 188.992 164.935 188.992C165.719 188.992 166.447 188.84 167.119 188.536C167.807 188.232 168.335 187.84 168.703 187.36ZM174.389 190V177.496H181.853V178.96H176.021V190H174.389ZM190.524 190.24C189.484 190.24 188.548 189.968 187.716 189.424C186.9 188.88 186.252 188.208 185.772 187.408V195.112H184.14V177.496H185.604V179.92C186.1 179.136 186.764 178.504 187.596 178.024C188.428 177.528 189.316 177.28 190.26 177.28C191.124 177.28 191.916 177.464 192.636 177.832C193.356 178.184 193.98 178.664 194.508 179.272C195.036 179.88 195.444 180.576 195.732 181.36C196.036 182.128 196.188 182.928 196.188 183.76C196.188 184.928 195.948 186.008 195.468 187C195.004 187.976 194.348 188.76 193.5 189.352C192.652 189.944 191.66 190.24 190.524 190.24ZM190.068 188.8C190.756 188.8 191.372 188.664 191.916 188.392C192.46 188.104 192.924 187.72 193.308 187.24C193.708 186.76 194.012 186.224 194.22 185.632C194.428 185.024 194.532 184.4 194.532 183.76C194.532 183.088 194.412 182.448 194.172 181.84C193.948 181.232 193.62 180.696 193.188 180.232C192.756 179.768 192.26 179.4 191.7 179.128C191.14 178.856 190.532 178.72 189.876 178.72C189.46 178.72 189.028 178.8 188.58 178.96C188.132 179.12 187.7 179.352 187.284 179.656C186.884 179.944 186.548 180.272 186.276 180.64C186.004 181.008 185.836 181.4 185.772 181.816V185.656C186.028 186.248 186.372 186.784 186.804 187.264C187.236 187.728 187.732 188.104 188.292 188.392C188.868 188.664 189.46 188.8 190.068 188.8ZM199.898 195.232C199.626 195.232 199.346 195.184 199.058 195.088C198.786 195.008 198.506 194.888 198.218 194.728L198.818 193.576C198.994 193.672 199.154 193.752 199.298 193.816C199.458 193.88 199.626 193.912 199.802 193.912C200.218 193.912 200.61 193.704 200.978 193.288C201.346 192.872 201.698 192.264 202.034 191.464L202.658 189.904L197.09 177.496H198.818L203.402 188.32L207.626 177.496H209.258L203.306 191.968C202.986 192.72 202.65 193.336 202.298 193.816C201.946 194.296 201.57 194.648 201.17 194.872C200.77 195.112 200.346 195.232 199.898 195.232ZM215.162 190.144C214.01 190.144 213.026 189.928 212.21 189.496C211.394 189.048 210.77 188.424 210.338 187.624L211.682 187.024C211.986 187.584 212.426 188.024 213.002 188.344C213.578 188.648 214.274 188.8 215.09 188.8C216.066 188.8 216.842 188.576 217.418 188.128C218.01 187.68 218.306 187.08 218.306 186.328C218.306 185.64 218.074 185.088 217.61 184.672C217.146 184.256 216.506 184.04 215.69 184.024H214.418V182.896H215.786C216.138 182.896 216.458 182.8 216.746 182.608C217.034 182.416 217.258 182.16 217.418 181.84C217.578 181.52 217.658 181.16 217.658 180.76C217.658 180.136 217.434 179.632 216.986 179.248C216.554 178.864 215.914 178.672 215.066 178.672C214.362 178.672 213.77 178.816 213.29 179.104C212.826 179.376 212.45 179.784 212.162 180.328L210.914 179.656C211.282 178.92 211.826 178.344 212.546 177.928C213.282 177.512 214.138 177.304 215.114 177.304C215.914 177.304 216.61 177.44 217.202 177.712C217.81 177.968 218.282 178.344 218.618 178.84C218.97 179.32 219.146 179.904 219.146 180.592C219.146 181.184 219.002 181.736 218.714 182.248C218.426 182.744 218.026 183.12 217.514 183.376C218.25 183.6 218.818 183.992 219.218 184.552C219.634 185.112 219.842 185.768 219.842 186.52C219.842 187.272 219.642 187.92 219.242 188.464C218.842 189.008 218.29 189.424 217.586 189.712C216.882 190 216.074 190.144 215.162 190.144ZM222.553 190V177.496H224.185V182.848H226.057L230.257 177.496H232.129L227.353 183.568L232.729 190H230.809L226.057 184.36H224.185V190H222.553ZM236.414 195.232C236.142 195.232 235.862 195.184 235.574 195.088C235.302 195.008 235.022 194.888 234.734 194.728L235.334 193.576C235.51 193.672 235.67 193.752 235.814 193.816C235.974 193.88 236.142 193.912 236.318 193.912C236.734 193.912 237.126 193.704 237.494 193.288C237.862 192.872 238.214 192.264 238.55 191.464L239.174 189.904L233.606 177.496H235.334L239.918 188.32L244.142 177.496H245.774L239.822 191.968C239.502 192.72 239.166 193.336 238.814 193.816C238.462 194.296 238.086 194.648 237.686 194.872C237.286 195.112 236.862 195.232 236.414 195.232ZM77.9088 218V205.496H87.9648V218H86.3328V206.96H79.5408V218H77.9088ZM96.9734 218.24C96.0774 218.24 95.2454 218.072 94.4774 217.736C93.7094 217.384 93.0454 216.912 92.4854 216.32C91.9254 215.712 91.4854 215.016 91.1654 214.232C90.8614 213.448 90.7094 212.608 90.7094 211.712C90.7094 210.544 90.9734 209.472 91.5014 208.496C92.0454 207.52 92.7894 206.744 93.7334 206.168C94.6774 205.576 95.7494 205.28 96.9494 205.28C98.1814 205.28 99.2534 205.576 100.165 206.168C101.093 206.76 101.821 207.544 102.349 208.52C102.877 209.48 103.141 210.536 103.141 211.688C103.141 211.816 103.141 211.944 103.141 212.072C103.141 212.184 103.133 212.272 103.117 212.336H92.4134C92.4934 213.232 92.7414 214.032 93.1574 214.736C93.5894 215.424 94.1414 215.976 94.8134 216.392C95.5014 216.792 96.2454 216.992 97.0454 216.992C97.8614 216.992 98.6294 216.784 99.3494 216.368C100.085 215.952 100.597 215.408 100.885 214.736L102.301 215.12C102.045 215.712 101.653 216.248 101.125 216.728C100.597 217.208 99.9734 217.584 99.2534 217.856C98.5494 218.112 97.7894 218.24 96.9734 218.24ZM92.3654 211.16H101.605C101.541 210.248 101.293 209.448 100.861 208.76C100.445 208.072 99.8934 207.536 99.2054 207.152C98.5334 206.752 97.7894 206.552 96.9734 206.552C96.1574 206.552 95.4134 206.752 94.7414 207.152C94.0694 207.536 93.5174 208.08 93.0854 208.784C92.6694 209.472 92.4294 210.264 92.3654 211.16ZM112.043 218.24C111.003 218.24 110.067 217.968 109.235 217.424C108.419 216.88 107.771 216.208 107.291 215.408V223.112H105.659V205.496H107.123V207.92C107.619 207.136 108.283 206.504 109.115 206.024C109.947 205.528 110.835 205.28 111.779 205.28C112.643 205.28 113.435 205.464 114.155 205.832C114.875 206.184 115.499 206.664 116.027 207.272C116.555 207.88 116.963 208.576 117.251 209.36C117.555 210.128 117.707 210.928 117.707 211.76C117.707 212.928 117.467 214.008 116.987 215C116.523 215.976 115.867 216.76 115.019 217.352C114.171 217.944 113.179 218.24 112.043 218.24ZM111.587 216.8C112.275 216.8 112.891 216.664 113.435 216.392C113.979 216.104 114.443 215.72 114.827 215.24C115.227 214.76 115.531 214.224 115.739 213.632C115.947 213.024 116.051 212.4 116.051 211.76C116.051 211.088 115.931 210.448 115.691 209.84C115.467 209.232 115.139 208.696 114.707 208.232C114.275 207.768 113.779 207.4 113.219 207.128C112.659 206.856 112.051 206.72 111.395 206.72C110.979 206.72 110.547 206.8 110.099 206.96C109.651 207.12 109.219 207.352 108.803 207.656C108.403 207.944 108.067 208.272 107.795 208.64C107.523 209.008 107.355 209.4 107.291 209.816V213.656C107.547 214.248 107.891 214.784 108.323 215.264C108.755 215.728 109.251 216.104 109.811 216.392C110.387 216.664 110.979 216.8 111.587 216.8ZM120.448 218V205.496H126.688C127.392 205.496 127.984 205.648 128.464 205.952C128.944 206.24 129.304 206.616 129.544 207.08C129.8 207.544 129.928 208.04 129.928 208.568C129.928 209.24 129.768 209.848 129.448 210.392C129.128 210.92 128.664 211.32 128.056 211.592C128.776 211.8 129.36 212.176 129.808 212.72C130.256 213.264 130.48 213.92 130.48 214.688C130.48 215.36 130.312 215.944 129.976 216.44C129.656 216.936 129.208 217.32 128.632 217.592C128.072 217.864 127.424 218 126.688 218H120.448ZM122.008 216.824H126.64C127.056 216.824 127.432 216.72 127.768 216.512C128.12 216.288 128.392 216 128.584 215.648C128.792 215.296 128.896 214.928 128.896 214.544C128.896 214.128 128.8 213.752 128.608 213.416C128.416 213.064 128.16 212.784 127.84 212.576C127.52 212.368 127.152 212.264 126.736 212.264H122.008V216.824ZM122.008 211.136H126.256C126.672 211.136 127.04 211.024 127.36 210.8C127.68 210.576 127.928 210.288 128.104 209.936C128.28 209.584 128.368 209.216 128.368 208.832C128.368 208.256 128.176 207.752 127.792 207.32C127.424 206.888 126.944 206.672 126.352 206.672H122.008V211.136ZM138.644 218.24C137.748 218.24 136.916 218.072 136.148 217.736C135.396 217.384 134.74 216.912 134.18 216.32C133.636 215.712 133.212 215.024 132.908 214.256C132.604 213.472 132.452 212.648 132.452 211.784C132.452 210.888 132.604 210.056 132.908 209.288C133.212 208.504 133.644 207.816 134.204 207.224C134.764 206.616 135.42 206.144 136.172 205.808C136.94 205.456 137.772 205.28 138.668 205.28C139.564 205.28 140.388 205.456 141.14 205.808C141.892 206.144 142.548 206.616 143.108 207.224C143.668 207.816 144.1 208.504 144.404 209.288C144.708 210.056 144.86 210.888 144.86 211.784C144.86 212.648 144.708 213.472 144.404 214.256C144.1 215.024 143.668 215.712 143.108 216.32C142.564 216.912 141.908 217.384 141.14 217.736C140.388 218.072 139.556 218.24 138.644 218.24ZM134.108 211.808C134.108 212.736 134.308 213.584 134.708 214.352C135.124 215.104 135.676 215.704 136.364 216.152C137.052 216.584 137.812 216.8 138.644 216.8C139.476 216.8 140.236 216.576 140.924 216.128C141.612 215.68 142.164 215.072 142.58 214.304C142.996 213.52 143.204 212.672 143.204 211.76C143.204 210.832 142.996 209.984 142.58 209.216C142.164 208.448 141.612 207.84 140.924 207.392C140.236 206.944 139.476 206.72 138.644 206.72C137.812 206.72 137.052 206.952 136.364 207.416C135.692 207.88 135.148 208.496 134.732 209.264C134.316 210.016 134.108 210.864 134.108 211.808ZM147.565 218V205.496H155.029V206.96H149.197V218H147.565ZM162.644 218.24C161.748 218.24 160.916 218.072 160.148 217.736C159.396 217.384 158.74 216.912 158.18 216.32C157.636 215.712 157.212 215.024 156.908 214.256C156.604 213.472 156.452 212.648 156.452 211.784C156.452 210.888 156.604 210.056 156.908 209.288C157.212 208.504 157.644 207.816 158.204 207.224C158.764 206.616 159.42 206.144 160.172 205.808C160.94 205.456 161.772 205.28 162.668 205.28C163.564 205.28 164.388 205.456 165.14 205.808C165.892 206.144 166.548 206.616 167.108 207.224C167.668 207.816 168.1 208.504 168.404 209.288C168.708 210.056 168.86 210.888 168.86 211.784C168.86 212.648 168.708 213.472 168.404 214.256C168.1 215.024 167.668 215.712 167.108 216.32C166.564 216.912 165.908 217.384 165.14 217.736C164.388 218.072 163.556 218.24 162.644 218.24ZM158.108 211.808C158.108 212.736 158.308 213.584 158.708 214.352C159.124 215.104 159.676 215.704 160.364 216.152C161.052 216.584 161.812 216.8 162.644 216.8C163.476 216.8 164.236 216.576 164.924 216.128C165.612 215.68 166.164 215.072 166.58 214.304C166.996 213.52 167.204 212.672 167.204 211.76C167.204 210.832 166.996 209.984 166.58 209.216C166.164 208.448 165.612 207.84 164.924 207.392C164.236 206.944 163.476 206.72 162.644 206.72C161.812 206.72 161.052 206.952 160.364 207.416C159.692 207.88 159.148 208.496 158.732 209.264C158.316 210.016 158.108 210.864 158.108 211.808ZM184.858 218V212.768C184.346 213.008 183.81 213.192 183.25 213.32C182.69 213.432 182.09 213.488 181.45 213.488C180.074 213.488 179.034 213.136 178.33 212.432C177.642 211.728 177.298 210.648 177.298 209.192V205.496H178.93V208.976C178.93 210.096 179.154 210.912 179.602 211.424C180.066 211.936 180.802 212.192 181.81 212.192C182.37 212.192 182.93 212.128 183.49 212C184.05 211.872 184.506 211.704 184.858 211.496V205.496H186.49V218H184.858ZM195.481 218.24C194.585 218.24 193.753 218.072 192.985 217.736C192.217 217.384 191.553 216.912 190.993 216.32C190.433 215.712 189.993 215.016 189.673 214.232C189.369 213.448 189.217 212.608 189.217 211.712C189.217 210.544 189.481 209.472 190.009 208.496C190.553 207.52 191.297 206.744 192.241 206.168C193.185 205.576 194.257 205.28 195.457 205.28C196.689 205.28 197.761 205.576 198.673 206.168C199.601 206.76 200.329 207.544 200.857 208.52C201.385 209.48 201.649 210.536 201.649 211.688C201.649 211.816 201.649 211.944 201.649 212.072C201.649 212.184 201.641 212.272 201.625 212.336H190.921C191.001 213.232 191.249 214.032 191.665 214.736C192.097 215.424 192.649 215.976 193.321 216.392C194.009 216.792 194.753 216.992 195.553 216.992C196.369 216.992 197.137 216.784 197.857 216.368C198.593 215.952 199.105 215.408 199.393 214.736L200.809 215.12C200.553 215.712 200.161 216.248 199.633 216.728C199.105 217.208 198.481 217.584 197.761 217.856C197.057 218.112 196.297 218.24 195.481 218.24ZM190.873 211.16H200.113C200.049 210.248 199.801 209.448 199.369 208.76C198.953 208.072 198.401 207.536 197.713 207.152C197.041 206.752 196.297 206.552 195.481 206.552C194.665 206.552 193.921 206.752 193.249 207.152C192.577 207.536 192.025 208.08 191.593 208.784C191.177 209.472 190.937 210.264 190.873 211.16ZM204.143 218V205.496H205.775V210.848H207.647L211.847 205.496H213.719L208.943 211.568L214.319 218H212.399L207.647 212.36H205.775V218H204.143ZM215.581 214.4C215.581 213.616 215.805 212.944 216.253 212.384C216.701 211.808 217.317 211.368 218.101 211.064C218.901 210.744 219.821 210.584 220.861 210.584C221.469 210.584 222.101 210.632 222.757 210.728C223.413 210.824 223.997 210.968 224.509 211.16V210.104C224.509 209.048 224.197 208.208 223.573 207.584C222.949 206.96 222.085 206.648 220.981 206.648C220.309 206.648 219.645 206.776 218.989 207.032C218.349 207.272 217.677 207.632 216.973 208.112L216.349 206.96C217.165 206.4 217.965 205.984 218.749 205.712C219.533 205.424 220.333 205.28 221.149 205.28C222.685 205.28 223.901 205.72 224.797 206.6C225.693 207.48 226.141 208.696 226.141 210.248V216.032C226.141 216.256 226.189 216.424 226.285 216.536C226.381 216.632 226.533 216.688 226.741 216.704V218C226.565 218.016 226.413 218.032 226.285 218.048C226.157 218.064 226.061 218.064 225.997 218.048C225.597 218.032 225.293 217.904 225.085 217.664C224.877 217.424 224.765 217.168 224.749 216.896L224.725 215.984C224.165 216.704 223.437 217.264 222.541 217.664C221.645 218.048 220.733 218.24 219.805 218.24C219.005 218.24 218.277 218.072 217.621 217.736C216.981 217.384 216.477 216.92 216.109 216.344C215.757 215.752 215.581 215.104 215.581 214.4ZM223.957 215.36C224.133 215.136 224.269 214.92 224.365 214.712C224.461 214.504 224.509 214.32 224.509 214.16V212.336C223.965 212.128 223.397 211.968 222.805 211.856C222.229 211.744 221.645 211.688 221.053 211.688C219.885 211.688 218.941 211.92 218.221 212.384C217.501 212.848 217.141 213.48 217.141 214.28C217.141 214.744 217.261 215.184 217.501 215.6C217.741 216 218.093 216.336 218.557 216.608C219.021 216.864 219.565 216.992 220.189 216.992C220.973 216.992 221.701 216.84 222.373 216.536C223.061 216.232 223.589 215.84 223.957 215.36Z" fill="white"/>
</svg>
